<?xml version="1.0" encoding="utf-8"?>
<!-- Generator: Adobe Illustrator 26.0.1, SVG Export Plug-In . SVG Version: 6.00 Build 0)  -->
<svg version="1.1" id="Calque_1" xmlns="http://www.w3.org/2000/svg" xmlns:xlink="http://www.w3.org/1999/xlink" x="0px" y="0px"
	 viewBox="0 0 32 32" style="enable-background:new 0 0 32 32;" xml:space="preserve">
<style type="text/css">
	.st0{fill:#FFBE0B;}
	.st1{fill:#FF006E;}
</style>
<g>
	<rect class="st0" width="32" height="32"/>
</g>
<g>
	<path class="st1" d="M32,8.3c-3.2-1.6-6.5-2.6-9.6-3.1c-1.9-1.9-4.2-3.7-7-5.2H4.9c4.2,1.2,7.9,2.9,10.9,4.9
		C12.1,5.3,9,6.6,6.7,8.9C3.5,12.1,1.3,18,3.8,22.7c1.6,3,4.8,5.1,8.9,5.8c1,0.2,1.9,0.3,2.9,0.3c3.3,0,6.4-1,8.5-2.9
		c3.8-3.4,3.7-8.6,3.6-10.1c-0.1-1.9-0.7-3.7-1.5-5.5c1.9,0.6,3.9,1.5,5.9,2.6V8.3z M21.4,22.8c-1.8,1.6-4.9,2.3-8,1.7
		c-2.8-0.5-5.1-1.9-6-3.8c-1.4-2.7,0-6.9,2.2-9.1c1.9-1.9,4.9-2.9,8.4-2.9c0.8,0,1.6,0,2.5,0.1c1.9,2.2,3,4.6,3.2,7.1
		C23.7,16.8,23.8,20.6,21.4,22.8z"/>
</g>
</svg>
