<svg id="Calque_1" data-name="Calque 1" xmlns="http://www.w3.org/2000/svg" width="104.96mm" height="63.94mm" viewBox="0 0 297.51 181.26"><defs><style>.cls-1{fill:#ccffc4;}.cls-2{fill:#f55240;}</style></defs><polygon class="cls-1" points="130.53 0 120.81 10.02 107.75 2.06 99.81 12.99 85.56 6.39 79.63 18.09 64.38 13.1 60.77 25.39 44.77 22.27 43.85 34.91 27.46 34.01 29.64 46.62 13.45 48.29 19.09 60.31 3.94 64.83 13.13 75.52 0 82.83 12.29 91.48 2.04 101.15 16.64 107.23 9.77 118.59 25.7 121.94 22.21 134.26 38.6 135.07 38.19 147.74 54.44 146.31 56.73 158.91 72.43 155.54 77.1 167.8 91.96 162.73 98.72 174.43 112.54 167.87 121.15 178.85 133.76 171 144.01 181.12 155.27 172.12 166.99 181.25 176.7 171.24 189.76 179.2 197.71 168.27 211.95 174.86 217.88 163.16 233.13 168.16 236.74 155.86 252.75 158.98 253.66 146.34 270.05 147.25 267.87 134.64 284.06 132.97 278.42 120.95 293.57 116.43 284.39 105.74 297.51 98.42 285.22 89.78 295.47 80.11 280.88 74.03 287.75 62.67 271.82 59.31 275.31 47 258.91 46.18 259.32 33.52 243.08 34.95 240.78 22.34 225.09 25.72 220.41 13.46 205.55 18.53 198.79 6.83 184.97 13.38 176.36 2.4 163.75 10.26 153.5 0.14 142.24 9.13 130.53 0"/><path class="cls-2" d="M59,61.05c5.06.24,8.74.36,11,.36a12.81,12.81,0,0,0-.26,1.68c0,.58-.1,1.31-.14,2.19l-15.52-.82c.24-2.57.42-5,.54-7.24s.19-4.67.22-7.26l15.52.82-.19,3.61-10.81-.57-.1,1.92c.64,0,1.58.11,2.84.17,2.11.11,4.31.19,6.57.22l-.18,3.44c-2.26-.2-4.44-.35-6.56-.46C60.67,59,59.72,59,59.08,59Z" transform="translate(0 0)"/><path class="cls-2" d="M80,60.21,83.85,66l-5-.26a18.71,18.71,0,0,0-1.28-2.29l-.42-.68-.29.37a3.83,3.83,0,0,0-.32.42c-.28.36-.55.71-.8,1.06s-.46.66-.62.93l-5-.26,4.48-5.37-3.75-5.53,4.93.26a18.67,18.67,0,0,0,1,1.79l.6,1,.61-.83c.6-.81,1-1.42,1.26-1.82l4.93.26Z" transform="translate(0 0)"/><path class="cls-2" d="M96.25,56.28a5,5,0,0,1,1.52,2.09,7.09,7.09,0,0,1-.3,5.61A5.34,5.34,0,0,1,95.73,66a3.78,3.78,0,0,1-2.43.68,5.3,5.3,0,0,1-2.63-.79,3.92,3.92,0,0,1-1.54-2.09c0,.76-.08,2-.11,3.66s-.07,2.77-.1,3.44L84.4,70.7q.31-3.7.53-7.76t.29-7.78l3.83.2.45,2.53a4,4,0,0,1,1.79-2A5,5,0,0,1,94,55.42,3.87,3.87,0,0,1,96.25,56.28ZM93,62.52a1.9,1.9,0,0,0,.69-1.45,2.42,2.42,0,0,0-.47-1.69,2,2,0,0,0-1.49-.72,2.28,2.28,0,0,0-1.68.45,2.33,2.33,0,0,0-.65,1.73A1.84,1.84,0,0,0,89.64,62a2.14,2.14,0,0,0,.83.73,2.65,2.65,0,0,0,1,.26A2.12,2.12,0,0,0,93,62.52Z" transform="translate(0 0)"/><path class="cls-2" d="M110.13,62.39l-6.51-.34a2.45,2.45,0,0,0,.72,1.47,2.6,2.6,0,0,0,1.75.64,3.89,3.89,0,0,0,1.6-.24,3,3,0,0,0,1.23-.87,30.12,30.12,0,0,0,3.48,1.6A4.55,4.55,0,0,1,110,66.76a9.3,9.3,0,0,1-4.28.61c-2.27-.12-3.91-.73-4.94-1.83a6,6,0,0,1,.41-8.18c1.14-1,2.84-1.41,5.12-1.29a8.59,8.59,0,0,1,3.5.86,5.38,5.38,0,0,1,2.2,2,4.94,4.94,0,0,1,.65,2.81,5.2,5.2,0,0,1-.08.77Zm-5.33-3a2.07,2.07,0,0,0-1,1l4.71.25a2.15,2.15,0,0,0-.72-1.07,2.35,2.35,0,0,0-1.38-.46A3.14,3.14,0,0,0,104.8,59.39Zm2.72-4L105,55.21l.64-3.07,3.7.2Z" transform="translate(0 0)"/><path class="cls-2" d="M118.84,59.89a3.87,3.87,0,0,1,4.33-2.8,6.6,6.6,0,0,1,1.11.14l-.87,4.44a7.34,7.34,0,0,0-2.33-.67,2,2,0,0,0-1.71.6,2.8,2.8,0,0,0-.64,1.79v0l-.08,1.32c-.05.95-.08,2-.09,3.16l-4.77-.25c.2-1.91.35-3.72.44-5.42s.13-3.53.13-5.48c.87.08,1.54.14,2,.16s1.17,0,2,0Z" transform="translate(0 0)"/><path class="cls-2" d="M125.67,68.21c.2-2.13.34-3.9.42-5.3.08-1.66.13-3.53.13-5.6l4.79.25q-.31,3-.45,5.58c-.08,1.47-.12,3.24-.14,5.32Zm1.11-12.67A2.48,2.48,0,0,1,127,52.3a3,3,0,0,1,3.71.2,2.21,2.21,0,0,1,.55,1.65,2.18,2.18,0,0,1-.7,1.58,2.5,2.5,0,0,1-1.89.52A2.54,2.54,0,0,1,126.78,55.54Z" transform="translate(0 0)"/><path class="cls-2" d="M147.74,69.37c.2-1.74.34-3.54.44-5.4a2.1,2.1,0,0,0-.37-1.44,1.54,1.54,0,0,0-1.16-.57,1.47,1.47,0,0,0-1.2.54,2.66,2.66,0,0,0-.58,1.71v0c-.13,2.36-.18,4-.17,5L140.21,69c.18-2,.32-3.76.4-5.41a2.17,2.17,0,0,0-.35-1.42,1.4,1.4,0,0,0-1.06-.58,1.47,1.47,0,0,0-1.2.53,2.86,2.86,0,0,0-.64,1.58q-.12,1.51-.15,2.16c-.05.9-.07,1.89-.08,3l-4.77-.25c.21-1.92.36-3.72.44-5.43s.14-3.53.13-5.48c.88.09,1.55.14,2,.17s1.16,0,2,0l.44,3A4.44,4.44,0,0,1,139,58.55a3.64,3.64,0,0,1,2.34-.65,3.61,3.61,0,0,1,3.61,3.29A4.55,4.55,0,0,1,146.6,59a3.9,3.9,0,0,1,2.5-.71,3.46,3.46,0,0,1,2.75,1.35A5,5,0,0,1,152.7,63l-.18,3.32c-.07,1.5-.12,2.59-.13,3.27Z" transform="translate(0 0)"/><path class="cls-2" d="M165,65.27l-6.51-.34a2.38,2.38,0,0,0,.71,1.47A2.63,2.63,0,0,0,161,67a3.69,3.69,0,0,0,1.59-.25,2.83,2.83,0,0,0,1.23-.86,31.92,31.92,0,0,0,3.48,1.6,4.61,4.61,0,0,1-2.36,2.11,9.35,9.35,0,0,1-4.29.61,7,7,0,0,1-4.94-1.83,5.49,5.49,0,0,1-1.41-4.21,5.36,5.36,0,0,1,1.83-4c1.13-1,2.84-1.42,5.11-1.3a8.39,8.39,0,0,1,3.5.87,5.19,5.19,0,0,1,2.2,2,5.34,5.34,0,0,1,.57,3.58Zm-5.33-3a2.09,2.09,0,0,0-1,1l4.72.25a2.13,2.13,0,0,0-.73-1.07,2.3,2.3,0,0,0-1.38-.47A3.21,3.21,0,0,0,159.69,62.27Z" transform="translate(0 0)"/><path class="cls-2" d="M176.46,70.88c.18-2,.32-3.76.4-5.41a2.17,2.17,0,0,0-.35-1.42,1.38,1.38,0,0,0-2.21,0,3,3,0,0,0-.63,1.58q-.12,1.52-.15,2.16c-.05.9-.07,1.9-.08,3l-4.77-.25q.32-2.86.45-5.43c.08-1.7.13-3.53.12-5.48.88.09,1.55.14,2,.17s1.16,0,2,0l.42,3a4.46,4.46,0,0,1,1.56-2.29,3.55,3.55,0,0,1,2.32-.65,3.89,3.89,0,0,1,2,.64,3.32,3.32,0,0,1,1.25,1.5,4.4,4.4,0,0,1,.35,2l-.15,2.87c-.1,1.77-.14,3.19-.13,4.26Z" transform="translate(0 0)"/><path class="cls-2" d="M192,64.34,188.64,64l-.13,2.12a2.63,2.63,0,0,0,.38,1.71,2,2,0,0,0,1.63.7,6.51,6.51,0,0,0,.89,0,12.13,12.13,0,0,0-.16,1.49c0,.24,0,.79-.05,1.64a13.54,13.54,0,0,1-1.49.12c-.4,0-.92,0-1.56,0a4.17,4.17,0,0,1-3.24-1.3,4.68,4.68,0,0,1-.81-3.2l.2-3.37c-.63,0-1.28,0-2,0l.18-3.53a2.46,2.46,0,0,0,1.79-.57,2.54,2.54,0,0,0,.94-1.53l5.44.28a9,9,0,0,1-2.38,2.12l3.86.2Z" transform="translate(0 0)"/><path class="cls-2" d="M205.77,69.09a2.26,2.26,0,0,0,.11,1,1,1,0,0,0,.62.43l-.18,1.87c-.43,0-.8.07-1.11.08s-.74,0-1.25,0a2.71,2.71,0,0,1-2.24-.89,3.26,3.26,0,0,1-.46-2l0-.5a4.83,4.83,0,0,1-1.82,2.35,4.72,4.72,0,0,1-2.86.65,4.85,4.85,0,0,1-3-1,2.85,2.85,0,0,1-.88-2.43,2.54,2.54,0,0,1,1-2,5.4,5.4,0,0,1,2.71-.88,26.18,26.18,0,0,0-2.93-2,8.46,8.46,0,0,1,2.85-2.17,8.13,8.13,0,0,1,3.78-.59,6.68,6.68,0,0,1,4.49,1.57,5.21,5.21,0,0,1,1.28,4.16Zm-5.69-.57a2.5,2.5,0,0,0,1.29-1.07l0-.51a5,5,0,0,1-1.08.31c-.39.07-.86.12-1.41.18l-.72.08c-.76.11-1.15.34-1.16.7s.31.6,1,.63A4.71,4.71,0,0,0,200.08,68.52Zm-1.53-3.76a4.1,4.1,0,0,0-1.45.95,25.34,25.34,0,0,1,3,0,2.24,2.24,0,0,0,1.05-.13.54.54,0,0,0,.32-.44.49.49,0,0,0-.27-.43,1.83,1.83,0,0,0-.83-.21A4.57,4.57,0,0,0,198.55,64.76Z" transform="translate(0 0)"/><path class="cls-2" d="M217,65.65c-1.22-.14-2.34-.26-3.35-.35l-.13,2.11a2.69,2.69,0,0,0,.38,1.71,2,2,0,0,0,1.64.7,4.25,4.25,0,0,0,.88,0,14.45,14.45,0,0,0-.16,1.49c0,.24,0,.79,0,1.64a11.45,11.45,0,0,1-1.49.12c-.4,0-.92,0-1.56,0A4.16,4.16,0,0,1,210,71.7a4.73,4.73,0,0,1-.8-3.2l.19-3.37c-.62,0-1.28,0-2,0l.19-3.54a2.46,2.46,0,0,0,1.79-.57,2.64,2.64,0,0,0,.94-1.53l5.43.29a9.29,9.29,0,0,1-2.37,2.11l3.85.21Z" transform="translate(0 0)"/><path class="cls-2" d="M218.2,73.06c.21-2.14.35-3.9.42-5.3.09-1.67.13-3.53.13-5.6l4.8.25q-.31,3-.46,5.58c-.07,1.47-.12,3.24-.14,5.32Zm1.12-12.68a2.2,2.2,0,0,1-.53-1.65,2.26,2.26,0,0,1,.7-1.58,2.43,2.43,0,0,1,1.9-.54,2.46,2.46,0,0,1,1.8.74,2.25,2.25,0,0,1,.56,1.64,2.2,2.2,0,0,1-.71,1.59,2.49,2.49,0,0,1-1.89.52A2.46,2.46,0,0,1,219.32,60.38Z" transform="translate(0 0)"/><path class="cls-2" d="M226.27,72.11a5.48,5.48,0,0,1-1.39-4.2,5.38,5.38,0,0,1,1.82-4q1.7-1.48,5.11-1.3a8.81,8.81,0,0,1,3.8,1,5.18,5.18,0,0,1,2.18,2.14,5.48,5.48,0,0,1,.59,2.88,5.35,5.35,0,0,1-1.92,4A7.47,7.47,0,0,1,231.21,74Q227.81,73.77,226.27,72.11ZM233.44,70a2.21,2.21,0,0,0,.73-1.63,2.16,2.16,0,0,0-.56-1.64,2.68,2.68,0,0,0-1.9-.73,2.53,2.53,0,0,0-1.93.52,2.26,2.26,0,0,0-.69,1.59,2.32,2.32,0,0,0,.52,1.69,2.52,2.52,0,0,0,1.86.71A2.67,2.67,0,0,0,233.44,70Z" transform="translate(0 0)"/><path class="cls-2" d="M247.28,74.59c.18-2,.32-3.76.4-5.41a2.13,2.13,0,0,0-.35-1.42,1.38,1.38,0,0,0-1.06-.58,1.4,1.4,0,0,0-1.15.53,2.88,2.88,0,0,0-.62,1.58c-.08,1-.14,1.73-.16,2.16-.05.91-.07,1.9-.07,3l-4.78-.25q.31-2.87.45-5.43c.09-1.7.13-3.53.12-5.48.88.09,1.55.15,2,.17s1.16,0,2,.05l.42,3a4.47,4.47,0,0,1,1.57-2.29,3.58,3.58,0,0,1,2.31-.65,4,4,0,0,1,2,.64,3.4,3.4,0,0,1,1.26,1.5,4.53,4.53,0,0,1,.34,2l-.15,2.87c-.09,1.77-.14,3.19-.13,4.26Z" transform="translate(0 0)"/><path class="cls-2" d="M55.55,80.91l6.44.34-.09,1.66-8.43-.44.51-9.7,2,.11Z" transform="translate(0 0)"/><path class="cls-2" d="M63.06,79.24a3.84,3.84,0,0,1,4.29-3.68,3.18,3.18,0,0,1,3.26,2.56l.12-2.21,1.94.1-.39,7.44-1.81-.09a17.15,17.15,0,0,1,0-1.93l0-.48a3.44,3.44,0,0,1-3.62,2.38A3.8,3.8,0,0,1,63.06,79.24Zm7.47.4c.08-1.53-1-2.44-2.74-2.54a2.32,2.32,0,0,0-2.74,2.25,2.37,2.37,0,0,0,2.49,2.52C69.31,82,70.46,81.06,70.53,79.64Z" transform="translate(0 0)"/><path class="cls-2" d="M78.72,83.79l-1.84-.1-3.11-7.62,2.14.11,2,5.48,2.65-5.24,2.12.11Z" transform="translate(0 0)"/><path class="cls-2" d="M85.9,76.7l-.39,7.45-2-.11L84,76.6Zm.25-1.55L83.88,75l.09-1.7,2.26.11Z" transform="translate(0 0)"/><path class="cls-2" d="M89.08,81.85a1.92,1.92,0,0,0,2,1.26c1.14.06,1.46-.26,1.48-.79s-.54-.79-1.77-1c-1.68-.38-3.19-.89-3.11-2.39s1.62-2.17,3.59-2.06c2.22.11,3.25,1.22,3.18,2.72l-1.72-.09c-.13-.75-.54-1.08-1.53-1.14s-1.5.24-1.53.76.65.81,2,1.1c1.53.41,3,.82,2.87,2.39s-1.42,2.16-3.53,2c-3.16-.16-3.86-2.15-3.71-2.85Z" transform="translate(0 0)"/><path class="cls-2" d="M95.65,86.4a3.25,3.25,0,0,0,.75-1.52l-.81-.21L95.68,83l2.29.12-.06,1.23a2.75,2.75,0,0,1-2,2.63Z" transform="translate(0 0)"/><path class="cls-2" d="M105.36,82l-.17,3.15-2-.11.51-9.69,6,.32c2.17.11,3.85,1.2,3.72,3.54s-1.89,3.12-4.06,3Zm.25-4.84-.17,3.25,4.19.22a1.63,1.63,0,1,0,.17-3.25Z" transform="translate(0 0)"/><path class="cls-2" d="M115.4,75.24l1.95.1-.27,5.13a3.52,3.52,0,0,1,3.58-2.11c1.83.09,3.16,1.09,3,3l-.24,4.76-2-.1.21-4.09c.07-1.21-.49-1.87-2-2a2.8,2.8,0,0,0-2.7,1.38l-.23,4.41-2-.1Z" transform="translate(0 0)"/><path class="cls-2" d="M125.07,82.51c.13-2.52,2.13-3.81,5-3.66s4.65,1.64,4.51,4.15-2.12,3.78-4.92,3.64S124.94,85,125.07,82.51Zm7.49.39a2.45,2.45,0,0,0-2.62-2.57,2.48,2.48,0,0,0-2.9,2.28c-.08,1.53,1.06,2.45,2.65,2.53S132.48,84.43,132.56,82.9Z" transform="translate(0 0)"/><path class="cls-2" d="M137.47,79.4l.11-2,1.95.1-.11,2,1.92.1-.08,1.51-1.92-.1L139,87l-1.95-.1.31-5.93-1.91-.1.08-1.52Z" transform="translate(0 0)"/><path class="cls-2" d="M141.93,83.39c.14-2.51,2.14-3.81,5-3.66s4.64,1.64,4.51,4.16-2.12,3.78-4.92,3.63S141.8,85.91,141.93,83.39Zm7.49.39a2.78,2.78,0,0,0-5.51-.28C143.83,85,145,85.94,146.56,86S149.34,85.31,149.42,83.78Z" transform="translate(0 0)"/><path class="cls-2" d="M154.27,85.27a1.94,1.94,0,0,0,2,1.26c1.14.06,1.46-.27,1.48-.79s-.54-.8-1.77-1.06c-1.68-.37-3.19-.89-3.11-2.38s1.62-2.17,3.59-2.07c2.22.12,3.24,1.22,3.18,2.72l-1.72-.09c-.13-.74-.55-1.08-1.53-1.13s-1.5.24-1.53.76.65.8,2,1.1c1.53.41,3,.81,2.87,2.39-.08,1.43-1.42,2.16-3.53,2-3.16-.17-3.86-2.16-3.72-2.85Z" transform="translate(0 0)"/><path class="cls-2" d="M161.78,77.67l1.94.1-.26,5.13A3.51,3.51,0,0,1,167,80.79c1.82.09,3.15,1.09,3.05,3l-.25,4.77-2-.11.22-4.09c.06-1.21-.49-1.87-2-2a2.82,2.82,0,0,0-2.7,1.38l-.23,4.42-2-.11Z" transform="translate(0 0)"/><path class="cls-2" d="M171.44,84.94c.14-2.52,2.14-3.81,5-3.66s4.64,1.64,4.51,4.15-2.12,3.78-4.92,3.64S171.31,87.45,171.44,84.94Zm7.49.39a2.45,2.45,0,0,0-2.61-2.57c-1.57-.08-2.82.74-2.9,2.28s1.06,2.45,2.65,2.53S178.85,86.86,178.93,85.33Z" transform="translate(0 0)"/><path class="cls-2" d="M184.23,86.91l-.29,5.4-1.94-.1.55-10.44,1.85.09v2.22a3.24,3.24,0,0,1,3.6-2.2,3.9,3.9,0,1,1-.41,7.79A3.43,3.43,0,0,1,184.23,86.91Zm5.53-1a2.32,2.32,0,0,0-2.49-2.53c-1.6-.08-2.89.72-3,2.25s1,2.44,2.72,2.53A2.36,2.36,0,0,0,189.76,85.88Z" transform="translate(0 0)"/><path class="cls-2" d="M54.84,94.4l-.32,6.15-2-.11.5-9.69,2,.1,4.66,8.24,5.51-7.7,2,.1-.51,9.69-2-.1L65,94.92l-4.29,6-2.23-.12Z" transform="translate(0 0)"/><path class="cls-2" d="M68.57,97.56a3.83,3.83,0,0,1,4.29-3.68,3.18,3.18,0,0,1,3.26,2.56l.12-2.22,2,.1-.39,7.45-1.82-.1a17,17,0,0,1,0-1.92l0-.48a3.46,3.46,0,0,1-3.62,2.38A3.82,3.82,0,0,1,68.57,97.56ZM76,98c.08-1.53-1-2.44-2.73-2.53a2.32,2.32,0,0,0-2.75,2.24,2.37,2.37,0,0,0,2.5,2.52C74.82,100.27,76,99.37,76,98Z" transform="translate(0 0)"/><path class="cls-2" d="M82,94.52,81.63,102l-1.95-.11.39-7.44ZM82.27,93,80,92.85l.09-1.7,2.26.11Z" transform="translate(0 0)"/><path class="cls-2" d="M90.4,100.92l4.72.25-.08,1.5-8-.42.08-1.5c3.7-1.43,5.91-1.85,6-3.06,0-.71-.55-1.22-2-1.29-1.26-.07-2.12.41-2.2,1.25L87,97.55c0-1.73,1.64-2.86,4.13-2.73s4,1.17,4,2.73c-.06,1.19-1,1.86-3.05,2.7Z" transform="translate(0 0)"/><path class="cls-2" d="M96.62,99c.14-2.51,2.14-3.81,5-3.66s4.64,1.64,4.51,4.16-2.12,3.78-4.92,3.63S96.49,101.56,96.62,99Zm7.49.39a2.78,2.78,0,0,0-5.51-.28c-.08,1.52,1.09,2.44,2.65,2.52A2.44,2.44,0,0,0,104.11,99.43Z" transform="translate(0 0)"/><path class="cls-2" d="M110.8,102l4.72.25-.08,1.5-8-.42.08-1.5c3.7-1.43,5.91-1.85,6-3.07,0-.7-.56-1.21-2-1.29-1.26-.06-2.12.42-2.2,1.26l-1.88-.1c0-1.73,1.63-2.86,4.12-2.73s4,1.17,4,2.73c-.07,1.18-1,1.86-3.06,2.69Z" transform="translate(0 0)"/><path class="cls-2" d="M116.8,96.34l4.06.22-.39,7.44-2-.1.31-5.78L116.72,98Z" transform="translate(0 0)"/><path class="cls-2" d="M53.66,116.86l6.44.34L60,118.86l-8.44-.44.51-9.7,2,.11Z" transform="translate(0 0)"/><path class="cls-2" d="M62.77,111.54l2.17,5.59,2.79-5.33,2.08.11-5.7,10.17-2-.11,1.81-3-3.19-7.56Z" transform="translate(0 0)"/><path class="cls-2" d="M74.66,119.81c-2.77-.15-4.73-1.59-4.59-4.13s2.22-3.81,5-3.66c2.62.13,4.14,1.37,4.22,3.31l-1.78-.09A2.55,2.55,0,0,0,75,113.51c-1.56-.08-2.86.67-2.95,2.27s1.12,2.45,2.7,2.53a2.46,2.46,0,0,0,2.7-1.48l1.78.09C79,118.88,77.29,119.94,74.66,119.81Z" transform="translate(0 0)"/><path class="cls-2" d="M89.31,117.92c-.33,1.51-1.8,2.56-4.33,2.43-2.86-.15-4.77-1.68-4.64-4.14s2.11-3.81,5-3.66,4.34,1.6,4.06,4.48l-7.1-.37c.09,1.16,1,2.1,2.72,2.19,1.23.06,2.14-.37,2.41-1Zm-6.86-2.39,5.07.26c-.06-1-.91-1.68-2.36-1.76A2.52,2.52,0,0,0,82.45,115.53Zm4-6.69L89,109l-2.88,2.22-1.85-.1Z" transform="translate(0 0)"/><path class="cls-2" d="M99.47,118.45c-.34,1.51-1.8,2.56-4.34,2.43-2.86-.15-4.76-1.68-4.63-4.13s2.11-3.81,5-3.66,4.35,1.59,4.06,4.48l-7.1-.38c.09,1.16,1,2.1,2.73,2.19,1.23.06,2.14-.37,2.41-1Zm-6.86-2.39,5.06.27c0-1-.9-1.69-2.36-1.76A2.49,2.49,0,0,0,92.61,116.06Z" transform="translate(0 0)"/><path class="cls-2" d="M111.13,111.82l2,.1-.32,6c-.11,2.05-1.7,3.73-4.51,3.58-2.19-.12-4.24-1.33-4.19-3.69l1.88.1a2.27,2.27,0,0,0,2.4,1.87,2.07,2.07,0,0,0,2.44-2.1Z" transform="translate(0 0)"/><path class="cls-2" d="M114.5,118a3.84,3.84,0,0,1,4.29-3.68,3.18,3.18,0,0,1,3.26,2.56l.12-2.22,1.94.1-.39,7.45-1.81-.1a17,17,0,0,1,0-1.92l0-.48a3.45,3.45,0,0,1-3.62,2.38A3.82,3.82,0,0,1,114.5,118Zm7.47.39c.08-1.53-1-2.44-2.73-2.53a2.32,2.32,0,0,0-2.75,2.24,2.36,2.36,0,0,0,2.5,2.52C120.75,120.71,121.9,119.8,122,118.38Z" transform="translate(0 0)"/><path class="cls-2" d="M129.92,122.7c-2.77-.14-4.73-1.58-4.59-4.13s2.22-3.8,5-3.66,4.15,1.38,4.23,3.32l-1.78-.1a2.55,2.55,0,0,0-2.52-1.72c-1.56-.08-2.86.66-3,2.26s1.12,2.45,2.69,2.53a2.44,2.44,0,0,0,2.71-1.48l1.78.1C134.23,121.77,132.55,122.84,129.92,122.7Z" transform="translate(0 0)"/><path class="cls-2" d="M135.6,119.09a3.84,3.84,0,0,1,4.19-3.68,3.25,3.25,0,0,1,3.37,2.56l0-.37.15-1.84,1.89.1-.55,10.44-1.94-.1.28-5.4a3.45,3.45,0,0,1-3.63,2.4A3.82,3.82,0,0,1,135.6,119.09Zm7.48.4c.08-1.53-1-2.46-2.74-2.55a2.34,2.34,0,0,0-2.75,2.26,2.38,2.38,0,0,0,2.5,2.52C141.86,121.81,143,120.92,143.08,119.49Z" transform="translate(0 0)"/><path class="cls-2" d="M153.59,123.76l.14-2.54a3.53,3.53,0,0,1-3.49,2.55c-1.63-.09-3.29-.87-3.16-3.29l.24-4.51,1.94.1-.21,4.18c-.08,1.45.63,1.91,1.87,2a3,3,0,0,0,2.85-1.76l.21-4.15,2,.1-.39,7.44Z" transform="translate(0 0)"/><path class="cls-2" d="M166.11,121.94c-.33,1.51-1.8,2.56-4.33,2.43-2.86-.15-4.77-1.67-4.64-4.13s2.11-3.81,5-3.66,4.35,1.59,4.07,4.48l-7.1-.37c.09,1.16,1,2.09,2.72,2.18a2.33,2.33,0,0,0,2.41-1Zm-6.86-2.39,5.06.27c-.05-1-.9-1.69-2.35-1.76A2.5,2.5,0,0,0,159.25,119.55Z" transform="translate(0 0)"/><path class="cls-2" d="M169.09,122.1a1.94,1.94,0,0,0,2,1.26c1.14.06,1.45-.27,1.48-.8s-.54-.79-1.78-1c-1.67-.37-3.18-.89-3.1-2.39s1.62-2.16,3.59-2.06c2.22.11,3.24,1.22,3.18,2.72l-1.72-.09c-.13-.74-.55-1.08-1.54-1.13s-1.49.23-1.52.76.65.8,2,1.09c1.53.41,3,.82,2.87,2.39s-1.42,2.17-3.54,2.06c-3.16-.17-3.85-2.16-3.71-2.86Z" transform="translate(0 0)"/><path class="cls-2" d="M181.9,122.09l-.16,3.15-2-.11.5-9.69,6,.32c2.17.11,3.84,1.2,3.72,3.54s-1.89,3.12-4.06,3Zm.26-4.84L182,120.5l4.19.22a1.63,1.63,0,1,0,.17-3.25Z" transform="translate(0 0)"/><path class="cls-2" d="M193.6,118.39l-.11,2.24a3.11,3.11,0,0,1,3-2.25l-.09,1.77a3.13,3.13,0,0,0-2.95,1.59l-.22,4.1-1.94-.1.39-7.45Z" transform="translate(0 0)"/><path class="cls-2" d="M206.07,124c-.33,1.52-1.8,2.57-4.33,2.44-2.86-.15-4.76-1.68-4.63-4.14s2.1-3.81,5-3.66,4.35,1.6,4.06,4.48l-7.1-.37c.09,1.16,1,2.1,2.72,2.19a2.37,2.37,0,0,0,2.42-1Zm-6.85-2.38,5.06.26c-.06-1-.91-1.68-2.36-1.76A2.5,2.5,0,0,0,199.22,121.65Zm4-6.69,2.58.14-2.88,2.22-1.86-.1Z" transform="translate(0 0)"/><path class="cls-2" d="M211.8,126.81l-1.84-.09-3.12-7.63,2.15.11,2,5.48,2.65-5.24,2.12.11Z" transform="translate(0 0)"/><path class="cls-2" d="M225,125c-.33,1.51-1.8,2.56-4.33,2.43-2.86-.15-4.76-1.68-4.63-4.14s2.1-3.81,5-3.65,4.35,1.59,4.06,4.47l-7.1-.37c.09,1.16,1,2.1,2.72,2.19a2.37,2.37,0,0,0,2.42-1Zm-6.85-2.39,5.06.26c-.06-1-.91-1.68-2.36-1.76A2.5,2.5,0,0,0,218.14,122.64Z" transform="translate(0 0)"/><path class="cls-2" d="M228.68,120.23l-.11,2.23a3.11,3.11,0,0,1,3-2.24l-.09,1.77a3.13,3.13,0,0,0-3,1.58l-.22,4.11-1.94-.1.39-7.45Z" transform="translate(0 0)"/><path class="cls-2" d="M234.18,120.52l.11-2,2,.11-.11,2,1.92.1-.08,1.52-1.92-.1-.31,5.93-2-.11.31-5.93-1.91-.1.07-1.51Z" transform="translate(0 0)"/></svg>