<svg id="Calque_1" data-name="Calque 1" xmlns="http://www.w3.org/2000/svg" width="297.51" height="208.04" viewBox="0 0 297.51 208.04"><defs><style>.cls-1{fill:#f55240;}.cls-2{fill:#0b2e7b;}</style></defs><polygon class="cls-1" points="154.21 0 142.88 10.42 131.23 0.02 121.43 11.61 108.43 2.56 100.39 15.19 86.19 7.72 80.17 21.21 64.95 15.59 61.25 29.75 45.26 26.28 44.24 40.82 27.86 39.9 29.94 54.38 13.73 56.42 19.28 70.19 4.08 75.5 13.19 87.72 0 96.22 12.23 106.06 1.9 117.25 16.45 124.13 9.49 137.24 25.4 140.97 21.81 155.14 38.21 155.95 37.7 170.51 53.96 168.74 56.16 183.21 71.89 179.2 76.47 193.25 91.37 187.31 98.05 200.7 111.92 193.06 120.45 205.61 133.13 196.49 143.31 208.04 154.63 197.61 166.29 208.01 176.08 196.43 189.08 205.47 197.12 192.85 211.32 200.32 217.34 186.83 232.56 192.45 236.26 178.29 252.25 181.75 253.27 167.22 269.66 168.13 267.57 153.66 283.79 151.61 278.23 137.85 293.43 132.53 284.32 120.32 297.51 111.81 297.51 111.81 285.29 101.98 295.62 90.78 281.06 83.91 288.02 70.8 272.11 67.07 275.7 52.9 259.31 52.09 259.81 37.53 243.55 39.3 241.35 24.83 225.62 28.83 221.04 14.78 206.14 20.73 199.46 7.33 185.59 14.97 177.06 2.42 164.39 11.55 154.21 0 154.21 0"/><path class="cls-2" d="M68.66,62.55l2.93.16q1.74,3.09,2.54,4.78l5.43.28-3-4.66a5.29,5.29,0,0,0-.31-.52,4.91,4.91,0,0,0,3-1.59,5,5,0,0,0,1-2.89,4.34,4.34,0,0,0-1.42-3.6q-1.53-1.38-5.56-1.59l-4.1-.21v0l-4.71-.25q0,3.89-.22,7.26t-.54,7.24l4.71.25Zm.31-6,2.7.14a24,24,0,0,1,2.59.24,2.67,2.67,0,0,1,1.18.4.9.9,0,0,1-.09,1.38,2.84,2.84,0,0,1-1.23.28,20.31,20.31,0,0,1-2.57,0l-2.7-.14Z" transform="translate(8.94 3.02)"/><path class="cls-2" d="M86.78,68.35a9.37,9.37,0,0,0,4.29-.61,4.61,4.61,0,0,0,2.36-2.11A30.12,30.12,0,0,1,90,64a2.93,2.93,0,0,1-1.23.87,3.85,3.85,0,0,1-1.59.24,2.61,2.61,0,0,1-1.76-.64A2.45,2.45,0,0,1,84.65,63l6.52.34,2.47.13a5.2,5.2,0,0,0,.08-.77,4.86,4.86,0,0,0-.65-2.81,5.19,5.19,0,0,0-2.2-2,8.71,8.71,0,0,0-3.5-.87q-3.42-.16-5.11,1.3a5.32,5.32,0,0,0-1.83,4,5.47,5.47,0,0,0,1.41,4.21C82.87,67.62,84.51,68.23,86.78,68.35Zm-.94-8a3.1,3.1,0,0,1,1.65-.29,2.35,2.35,0,0,1,1.38.46,2.17,2.17,0,0,1,.73,1.07l-4.72-.25A2.09,2.09,0,0,1,85.84,60.37Z" transform="translate(8.94 3.02)"/><path class="cls-2" d="M96.37,64.57a4.7,4.7,0,0,0,.8,3.19,4.16,4.16,0,0,0,3.25,1.3c.64,0,1.16,0,1.56,0a13.89,13.89,0,0,0,1.49-.13c0-.85,0-1.4,0-1.64a14.75,14.75,0,0,1,.16-1.49,4.25,4.25,0,0,1-.88,0,2,2,0,0,1-1.64-.69,2.71,2.71,0,0,1-.38-1.71l.13-2.12c1,.09,2.13.21,3.35.35l.18-3.53-3.85-.2A9.17,9.17,0,0,0,103,55.86l-5.43-.29a2.64,2.64,0,0,1-.94,1.54,2.5,2.5,0,0,1-1.79.56l-.19,3.54c.68,0,1.34,0,2,0Z" transform="translate(8.94 3.02)"/><path class="cls-2" d="M111.48,69.64a7.46,7.46,0,0,0,5.25-1.28,5.35,5.35,0,0,0,1.92-4,5.48,5.48,0,0,0-.59-2.88,5.06,5.06,0,0,0-2.18-2.14,8.81,8.81,0,0,0-3.8-.95q-3.42-.18-5.11,1.29a5.45,5.45,0,0,0-1.82,4,5.53,5.53,0,0,0,1.39,4.21A7,7,0,0,0,111.48,69.64Zm-1.43-7.38a2.53,2.53,0,0,1,1.93-.52,2.68,2.68,0,0,1,1.9.73,2.16,2.16,0,0,1,.56,1.64,2.23,2.23,0,0,1-.73,1.63,2.67,2.67,0,0,1-2,.51,2.54,2.54,0,0,1-1.86-.71,2.32,2.32,0,0,1-.52-1.69A2.26,2.26,0,0,1,110.05,62.26Z" transform="translate(8.94 3.02)"/><path class="cls-2" d="M132.19,65c.11-1.94.25-3.75.43-5.42l-4.78-.25c0,1.12,0,2.14-.08,3.06,0,.4-.07,1.11-.15,2.15l0,.46a2.71,2.71,0,0,1-.65,1.48,1.41,1.41,0,0,1-1.12.49,1.32,1.32,0,0,1-1.06-.58A2.11,2.11,0,0,1,124.4,65c.11-1.91.25-3.85.43-5.8l-4.5-.24c0,1.07,0,2.49-.12,4.26l-.15,2.88a4.57,4.57,0,0,0,.34,2,3.52,3.52,0,0,0,1.26,1.5,4,4,0,0,0,2,.64,3.64,3.64,0,0,0,2.31-.65,4.56,4.56,0,0,0,1.57-2.3l.42,3c.88,0,1.56,0,2,0s1.17.08,2,.16C132,68.83,132.09,67,132.19,65Z" transform="translate(8.94 3.02)"/><path class="cls-2" d="M138.5,67.7l.09-1.32v0a2.8,2.8,0,0,1,.64-1.79,2,2,0,0,1,1.71-.59,7,7,0,0,1,2.33.66l.87-4.44A8,8,0,0,0,143,60.1a3.9,3.9,0,0,0-4.34,2.8l-.44-3c-.85,0-1.53,0-2,0s-1.14-.08-2-.17c0,1.95,0,3.78-.13,5.48s-.24,3.51-.45,5.43l4.78.25C138.43,69.69,138.45,68.64,138.5,67.7Z" transform="translate(8.94 3.02)"/><path class="cls-2" d="M153,71.72a4.75,4.75,0,0,0,2.87-.65,4.91,4.91,0,0,0,1.81-2.35l0,.5a3.27,3.27,0,0,0,.46,2,2.68,2.68,0,0,0,2.23.88c.52,0,.94,0,1.25,0s.69,0,1.12-.08l.18-1.88a.94.94,0,0,1-.62-.43,2.07,2.07,0,0,1-.11-1l.12-2.37A5.2,5.2,0,0,0,161,62.23a6.75,6.75,0,0,0-4.49-1.56,8.1,8.1,0,0,0-3.78.59,8.33,8.33,0,0,0-2.86,2.16,26.82,26.82,0,0,1,2.94,2,5.3,5.3,0,0,0-2.71.88,2.56,2.56,0,0,0-1,2,2.86,2.86,0,0,0,.89,2.43A4.75,4.75,0,0,0,153,71.72Zm1.95-7.27a4.52,4.52,0,0,1,1.81-.25,1.65,1.65,0,0,1,.83.22.48.48,0,0,1,.28.42.53.53,0,0,1-.33.45,2.07,2.07,0,0,1-1,.12,27.87,27.87,0,0,0-3,0A4.11,4.11,0,0,1,154.92,64.45Zm-.37,2.75.73-.09c.55,0,1-.11,1.41-.17a4.31,4.31,0,0,0,1.07-.32l0,.52a2.43,2.43,0,0,1-1.3,1.06,4.52,4.52,0,0,1-2,.33c-.69,0-1-.25-1-.64S153.8,67.3,154.55,67.2Z" transform="translate(8.94 3.02)"/><path class="cls-2" d="M165.86,72a3.86,3.86,0,0,0,2,.64,3.54,3.54,0,0,0,2.31-.65,4.53,4.53,0,0,0,1.57-2.29l.42,3c.88,0,1.55,0,2,0s1.16.08,2,.17c0-1.7,0-3.52.14-5.48s.25-3.75.43-5.43L172,61.68c0,1.12,0,2.14-.08,3.06q0,.6-.15,2.16l0,.46a2.67,2.67,0,0,1-.65,1.47,1.42,1.42,0,0,1-1.12.5,1.38,1.38,0,0,1-1.06-.58,2.11,2.11,0,0,1-.36-1.42c.1-1.92.25-3.85.43-5.8l-4.5-.24q0,1.6-.12,4.26l-.15,2.87a4.59,4.59,0,0,0,.34,2A3.43,3.43,0,0,0,165.86,72Z" transform="translate(8.94 3.02)"/><path class="cls-2" d="M182,73.14a10.66,10.66,0,0,1,.62-.93c.25-.35.52-.7.8-1.06a4.63,4.63,0,0,1,.32-.42c.1-.13.2-.25.28-.37l.43.68a19.49,19.49,0,0,1,1.28,2.29l5,.26-3.9-5.81,4.32-5.1-4.94-.26a21.54,21.54,0,0,1-1.25,1.82l-.61.83-.6-1a15.74,15.74,0,0,1-1-1.8L177.77,62l3.76,5.53L177,72.88Z" transform="translate(8.94 3.02)"/><path class="cls-2" d="M70.36,87.91a3,3,0,0,1-1.4.17,8.42,8.42,0,0,1-2.22-.48,7.14,7.14,0,0,1-2.16-1.15L62.33,89.2a12.17,12.17,0,0,0,3.18,1.6,13.11,13.11,0,0,0,3.38.65,9.29,9.29,0,0,0,4.68-.73,3.34,3.34,0,0,0,1.84-3,2.35,2.35,0,0,0-1-2.2,6.24,6.24,0,0,0-3.18-.86c-.48,0-1.21,0-2.19,0-.4,0-.71,0-.94,0a.86.86,0,0,1-.54-.19.53.53,0,0,1-.19-.45c0-.23.19-.44.54-.61a2.43,2.43,0,0,1,1.21-.22,8.33,8.33,0,0,1,2,.36,9.77,9.77,0,0,1,2.09,1l2.42-2.2a8.83,8.83,0,0,0-2.78-1.49,11.49,11.49,0,0,0-3.16-.62,9.86,9.86,0,0,0-4.93.71,3,3,0,0,0-1.8,2.64,2.38,2.38,0,0,0,1,2.25,5.62,5.62,0,0,0,2.85.82,19,19,0,0,0,2.14,0H70a1,1,0,0,1,.65.21.58.58,0,0,1,.22.51A.76.76,0,0,1,70.36,87.91Z" transform="translate(8.94 3.02)"/><path class="cls-2" d="M88.27,90.9a5.36,5.36,0,0,0,1.93-4.05A5.68,5.68,0,0,0,89.61,84a5.15,5.15,0,0,0-2.19-2.14,8.81,8.81,0,0,0-3.8-1q-3.42-.18-5.11,1.3a5.42,5.42,0,0,0-1.82,4,5.52,5.52,0,0,0,1.4,4.21Q79.6,92,83,92.19A7.44,7.44,0,0,0,88.27,90.9Zm-7.36-4.51a2.21,2.21,0,0,1,.68-1.59,2.58,2.58,0,0,1,1.93-.52,2.71,2.71,0,0,1,1.91.73A2.19,2.19,0,0,1,86,86.65a2.21,2.21,0,0,1-.73,1.63,2.66,2.66,0,0,1-2,.51,2.54,2.54,0,0,1-1.86-.71A2.27,2.27,0,0,1,80.91,86.39Z" transform="translate(8.94 3.02)"/><path class="cls-2" d="M99.55,92.85c.88,0,1.56,0,2,.05s1.17.08,2,.16c0-1.69,0-3.52.15-5.48s.24-3.75.42-5.42l-4.77-.25c0,1.12,0,2.14-.08,3.06,0,.4-.08,1.12-.16,2.15l0,.46a2.71,2.71,0,0,1-.65,1.48,1.4,1.4,0,0,1-1.12.49A1.34,1.34,0,0,1,96.3,89,2.13,2.13,0,0,1,96,87.56q.15-2.88.42-5.81l-4.49-.24c0,1.07,0,2.49-.13,4.26l-.15,2.88a4.4,4.4,0,0,0,.35,2,3.38,3.38,0,0,0,1.25,1.5,4,4,0,0,0,2,.64,3.61,3.61,0,0,0,2.32-.65,4.46,4.46,0,0,0,1.56-2.29Z" transform="translate(8.94 3.02)"/><path class="cls-2" d="M114.81,87.22l.87-4.44a7.83,7.83,0,0,0-1.11-.14,3.89,3.89,0,0,0-4.33,2.8l-.45-3c-.85,0-1.53,0-2,0s-1.13-.08-2-.17c0,2,0,3.78-.13,5.48s-.24,3.52-.44,5.43l4.77.25c0-1.16,0-2.22.09-3.16l.08-1.32v0a2.8,2.8,0,0,1,.64-1.79,2,2,0,0,1,1.71-.59A7,7,0,0,1,114.81,87.22Z" transform="translate(8.94 3.02)"/><path class="cls-2" d="M123.05,86.35a2.69,2.69,0,0,1,1.16.31,3.14,3.14,0,0,1,.92.8,33.84,33.84,0,0,1,4-.93A4.94,4.94,0,0,0,127.06,84a8.4,8.4,0,0,0-4-1.07q-3.35-.18-5,1.3a6.06,6.06,0,0,0-.43,8.19,6.83,6.83,0,0,0,4.85,1.81,8.48,8.48,0,0,0,4.11-.64,4.87,4.87,0,0,0,2.35-2.28A25.66,25.66,0,0,1,125,90a3,3,0,0,1-1,.7,2.69,2.69,0,0,1-1.19.19,2.46,2.46,0,0,1-1.78-.72,2.38,2.38,0,0,1-.56-1.67,2.35,2.35,0,0,1,.74-1.6A2.43,2.43,0,0,1,123.05,86.35Z" transform="translate(8.94 3.02)"/><path class="cls-2" d="M136.69,95a9.33,9.33,0,0,0,4.29-.61,4.61,4.61,0,0,0,2.36-2.11,31.92,31.92,0,0,1-3.48-1.6,2.85,2.85,0,0,1-1.22.86,3.76,3.76,0,0,1-1.6.25,2.63,2.63,0,0,1-1.76-.64,2.38,2.38,0,0,1-.71-1.47l6.51.34,2.48.13a7,7,0,0,0,.08-.78,4.93,4.93,0,0,0-.66-2.8,5.19,5.19,0,0,0-2.2-2,8.54,8.54,0,0,0-3.49-.87c-2.28-.12-4,.32-5.12,1.3a5.39,5.39,0,0,0-1.83,4,5.47,5.47,0,0,0,1.41,4.21A7,7,0,0,0,136.69,95Zm-.94-8a3.23,3.23,0,0,1,1.66-.3,2.3,2.3,0,0,1,1.37.47,2.17,2.17,0,0,1,.73,1.07L134.8,88A2,2,0,0,1,135.75,87Z" transform="translate(8.94 3.02)"/><path class="cls-2" d="M152.65,92.22a3.13,3.13,0,0,1-1.4.18,8.73,8.73,0,0,1-2.22-.49,6.93,6.93,0,0,1-2.16-1.15l-2.25,2.75a12,12,0,0,0,3.17,1.6,13.19,13.19,0,0,0,3.38.65,9.36,9.36,0,0,0,4.69-.73,3.36,3.36,0,0,0,1.84-3,2.32,2.32,0,0,0-1-2.19,6.08,6.08,0,0,0-3.18-.87c-.48,0-1.2,0-2.18,0-.4,0-.72,0-.94,0a.94.94,0,0,1-.54-.19.52.52,0,0,1-.19-.45c0-.24.19-.45.53-.62a2.38,2.38,0,0,1,1.22-.21,7.92,7.92,0,0,1,2,.35,9.49,9.49,0,0,1,2.08,1l2.42-2.19a8.6,8.6,0,0,0-2.77-1.5,11.87,11.87,0,0,0-3.17-.62,10,10,0,0,0-4.92.71,3,3,0,0,0-1.8,2.64,2.38,2.38,0,0,0,1,2.25,5.59,5.59,0,0,0,2.85.82,19.23,19.23,0,0,0,2.15,0h1.12a1.09,1.09,0,0,1,.65.21.61.61,0,0,1,.21.52A.74.74,0,0,1,152.65,92.22Z" transform="translate(8.94 3.02)"/><path class="cls-2" d="M63.68,106.59A3.43,3.43,0,0,0,67,109.35a3.9,3.9,0,1,0,.4-7.79,3.25,3.25,0,0,0-3.6,2.2l0-.24v-2l-1.86-.1-.54,10.44,1.94.11Zm3-3.56a2.32,2.32,0,0,1,2.49,2.53,2.36,2.36,0,0,1-2.74,2.25c-1.76-.1-2.8-1.1-2.73-2.53S65.11,102.94,66.72,103Z" transform="translate(8.94 3.02)"/><path class="cls-2" d="M81.45,105.15c.1-1.92-1.23-2.92-3.06-3a3.52,3.52,0,0,0-3.58,2.11l.27-5.12-2-.11-.55,10.44,2,.1.23-4.41a2.8,2.8,0,0,1,2.7-1.38c1.51.08,2.07.74,2,2l-.21,4.09,2,.1Z" transform="translate(8.94 3.02)"/><path class="cls-2" d="M87.34,110.42c2.8.14,4.79-1.12,4.92-3.64s-1.71-4-4.51-4.15-4.82,1.14-5,3.66S84.53,110.27,87.34,110.42Zm.33-6.31a2.45,2.45,0,0,1,2.62,2.57c-.08,1.53-1.31,2.32-2.87,2.24s-2.73-1-2.65-2.53A2.48,2.48,0,0,1,87.67,104.11Z" transform="translate(8.94 3.02)"/><polygon class="cls-2" points="105.69 113.75 106 107.81 107.92 107.91 108 106.4 106.08 106.3 106.19 104.26 104.24 104.16 104.13 106.2 102.22 106.1 102.14 107.61 104.05 107.71 103.74 113.64 105.69 113.75"/><path class="cls-2" d="M99.65,107.17c-.13,2.52,1.73,4,4.54,4.13s4.79-1.12,4.93-3.63-1.72-4-4.52-4.16S99.78,104.66,99.65,107.17Zm4.88-2.18a2.46,2.46,0,0,1,2.61,2.57c-.08,1.53-1.31,2.32-2.87,2.24s-2.72-1-2.64-2.53S103,104.91,104.53,105Z" transform="translate(8.94 3.02)"/><path class="cls-2" d="M110.2,113.67a2.72,2.72,0,0,0,2-2.63l.07-1.22L110,109.7l-.09,1.72.81.21a3.27,3.27,0,0,1-.76,1.52Z" transform="translate(8.94 3.02)"/><path class="cls-2" d="M129,108.92l-2-.1c-.48,1.19-1.66,1.89-3.64,1.79-2.47-.13-4-1.37-3.93-3.53s1.81-3.25,4.28-3.12c2,.1,3.09.93,3.43,2.21l2,.1c-.13-2.37-2-3.86-5.32-4-3.64-.19-6.25,1.4-6.42,4.74s2.25,5.15,5.89,5.34C126.57,112.49,128.63,111.26,129,108.92Z" transform="translate(8.94 3.02)"/><path class="cls-2" d="M134.15,112.85a3.45,3.45,0,0,0,3.63-2.37l0,.48a18.61,18.61,0,0,0,0,1.92l1.81.09.39-7.44-2-.1-.11,2.22a3.18,3.18,0,0,0-3.26-2.56,3.89,3.89,0,1,0-.52,7.76Zm1-6.22c1.75.09,2.82,1,2.74,2.53s-1.22,2.32-3,2.23a2.38,2.38,0,0,1-2.5-2.52A2.33,2.33,0,0,1,135.11,106.63Z" transform="translate(8.94 3.02)"/><path class="cls-2" d="M147.17,105.74a3.52,3.52,0,0,0-3.58,2.13l.11-2.15-1.94-.1-.39,7.45,1.94.1.24-4.43a3,3,0,0,1,2.85-1.46c1.38.07,1.92.67,1.85,1.93l-.22,4.21,1.95.1.24-4.55C150.33,106.85,149,105.84,147.17,105.74Z" transform="translate(8.94 3.02)"/><path class="cls-2" d="M156.54,106.23c-2.82-.14-4.83,1.15-5,3.66s1.73,4,4.55,4.13,4.79-1.11,4.92-3.63S159.34,106.38,156.54,106.23Zm-.33,6.29c-1.59-.08-2.73-1-2.65-2.52s1.32-2.37,2.9-2.28a2.45,2.45,0,0,1,2.61,2.57C159,111.81,157.76,112.61,156.21,112.52Z" transform="translate(8.94 3.02)"/><path class="cls-2" d="M170.91,114.62l.23-4.56a2.86,2.86,0,0,0-3-3.22,3.52,3.52,0,0,0-3.58,2.12l.11-2.14-1.95-.1-.39,7.44,2,.11.23-4.44a3,3,0,0,1,2.86-1.45c1.38.07,1.91.67,1.85,1.93l-.22,4.2Z" transform="translate(8.94 3.02)"/><polygon class="cls-2" points="193.77 110.9 185.21 110.45 185.13 112.11 191.58 112.45 186.23 120.22 188.59 120.34 193.68 112.56 193.77 110.9"/><path class="cls-2" d="M191,108c-2.82-.15-4.82,1.14-5,3.66s1.73,4,4.55,4.13,4.79-1.12,4.92-3.64S193.76,108.18,191,108Zm-.33,6.29c-1.56-.08-2.73-1-2.65-2.53a2.78,2.78,0,0,1,5.51.29A2.44,2.44,0,0,1,190.63,114.33Z" transform="translate(8.94 3.02)"/><path class="cls-2" d="M202,108.62c-2.81-.15-4.82,1.14-4.95,3.66s1.73,4,4.54,4.12,4.79-1.11,4.92-3.63S204.81,108.76,202,108.62Zm-.33,6.29c-1.55-.08-2.72-1-2.64-2.53a2.78,2.78,0,0,1,5.51.29C204.47,114.2,203.21,115,201.68,114.91Z" transform="translate(8.94 3.02)"/><path class="cls-2" d="M214.33,107.17l-5.54-.29-.51,9.69,5.54.29c4.17.22,5.8-2,5.93-4.58S218.69,107.4,214.33,107.17Zm-.46,8-3.51-.18.33-6.28,3.5.19c2.87.15,3.63,1.66,3.54,3.29S216.73,115.31,213.87,115.15Z" transform="translate(8.94 3.02)"/><path class="cls-2" d="M64.28,127.22a3.45,3.45,0,0,0,3.62-2.38l0,.48a14.75,14.75,0,0,0,0,1.92l1.81.1.55-10.44-2-.1L68.05,122a3.26,3.26,0,0,0-3.37-2.57,3.9,3.9,0,1,0-.4,7.78Zm1-6.25c1.76.1,2.82,1,2.74,2.55s-1.22,2.33-3,2.23a2.36,2.36,0,0,1-2.49-2.52A2.34,2.34,0,0,1,65.23,121Z" transform="translate(8.94 3.02)"/><path class="cls-2" d="M80.62,125.43l-1.88-.1a2.35,2.35,0,0,1-2.42,1c-1.69-.09-2.63-1-2.72-2.18l7.1.37c.29-2.89-1.14-4.33-4.06-4.48s-4.86,1.2-5,3.66,1.77,4,4.63,4.13C78.82,128,80.29,127,80.62,125.43Zm-4.15-3.88c1.45.07,2.3.76,2.36,1.76L73.76,123A2.51,2.51,0,0,1,76.47,121.55Z" transform="translate(8.94 3.02)"/><polygon class="cls-2" points="84.56 121.64 86.42 121.73 89.3 119.51 86.72 119.38 84.56 121.64"/><path class="cls-2" d="M91,125.51l-1.78-.1a2.46,2.46,0,0,1-2.71,1.48c-1.57-.08-2.78-.94-2.69-2.53s1.38-2.34,2.94-2.26a2.54,2.54,0,0,1,2.52,1.73l1.79.09c-.08-1.94-1.61-3.18-4.23-3.32s-4.87,1.12-5,3.66,1.82,4,4.59,4.13S90.72,127.46,91,125.51Z" transform="translate(8.94 3.02)"/><path class="cls-2" d="M97.07,121.14c-2.88-.15-4.85,1.2-5,3.66s1.77,4,4.63,4.13c2.53.14,4-.91,4.33-2.43l-1.88-.1a2.35,2.35,0,0,1-2.41,1c-1.7-.09-2.64-1-2.73-2.18l7.1.37C101.42,122.74,100,121.29,97.07,121.14Zm-2.87,3a2.49,2.49,0,0,1,2.7-1.49c1.46.08,2.31.77,2.36,1.76Z" transform="translate(8.94 3.02)"/><path class="cls-2" d="M114.7,122.06a3.66,3.66,0,0,0-3.5,1.94,2.89,2.89,0,0,0-3-2.28,3.53,3.53,0,0,0-3.58,2.13l.11-2.14-1.94-.1-.39,7.44,2,.1.23-4.43a3,3,0,0,1,2.85-1.46c1.38.07,1.92.67,1.85,1.93l-.22,4.21,2,.1.24-4.55c0-.08,0-.14,0-.2a3.11,3.11,0,0,1,2.66-1.15c1.38.07,1.93.67,1.86,1.93l-.22,4.21,2,.1.24-4.55C117.87,123.18,116.53,122.16,114.7,122.06Z" transform="translate(8.94 3.02)"/><path class="cls-2" d="M125.43,122.63a3.25,3.25,0,0,0-3.62,2.2l.27-5.22-1.94-.1L119.59,130l1.81.1a16.78,16.78,0,0,0,.24-1.91l0-.48A3.45,3.45,0,0,0,125,130.4a3.89,3.89,0,1,0,.41-7.77Zm-1,6.24c-1.77-.09-2.81-1.11-2.74-2.53s1.24-2.34,3-2.25a2.33,2.33,0,0,1,2.48,2.54A2.36,2.36,0,0,1,124.47,128.87Z" transform="translate(8.94 3.02)"/><path class="cls-2" d="M132.66,125.41l.11-2.23-2-.1-.39,7.44,1.95.1.22-4.1a3.13,3.13,0,0,1,3-1.59l.09-1.77A3.11,3.11,0,0,0,132.66,125.41Z" transform="translate(8.94 3.02)"/><path class="cls-2" d="M141.26,123.46c-2.88-.15-4.86,1.2-5,3.66s1.77,4,4.63,4.13c2.53.13,4-.92,4.33-2.43l-1.88-.1a2.37,2.37,0,0,1-2.42,1c-1.69-.09-2.63-1-2.72-2.19l7.1.37C145.61,125.05,144.18,123.61,141.26,123.46Zm-2.88,3a2.52,2.52,0,0,1,2.71-1.5c1.45.08,2.3.77,2.36,1.76Z" transform="translate(8.94 3.02)"/><path class="cls-2" d="M158.14,126.85c.08-1.56-1.53-2.6-3.95-2.73s-4.14,1-4.13,2.73l1.89.1c.07-.84.94-1.32,2.2-1.26,1.42.08,2,.59,2,1.29-.06,1.22-2.27,1.64-6,3.07l-.08,1.5,8,.42.07-1.5-4.71-.25,1.67-.68C157.19,128.71,158.08,128,158.14,126.85Z" transform="translate(8.94 3.02)"/><path class="cls-2" d="M164.6,124.68c-2.82-.15-4.83,1.14-5,3.66s1.73,4,4.55,4.13,4.79-1.12,4.92-3.63S167.4,124.83,164.6,124.68Zm-.33,6.29c-1.56-.08-2.73-1-2.65-2.53a2.78,2.78,0,0,1,5.51.29A2.44,2.44,0,0,1,164.27,131Z" transform="translate(8.94 3.02)"/><path class="cls-2" d="M178.55,127.92c.08-1.56-1.54-2.61-4-2.73s-4.14,1-4.13,2.73l1.89.1c.08-.84.94-1.32,2.2-1.26,1.42.08,2,.59,2,1.29-.07,1.22-2.28,1.64-6,3.07l-.08,1.5,8,.42.08-1.5-4.72-.25,1.67-.68C177.59,129.78,178.48,129.1,178.55,127.92Z" transform="translate(8.94 3.02)"/><path class="cls-2" d="M185,125.75c-2.82-.15-4.82,1.14-5,3.66s1.73,4,4.55,4.13,4.79-1.12,4.92-3.63S187.8,125.9,185,125.75Zm-.33,6.29c-1.56-.08-2.73-1-2.65-2.53a2.78,2.78,0,0,1,5.51.29A2.44,2.44,0,0,1,184.67,132Z" transform="translate(8.94 3.02)"/><path class="cls-2" d="M66.2,137c2,.1,3.09.93,3.43,2.21l2,.1c-.13-2.36-2-3.86-5.31-4-3.64-.19-6.25,1.4-6.42,4.74s2.25,5.15,5.89,5.34c3.25.17,5.31-1.06,5.71-3.4l-2-.1c-.48,1.19-1.66,1.9-3.64,1.79-2.47-.13-4-1.37-3.93-3.52S63.73,136.86,66.2,137Z" transform="translate(8.94 3.02)"/><rect class="cls-2" x="73.74" y="134.6" width="1.71" height="2.26" transform="translate(-55.9 206.16) rotate(-87.01)"/><rect class="cls-2" x="70.54" y="140.89" width="7.45" height="1.95" transform="translate(-62.33 211.66) rotate(-87.01)"/><polygon class="cls-2" points="89.77 139.45 87.83 139.35 87.72 141.39 85.8 141.29 85.72 142.8 87.64 142.9 87.33 148.83 89.28 148.93 89.59 143 91.5 143.1 91.58 141.59 89.67 141.49 89.77 139.45"/><path class="cls-2" d="M85.71,141l.12-2.23-2-.1-.39,7.44,2,.11.21-4.11a3.14,3.14,0,0,1,3-1.59l.09-1.76A3.1,3.1,0,0,0,85.71,141Z" transform="translate(8.94 3.02)"/><polygon class="cls-2" points="102.39 147.64 100.22 142.04 98.16 141.94 101.35 149.49 99.54 152.48 101.57 152.58 107.27 142.41 105.18 142.3 102.39 147.64"/></svg>