<svg id="Calque_1" data-name="Calque 1" xmlns="http://www.w3.org/2000/svg" xmlns:xlink="http://www.w3.org/1999/xlink" width="273.61" height="308.46" viewBox="0 0 273.61 308.46"><defs><style>.cls-1{fill:none;}.cls-2{clip-path:url(#clip-path);}.cls-3{fill:#ffbb0f;}.cls-4{fill:#0b2e7b;}</style><clipPath id="clip-path" transform="translate(-18.91 -127.97)"><rect class="cls-1" width="297.51" height="436.43"/></clipPath></defs><g class="cls-2"><path class="cls-3" d="M237.77,427.4,92,436.32a58.48,58.48,0,0,1-61.76-54.64L19,198.76A58.49,58.49,0,0,1,73.67,137l145.8-8.92a58.48,58.48,0,0,1,61.76,54.64l11.19,182.92a58.49,58.49,0,0,1-54.65,61.76" transform="translate(-18.91 -127.97)"/></g><path class="cls-4" d="M56.46,218.47l-3.88.24L52,221l-1.32.08,2.62-9.77,1.6-.1,3.78,9.38-1.3.08ZM56,217.4l-1.17-3-.66-1.92h-.11l-.41,2-.81,3.08Z" transform="translate(-18.91 -127.97)"/><path class="cls-4" d="M65.56,213.3l.43,6.89-.9.05-.29-1.5a2.65,2.65,0,0,1-2.25,1.81c-1.5.09-2.45-.71-2.55-2.43l-.28-4.46,1.2-.08.26,4.26c.07,1.06.45,1.64,1.47,1.57,1.42-.08,2-1.67,1.93-2.53l-.21-3.51Z" transform="translate(-18.91 -127.97)"/><path class="cls-4" d="M68.26,213.13l1.2-.07.42,7c.09,1.72-.52,2.46-1.79,2.54a1.44,1.44,0,0,1-1.16-.41l0-.72a1.83,1.83,0,0,0,.93.16c.69,0,.92-.59.87-1.45ZM68,210.44l1.35-.08.07,1.2-1.35.08Z" transform="translate(-18.91 -127.97)"/><path class="cls-4" d="M74.79,212.58c2.1-.12,3.33,1,3.46,3.23s-1.24,3.85-3,4-3.35-1.48-3.48-3.56C71.61,213.88,72.82,212.71,74.79,212.58Zm.37,6.07c1.36-.09,1.91-1.32,1.82-2.76s-.68-2.27-2.12-2.18-1.93.91-1.83,2.42S73.93,218.72,75.16,218.65Z" transform="translate(-18.91 -127.97)"/><path class="cls-4" d="M85.76,212.06l.42,6.89-.9.06-.28-1.5a2.64,2.64,0,0,1-2.25,1.8c-1.5.09-2.45-.71-2.56-2.43l-.27-4.46,1.2-.07.26,4.25c.06,1.06.45,1.64,1.46,1.58,1.43-.09,2-1.67,1.94-2.54l-.22-3.5Z" transform="translate(-18.91 -127.97)"/><path class="cls-4" d="M91.94,211.55l.07,1.18c-2.49.14-2.5,1.67-2.45,2.56l.22,3.44-1.2.07-.42-6.88.89-.06.29,1.43A2.47,2.47,0,0,1,91.94,211.55Z" transform="translate(-18.91 -127.97)"/><path class="cls-4" d="M99.45,207.92l.63,10.18-.93.06L98.88,217a2.63,2.63,0,0,1-2.22,1.49c-2,.13-3.19-1.47-3.32-3.57-.16-2.57,1.14-3.52,2.5-3.61a2.87,2.87,0,0,1,2.69,1.27L98.25,208Zm-.78,6.78a2.31,2.31,0,0,0-2.45-2.31c-1.31.08-1.69,1.09-1.61,2.41.13,2.08,1,2.6,2.1,2.53C98.58,217.22,98.71,215.49,98.67,214.7Z" transform="translate(-18.91 -127.97)"/><path class="cls-4" d="M101.83,209.89l-.08-1.34,1.72-.11a6,6,0,0,1-.57,3.51l-1-.54a5.34,5.34,0,0,0,.67-1.56Z" transform="translate(-18.91 -127.97)"/><path class="cls-4" d="M112.3,212.87l.28,4.47-1.2.07-.26-4.25a1.5,1.5,0,0,0-1.62-1.57,2.28,2.28,0,0,0-1.93,2.54l.22,3.5-1.2.07L106,207.52l1.2-.07.28,4.6a2.59,2.59,0,0,1,2.31-1.6C111.25,210.35,112.2,211.15,112.3,212.87Z" transform="translate(-18.91 -127.97)"/><path class="cls-4" d="M120.17,210l.42,6.89-.9.05-.29-1.5a2.65,2.65,0,0,1-2.25,1.81c-1.5.09-2.45-.71-2.55-2.43l-.27-4.46,1.19-.08.26,4.26c.07,1.06.45,1.64,1.47,1.57,1.42-.08,2-1.66,1.93-2.53L119,210Z" transform="translate(-18.91 -127.97)"/><path class="cls-4" d="M122.32,207.12l1.35-.08.07,1.2-1.35.08Zm1.44,2.62-1.2.07.42,6.89,1.2-.07Z" transform="translate(-18.91 -127.97)"/><path class="cls-4" d="M130.17,216.26l-.42-6.89.89-.05.29,1.5a2.66,2.66,0,0,1,2.4-1.82c1.5-.09,2.45.71,2.55,2.43l.28,4.46L135,216l-.26-4.17a1.55,1.55,0,0,0-1.61-1.64,2.27,2.27,0,0,0-1.94,2.52l.22,3.51Z" transform="translate(-18.91 -127.97)"/><path class="cls-4" d="M140.92,208.54c2.1-.13,3.33,1,3.46,3.23s-1.24,3.85-3,4-3.35-1.48-3.48-3.56C137.74,209.83,139,208.66,140.92,208.54Zm.37,6.06c1.37-.08,1.91-1.32,1.82-2.75s-.68-2.28-2.12-2.19-1.93.92-1.83,2.43S140.06,214.68,141.29,214.6Z" transform="translate(-18.91 -127.97)"/><path class="cls-4" d="M151.89,208l.42,6.89-.9.05-.28-1.5a2.65,2.65,0,0,1-2.25,1.81c-1.5.09-2.45-.71-2.56-2.43l-.27-4.46,1.2-.08.26,4.25c.06,1.07.45,1.65,1.46,1.58,1.43-.08,2-1.67,1.94-2.53l-.22-3.51Z" transform="translate(-18.91 -127.97)"/><path class="cls-4" d="M156.72,213.75c.87-.05,1.59-.49,1.55-1.16s-.33-.66-1.38-.91l-.9-.21c-1.2-.29-2-.77-2.05-1.86-.08-1.29,1.09-1.93,2.39-2a5.34,5.34,0,0,1,2.44.42l.07,1.14a5,5,0,0,0-2.49-.51c-.83,0-1.3.38-1.28.81s.32.73,1.51,1l.82.21c1,.24,1.92.63,2,1.83.09,1.44-1.22,2.18-2.53,2.26a4.39,4.39,0,0,1-2.52-.54l-.07-1.17A4,4,0,0,0,156.72,213.75Z" transform="translate(-18.91 -127.97)"/><path class="cls-4" d="M166.91,213.13c.87-.06,1.6-.49,1.56-1.17,0-.52-.33-.65-1.38-.9l-.9-.22c-1.21-.29-2-.76-2.05-1.86-.08-1.28,1.08-1.93,2.38-2a5.52,5.52,0,0,1,2.45.43l.07,1.13a5.2,5.2,0,0,0-2.5-.51c-.82,0-1.3.38-1.27.82s.32.73,1.51,1l.82.2c1,.24,1.92.64,2,1.84.09,1.43-1.22,2.17-2.54,2.26a4.33,4.33,0,0,1-2.51-.54l-.07-1.17A4,4,0,0,0,166.91,213.13Z" transform="translate(-18.91 -127.97)"/><path class="cls-4" d="M176.92,209.33l.09,4.06-.89.06-.29-1.26a3,3,0,0,1-2.52,1.58,2,2,0,0,1-2.28-1.9c-.06-1,.6-1.74,1.87-2.07l2.83-.73c-.19-1-.89-1.48-2.06-1.41a3.76,3.76,0,0,0-2.48,1.15l-.08-1.29a4.64,4.64,0,0,1,2.58-1C175.73,206.41,176.86,207.5,176.92,209.33Zm-1.1.94,0-.21-2.26.6c-1,.26-1.27.56-1.24,1.11a1,1,0,0,0,1.2,1A2.53,2.53,0,0,0,175.82,210.27Z" transform="translate(-18.91 -127.97)"/><path class="cls-4" d="M184.12,206.05l-2.25,7-.9.05-3.1-6.72,1.25-.08,1.78,4,.39,1.19h.06l.24-1.23,1.28-4.2Z" transform="translate(-18.91 -127.97)"/><path class="cls-4" d="M188.26,205.64c2.1-.12,3.33,1.05,3.46,3.23s-1.24,3.85-3,4-3.35-1.48-3.48-3.56C185.08,206.94,186.29,205.76,188.26,205.64Zm.37,6.07c1.36-.09,1.91-1.32,1.82-2.76s-.68-2.27-2.12-2.18-1.93.91-1.83,2.42S187.4,211.78,188.63,211.71Z" transform="translate(-18.91 -127.97)"/><path class="cls-4" d="M194,212.35l-.42-6.88.89-.06.29,1.5a2.65,2.65,0,0,1,2.4-1.81c1.5-.09,2.45.7,2.55,2.43L200,212l-1.2.07-.26-4.16a1.55,1.55,0,0,0-1.61-1.65,2.28,2.28,0,0,0-1.94,2.53l.22,3.5Z" transform="translate(-18.91 -127.97)"/><path class="cls-4" d="M204.43,210.83c.87-.05,1.6-.49,1.56-1.16,0-.52-.33-.66-1.38-.91l-.9-.21c-1.21-.29-2-.77-2.05-1.86-.08-1.29,1.08-1.93,2.38-2a5.41,5.41,0,0,1,2.45.42l.07,1.14a5,5,0,0,0-2.5-.51c-.82.05-1.3.38-1.27.81s.32.74,1.5,1l.83.21c1,.24,1.92.63,2,1.83.09,1.44-1.22,2.18-2.54,2.26a4.33,4.33,0,0,1-2.51-.54l-.07-1.17A3.9,3.9,0,0,0,204.43,210.83Z" transform="translate(-18.91 -127.97)"/><path class="cls-4" d="M211.58,205.35l0-.63a2.51,2.51,0,0,0,1.7-2l.71,0,.09,1.51,2.54-.16.06,1-2.54.15.22,3.58c.06,1,.53,1.35,1.14,1.31a2.2,2.2,0,0,0,1.21-.43l.06.94a2.17,2.17,0,0,1-1.51.62c-1.26.08-2-.8-2.09-2.16l-.23-3.79Z" transform="translate(-18.91 -127.97)"/><path class="cls-4" d="M221,203.64c2.1-.13,3.33,1.05,3.46,3.23s-1.24,3.85-3,4-3.35-1.48-3.48-3.56C217.81,204.93,219,203.76,221,203.64Zm.37,6.07c1.36-.09,1.9-1.32,1.82-2.76s-.68-2.27-2.12-2.19-1.93.92-1.84,2.43S220.13,209.78,221.36,209.71Z" transform="translate(-18.91 -127.97)"/><path class="cls-4" d="M232,203.12l.42,6.89-.9.05-.29-1.5a2.62,2.62,0,0,1-2.24,1.81c-1.5.09-2.45-.71-2.56-2.43l-.27-4.46,1.2-.07.26,4.25c.06,1.06.44,1.64,1.46,1.58,1.42-.09,2-1.67,1.94-2.54l-.22-3.5Z" transform="translate(-18.91 -127.97)"/><path class="cls-4" d="M236.79,208.85c.87,0,1.59-.49,1.55-1.16,0-.52-.33-.66-1.38-.91l-.9-.21c-1.2-.29-2-.77-2.05-1.86-.08-1.29,1.08-1.93,2.39-2a5.36,5.36,0,0,1,2.44.42l.07,1.14a5,5,0,0,0-2.49-.51c-.83.05-1.3.38-1.28.81s.32.74,1.51,1l.82.21c1,.24,1.92.63,2,1.83.09,1.44-1.22,2.18-2.53,2.26a4.31,4.31,0,0,1-2.52-.54l-.07-1.16A4,4,0,0,0,236.79,208.85Z" transform="translate(-18.91 -127.97)"/><path class="cls-4" d="M52.59,239l-.42-6.89.9-.05.29,1.5a2.65,2.65,0,0,1,2.39-1.82c1.5-.09,2.45.71,2.56,2.43l.27,4.46-1.2.08-.25-4.17a1.55,1.55,0,0,0-1.62-1.64,2.25,2.25,0,0,0-1.93,2.52l.21,3.51Z" transform="translate(-18.91 -127.97)"/><path class="cls-4" d="M66.24,234.13l.09,4.07-.89.05L65.15,237a3,3,0,0,1-2.52,1.58,2,2,0,0,1-2.28-1.9c-.06-1,.6-1.73,1.87-2.07l2.83-.73c-.18-1-.89-1.48-2.06-1.4a3.73,3.73,0,0,0-2.48,1.14l-.08-1.29a4.57,4.57,0,0,1,2.59-1A2.7,2.7,0,0,1,66.24,234.13Zm-1.1.94,0-.21-2.26.6c-1,.26-1.27.56-1.24,1.12a1,1,0,0,0,1.21,1A2.54,2.54,0,0,0,65.14,235.07Z" transform="translate(-18.91 -127.97)"/><path class="cls-4" d="M73.46,230.85,71.2,237.9l-.9.06-3.1-6.73,1.26-.07,1.78,4,.38,1.2h.07l.23-1.23,1.28-4.19Z" transform="translate(-18.91 -127.97)"/><path class="cls-4" d="M74.79,228.06l1.35-.08.07,1.2-1.34.08Zm1.44,2.62-1.2.07.42,6.89,1.2-.07Z" transform="translate(-18.91 -127.97)"/><path class="cls-4" d="M84.91,230.75l-1.71.38a2,2,0,0,1,1.1,1.76A2.68,2.68,0,0,1,82,235.51a5.08,5.08,0,0,1-.61.89,5.62,5.62,0,0,1,1-.18c1.38-.08,2.66.38,2.72,1.47.09,1.32-1.42,2-3.29,2.13a5.84,5.84,0,0,1-3.24-.59l-.06-1a6.19,6.19,0,0,0,3.23.57c1.34-.08,2.36-.36,2.32-1s-.91-.73-1.91-.67a6.54,6.54,0,0,0-2.27.64l-.4-.67a5.28,5.28,0,0,0,1.41-1.5,2.72,2.72,0,0,1-2.53-2.49c-.12-1.95,1.61-2.62,3.17-2.72l3.28-.2Zm-1.86,2.05c-.06-.9-.46-1.37-1.75-1.29s-1.66.6-1.61,1.5a1.68,1.68,0,0,0,3.36-.21Z" transform="translate(-18.91 -127.97)"/><path class="cls-4" d="M92.28,229.7l.42,6.89-.9,0-.29-1.5a2.6,2.6,0,0,1-2.24,1.8c-1.5.1-2.45-.7-2.56-2.42l-.27-4.47,1.2-.07.26,4.25c.06,1.07.44,1.65,1.46,1.58,1.42-.08,2-1.67,1.94-2.54l-.22-3.5Z" transform="translate(-18.91 -127.97)"/><path class="cls-4" d="M100.43,233.05l-4.68.28A2,2,0,0,0,98,235.28a3.42,3.42,0,0,0,2.25-.87l.06,1.06a3.84,3.84,0,0,1-2.39.94c-1.77.11-3.37-1-3.52-3.51-.11-1.85.79-3.53,2.89-3.66C99.7,229.09,100.6,230.84,100.43,233.05Zm-1.18-1c-.11-1.08-.64-1.78-1.84-1.71a1.8,1.8,0,0,0-1.71,1.92Z" transform="translate(-18.91 -127.97)"/><path class="cls-4" d="M106.06,228.72l.07,1.18c-2.48.14-2.5,1.67-2.44,2.56l.21,3.44-1.2.07-.42-6.88.9-.06.28,1.43A2.47,2.47,0,0,1,106.06,228.72Z" transform="translate(-18.91 -127.97)"/><path class="cls-4" d="M113.59,234.42c.87,0,1.59-.49,1.55-1.16s-.32-.66-1.37-.91l-.9-.21c-1.21-.29-2-.77-2.06-1.86-.07-1.29,1.09-1.93,2.39-2a5.41,5.41,0,0,1,2.45.42l.06,1.14a4.94,4.94,0,0,0-2.49-.51c-.82.05-1.3.38-1.27.81s.31.73,1.5,1l.83.21c1,.24,1.91.63,2,1.83.08,1.44-1.22,2.18-2.54,2.26a4.33,4.33,0,0,1-2.51-.54l-.07-1.17A3.94,3.94,0,0,0,113.59,234.42Z" transform="translate(-18.91 -127.97)"/><path class="cls-4" d="M123.53,227.79l.42,6.88-.9.06-.29-1.5a2.62,2.62,0,0,1-2.25,1.8c-1.5.1-2.45-.7-2.55-2.43l-.27-4.46,1.19-.07.26,4.25c.07,1.07.45,1.64,1.47,1.58,1.42-.09,2-1.67,1.93-2.54l-.21-3.5Z" transform="translate(-18.91 -127.97)"/><path class="cls-4" d="M129.7,227.27l.07,1.19c-2.48.13-2.5,1.67-2.44,2.55l.21,3.44-1.2.08-.42-6.89.9,0,.28,1.42A2.48,2.48,0,0,1,129.7,227.27Z" transform="translate(-18.91 -127.97)"/><path class="cls-4" d="M134.6,223.8l1.19-.07.64,10.18-1.2.07Z" transform="translate(-18.91 -127.97)"/><path class="cls-4" d="M144.31,230.36l-4.68.29a2,2,0,0,0,2.28,1.95,3.38,3.38,0,0,0,2.25-.88l.06,1.07a3.81,3.81,0,0,1-2.39.94c-1.77.11-3.37-1.06-3.52-3.51-.11-1.86.79-3.54,2.89-3.66C143.58,226.41,144.48,228.16,144.31,230.36Zm-1.18-1c-.11-1.07-.64-1.78-1.83-1.7-1,.06-1.63.68-1.72,1.92Z" transform="translate(-18.91 -127.97)"/><path class="cls-4" d="M153.6,228.85l-1.09,4-1.14.12-2.59-6.76,1.27-.08,1.36,4,.4,1.07h.07l.28-1.12,1.23-4.19.9-.05,1.73,4,.41,1.07h.08l.26-1.11.86-4.17,1.27-.08-1.75,7-1.14.07-1.56-3.9-.46-1.14h-.06Z" transform="translate(-18.91 -127.97)"/><path class="cls-4" d="M166.08,229l-4.68.29a2,2,0,0,0,2.28,2,3.43,3.43,0,0,0,2.25-.88l.06,1.07a3.87,3.87,0,0,1-2.39.94c-1.77.11-3.37-1.06-3.52-3.51-.11-1.86.79-3.54,2.89-3.67C165.35,225.08,166.25,226.83,166.08,229Zm-1.18-1c-.11-1.07-.64-1.78-1.83-1.7-1,.05-1.63.68-1.72,1.92Z" transform="translate(-18.91 -127.97)"/><path class="cls-4" d="M174.64,228c.13,2.1-.81,3.82-2.85,4a2.65,2.65,0,0,1-2.39-1.21l-.12,1.21-.93.06-.62-10.18,1.2-.08.28,4.56a2.85,2.85,0,0,1,2.51-1.59C173.09,224.59,174.49,225.38,174.64,228Zm-1.27.06c-.08-1.31-.57-2.28-1.89-2.19a2.3,2.3,0,0,0-2.14,2.59c0,.79.39,2.49,2.26,2.37C172.66,230.72,173.5,230.1,173.37,228Z" transform="translate(-18.91 -127.97)"/><path class="cls-4" d="M190.33,226.38l.25,4.22-1.19.07-.25-4.12c-.06-.85-.34-1.78-1.45-1.74-1.35,0-1.81,1.55-1.75,2.58l.21,3.48-1.19.07-.25-4.1c-.07-1-.55-1.82-1.54-1.75-1.3.07-1.84,1.58-1.77,2.73l.2,3.33-1.19.07-.43-6.89.9-.05.36,1.84a2.38,2.38,0,0,1,2.07-2.14,2.1,2.1,0,0,1,2.34,1.91,2.49,2.49,0,0,1,2.31-2.16C189.48,223.65,190.21,224.41,190.33,226.38Z" transform="translate(-18.91 -127.97)"/><path class="cls-4" d="M198.24,226.06l.1,4.06-.9.06-.28-1.26a3.06,3.06,0,0,1-2.52,1.58,2,2,0,0,1-2.28-1.9c-.06-1,.6-1.74,1.87-2.07l2.82-.73c-.18-1-.88-1.48-2.05-1.41a3.81,3.81,0,0,0-2.49,1.15l-.07-1.29a4.61,4.61,0,0,1,2.58-1C197.06,223.14,198.19,224.23,198.24,226.06Zm-1.1.94v-.21l-2.26.6c-1,.26-1.28.56-1.24,1.11a1,1,0,0,0,1.2,1A2.52,2.52,0,0,0,197.14,227Z" transform="translate(-18.91 -127.97)"/><path class="cls-4" d="M200.23,220.39l1.34-.08.08,1.2-1.35.08Zm1.43,2.62-1.19.07.42,6.89,1.19-.08Z" transform="translate(-18.91 -127.97)"/><path class="cls-4" d="M206.64,228.73c.87,0,1.59-.49,1.55-1.16s-.32-.66-1.38-.91l-.89-.22c-1.21-.28-2-.76-2.06-1.85-.08-1.29,1.09-1.93,2.39-2a5.41,5.41,0,0,1,2.45.42l.06,1.14a4.94,4.94,0,0,0-2.49-.51c-.82.05-1.3.38-1.27.81s.31.73,1.5,1l.83.21c1,.24,1.91.63,2,1.83.08,1.44-1.22,2.18-2.54,2.26a4.33,4.33,0,0,1-2.51-.54l-.07-1.17A3.92,3.92,0,0,0,206.64,228.73Z" transform="translate(-18.91 -127.97)"/><path class="cls-4" d="M55.7,256c.87-.06,1.59-.49,1.55-1.17,0-.52-.32-.65-1.37-.9l-.9-.22c-1.21-.29-2-.77-2.06-1.86-.07-1.29,1.09-1.93,2.39-2a5.55,5.55,0,0,1,2.45.42l.07,1.14a5.11,5.11,0,0,0-2.5-.51c-.82.05-1.3.38-1.27.82s.31.73,1.5,1l.83.2c1,.24,1.91.64,2,1.83.08,1.44-1.22,2.18-2.54,2.26a4.34,4.34,0,0,1-2.51-.53l-.07-1.17A3.94,3.94,0,0,0,55.7,256Z" transform="translate(-18.91 -127.97)"/><path class="cls-4" d="M65.7,252.2l.1,4.06-.9.06-.28-1.26a3,3,0,0,1-2.52,1.58,2,2,0,0,1-2.28-1.9c-.06-1,.6-1.74,1.87-2.07l2.83-.73c-.19-1-.89-1.48-2.06-1.41A3.76,3.76,0,0,0,60,251.68l-.08-1.29a4.61,4.61,0,0,1,2.58-1C64.52,249.28,65.65,250.37,65.7,252.2Zm-1.1.94v-.21l-2.26.6c-1,.26-1.27.56-1.24,1.11a1,1,0,0,0,1.2,1A2.51,2.51,0,0,0,64.6,253.14Z" transform="translate(-18.91 -127.97)"/><path class="cls-4" d="M73.54,248.88l.42,6.88-.9.06-.28-1.5a2.65,2.65,0,0,1-2.25,1.81c-1.5.09-2.45-.71-2.56-2.43l-.27-4.46,1.2-.08.26,4.25c.06,1.07.45,1.64,1.46,1.58,1.43-.08,2-1.67,1.94-2.53L72.34,249Z" transform="translate(-18.91 -127.97)"/><path class="cls-4" d="M79.72,248.36l.07,1.19c-2.49.13-2.5,1.67-2.45,2.55l.22,3.44-1.2.08-.42-6.89.89,0,.29,1.42A2.48,2.48,0,0,1,79.72,248.36Z" transform="translate(-18.91 -127.97)"/><path class="cls-4" d="M87.05,250.89l.1,4.07-.9,0L86,253.75a3.07,3.07,0,0,1-2.52,1.59,2,2,0,0,1-2.28-1.91c-.06-1,.6-1.73,1.87-2.07l2.83-.73c-.19-1-.89-1.47-2.06-1.4a3.75,3.75,0,0,0-2.48,1.14l-.08-1.29a4.54,4.54,0,0,1,2.58-1C85.87,248,87,249.06,87.05,250.89Zm-1.1.94v-.21l-2.26.61c-1,.25-1.27.55-1.24,1.11a1,1,0,0,0,1.2,1A2.53,2.53,0,0,0,86,251.83Z" transform="translate(-18.91 -127.97)"/><path class="cls-4" d="M91.71,253.79c.87,0,1.59-.49,1.55-1.16,0-.52-.32-.66-1.38-.91l-.9-.21c-1.2-.29-2-.77-2-1.86-.08-1.29,1.08-1.93,2.39-2a5.48,5.48,0,0,1,2.44.42l.07,1.14a5,5,0,0,0-2.49-.51c-.83.05-1.3.38-1.28.82s.32.73,1.51,1l.82.21c1,.24,1.92.63,2,1.83.09,1.44-1.21,2.18-2.53,2.26a4.31,4.31,0,0,1-2.52-.54l-.07-1.16A4,4,0,0,0,91.71,253.79Z" transform="translate(-18.91 -127.97)"/><path class="cls-4" d="M96.22,249.49l4.06-.25.07,1-4.06.25Z" transform="translate(-18.91 -127.97)"/><path class="cls-4" d="M102.17,248.1l0-.63a2.53,2.53,0,0,0,1.7-2l.7,0,.09,1.52,2.55-.16.06,1-2.55.16.22,3.58c.06,1,.53,1.35,1.15,1.31a2.15,2.15,0,0,0,1.2-.43l.06.94a2.19,2.19,0,0,1-1.51.62c-1.26.08-2-.8-2.09-2.16l-.23-3.79Z" transform="translate(-18.91 -127.97)"/><path class="cls-4" d="M114.55,246.37l.42,6.89-.9.05-.29-1.5a2.62,2.62,0,0,1-2.25,1.81c-1.49.09-2.44-.71-2.55-2.43l-.27-4.46,1.2-.08.26,4.26c.06,1.06.44,1.64,1.46,1.57,1.42-.08,2-1.67,1.93-2.53l-.21-3.51Z" transform="translate(-18.91 -127.97)"/><path class="cls-4" d="M120.19,242.72l1.19-.07.64,10.17-1.2.08Z" transform="translate(-18.91 -127.97)"/><path class="cls-4" d="M129.9,249.28l-4.68.28a2,2,0,0,0,2.28,1.95,3.42,3.42,0,0,0,2.25-.87l.06,1.06a3.89,3.89,0,0,1-2.39,1c-1.77.1-3.37-1.06-3.52-3.52-.11-1.85.79-3.53,2.88-3.66C129.17,245.33,130.07,247.07,129.9,249.28Zm-1.18-1c-.12-1.08-.64-1.78-1.84-1.71-1,.06-1.62.69-1.71,1.93Z" transform="translate(-18.91 -127.97)"/><path class="cls-4" d="M139.33,243.79a3.5,3.5,0,0,0-1.33-.19c-.67,0-.94.34-.89,1.09l0,.84,2.05-.13.06,1-2,.12.35,5.37-1.22.08-.33-5.38-1.22.08-.06-1,1.23-.08-.07-1a1.76,1.76,0,0,1,1.86-2,3.47,3.47,0,0,1,1.47.19Z" transform="translate(-18.91 -127.97)"/><path class="cls-4" d="M147,247.23l.1,4.06-.9.06-.28-1.26a3,3,0,0,1-2.52,1.58,2,2,0,0,1-2.28-1.9c-.06-1,.6-1.74,1.87-2.07l2.83-.73c-.19-1-.89-1.48-2.06-1.41a3.76,3.76,0,0,0-2.48,1.15l-.08-1.29a4.61,4.61,0,0,1,2.58-1C145.77,244.31,146.9,245.4,147,247.23Zm-1.1.94V248l-2.26.6c-1,.26-1.27.56-1.24,1.11a1,1,0,0,0,1.2,1A2.51,2.51,0,0,0,145.85,248.17Z" transform="translate(-18.91 -127.97)"/><path class="cls-4" d="M148.94,241.56l1.35-.08.07,1.2-1.35.08Zm1.44,2.62-1.2.07.42,6.89,1.2-.08Z" transform="translate(-18.91 -127.97)"/><path class="cls-4" d="M156.7,243.66l.07,1.18c-2.48.14-2.5,1.67-2.44,2.55l.21,3.45-1.2.07-.42-6.89.9-.05.28,1.42A2.46,2.46,0,0,1,156.7,243.66Z" transform="translate(-18.91 -127.97)"/><path class="cls-4" d="M164.11,247.18l-4.68.29a2,2,0,0,0,2.28,1.95,3.42,3.42,0,0,0,2.25-.87l.06,1.06a3.81,3.81,0,0,1-2.39.94c-1.77.11-3.37-1.05-3.52-3.51-.11-1.86.79-3.53,2.89-3.66C163.38,243.23,164.28,245,164.11,247.18Zm-1.18-1c-.11-1.08-.64-1.78-1.84-1.71a1.8,1.8,0,0,0-1.71,1.92Z" transform="translate(-18.91 -127.97)"/><path class="cls-4" d="M169.2,239.72l1.2-.07.64,10.18-1.2.07Z" transform="translate(-18.91 -127.97)"/><path class="cls-4" d="M178.92,246.28l-4.68.29a2,2,0,0,0,2.28,1.94,3.34,3.34,0,0,0,2.24-.87l.07,1.07a4,4,0,0,1-2.39.94c-1.77.11-3.37-1.06-3.52-3.51-.12-1.86.79-3.54,2.88-3.67C178.18,242.33,179.09,244.07,178.92,246.28Zm-1.19-1c-.11-1.08-.63-1.78-1.83-1.71-1,.06-1.62.69-1.71,1.93Z" transform="translate(-18.91 -127.97)"/><path class="cls-4" d="M183.2,248.2c.87-.06,1.59-.49,1.55-1.17,0-.52-.32-.65-1.37-.9l-.9-.22c-1.21-.29-2-.76-2.06-1.86-.08-1.28,1.09-1.93,2.39-2a5.54,5.54,0,0,1,2.45.43l.07,1.13a5.1,5.1,0,0,0-2.5-.5c-.82,0-1.3.37-1.27.81s.31.73,1.5,1l.83.21c1,.24,1.91.63,2,1.83.08,1.43-1.22,2.17-2.54,2.25a4.26,4.26,0,0,1-2.51-.53l-.07-1.17A3.94,3.94,0,0,0,183.2,248.2Z" transform="translate(-18.91 -127.97)"/><path class="cls-4" d="M196.46,241.36l-2.22,7.71a2.46,2.46,0,0,1-2.41,2,2.06,2.06,0,0,1-1.25-.39l-.05-.9a2,2,0,0,0,1.23.27c1-.06,1.31-.83,1.48-1.73l-3.25-6.6,1.27-.08,2,4.13.45,1.16h.06l1.45-5.53Z" transform="translate(-18.91 -127.97)"/><path class="cls-4" d="M203.57,244.77l-4.69.29a2,2,0,0,0,2.28,1.95,3.38,3.38,0,0,0,2.25-.88l.06,1.07a3.81,3.81,0,0,1-2.39.94c-1.76.11-3.37-1.06-3.52-3.51-.11-1.86.79-3.54,2.89-3.66C202.83,240.82,203.73,242.57,203.57,244.77Zm-1.19-1c-.11-1.07-.64-1.78-1.83-1.7-1,.06-1.63.68-1.72,1.92Z" transform="translate(-18.91 -127.97)"/><path class="cls-4" d="M211,240.47l.42,6.88-.9.06-.29-1.5a2.64,2.64,0,0,1-2.25,1.81c-1.49.09-2.44-.71-2.55-2.43l-.27-4.46,1.2-.08.26,4.25c.06,1.07.44,1.65,1.46,1.58,1.42-.08,2-1.67,1.93-2.53l-.21-3.51Z" transform="translate(-18.91 -127.97)"/><path class="cls-4" d="M213.68,240.31l1.94,2.52,1.61-2.74,1.37-.08-2.24,3.59,2.66,3.29-1.37.09-1.93-2.53-1.62,2.74-1.38.09,2.26-3.6-2.68-3.29Z" transform="translate(-18.91 -127.97)"/><path class="cls-4" d="M58.51,266.76a3.74,3.74,0,0,0-1.33-.19c-.68.05-.94.35-.9,1.1l0,.84,2.05-.13.06,1-2,.12.34,5.38-1.21.07-.33-5.37-1.23.07-.06-.95,1.23-.08-.06-1a1.76,1.76,0,0,1,1.86-2,3.49,3.49,0,0,1,1.47.19Z" transform="translate(-18.91 -127.97)"/><path class="cls-4" d="M65.92,271.22l-4.69.29a2,2,0,0,0,2.29,1.95,3.39,3.39,0,0,0,2.24-.87l.07,1.06a3.87,3.87,0,0,1-2.39.94c-1.77.11-3.37-1-3.52-3.51-.12-1.86.79-3.53,2.88-3.66C65.18,267.27,66.09,269,65.92,271.22Zm-1.19-1c-.11-1.08-.63-1.78-1.83-1.71a1.8,1.8,0,0,0-1.72,1.92Z" transform="translate(-18.91 -127.97)"/><path class="cls-4" d="M71.55,266.9l.07,1.18c-2.49.14-2.5,1.67-2.44,2.55l.21,3.45-1.2.07-.42-6.89.9-.05.28,1.42A2.47,2.47,0,0,1,71.55,266.9Z" transform="translate(-18.91 -127.97)"/><path class="cls-4" d="M83.55,269l.25,4.23-1.19.07-.26-4.12c0-.85-.33-1.78-1.44-1.74-1.35,0-1.81,1.55-1.75,2.58l.21,3.48-1.2.07-.25-4.1c-.06-1-.54-1.82-1.53-1.76-1.3.08-1.84,1.59-1.77,2.74l.2,3.33-1.2.07-.42-6.89.9-.05.35,1.84a2.38,2.38,0,0,1,2.08-2.14,2.1,2.1,0,0,1,2.34,1.91,2.51,2.51,0,0,1,2.3-2.17C82.7,266.24,83.43,267,83.55,269Z" transform="translate(-18.91 -127.97)"/><path class="cls-4" d="M91.54,269.66l-4.69.28a2,2,0,0,0,2.28,1.95,3.42,3.42,0,0,0,2.25-.87l.07,1.06a3.93,3.93,0,0,1-2.4.95c-1.76.1-3.37-1.06-3.52-3.52-.11-1.85.79-3.53,2.89-3.66C90.8,265.7,91.7,267.45,91.54,269.66Zm-1.19-1c-.11-1.08-.63-1.78-1.83-1.71-1,.06-1.63.69-1.72,1.93Zm-1.89-3.58-.52,0,.6-2,1.69-.11Z" transform="translate(-18.91 -127.97)"/><path class="cls-4" d="M95.82,271.57c.87-.05,1.59-.48,1.55-1.16,0-.52-.33-.65-1.38-.9l-.9-.22c-1.2-.29-2-.77-2-1.86-.08-1.29,1.08-1.93,2.39-2a5.48,5.48,0,0,1,2.44.42l.07,1.14a5,5,0,0,0-2.49-.51c-.83,0-1.3.38-1.28.82s.32.73,1.51,1l.82.2c1,.24,1.92.64,2,1.83.09,1.44-1.22,2.18-2.53,2.26a4.31,4.31,0,0,1-2.52-.54l-.07-1.16A3.9,3.9,0,0,0,95.82,271.57Z" transform="translate(-18.91 -127.97)"/><path class="cls-4" d="M106.41,267.91l0,1.35-.84.05-.32-2c1.46-.72,2.35-1.59,2.28-2.76s-.87-1.4-1.84-1.34a3.8,3.8,0,0,0-2.4,1.23l-.08-1.29a4.08,4.08,0,0,1,2.65-1.06c1.6-.1,3,.64,3.08,2.36C109,265.61,108.12,266.87,106.41,267.91Zm-1.19,2.62,1.57-.09.09,1.34-1.58.1Z" transform="translate(-18.91 -127.97)"/><path class="cls-4" d="M62.05,291.46l.07,1.1-6.19.37-.58-9.58,6.18-.38.07,1.1-4.91.3.18,3,4.31-.26.07,1.08-4.31.26.2,3.29Z" transform="translate(-18.91 -127.97)"/><path class="cls-4" d="M64.2,292.43l-.42-6.89.89-.05L65,287a2.65,2.65,0,0,1,2.4-1.82c1.5-.09,2.45.71,2.55,2.43l.28,4.46-1.2.08L68.73,288a1.55,1.55,0,0,0-1.61-1.64,2.27,2.27,0,0,0-1.94,2.52l.21,3.51Z" transform="translate(-18.91 -127.97)"/><path class="cls-4" d="M78,290.7c.86-.06,1.59-.49,1.55-1.17,0-.52-.33-.65-1.38-.9l-.9-.22c-1.2-.29-2-.76-2-1.86-.08-1.28,1.08-1.93,2.39-2a5.5,5.5,0,0,1,2.44.43l.07,1.13a5.2,5.2,0,0,0-2.5-.51c-.82.05-1.29.38-1.27.82s.32.73,1.51,1l.82.2c1,.24,1.92.64,2,1.84.09,1.43-1.22,2.17-2.54,2.25a4.39,4.39,0,0,1-2.51-.53L75.59,290A4,4,0,0,0,78,290.7Z" transform="translate(-18.91 -127.97)"/><path class="cls-4" d="M82,283.24l-.08-1.35,1.72-.1a6,6,0,0,1-.56,3.5l-1-.54a5.23,5.23,0,0,0,.67-1.56Z" transform="translate(-18.91 -127.97)"/><path class="cls-4" d="M91.93,286.66l.1,4.07-.9,0-.29-1.26a3,3,0,0,1-2.52,1.58A2,2,0,0,1,86,289.2c-.05-1,.6-1.74,1.88-2.07l2.82-.73c-.18-1-.88-1.48-2-1.4a3.74,3.74,0,0,0-2.49,1.14l-.08-1.29a4.6,4.6,0,0,1,2.59-1C90.74,283.74,91.88,284.83,91.93,286.66Zm-1.1.94v-.21l-2.26.6c-1,.26-1.28.56-1.24,1.12a1,1,0,0,0,1.2,1A2.52,2.52,0,0,0,90.83,287.6Z" transform="translate(-18.91 -127.97)"/><path class="cls-4" d="M100.94,286.56c.13,2.1-.82,3.82-2.85,3.95a2.67,2.67,0,0,1-2.39-1.19l.22,3.57-1.2.08-.57-9.29,1-.06.25,1.37A2.86,2.86,0,0,1,98,283.28C99.38,283.2,100.78,284,100.94,286.56Zm-1.2.06c-.08-1.32-.65-2.35-2-2.27A2.38,2.38,0,0,0,95.63,287c.05.79.4,2.56,2.27,2.45C99,289.4,99.87,288.7,99.74,286.62Z" transform="translate(-18.91 -127.97)"/><path class="cls-4" d="M109.62,286c.13,2.09-.81,3.82-2.85,4a2.67,2.67,0,0,1-2.39-1.2l.22,3.58-1.2.07-.56-9.28,1-.06.25,1.37a2.87,2.87,0,0,1,2.57-1.71C108.07,282.67,109.47,283.45,109.62,286Zm-1.19.06c-.09-1.32-.66-2.35-2-2.27a2.37,2.37,0,0,0-2.13,2.67c.05.79.39,2.56,2.27,2.44C107.65,288.87,108.55,288.17,108.43,286.09Z" transform="translate(-18.91 -127.97)"/><path class="cls-4" d="M117.13,282.28l.42,6.89-.89.05-.29-1.5a2.65,2.65,0,0,1-2.25,1.81c-1.5.09-2.45-.71-2.55-2.43l-.28-4.46,1.2-.08.26,4.25c.07,1.07.45,1.65,1.47,1.58,1.42-.08,2-1.67,1.93-2.54l-.21-3.5Z" transform="translate(-18.91 -127.97)"/><path class="cls-4" d="M125,281.8l-2.21,7.71a2.46,2.46,0,0,1-2.42,2,2.08,2.08,0,0,1-1.24-.39l-.06-.9a2.06,2.06,0,0,0,1.24.27c1-.06,1.3-.83,1.47-1.73l-3.24-6.61,1.27-.08,2,4.14.45,1.16h.06l1.45-5.53Z" transform="translate(-18.91 -127.97)"/><path class="cls-4" d="M132,284.21l.1,4.07-.9.05-.29-1.26a3,3,0,0,1-2.52,1.58,2,2,0,0,1-2.28-1.9c-.06-1,.6-1.74,1.87-2.07l2.83-.73c-.18-1-.89-1.48-2-1.4a3.74,3.74,0,0,0-2.49,1.14l-.08-1.29a4.6,4.6,0,0,1,2.59-1C130.79,281.29,131.93,282.38,132,284.21Zm-1.1.94v-.21l-2.27.6c-1,.26-1.27.56-1.23,1.12a1,1,0,0,0,1.2,1A2.52,2.52,0,0,0,130.88,285.15Z" transform="translate(-18.91 -127.97)"/><path class="cls-4" d="M134.62,288.12l-.42-6.89.9-.05.29,1.5a2.65,2.65,0,0,1,2.4-1.82c1.49-.09,2.44.71,2.55,2.43l.27,4.47-1.2.07-.25-4.16c0-.74-.45-1.72-1.62-1.65a2.26,2.26,0,0,0-1.93,2.52l.21,3.51Z" transform="translate(-18.91 -127.97)"/><path class="cls-4" d="M142,281.74l0-.63a2.51,2.51,0,0,0,1.7-2l.7,0,.1,1.51,2.54-.16.06,1-2.54.15.22,3.58c.06,1,.53,1.35,1.14,1.31a2.2,2.2,0,0,0,1.21-.43l.06.94a2.17,2.17,0,0,1-1.51.62c-1.26.08-2-.79-2.09-2.16l-.23-3.78Z" transform="translate(-18.91 -127.97)"/><path class="cls-4" d="M154.62,286c.86-.05,1.59-.49,1.55-1.16s-.33-.66-1.38-.91l-.9-.21c-1.2-.29-2-.77-2-1.86-.08-1.29,1.08-1.93,2.38-2a5.38,5.38,0,0,1,2.45.42l.07,1.14a5,5,0,0,0-2.5-.51c-.82,0-1.3.38-1.27.81s.32.74,1.51,1l.82.21c1,.24,1.92.63,2,1.83.09,1.44-1.22,2.18-2.54,2.26a4.29,4.29,0,0,1-2.51-.54l-.07-1.16A4,4,0,0,0,154.62,286Z" transform="translate(-18.91 -127.97)"/><path class="cls-4" d="M164.55,279.38l.42,6.89-.9.05-.28-1.5a2.65,2.65,0,0,1-2.25,1.81c-1.5.09-2.45-.71-2.56-2.43l-.27-4.46,1.2-.08.26,4.25c.06,1.07.44,1.64,1.46,1.58,1.42-.08,2-1.67,1.94-2.53l-.22-3.51Z" transform="translate(-18.91 -127.97)"/><path class="cls-4" d="M170.72,278.86l.08,1.19c-2.49.13-2.5,1.67-2.45,2.55l.21,3.45-1.19.07-.43-6.89.9-.05.28,1.42A2.48,2.48,0,0,1,170.72,278.86Z" transform="translate(-18.91 -127.97)"/><path class="cls-4" d="M175.62,275.4l1.2-.08.64,10.18-1.2.08Z" transform="translate(-18.91 -127.97)"/><path class="cls-4" d="M185.34,282l-4.69.29a2,2,0,0,0,2.29,1.95,3.41,3.41,0,0,0,2.24-.87l.07,1.06a3.87,3.87,0,0,1-2.39.94c-1.77.11-3.37-1.06-3.53-3.51-.11-1.86.8-3.53,2.89-3.66C184.6,278,185.5,279.75,185.34,282Zm-1.19-1c-.11-1.07-.63-1.78-1.83-1.7a1.8,1.8,0,0,0-1.72,1.92Z" transform="translate(-18.91 -127.97)"/><path class="cls-4" d="M190,278.8l0-.63a2.52,2.52,0,0,0,1.69-2l.71,0,.09,1.51,2.55-.16.06,1-2.55.15.22,3.58c.06,1,.53,1.35,1.15,1.31a2.15,2.15,0,0,0,1.2-.43l.06.94a2.15,2.15,0,0,1-1.51.62c-1.26.08-2-.79-2.09-2.15l-.23-3.79Z" transform="translate(-18.91 -127.97)"/><path class="cls-4" d="M202.41,280.91l-4.69.29a2,2,0,0,0,2.28,1.95,3.43,3.43,0,0,0,2.25-.88l.07,1.07a4,4,0,0,1-2.4.94c-1.76.11-3.37-1.06-3.52-3.52-.11-1.85.79-3.53,2.89-3.66C201.67,277,202.57,278.71,202.41,280.91Zm-1.19-1c-.11-1.08-.63-1.78-1.83-1.71a1.81,1.81,0,0,0-1.72,1.93Z" transform="translate(-18.91 -127.97)"/><path class="cls-4" d="M204.51,276.93l1.94,2.53,1.61-2.74,1.37-.09-2.24,3.6,2.67,3.29-1.38.08-1.93-2.52-1.62,2.74-1.38.09,2.26-3.6L203.13,277Z" transform="translate(-18.91 -127.97)"/><path class="cls-4" d="M210.24,277.56l0-.63a2.5,2.5,0,0,0,1.69-2l.71,0,.09,1.51,2.54-.15.06,1-2.54.16L213,281c.06,1,.53,1.35,1.14,1.32a2.31,2.31,0,0,0,1.21-.44l.06.94a2.13,2.13,0,0,1-1.51.62c-1.26.08-2-.79-2.09-2.15l-.23-3.79Z" transform="translate(-18.91 -127.97)"/><path class="cls-4" d="M222.63,279.67,218,280a2,2,0,0,0,2.28,2,3.43,3.43,0,0,0,2.25-.88l.06,1.07a3.81,3.81,0,0,1-2.39.94c-1.77.11-3.37-1.06-3.52-3.51-.11-1.86.79-3.54,2.89-3.66C221.9,275.72,222.8,277.47,222.63,279.67Zm-1.18-1c-.11-1.07-.64-1.78-1.83-1.7-1,.06-1.63.68-1.72,1.92Z" transform="translate(-18.91 -127.97)"/><path class="cls-4" d="M233.79,271.84l.62,10.18-.93.06-.27-1.19a2.64,2.64,0,0,1-2.22,1.49c-2,.12-3.18-1.48-3.31-3.57-.16-2.58,1.13-3.53,2.5-3.61a2.88,2.88,0,0,1,2.69,1.26l-.28-4.55Zm-.79,6.78a2.31,2.31,0,0,0-2.44-2.32c-1.32.08-1.69,1.1-1.61,2.42.13,2.08,1,2.59,2.09,2.53A2.19,2.19,0,0,0,233,278.62Z" transform="translate(-18.91 -127.97)"/><path class="cls-4" d="M242.29,278.47l-4.68.29a2,2,0,0,0,2.28,1.95,3.43,3.43,0,0,0,2.25-.88l.06,1.07a3.93,3.93,0,0,1-2.39.94c-1.77.11-3.37-1.06-3.52-3.51-.12-1.86.79-3.54,2.88-3.67C241.56,274.52,242.46,276.27,242.29,278.47Zm-1.18-1c-.11-1.07-.64-1.78-1.84-1.71-1,.06-1.62.69-1.71,1.93Z" transform="translate(-18.91 -127.97)"/><path class="cls-4" d="M61.09,310.65l-1.59.1-3.8-9.38,1.31-.08,2.51,6.26.66,1.94h.1l.42-2L62.39,301l1.32-.08Z" transform="translate(-18.91 -127.97)"/><path class="cls-4" d="M70.36,306l.1,4.07-.9.05-.28-1.25a3.08,3.08,0,0,1-2.52,1.58,2,2,0,0,1-2.28-1.91c-.06-1,.6-1.73,1.87-2.07l2.82-.72c-.18-1-.88-1.48-2-1.41a3.8,3.8,0,0,0-2.48,1.14l-.08-1.29a4.61,4.61,0,0,1,2.58-1C69.18,303.1,70.31,304.18,70.36,306Zm-1.1.94v-.21l-2.26.61c-1,.25-1.28.56-1.24,1.11a1,1,0,0,0,1.2,1A2.53,2.53,0,0,0,69.26,307Z" transform="translate(-18.91 -127.97)"/><path class="cls-4" d="M73,309.92,72.58,303l.9-.06.29,1.5a2.64,2.64,0,0,1,2.4-1.81c1.5-.09,2.45.71,2.55,2.43l.28,4.46-1.2.07-.26-4.16a1.56,1.56,0,0,0-1.62-1.65A2.28,2.28,0,0,0,74,306.35l.21,3.5Z" transform="translate(-18.91 -127.97)"/><path class="cls-4" d="M81.39,309.41,81,302.52l.9,0,.29,1.5a2.63,2.63,0,0,1,2.39-1.81c1.5-.1,2.45.7,2.56,2.42l.27,4.47-1.2.07L85.93,305c-.05-.74-.45-1.72-1.62-1.65a2.28,2.28,0,0,0-1.94,2.53l.22,3.5Z" transform="translate(-18.91 -127.97)"/><path class="cls-4" d="M95.11,305.51l-4.68.28a2,2,0,0,0,2.28,1.95,3.42,3.42,0,0,0,2.25-.87l.06,1.06a3.84,3.84,0,0,1-2.39.94c-1.77.11-3.37-1.05-3.52-3.51-.12-1.85.79-3.53,2.88-3.66C94.38,301.55,95.28,303.3,95.11,305.51Zm-1.18-1c-.12-1.08-.64-1.78-1.84-1.71a1.8,1.8,0,0,0-1.71,1.92Z" transform="translate(-18.91 -127.97)"/><path class="cls-4" d="M102,301.24l-2.26,7.05-.9.06-3.1-6.73,1.26-.07,1.78,4,.39,1.2h.06l.24-1.23,1.27-4.19Z" transform="translate(-18.91 -127.97)"/><path class="cls-4" d="M108.93,303.65l.1,4.07-.9.06-.29-1.26a3.07,3.07,0,0,1-2.51,1.58,2,2,0,0,1-2.29-1.91c-.05-1,.6-1.73,1.88-2.07l2.82-.72c-.18-1-.88-1.48-2-1.41a3.83,3.83,0,0,0-2.49,1.14l-.08-1.28a4.6,4.6,0,0,1,2.59-1C107.74,300.74,108.88,301.82,108.93,303.65Zm-1.1.94v-.21l-2.27.61c-1,.25-1.27.56-1.23,1.11a1,1,0,0,0,1.2,1A2.52,2.52,0,0,0,107.83,304.59Z" transform="translate(-18.91 -127.97)"/><path class="cls-4" d="M114.93,300.31l.07,1.18c-2.48.14-2.49,1.67-2.44,2.56l.21,3.44-1.2.07-.42-6.88.9-.06.28,1.43A2.48,2.48,0,0,1,114.93,300.31Z" transform="translate(-18.91 -127.97)"/><path class="cls-4" d="M127.27,304c.09,1.44-.92,2.7-3.06,2.83l-3.71.23-.59-9.58,3.4-.21c2.2-.13,3.15.9,3.23,2.24a2.3,2.3,0,0,1-1.64,2.43C126.4,302.05,127.19,302.76,127.27,304Zm-6-5.51.19,3.16,2-.12c1.29-.08,1.95-.6,1.88-1.74s-1-1.49-2.14-1.41Zm4.73,5.41c0-.82-.73-1.4-2.37-1.3l-2.12.13.2,3.16,2.39-.15C125.1,305.64,126.06,305.16,126,303.86Z" transform="translate(-18.91 -127.97)"/><path class="cls-4" d="M134.48,299.25l.42,6.89-.9.05-.29-1.5a2.62,2.62,0,0,1-2.24,1.81c-1.5.09-2.45-.71-2.56-2.43l-.27-4.46,1.2-.07.26,4.25c.06,1.06.44,1.64,1.46,1.58,1.42-.09,2-1.67,1.94-2.54l-.22-3.51Z" transform="translate(-18.91 -127.97)"/><path class="cls-4" d="M139.31,305c.87-.05,1.59-.49,1.55-1.16,0-.52-.33-.66-1.38-.91l-.9-.21c-1.2-.29-2-.77-2.05-1.86-.08-1.29,1.08-1.93,2.39-2a5.36,5.36,0,0,1,2.44.42l.07,1.14a5,5,0,0,0-2.49-.51c-.83.05-1.3.38-1.28.81s.32.74,1.51,1l.82.21c1,.24,1.92.63,2,1.83.09,1.44-1.22,2.18-2.53,2.26a4.31,4.31,0,0,1-2.52-.54l-.07-1.17A3.91,3.91,0,0,0,139.31,305Z" transform="translate(-18.91 -127.97)"/><path class="cls-4" d="M149.84,300.75l.27,4.46-1.2.07-.26-4.25a1.49,1.49,0,0,0-1.61-1.57,2.27,2.27,0,0,0-1.93,2.54l.21,3.5-1.2.07-.62-10.18,1.2-.07.28,4.6a2.57,2.57,0,0,1,2.3-1.6C148.78,298.23,149.73,299,149.84,300.75Z" transform="translate(-18.91 -127.97)"/><path class="cls-4" d="M152.21,305.08l-.09-1.35,1.73-.1a6,6,0,0,1-.57,3.5l-1-.54A5.23,5.23,0,0,0,153,305Z" transform="translate(-18.91 -127.97)"/><path class="cls-4" d="M159.65,297.71l1.19-.07.43,7c.09,1.72-.52,2.46-1.8,2.54a1.44,1.44,0,0,1-1.15-.41l0-.72a1.79,1.79,0,0,0,.92.15c.69,0,.93-.58.88-1.45Zm-.24-2.69,1.34-.08.08,1.2-1.35.08Z" transform="translate(-18.91 -127.97)"/><path class="cls-4" d="M163,296.32l-.09-1.35,1.73-.1a6,6,0,0,1-.57,3.5l-1-.54a5.23,5.23,0,0,0,.67-1.56Z" transform="translate(-18.91 -127.97)"/><path class="cls-4" d="M173,299.74l.1,4.06-.9.06-.28-1.26a3,3,0,0,1-2.52,1.58,2,2,0,0,1-2.28-1.9c-.06-1,.6-1.74,1.87-2.07l2.83-.73c-.19-1-.89-1.48-2.06-1.41a3.76,3.76,0,0,0-2.48,1.15l-.08-1.29a4.61,4.61,0,0,1,2.58-1C171.78,296.82,172.91,297.91,173,299.74Zm-1.1.94v-.21l-2.26.6c-1,.26-1.27.56-1.24,1.11a1,1,0,0,0,1.2,1A2.52,2.52,0,0,0,171.86,300.68Z" transform="translate(-18.91 -127.97)"/><path class="cls-4" d="M175,294.07l1.34-.08.08,1.2-1.35.08Zm1.43,2.62-1.19.07.42,6.89,1.19-.07Z" transform="translate(-18.91 -127.97)"/><path class="cls-4" d="M185.11,297.12c-1.27.07-1.81.92-1.71,2.43.11,1.8,1.12,2.59,2.3,2.52a3.52,3.52,0,0,0,2.06-.76l.06,1.1a3.59,3.59,0,0,1-2.1.77c-2.17.13-3.47-1.47-3.6-3.55-.14-2.34,1.13-3.51,2.92-3.62a4.25,4.25,0,0,1,2.5.6l.07,1.12A4.4,4.4,0,0,0,185.11,297.12Z" transform="translate(-18.91 -127.97)"/><path class="cls-4" d="M192.32,295.56c2.1-.12,3.32,1.05,3.46,3.23s-1.24,3.85-3,4-3.35-1.48-3.48-3.56C189.14,296.85,190.34,295.68,192.32,295.56Zm.37,6.07c1.36-.09,1.9-1.32,1.82-2.76s-.68-2.27-2.12-2.18-1.93.91-1.84,2.42S191.46,301.7,192.69,301.63Z" transform="translate(-18.91 -127.97)"/><path class="cls-4" d="M198.1,302.27l-.43-6.88.9-.06.29,1.5a2.64,2.64,0,0,1,2.4-1.81c1.49-.09,2.45.7,2.55,2.43l.27,4.46-1.19.07-.26-4.16a1.55,1.55,0,0,0-1.62-1.65,2.28,2.28,0,0,0-1.93,2.53l.21,3.5Z" transform="translate(-18.91 -127.97)"/><path class="cls-4" d="M207.08,298.1c.11,1.8,1.12,2.59,2.31,2.52a3.47,3.47,0,0,0,2.05-.76l.07,1.1a3.57,3.57,0,0,1-1.67.73l-.42.55c.41.07,1.22.17,1.15.79-.1,1-1.55,1.23-2.53,1.16l0-.63c1.08,0,1.6-.13,1.63-.43s-.42-.27-1.22-.35l-.11-.22.52-.84c-1.81-.16-2.89-1.65-3-3.54-.14-2.34,1.12-3.51,2.92-3.62a4.33,4.33,0,0,1,2.5.6l.07,1.12a4.44,4.44,0,0,0-2.5-.61C207.52,295.75,207,296.59,207.08,298.1Z" transform="translate(-18.91 -127.97)"/><path class="cls-4" d="M218.83,294.09l.42,6.89-.9,0-.28-1.5a2.65,2.65,0,0,1-2.25,1.81c-1.5.09-2.45-.71-2.56-2.43l-.27-4.46,1.2-.07.26,4.25c.06,1.06.44,1.64,1.46,1.58,1.42-.09,2-1.67,1.94-2.54l-.22-3.5Z" transform="translate(-18.91 -127.97)"/><path class="cls-4" d="M230.28,293.39l.42,6.89-.89.05-.29-1.5a2.65,2.65,0,0,1-2.25,1.81c-1.5.09-2.45-.71-2.55-2.43l-.28-4.46,1.2-.07.26,4.25c.07,1.06.45,1.64,1.47,1.58,1.42-.09,2-1.67,1.93-2.54l-.22-3.5Z" transform="translate(-18.91 -127.97)"/><path class="cls-4" d="M233.1,300.13l-.42-6.88.9-.06.28,1.5a2.64,2.64,0,0,1,2.4-1.81c1.5-.1,2.45.7,2.55,2.42l.28,4.47-1.2.07-.25-4.16A1.56,1.56,0,0,0,236,294a2.28,2.28,0,0,0-1.94,2.53l.22,3.5Z" transform="translate(-18.91 -127.97)"/><path class="cls-4" d="M60.1,327.86c.87-.05,1.59-.49,1.55-1.16s-.33-.66-1.38-.91l-.9-.21c-1.2-.29-2-.77-2-1.86-.08-1.29,1.08-1.93,2.39-2a5.36,5.36,0,0,1,2.44.42l.07,1.14a5,5,0,0,0-2.49-.51c-.83.05-1.3.38-1.28.81s.32.73,1.51,1l.82.21c1,.24,1.92.63,2,1.83.09,1.44-1.22,2.18-2.53,2.26a4.39,4.39,0,0,1-2.52-.54l-.07-1.17A4,4,0,0,0,60.1,327.86Z" transform="translate(-18.91 -127.97)"/><path class="cls-4" d="M64.18,318.88l1.34-.08.08,1.2-1.35.08Zm1.43,2.62-1.19.07.42,6.89,1.2-.08Z" transform="translate(-18.91 -127.97)"/><path class="cls-4" d="M67.54,322.35l0-.62a2.54,2.54,0,0,0,1.7-2l.7,0,.09,1.51,2.55-.16.06,1-2.55.15.22,3.58c.06,1,.53,1.35,1.15,1.31a2.15,2.15,0,0,0,1.2-.43l.06.94a2.15,2.15,0,0,1-1.51.62c-1.26.08-2-.79-2.09-2.16l-.23-3.79Z" transform="translate(-18.91 -127.97)"/><path class="cls-4" d="M79.94,324.47l-4.69.29a2,2,0,0,0,2.28,1.94,3.42,3.42,0,0,0,2.25-.87l.07,1.06a3.93,3.93,0,0,1-2.4.95c-1.76.1-3.37-1.06-3.52-3.52-.11-1.85.79-3.53,2.89-3.66C79.2,320.51,80.1,322.26,79.94,324.47Zm-1.19-1c-.11-1.08-.63-1.78-1.83-1.71-1,.06-1.63.69-1.72,1.93Z" transform="translate(-18.91 -127.97)"/><path class="cls-4" d="M89.22,323l-1.09,4L87,327.1l-2.6-6.75,1.28-.08,1.36,4,.39,1.08h.08l.27-1.11L89,320.07l.9-.06,1.74,4,.41,1.07h.07l.26-1.11.86-4.17,1.27-.08-1.75,7-1.13.07-1.56-3.9-.46-1.15h-.06Z" transform="translate(-18.91 -127.97)"/><path class="cls-4" d="M101.72,323.14l-4.68.28a2,2,0,0,0,2.28,1.95,3.39,3.39,0,0,0,2.24-.87l.07,1.06a3.87,3.87,0,0,1-2.39.94c-1.77.11-3.37-1.05-3.52-3.51-.12-1.85.79-3.53,2.88-3.66C101,319.18,101.89,320.93,101.72,323.14Zm-1.19-1c-.11-1.08-.63-1.78-1.83-1.71A1.8,1.8,0,0,0,97,322.37Z" transform="translate(-18.91 -127.97)"/><path class="cls-4" d="M110.28,322.05c.13,2.1-.82,3.83-2.85,3.95a2.63,2.63,0,0,1-2.39-1.2l-.12,1.21-.93.05-.62-10.18,1.19-.07.28,4.55a2.87,2.87,0,0,1,2.52-1.58C108.72,318.69,110.12,319.48,110.28,322.05Zm-1.27.07c-.08-1.32-.58-2.28-1.89-2.2a2.31,2.31,0,0,0-2.15,2.59c0,.8.4,2.49,2.27,2.38C108.3,324.82,109.13,324.2,109,322.12Z" transform="translate(-18.91 -127.97)"/><path class="cls-4" d="M122.41,321.31c.13,2.1-.82,3.83-2.86,3.95a2.66,2.66,0,0,1-2.38-1.19l.22,3.58-1.2.07-.57-9.28,1-.07.25,1.37a2.85,2.85,0,0,1,2.57-1.7C120.85,318,122.25,318.74,122.41,321.31Zm-1.2.06c-.08-1.32-.66-2.35-2-2.27a2.37,2.37,0,0,0-2.14,2.67c.05.8.4,2.56,2.27,2.45C120.43,324.15,121.34,323.45,121.21,321.37Z" transform="translate(-18.91 -127.97)"/><path class="cls-4" d="M124.1,314.61l1.2-.07.64,10.18-1.2.07Z" transform="translate(-18.91 -127.97)"/><path class="cls-4" d="M130.85,317.36c2.1-.13,3.33,1,3.46,3.23s-1.24,3.84-3,4-3.35-1.48-3.48-3.56C127.67,318.65,128.88,317.48,130.85,317.36Zm.37,6.06c1.36-.08,1.9-1.32,1.82-2.76s-.68-2.27-2.12-2.18-1.93.91-1.84,2.43S130,323.5,131.22,323.42Z" transform="translate(-18.91 -127.97)"/><path class="cls-4" d="M136.63,324.07l-.42-6.89.89-.06.29,1.5a2.64,2.64,0,0,1,2.4-1.81c1.5-.09,2.45.71,2.55,2.43l.28,4.46-1.2.07-.26-4.16a1.54,1.54,0,0,0-1.62-1.64,2.27,2.27,0,0,0-1.93,2.52l.21,3.5Z" transform="translate(-18.91 -127.97)"/><path class="cls-4" d="M150.72,316.89l-1.71.38a2,2,0,0,1,1.1,1.76,2.66,2.66,0,0,1-2.27,2.62,4.19,4.19,0,0,1-.61.9,5,5,0,0,1,1-.19c1.38-.08,2.65.38,2.72,1.47.08,1.32-1.43,2-3.3,2.13a5.89,5.89,0,0,1-3.23-.58l-.07-1a6.13,6.13,0,0,0,3.24.57c1.33-.08,2.35-.35,2.31-1s-.9-.73-1.9-.67a6.6,6.6,0,0,0-2.28.64l-.4-.67a5.28,5.28,0,0,0,1.41-1.5,2.72,2.72,0,0,1-2.53-2.49c-.11-1.94,1.62-2.62,3.17-2.72l3.28-.2Zm-1.86,2.05c-.05-.89-.46-1.36-1.75-1.29s-1.66.6-1.6,1.5a1.53,1.53,0,0,0,1.79,1.56A1.51,1.51,0,0,0,148.86,318.94Z" transform="translate(-18.91 -127.97)"/><path class="cls-4" d="M157.94,319.7l-4.69.28a2,2,0,0,0,2.29,1.95,3.39,3.39,0,0,0,2.24-.87l.07,1.06a3.87,3.87,0,0,1-2.39.94c-1.77.11-3.38-1.05-3.52-3.51-.12-1.85.79-3.53,2.88-3.66C157.2,315.74,158.11,317.49,157.94,319.7Zm-1.19-1c-.11-1.08-.63-1.78-1.83-1.71a1.8,1.8,0,0,0-1.72,1.92Zm-1.88-3.58-.53,0,.6-2,1.69-.11Z" transform="translate(-18.91 -127.97)"/><path class="cls-4" d="M169.09,311.86l.62,10.18-.92.06-.27-1.19a2.63,2.63,0,0,1-2.22,1.49c-2,.13-3.19-1.47-3.32-3.57-.15-2.57,1.14-3.52,2.5-3.61a2.87,2.87,0,0,1,2.69,1.27l-.28-4.56Zm-.79,6.78a2.29,2.29,0,0,0-2.44-2.31c-1.31.08-1.69,1.09-1.61,2.41.13,2.08,1,2.6,2.1,2.53C168.22,321.16,168.35,319.44,168.3,318.64Z" transform="translate(-18.91 -127.97)"/><path class="cls-4" d="M177.52,317.49l.1,4.07-.9.05-.29-1.26a3,3,0,0,1-2.51,1.58,2,2,0,0,1-2.28-1.9c-.06-1,.6-1.73,1.87-2.07l2.82-.73c-.18-1-.88-1.47-2.05-1.4a3.81,3.81,0,0,0-2.49,1.14l-.07-1.29a4.54,4.54,0,0,1,2.58-1C176.34,314.57,177.47,315.66,177.52,317.49Zm-1.1.94v-.21l-2.26.61c-1,.25-1.28.55-1.24,1.11a1,1,0,0,0,1.2,1A2.54,2.54,0,0,0,176.42,318.43Z" transform="translate(-18.91 -127.97)"/><path class="cls-4" d="M180.17,321.4l-.43-6.88.9-.06.29,1.5a2.63,2.63,0,0,1,2.4-1.81c1.5-.1,2.45.7,2.55,2.42l.27,4.47-1.19.07L184.7,317a1.55,1.55,0,0,0-1.62-1.65,2.28,2.28,0,0,0-1.93,2.53l.21,3.5Z" transform="translate(-18.91 -127.97)"/><path class="cls-4" d="M190.56,319.88c.87-.05,1.6-.49,1.55-1.16s-.32-.66-1.37-.91l-.9-.21c-1.21-.29-2-.77-2.06-1.86-.07-1.29,1.09-1.93,2.39-2a5.41,5.41,0,0,1,2.45.42l.07,1.14a5,5,0,0,0-2.5-.51c-.82.05-1.3.38-1.27.81s.31.73,1.5,1l.83.21c1,.24,1.91.63,2,1.83.09,1.44-1.22,2.18-2.54,2.26a4.33,4.33,0,0,1-2.51-.54l-.07-1.17A3.94,3.94,0,0,0,190.56,319.88Z" transform="translate(-18.91 -127.97)"/><path class="cls-4" d="M198.12,310.09l1.2-.08.64,10.18-1.2.08Z" transform="translate(-18.91 -127.97)"/><path class="cls-4" d="M207.84,316.64l-4.68.29a2,2,0,0,0,2.28,1.95,3.39,3.39,0,0,0,2.24-.87l.07,1.06a3.84,3.84,0,0,1-2.39.94c-1.77.11-3.37-1.05-3.52-3.51-.12-1.86.79-3.53,2.88-3.66C207.1,312.69,208,314.44,207.84,316.64Zm-1.19-1c-.11-1.08-.63-1.78-1.83-1.71-1,.06-1.62.68-1.71,1.92Z" transform="translate(-18.91 -127.97)"/><path class="cls-4" d="M213.55,319.36l-.42-6.89.9-.05.29,1.5a2.65,2.65,0,0,1,2.4-1.82c1.49-.09,2.44.71,2.55,2.43l.27,4.46-1.2.08-.25-4.16c-.05-.74-.45-1.72-1.62-1.65a2.26,2.26,0,0,0-1.93,2.52l.21,3.51Z" transform="translate(-18.91 -127.97)"/><path class="cls-4" d="M224.31,311.64c2.09-.13,3.32,1,3.46,3.23s-1.24,3.85-3,4-3.35-1.48-3.48-3.56C221.13,312.93,222.33,311.76,224.31,311.64Zm.37,6.06c1.36-.08,1.9-1.31,1.81-2.75s-.68-2.27-2.11-2.19-1.93.92-1.84,2.43S223.45,317.78,224.68,317.7Z" transform="translate(-18.91 -127.97)"/><path class="cls-4" d="M229.42,308.77l1.35-.08.07,1.2-1.34.08Zm1.44,2.62-1.2.07.42,6.89,1.2-.07Z" transform="translate(-18.91 -127.97)"/><path class="cls-4" d="M237.18,310.87l.08,1.18c-2.49.14-2.5,1.67-2.45,2.55l.21,3.45-1.19.07-.43-6.89.9-.05.28,1.42A2.47,2.47,0,0,1,237.18,310.87Z" transform="translate(-18.91 -127.97)"/><path class="cls-4" d="M65.55,342.82c.13,2.1-.82,3.83-2.85,3.95a2.67,2.67,0,0,1-2.39-1.19l.22,3.58-1.2.07L58.76,340l1.05-.06.25,1.36a2.85,2.85,0,0,1,2.57-1.7C64,339.46,65.39,340.25,65.55,342.82Zm-1.2.06c-.08-1.31-.65-2.35-2-2.26a2.37,2.37,0,0,0-2.14,2.67c0,.79.4,2.56,2.27,2.44C63.58,345.67,64.48,345,64.35,342.88Z" transform="translate(-18.91 -127.97)"/><path class="cls-4" d="M70.24,339.1c2.09-.13,3.32,1,3.46,3.23s-1.24,3.85-3,3.95-3.35-1.48-3.48-3.56C67.06,340.39,68.26,339.22,70.24,339.1Zm.37,6.06c1.36-.08,1.9-1.32,1.81-2.76s-.68-2.27-2.11-2.18-1.93.91-1.84,2.43S69.38,345.24,70.61,345.16Z" transform="translate(-18.91 -127.97)"/><path class="cls-4" d="M81.21,338.58l.42,6.88-.9.06-.29-1.5a2.61,2.61,0,0,1-2.25,1.8c-1.49.1-2.45-.7-2.55-2.42l-.27-4.47,1.19-.07.26,4.25c.07,1.07.45,1.64,1.47,1.58,1.42-.09,2-1.67,1.93-2.54l-.21-3.5Z" transform="translate(-18.91 -127.97)"/><path class="cls-4" d="M87.38,338.06l.07,1.19C85,339.38,85,340.92,85,341.8l.21,3.44-1.2.08-.42-6.89.9-.05.28,1.42A2.48,2.48,0,0,1,87.38,338.06Z" transform="translate(-18.91 -127.97)"/><path class="cls-4" d="M96.62,336.57a3.52,3.52,0,0,0-1.33-.19c-.68,0-.94.34-.9,1.09l0,.84,2-.13.06,1-2,.12.34,5.37-1.21.08-.33-5.38-1.23.08-.06-1,1.23-.08-.06-1a1.76,1.76,0,0,1,1.86-2,3.49,3.49,0,0,1,1.47.19Z" transform="translate(-18.91 -127.97)"/><path class="cls-4" d="M104.24,340l.1,4.06-.9.06-.29-1.26a3,3,0,0,1-2.52,1.58,2,2,0,0,1-2.28-1.9c-.06-1,.6-1.74,1.88-2.07l2.82-.73c-.18-1-.88-1.48-2-1.41a3.81,3.81,0,0,0-2.49,1.15l-.08-1.29a4.6,4.6,0,0,1,2.59-1C103.05,337.09,104.19,338.18,104.24,340Zm-1.1.94v-.21l-2.26.6c-1,.26-1.28.56-1.24,1.11a1,1,0,0,0,1.2,1A2.52,2.52,0,0,0,103.14,341Z" transform="translate(-18.91 -127.97)"/><path class="cls-4" d="M106.22,334.34l1.35-.08.07,1.2-1.34.08Zm1.44,2.62-1.2.07.42,6.89,1.2-.07Z" transform="translate(-18.91 -127.97)"/><path class="cls-4" d="M114,336.44l.07,1.18c-2.49.14-2.5,1.67-2.45,2.55l.22,3.45-1.2.07-.42-6.89.89-.05.29,1.42A2.46,2.46,0,0,1,114,336.44Z" transform="translate(-18.91 -127.97)"/><path class="cls-4" d="M121.4,340l-4.69.28A2,2,0,0,0,119,342.2a3.39,3.39,0,0,0,2.24-.87l.07,1.06a3.87,3.87,0,0,1-2.39.94c-1.77.11-3.38-1.05-3.53-3.51-.11-1.85.8-3.53,2.89-3.66C120.66,336,121.57,337.76,121.4,340Zm-1.19-1c-.11-1.08-.63-1.78-1.83-1.71a1.8,1.8,0,0,0-1.72,1.92Z" transform="translate(-18.91 -127.97)"/><path class="cls-4" d="M132,335.47l-2.25,7-.9.06-3.1-6.73,1.25-.07,1.78,4,.39,1.19h.06l.24-1.23,1.28-4.19Z" transform="translate(-18.91 -127.97)"/><path class="cls-4" d="M133.31,332.69l1.34-.09.08,1.2-1.35.08Zm1.43,2.61-1.19.08.42,6.88,1.2-.07Z" transform="translate(-18.91 -127.97)"/><path class="cls-4" d="M142.57,334.82l-2.25,7.05-.9.06-3.1-6.72,1.25-.08,1.78,4,.39,1.19h.06l.24-1.23,1.28-4.2Z" transform="translate(-18.91 -127.97)"/><path class="cls-4" d="M147.93,334.36l.07,1.18c-2.49.14-2.5,1.67-2.45,2.56l.22,3.44-1.2.07-.42-6.88.89-.06.29,1.43A2.47,2.47,0,0,1,147.93,334.36Z" transform="translate(-18.91 -127.97)"/><path class="cls-4" d="M155.34,337.89l-4.69.29a2,2,0,0,0,2.29,1.95,3.4,3.4,0,0,0,2.24-.88l.07,1.07a4,4,0,0,1-2.39.94c-1.77.11-3.37-1.06-3.52-3.51-.12-1.86.79-3.54,2.88-3.67C154.6,333.94,155.51,335.68,155.34,337.89Zm-1.19-1c-.11-1.07-.63-1.78-1.83-1.71-1,.06-1.62.69-1.71,1.93Z" transform="translate(-18.91 -127.97)"/><path class="cls-4" d="M166.31,336.21l.1,4.07-.9.05-.28-1.26a3,3,0,0,1-2.52,1.58,2,2,0,0,1-2.28-1.9c-.06-1,.6-1.74,1.87-2.07l2.83-.73c-.19-1-.89-1.48-2.06-1.4a3.8,3.8,0,0,0-2.48,1.14l-.08-1.29a4.54,4.54,0,0,1,2.58-1C165.13,333.29,166.26,334.38,166.31,336.21Zm-3.19-3.55-2-1.83,1.69-.1.83,1.9Zm2.09,4.49v-.21l-2.26.61c-1,.25-1.27.55-1.24,1.11a1,1,0,0,0,1.2,1A2.53,2.53,0,0,0,165.21,337.15Z" transform="translate(-18.91 -127.97)"/><path class="cls-4" d="M171.78,329.73l1.2-.07.63,10.18-1.19.07Z" transform="translate(-18.91 -127.97)"/><path class="cls-4" d="M175.37,331.63l-.09-1.35,1.72-.1a5.89,5.89,0,0,1-.56,3.5l-1-.54a5.23,5.23,0,0,0,.67-1.56Z" transform="translate(-18.91 -127.97)"/><path class="cls-4" d="M185.25,332.21l.42,6.89-.9,0-.29-1.5a2.65,2.65,0,0,1-2.25,1.81c-1.5.09-2.45-.71-2.55-2.43l-.27-4.46,1.19-.07.26,4.25c.07,1.06.45,1.64,1.47,1.58,1.42-.09,2-1.67,1.93-2.54l-.21-3.5Z" transform="translate(-18.91 -127.97)"/><path class="cls-4" d="M187,333.08l0-.63a2.53,2.53,0,0,0,1.7-2l.7,0,.09,1.51,2.55-.15.06,1-2.55.16.22,3.58c.06,1,.53,1.34,1.15,1.31a2.17,2.17,0,0,0,1.2-.44l.06.95a2.19,2.19,0,0,1-1.51.62c-1.26.07-2-.8-2.08-2.16l-.24-3.79Z" transform="translate(-18.91 -127.97)"/><path class="cls-4" d="M193.55,329l1.35-.08.07,1.2-1.34.08Zm1.44,2.62-1.2.07.42,6.89,1.2-.08Z" transform="translate(-18.91 -127.97)"/><path class="cls-4" d="M197.33,328.17l1.2-.07.64,10.17-1.2.08Z" transform="translate(-18.91 -127.97)"/><path class="cls-4" d="M201.05,328.54l1.35-.08.08,1.2-1.35.08Zm1.44,2.62-1.2.07.43,6.89,1.19-.07Z" transform="translate(-18.91 -127.97)"/><path class="cls-4" d="M207.47,336.88c.87-.05,1.59-.49,1.55-1.16s-.32-.66-1.38-.91l-.9-.22c-1.2-.28-2-.76-2.05-1.85-.08-1.29,1.09-1.93,2.39-2a5.34,5.34,0,0,1,2.44.42l.07,1.14a4.94,4.94,0,0,0-2.49-.51c-.82.05-1.3.38-1.27.81s.31.73,1.5,1l.82.21c1,.24,1.92.63,2,1.83.08,1.44-1.22,2.18-2.54,2.26a4.33,4.33,0,0,1-2.51-.54L205,336.2A3.92,3.92,0,0,0,207.47,336.88Z" transform="translate(-18.91 -127.97)"/><path class="cls-4" d="M217.47,333.08l.1,4.07-.9.05-.29-1.26a3,3,0,0,1-2.51,1.59,2,2,0,0,1-2.28-1.91c-.06-1,.6-1.73,1.87-2.07l2.82-.73c-.18-1-.88-1.47-2.05-1.4a3.8,3.8,0,0,0-2.48,1.14l-.08-1.29a4.54,4.54,0,0,1,2.58-1C216.29,330.16,217.42,331.25,217.47,333.08Zm-1.1.94v-.21l-2.26.61c-1,.25-1.28.55-1.24,1.11a1,1,0,0,0,1.2,1A2.53,2.53,0,0,0,216.37,334Z" transform="translate(-18.91 -127.97)"/><path class="cls-4" d="M218.78,331.14l0-.63a2.51,2.51,0,0,0,1.7-2l.7,0,.1,1.51,2.54-.15.06,1-2.54.16.22,3.57c.06,1,.53,1.35,1.14,1.32a2.31,2.31,0,0,0,1.21-.44l.06.94a2.17,2.17,0,0,1-1.51.62c-1.26.08-2-.79-2.09-2.15l-.23-3.79Z" transform="translate(-18.91 -127.97)"/><path class="cls-4" d="M231.17,333.25l-4.68.29a2,2,0,0,0,2.28,1.95,3.43,3.43,0,0,0,2.25-.88l.06,1.07a3.84,3.84,0,0,1-2.39.94c-1.77.11-3.37-1.06-3.52-3.51-.11-1.86.79-3.54,2.88-3.67C230.43,329.3,231.34,331.05,231.17,333.25Zm-1.18-1c-.11-1.07-.64-1.78-1.84-1.7-1,.06-1.62.68-1.71,1.92Z" transform="translate(-18.91 -127.97)"/><path class="cls-4" d="M238.63,329l.42,6.88-.89.06-.29-1.5a2.65,2.65,0,0,1-2.25,1.81c-1.5.09-2.45-.71-2.55-2.43l-.27-4.46,1.19-.08.26,4.25c.07,1.07.45,1.64,1.47,1.58,1.42-.09,2-1.67,1.93-2.54l-.21-3.5Z" transform="translate(-18.91 -127.97)"/><path class="cls-4" d="M244.81,328.43l.07,1.19c-2.49.13-2.5,1.67-2.44,2.55l.21,3.44-1.2.08L241,328.8l.9-.05.28,1.42A2.48,2.48,0,0,1,244.81,328.43Z" transform="translate(-18.91 -127.97)"/><path class="cls-4" d="M245.39,335.45l-.08-1.35L247,334a6,6,0,0,1-.57,3.51l-1-.54a5.34,5.34,0,0,0,.67-1.56Z" transform="translate(-18.91 -127.97)"/><path class="cls-4" d="M59.66,354.62l1.2-.07.64,10.18-1.2.07Z" transform="translate(-18.91 -127.97)"/><path class="cls-4" d="M63.25,356.52l-.08-1.35,1.72-.1a6,6,0,0,1-.57,3.5l-1-.54a5.23,5.23,0,0,0,.67-1.56Z" transform="translate(-18.91 -127.97)"/><path class="cls-4" d="M72.69,361l-4.69.28a2,2,0,0,0,2.28,1.95,3.42,3.42,0,0,0,2.25-.87l.06,1.06a3.87,3.87,0,0,1-2.39,1c-1.76.1-3.37-1.06-3.52-3.52-.11-1.85.79-3.53,2.89-3.66C72,357,72.85,358.77,72.69,361Zm-1.19-1c-.11-1.08-.63-1.78-1.83-1.71-1,.06-1.63.69-1.72,1.93Z" transform="translate(-18.91 -127.97)"/><path class="cls-4" d="M74.79,357l1.94,2.53,1.61-2.74,1.37-.09-2.24,3.59,2.67,3.3-1.38.08-1.93-2.52-1.62,2.74-1.38.08,2.26-3.59-2.68-3.29Z" transform="translate(-18.91 -127.97)"/><path class="cls-4" d="M87.92,359.49c.13,2.1-.81,3.82-2.85,3.95a2.68,2.68,0,0,1-2.39-1.19l.22,3.57-1.2.08-.56-9.29,1-.06.25,1.37A2.87,2.87,0,0,1,85,356.21C86.37,356.13,87.77,356.92,87.92,359.49Zm-1.19.06c-.08-1.32-.66-2.35-2-2.27A2.37,2.37,0,0,0,82.62,360c0,.79.39,2.56,2.27,2.45C86,362.33,86.85,361.63,86.73,359.55Z" transform="translate(-18.91 -127.97)"/><path class="cls-4" d="M95.58,359.58l-4.69.28a2,2,0,0,0,2.29,1.95,3.41,3.41,0,0,0,2.24-.87l.07,1.06a3.92,3.92,0,0,1-2.39.95c-1.77.1-3.38-1.06-3.53-3.52-.11-1.85.8-3.53,2.89-3.66C94.84,355.63,95.75,357.37,95.58,359.58Zm-1.19-1c-.11-1.08-.63-1.78-1.83-1.71a1.81,1.81,0,0,0-1.72,1.93ZM92.5,355l-.52,0,.6-2,1.69-.1Z" transform="translate(-18.91 -127.97)"/><path class="cls-4" d="M101.21,355.25l.07,1.18c-2.49.14-2.5,1.67-2.45,2.56l.21,3.44-1.19.07-.42-6.88.89-.06.29,1.43A2.47,2.47,0,0,1,101.21,355.25Z" transform="translate(-18.91 -127.97)"/><path class="cls-4" d="M102.62,352.6l1.35-.09.07,1.2-1.35.08Zm1.44,2.61-1.2.08.42,6.88,1.2-.07Z" transform="translate(-18.91 -127.97)"/><path class="cls-4" d="M112.36,358.55l-4.68.29a2,2,0,0,0,2.28,2,3.43,3.43,0,0,0,2.25-.88l.06,1.07a3.84,3.84,0,0,1-2.39.94c-1.77.11-3.37-1.06-3.52-3.51-.12-1.86.79-3.54,2.88-3.67C111.62,354.6,112.53,356.35,112.36,358.55Zm-1.18-1c-.12-1.07-.64-1.78-1.84-1.7-1,.06-1.62.68-1.71,1.92Z" transform="translate(-18.91 -127.97)"/><path class="cls-4" d="M114.63,361.48l-.42-6.89.9,0,.28,1.5a2.67,2.67,0,0,1,2.4-1.82c1.5-.09,2.45.71,2.56,2.43l.27,4.46-1.2.07-.25-4.16a1.55,1.55,0,0,0-1.62-1.64,2.27,2.27,0,0,0-1.94,2.52l.22,3.5Z" transform="translate(-18.91 -127.97)"/><path class="cls-4" d="M125.33,354.87c-1.27.08-1.8.92-1.71,2.44.11,1.79,1.12,2.59,2.3,2.52a3.59,3.59,0,0,0,2.06-.76l.06,1.09a3.67,3.67,0,0,1-2.1.78c-2.17.13-3.47-1.47-3.59-3.56-.15-2.33,1.12-3.51,2.91-3.62a4.46,4.46,0,0,1,2.51.6l.06,1.13A4.39,4.39,0,0,0,125.33,354.87Z" transform="translate(-18.91 -127.97)"/><path class="cls-4" d="M135.51,357.14l-4.69.28a2,2,0,0,0,2.29,1.95,3.41,3.41,0,0,0,2.24-.87l.07,1.06a3.87,3.87,0,0,1-2.39.94c-1.77.11-3.38-1.05-3.53-3.51-.11-1.85.79-3.53,2.89-3.66C134.77,353.18,135.67,354.93,135.51,357.14Zm-1.19-1c-.11-1.08-.63-1.78-1.83-1.71a1.8,1.8,0,0,0-1.72,1.92Z" transform="translate(-18.91 -127.97)"/><path class="cls-4" d="M146.66,349.3l.62,10.18-.92.06-.27-1.19a2.63,2.63,0,0,1-2.22,1.49c-2,.13-3.19-1.47-3.32-3.57-.16-2.57,1.14-3.53,2.5-3.61a2.87,2.87,0,0,1,2.69,1.27l-.28-4.56Zm-.79,6.78a2.31,2.31,0,0,0-2.44-2.32c-1.31.09-1.69,1.1-1.61,2.42.13,2.08,1,2.6,2.1,2.53C145.79,358.6,145.92,356.87,145.87,356.08Z" transform="translate(-18.91 -127.97)"/><path class="cls-4" d="M149,351.27l-.09-1.34,1.73-.11a6,6,0,0,1-.57,3.51l-1-.54a5.34,5.34,0,0,0,.67-1.56Z" transform="translate(-18.91 -127.97)"/><path class="cls-4" d="M158.91,351.86l.43,6.88-.9.06-.29-1.5a2.61,2.61,0,0,1-2.25,1.8c-1.49.1-2.45-.7-2.55-2.42l-.27-4.47,1.19-.07.26,4.25c.07,1.07.45,1.64,1.47,1.58,1.42-.09,2-1.67,1.93-2.54l-.21-3.5Z" transform="translate(-18.91 -127.97)"/><path class="cls-4" d="M161.73,358.6l-.42-6.89.9,0,.29,1.5a2.65,2.65,0,0,1,2.39-1.82c1.5-.09,2.45.71,2.56,2.43l.27,4.46-1.2.07-.25-4.16a1.55,1.55,0,0,0-1.62-1.64,2.27,2.27,0,0,0-1.94,2.52l.22,3.5Z" transform="translate(-18.91 -127.97)"/><path class="cls-4" d="M175.45,354.69l-4.68.29a2,2,0,0,0,2.28,1.95,3.38,3.38,0,0,0,2.25-.88l.06,1.07a3.81,3.81,0,0,1-2.39.94c-1.77.11-3.37-1.06-3.52-3.51-.11-1.86.79-3.54,2.88-3.66C174.71,350.74,175.62,352.49,175.45,354.69Zm-1.18-1c-.11-1.07-.64-1.78-1.84-1.7-1,.06-1.62.68-1.71,1.92Z" transform="translate(-18.91 -127.97)"/><path class="cls-4" d="M187.53,353.4c.13,2.09-.82,3.82-2.85,3.94a2.64,2.64,0,0,1-2.39-1.19l.22,3.58-1.2.07-.56-9.28,1-.06.25,1.37a2.84,2.84,0,0,1,2.57-1.71C186,350,187.38,350.82,187.53,353.4Zm-1.2.06c-.08-1.32-.65-2.35-2-2.27a2.36,2.36,0,0,0-2.13,2.67c0,.79.39,2.56,2.26,2.44C185.56,356.24,186.46,355.54,186.33,353.46Z" transform="translate(-18.91 -127.97)"/><path class="cls-4" d="M195.19,353.49l-4.69.28a2,2,0,0,0,2.28,2,3.42,3.42,0,0,0,2.25-.87l.06,1.06a3.81,3.81,0,0,1-2.39.94c-1.76.11-3.37-1.05-3.52-3.51-.11-1.86.79-3.53,2.89-3.66C194.45,349.53,195.35,351.28,195.19,353.49Zm-1.19-1c-.11-1.08-.63-1.78-1.83-1.71a1.8,1.8,0,0,0-1.72,1.92Z" transform="translate(-18.91 -127.97)"/><path class="cls-4" d="M200.81,349.16l.07,1.18c-2.48.14-2.49,1.67-2.44,2.56l.21,3.44-1.19.07-.43-6.88.9-.06.28,1.42A2.48,2.48,0,0,1,200.81,349.16Z" transform="translate(-18.91 -127.97)"/><path class="cls-4" d="M204.9,355.07c.87-.05,1.6-.49,1.55-1.16s-.32-.66-1.37-.91l-.9-.22c-1.21-.28-2-.76-2.06-1.85-.07-1.29,1.09-1.93,2.39-2a5.41,5.41,0,0,1,2.45.42l.07,1.14a5,5,0,0,0-2.5-.51c-.82,0-1.3.38-1.27.81s.31.73,1.5,1l.83.21c1,.24,1.91.63,2,1.83.09,1.44-1.22,2.18-2.54,2.26a4.33,4.33,0,0,1-2.51-.54l-.07-1.17A3.88,3.88,0,0,0,204.9,355.07Z" transform="translate(-18.91 -127.97)"/><path class="cls-4" d="M212,348.46c2.1-.13,3.33,1,3.46,3.23s-1.24,3.85-3,4-3.35-1.48-3.48-3.56C208.83,349.75,210,348.58,212,348.46Zm.37,6.06c1.36-.08,1.91-1.32,1.82-2.75s-.68-2.28-2.12-2.19-1.93.92-1.84,2.43S211.15,354.6,212.38,354.52Z" transform="translate(-18.91 -127.97)"/><path class="cls-4" d="M217.79,355.17l-.42-6.89.89,0,.29,1.5a2.65,2.65,0,0,1,2.4-1.82c1.5-.09,2.45.71,2.55,2.43l.28,4.46-1.2.08-.26-4.17a1.55,1.55,0,0,0-1.61-1.64,2.27,2.27,0,0,0-1.94,2.52l.21,3.51Z" transform="translate(-18.91 -127.97)"/><path class="cls-4" d="M226.17,354.66l-.42-6.89.9-.06.29,1.5a2.64,2.64,0,0,1,2.39-1.81c1.5-.09,2.45.71,2.56,2.43l.27,4.46-1.2.07-.25-4.16c-.05-.73-.45-1.72-1.62-1.64a2.25,2.25,0,0,0-1.93,2.52l.21,3.5Z" transform="translate(-18.91 -127.97)"/><path class="cls-4" d="M239.89,350.75l-4.68.29a2,2,0,0,0,2.28,1.95,3.43,3.43,0,0,0,2.25-.88l.06,1.07a3.81,3.81,0,0,1-2.39.94c-1.77.11-3.37-1.06-3.52-3.51-.11-1.86.79-3.54,2.89-3.67C239.16,346.8,240.06,348.55,239.89,350.75Zm-1.18-1c-.11-1.07-.64-1.78-1.83-1.71-1,.06-1.63.69-1.72,1.93Z" transform="translate(-18.91 -127.97)"/><path class="cls-4" d="M66.82,372.22l.62,10.18-.92.06-.27-1.19A2.65,2.65,0,0,1,64,382.76c-2,.12-3.19-1.48-3.32-3.57-.15-2.58,1.14-3.53,2.5-3.61a2.86,2.86,0,0,1,2.69,1.26l-.27-4.55ZM66,379a2.31,2.31,0,0,0-2.44-2.32c-1.32.08-1.7,1.1-1.62,2.42.13,2.08,1,2.59,2.1,2.53C66,381.51,66.08,379.79,66,379Z" transform="translate(-18.91 -127.97)"/><path class="cls-4" d="M75.33,378.85l-4.69.29a2,2,0,0,0,2.29,1.95,3.42,3.42,0,0,0,2.24-.88l.07,1.07a4,4,0,0,1-2.39.94c-1.77.11-3.38-1.06-3.53-3.51-.11-1.86.79-3.54,2.89-3.67C74.59,374.9,75.49,376.65,75.33,378.85Zm-1.19-1c-.11-1.07-.63-1.78-1.83-1.71a1.81,1.81,0,0,0-1.72,1.93Zm-1.89-3.58-.52,0,.6-2,1.69-.1Z" transform="translate(-18.91 -127.97)"/><path class="cls-4" d="M81.32,373.57a3.55,3.55,0,0,0-1.34-.19c-.67,0-.94.34-.89,1.09l0,.84,2-.12.06,1-2,.12.35,5.38-1.22.07-.32-5.38-1.23.08-.06-1L78,375.4l-.06-1a1.76,1.76,0,0,1,1.85-2,3.33,3.33,0,0,1,1.47.2Z" transform="translate(-18.91 -127.97)"/><path class="cls-4" d="M83,371.83l1.35-.08.08,1.19-1.35.09Zm1.44,2.62-1.2.07.43,6.89,1.19-.08Z" transform="translate(-18.91 -127.97)"/><path class="cls-4" d="M89.74,375.08c-1.28.08-1.81.93-1.72,2.44.11,1.79,1.12,2.59,2.3,2.52a3.47,3.47,0,0,0,2.06-.76l.07,1.09a3.65,3.65,0,0,1-2.1.78c-2.17.13-3.47-1.47-3.6-3.55-.14-2.34,1.12-3.51,2.92-3.62a4.33,4.33,0,0,1,2.5.59l.07,1.13A4.44,4.44,0,0,0,89.74,375.08Z" transform="translate(-18.91 -127.97)"/><path class="cls-4" d="M93.91,371.16l1.35-.08.07,1.2-1.34.08Zm1.44,2.62-1.2.07.42,6.89,1.2-.07Z" transform="translate(-18.91 -127.97)"/><path class="cls-4" d="M103.58,376.12l.1,4.06-.9.06-.29-1.26a3.07,3.07,0,0,1-2.52,1.58,2,2,0,0,1-2.28-1.91c-.06-1,.6-1.73,1.87-2.06l2.83-.73c-.18-1-.89-1.48-2-1.41a3.83,3.83,0,0,0-2.49,1.14l-.08-1.28a4.6,4.6,0,0,1,2.59-1C102.39,373.2,103.53,374.29,103.58,376.12Zm-1.1.93v-.21l-2.27.61c-1,.25-1.27.56-1.23,1.11a1,1,0,0,0,1.2,1A2.52,2.52,0,0,0,102.48,377.05Z" transform="translate(-18.91 -127.97)"/><path class="cls-4" d="M106.22,380l-.42-6.89.9-.05.29,1.49a2.66,2.66,0,0,1,2.4-1.81c1.49-.09,2.44.71,2.55,2.43l.27,4.46-1.2.07-.25-4.16c-.05-.73-.45-1.72-1.62-1.64a2.25,2.25,0,0,0-1.93,2.52l.21,3.5Z" transform="translate(-18.91 -127.97)"/><path class="cls-4" d="M113.57,373.64l0-.63a2.5,2.5,0,0,0,1.7-2l.71,0,.09,1.51,2.54-.15.06,1-2.54.16.22,3.57c.06,1,.53,1.35,1.14,1.32a2.31,2.31,0,0,0,1.21-.44l.06.95a2.16,2.16,0,0,1-1.51.61c-1.26.08-2-.79-2.09-2.15l-.23-3.79Z" transform="translate(-18.91 -127.97)"/><path class="cls-4" d="M126,375.75l-4.68.29a2,2,0,0,0,2.28,1.95,3.42,3.42,0,0,0,2.25-.87l.06,1.06a3.81,3.81,0,0,1-2.39.94c-1.77.11-3.37-1.06-3.52-3.51-.11-1.86.79-3.54,2.89-3.66C125.23,371.8,126.13,373.55,126,375.75Zm-1.18-1c-.11-1.07-.64-1.78-1.84-1.7-1,.06-1.62.68-1.71,1.92Z" transform="translate(-18.91 -127.97)"/><path class="cls-4" d="M136.54,371.26l-2.26,7.05-.9.06-3.1-6.73,1.26-.07,1.78,4,.38,1.2h.07l.23-1.23,1.28-4.19Z" transform="translate(-18.91 -127.97)"/><path class="cls-4" d="M137.87,368.47l1.35-.08.07,1.2-1.35.08Zm1.44,2.62-1.2.07.42,6.89,1.2-.07Z" transform="translate(-18.91 -127.97)"/><path class="cls-4" d="M144.29,376.81c.87-.05,1.59-.49,1.55-1.16,0-.52-.33-.66-1.38-.91l-.9-.21c-1.2-.29-2-.77-2.05-1.86-.08-1.29,1.08-1.93,2.39-2a5.36,5.36,0,0,1,2.44.42l.07,1.14a5,5,0,0,0-2.5-.51c-.82.05-1.29.38-1.27.81s.32.74,1.51,1l.82.21c1,.24,1.92.63,2,1.83.09,1.44-1.22,2.18-2.53,2.26a4.39,4.39,0,0,1-2.52-.54l-.07-1.17A3.91,3.91,0,0,0,144.29,376.81Z" transform="translate(-18.91 -127.97)"/><path class="cls-4" d="M154.22,370.18l.42,6.88-.9.06-.28-1.5a2.65,2.65,0,0,1-2.25,1.81c-1.5.09-2.45-.71-2.56-2.43l-.27-4.46,1.2-.08.26,4.25c.06,1.07.45,1.64,1.46,1.58,1.43-.08,2-1.67,1.94-2.54l-.22-3.5Z" transform="translate(-18.91 -127.97)"/><path class="cls-4" d="M162.37,373.53l-4.68.28a2,2,0,0,0,2.28,1.95,3.42,3.42,0,0,0,2.25-.87l.06,1.06a3.81,3.81,0,0,1-2.39.94c-1.77.11-3.37-1.05-3.52-3.51-.11-1.85.79-3.53,2.89-3.66C161.64,369.57,162.54,371.32,162.37,373.53Zm-1.18-1c-.11-1.08-.64-1.78-1.84-1.71a1.8,1.8,0,0,0-1.71,1.92Z" transform="translate(-18.91 -127.97)"/><path class="cls-4" d="M164,366.27l1.2-.07.64,10.18-1.2.07Z" transform="translate(-18.91 -127.97)"/><path class="cls-4" d="M167.78,366,169,366l.63,10.18-1.19.07Z" transform="translate(-18.91 -127.97)"/><path class="cls-4" d="M177.5,372.6l-4.69.29a2,2,0,0,0,2.28,1.95,3.43,3.43,0,0,0,2.25-.88l.06,1.07A3.81,3.81,0,0,1,175,376c-1.76.11-3.37-1.06-3.52-3.51-.11-1.86.79-3.54,2.89-3.67C176.76,368.65,177.66,370.4,177.5,372.6Zm-1.19-1c-.11-1.07-.64-1.78-1.83-1.7-1,.05-1.63.68-1.72,1.92Z" transform="translate(-18.91 -127.97)"/><path class="cls-4" d="M179.53,374.19l1.57-.1.09,1.35-1.58.1Z" transform="translate(-18.91 -127.97)"/></svg>