<svg id="Calque_1" data-name="Calque 1" xmlns="http://www.w3.org/2000/svg" width="297.51" height="181.26" viewBox="0 0 297.51 181.26"><defs><style>.cls-1{fill:#086886;}.cls-2{fill:none;}.cls-3{fill:#fa7b75;}</style></defs><polygon class="cls-1" points="130.53 0 120.81 10.02 107.75 2.06 99.81 12.99 85.56 6.39 79.63 18.09 64.38 13.1 60.77 25.39 44.77 22.27 43.85 34.91 27.46 34.01 29.64 46.62 13.45 48.29 19.09 60.31 3.94 64.83 13.13 75.52 0 82.83 12.29 91.48 2.04 101.15 16.64 107.23 9.77 118.59 25.7 121.95 22.21 134.26 38.6 135.07 38.19 147.74 54.44 146.31 56.73 158.91 72.43 155.54 77.1 167.8 91.96 162.73 98.72 174.43 112.54 167.87 121.15 178.85 133.76 171 144.01 181.12 155.27 172.12 166.99 181.25 176.7 171.24 189.76 179.2 197.71 168.27 211.95 174.86 217.88 163.16 233.13 168.16 236.74 155.86 252.75 158.98 253.66 146.34 270.05 147.25 267.87 134.64 284.06 132.97 278.42 120.95 293.57 116.43 284.39 105.74 297.51 98.42 285.22 89.78 295.47 80.11 280.88 74.03 287.75 62.67 271.82 59.31 275.31 47 258.91 46.18 259.32 33.52 243.08 34.95 240.78 22.34 225.09 25.72 220.41 13.46 205.55 18.53 198.79 6.83 184.97 13.38 176.36 2.4 163.75 10.26 153.5 0.14 142.24 9.13 130.53 0"/><path class="cls-2" d="M111.37,65.61a2.3,2.3,0,0,0,1.62-.46,2.25,2.25,0,0,0,.72-1.72,1.94,1.94,0,0,0-.54-1.59,2.49,2.49,0,0,0-1.53-.58,2.17,2.17,0,0,0-1.54.49,1.94,1.94,0,0,0-.69,1.46,2.47,2.47,0,0,0,.47,1.69A1.93,1.93,0,0,0,111.37,65.61Z" transform="translate(-1.78 0.34)"/><path class="cls-2" d="M138.21,62.47a2.35,2.35,0,0,0-1.38-.47,3.25,3.25,0,0,0-1.66.3,2.07,2.07,0,0,0-.95,1l4.71.24A2.06,2.06,0,0,0,138.21,62.47Z" transform="translate(-1.78 0.34)"/><path class="cls-2" d="M146.06,118.54a2.34,2.34,0,0,0-2.75,2.26,2.38,2.38,0,0,0,2.5,2.52c1.77.09,2.91-.79,3-2.23S147.81,118.64,146.06,118.54Z" transform="translate(-1.78 0.34)"/><path class="cls-2" d="M167.68,119.66a2.52,2.52,0,0,0-2.71,1.5l5.06.26C170,120.43,169.13,119.74,167.68,119.66Z" transform="translate(-1.78 0.34)"/><path class="cls-2" d="M88.74,84.28A2.36,2.36,0,0,0,91.47,82,2.33,2.33,0,0,0,89,79.5c-1.76-.09-2.91.72-3,2.25S87,84.19,88.74,84.28Z" transform="translate(-1.78 0.34)"/><path class="cls-2" d="M70.51,57.4a.78.78,0,0,0,.53-.77.66.66,0,0,0-.47-.67,5.19,5.19,0,0,0-1.7-.28L65,55.48l-.1,1.85,3.83.2A4.52,4.52,0,0,0,70.51,57.4Z" transform="translate(-1.78 0.34)"/><path class="cls-2" d="M101,116.17a2.49,2.49,0,0,0-2.7,1.49l5.06.27C103.34,116.94,102.49,116.24,101,116.17Z" transform="translate(-1.78 0.34)"/><path class="cls-2" d="M90.88,115.64a2.5,2.5,0,0,0-2.71,1.49l5.06.27C93.18,116.4,92.33,115.71,90.88,115.64Z" transform="translate(-1.78 0.34)"/><path class="cls-2" d="M107.22,98.47a2.49,2.49,0,0,0-2.9,2.28c-.08,1.53,1.09,2.44,2.65,2.53a2.43,2.43,0,1,0,.25-4.81Z" transform="translate(-1.78 0.34)"/><path class="cls-2" d="M79,97a2.32,2.32,0,0,0-2.75,2.24,2.36,2.36,0,0,0,2.5,2.52c1.76.1,2.91-.81,3-2.23S80.78,97.11,79,97Z" transform="translate(-1.78 0.34)"/><path class="cls-2" d="M78.05,78.91a2.5,2.5,0,0,0-2.7,1.5l5.06.27C80.35,79.68,79.5,79,78.05,78.91Z" transform="translate(-1.78 0.34)"/><path class="cls-2" d="M125,117.45a2.32,2.32,0,0,0-2.74,2.25,2.37,2.37,0,0,0,2.49,2.52c1.77.09,2.91-.81,3-2.24S126.71,117.54,125,117.45Z" transform="translate(-1.78 0.34)"/><path class="cls-2" d="M70.09,62.86a1.42,1.42,0,0,0,.8-.28.8.8,0,0,0,.27-.61.77.77,0,0,0-.53-.78,5.94,5.94,0,0,0-2-.34l-3.83-.2-.11,2,3.83.2A11.57,11.57,0,0,0,70.09,62.86Z" transform="translate(-1.78 0.34)"/><path class="cls-2" d="M192.07,119.08l-4.2-.22-.17,3.25,4.2.22a1.56,1.56,0,0,0,1.81-1.53A1.54,1.54,0,0,0,192.07,119.08Z" transform="translate(-1.78 0.34)"/><path class="cls-2" d="M226.56,122.75a2.5,2.5,0,0,0-2.71,1.49l5.07.27C228.86,123.51,228,122.82,226.56,122.75Z" transform="translate(-1.78 0.34)"/><path class="cls-2" d="M207.64,121.76a2.51,2.51,0,0,0-2.71,1.49l5.07.27C209.94,122.52,209.09,121.83,207.64,121.76Z" transform="translate(-1.78 0.34)"/><path class="cls-3" d="M73.22,66.25a4.08,4.08,0,0,0,2.3-1.36,4.21,4.21,0,0,0,.74-2.28q.15-2.89-4.4-3.13a6,6,0,0,0,3-1.38,3.14,3.14,0,0,0,1-2.12,3.18,3.18,0,0,0-.48-2,3.74,3.74,0,0,0-2-1.29,14.92,14.92,0,0,0-3.88-.62l-4.25-.22v0l-4.7-.25q0,3.88-.22,7.26c-.11,2.25-.29,4.67-.54,7.24l9,.48A14.52,14.52,0,0,0,73.22,66.25ZM65,55.48l3.83.2a5.19,5.19,0,0,1,1.7.28.66.66,0,0,1,.47.67.78.78,0,0,1-.53.77,4.52,4.52,0,0,1-1.74.13l-3.83-.2Zm-.38,7.19.11-2,3.83.2a5.94,5.94,0,0,1,2,.34.77.77,0,0,1,.53.78.8.8,0,0,1-.27.61,1.42,1.42,0,0,1-.8.28,11.57,11.57,0,0,1-1.6,0Z" transform="translate(-1.78 0.34)"/><path class="cls-3" d="M82.53,62.94c.09-1.65.16-2.87.21-3.67,0-.64.07-1.63.14-3s.15-2.74.28-4.63l-4.71-.25-.1,2.16c-.09,2.35-.18,4.16-.24,5.44s-.19,3.25-.34,5.73L77.63,67l4.71.25C82.36,66.36,82.42,64.93,82.53,62.94Z" transform="translate(-1.78 0.34)"/><path class="cls-3" d="M89.19,62.29c.09-1.74.24-3.61.45-5.58l-4.79-.26c0,2.07,0,3.94-.13,5.61-.08,1.39-.21,3.16-.42,5.3l4.75.25C89.07,65.53,89.12,63.75,89.19,62.29Z" transform="translate(-1.78 0.34)"/><path class="cls-3" d="M87.25,55.4a2.53,2.53,0,0,0,1.89-.52,2.4,2.4,0,0,0,.15-3.23,3,3,0,0,0-3.71-.2A2.25,2.25,0,0,0,84.89,53a2.2,2.2,0,0,0,.53,1.65A2.5,2.5,0,0,0,87.25,55.4Z" transform="translate(-1.78 0.34)"/><path class="cls-3" d="M95.74,65q0-.65.15-2.16a2.93,2.93,0,0,1,.63-1.58,1.37,1.37,0,0,1,1.15-.53,1.35,1.35,0,0,1,1.06.58,2.11,2.11,0,0,1,.35,1.42c-.08,1.65-.22,3.45-.4,5.4l4.49.24c0-1.07,0-2.49.13-4.26l.15-2.88a4.44,4.44,0,0,0-.35-2,3.34,3.34,0,0,0-1.25-1.49,3.89,3.89,0,0,0-2-.64,3.57,3.57,0,0,0-2.32.65A4.46,4.46,0,0,0,95.92,60l-.42-3c-.86,0-1.53,0-2,0s-1.14-.08-2-.17c0,2,0,3.78-.12,5.48s-.24,3.51-.45,5.43l4.77.25C95.67,66.87,95.69,65.88,95.74,65Z" transform="translate(-1.78 0.34)"/><path class="cls-3" d="M106.8,68a3.87,3.87,0,0,0,2.3.86,5.15,5.15,0,0,0,2.62-.49,4,4,0,0,0,1.79-1.88l-.19,2.39,4.51.24c.06-2.51.15-5.1.29-7.78s.32-5.29.53-7.76l-4.52-.24c0,.67-.06,1.81-.1,3.44s-.07,2.9-.11,3.66a3.87,3.87,0,0,0-1.54-2.09,5.17,5.17,0,0,0-2.63-.79,3.81,3.81,0,0,0-2.43.68,5.38,5.38,0,0,0-1.74,2,7,7,0,0,0-.73,2.8,6.59,6.59,0,0,0,.44,2.82A4.89,4.89,0,0,0,106.8,68Zm3.3-6.25a2.17,2.17,0,0,1,1.54-.49,2.49,2.49,0,0,1,1.53.58,1.94,1.94,0,0,1,.54,1.59,2.25,2.25,0,0,1-.72,1.72,2.3,2.3,0,0,1-1.62.46,1.93,1.93,0,0,1-1.49-.71,2.47,2.47,0,0,1-.47-1.69A1.94,1.94,0,0,1,110.1,61.75Z" transform="translate(-1.78 0.34)"/><path class="cls-3" d="M121,65.2a4.65,4.65,0,0,0,.81,3.19A4.17,4.17,0,0,0,125,69.7c.64,0,1.16,0,1.56,0a13.89,13.89,0,0,0,1.49-.13c0-.85,0-1.4,0-1.63a12.29,12.29,0,0,1,.16-1.5,5.21,5.21,0,0,1-.89,0,2,2,0,0,1-1.63-.7,2.71,2.71,0,0,1-.38-1.71l.13-2.12c1,.09,2.12.21,3.34.36l.19-3.54-3.86-.2a9.2,9.2,0,0,0,2.38-2.12l-5.44-.29a2.59,2.59,0,0,1-.94,1.54,2.56,2.56,0,0,1-1.79.57l-.18,3.53c.68,0,1.33,0,2,0Z" transform="translate(-1.78 0.34)"/><path class="cls-3" d="M136.12,70.28a9.37,9.37,0,0,0,4.29-.61,4.65,4.65,0,0,0,2.36-2.11,31.92,31.92,0,0,1-3.48-1.6,2.89,2.89,0,0,1-1.23.86,3.69,3.69,0,0,1-1.59.25,2.61,2.61,0,0,1-1.76-.64A2.45,2.45,0,0,1,134,65l6.51.34,2.48.13a5.21,5.21,0,0,0,.08-.78,4.88,4.88,0,0,0-.65-2.81,5.3,5.3,0,0,0-2.2-2,8.43,8.43,0,0,0-3.5-.87q-3.42-.18-5.11,1.3a5.32,5.32,0,0,0-1.83,4,5.45,5.45,0,0,0,1.41,4.2C132.21,69.55,133.85,70.16,136.12,70.28Zm-1-8a3.25,3.25,0,0,1,1.66-.3,2.35,2.35,0,0,1,1.38.47,2.06,2.06,0,0,1,.72,1.06l-4.71-.24A2.07,2.07,0,0,1,135.17,62.3Z" transform="translate(-1.78 0.34)"/><path class="cls-3" d="M157.12,67.27a2.35,2.35,0,0,0-1-2.2,6.24,6.24,0,0,0-3.18-.86c-.48,0-1.21,0-2.18,0a7.74,7.74,0,0,1-1,0,.92.92,0,0,1-.54-.18.55.55,0,0,1-.18-.46c0-.24.19-.44.53-.61a2.35,2.35,0,0,1,1.21-.21,7.92,7.92,0,0,1,2,.35,9.71,9.71,0,0,1,2.08,1l2.42-2.2a8.83,8.83,0,0,0-2.78-1.49,11.42,11.42,0,0,0-3.16-.62,9.82,9.82,0,0,0-4.92.71,3,3,0,0,0-1.81,2.64,2.38,2.38,0,0,0,1,2.25,5.56,5.56,0,0,0,2.85.82,19,19,0,0,0,2.14,0h1.13a1,1,0,0,1,.64.21.58.58,0,0,1,.22.51.76.76,0,0,1-.52.63,3.05,3.05,0,0,1-1.41.17,8.27,8.27,0,0,1-2.21-.48A7.08,7.08,0,0,1,146.29,66l-2.24,2.75a12,12,0,0,0,3.17,1.6,13.11,13.11,0,0,0,3.38.65,9.29,9.29,0,0,0,4.68-.73A3.34,3.34,0,0,0,157.12,67.27Z" transform="translate(-1.78 0.34)"/><path class="cls-3" d="M159.47,67.21a4.73,4.73,0,0,0,.8,3.2,4.16,4.16,0,0,0,3.25,1.3c.64,0,1.16.05,1.56,0a11.45,11.45,0,0,0,1.49-.12c0-.85,0-1.4,0-1.64a14.75,14.75,0,0,1,.16-1.49,4.25,4.25,0,0,1-.88,0,2,2,0,0,1-1.64-.69,2.81,2.81,0,0,1-.38-1.72L164,64c1,.09,2.13.21,3.35.35l.19-3.53-3.86-.2a9.36,9.36,0,0,0,2.37-2.12l-5.43-.29a2.64,2.64,0,0,1-.94,1.54,2.5,2.5,0,0,1-1.79.56l-.19,3.54c.69,0,1.34,0,2,0Z" transform="translate(-1.78 0.34)"/><polygon class="cls-3" points="61.5 84.63 63.91 79.54 65.71 84.85 67.53 84.94 71.21 77.67 69.06 77.56 66.69 82.71 65.15 77.35 62.92 77.24 60.76 82.41 59.01 77.03 56.87 76.92 59.67 84.53 61.5 84.63"/><path class="cls-3" d="M78.22,77.44c-2.88-.15-4.86,1.2-5,3.66s1.77,4,4.63,4.13c2.53.13,4-.92,4.33-2.43l-1.88-.1a2.37,2.37,0,0,1-2.42,1c-1.69-.09-2.63-1-2.72-2.19l7.1.38C82.57,79,81.14,77.59,78.22,77.44Zm-2.87,3a2.5,2.5,0,0,1,2.7-1.5c1.45.08,2.3.77,2.36,1.77Z" transform="translate(-1.78 0.34)"/><path class="cls-3" d="M85.91,83.55l0-.48a3.44,3.44,0,0,0,3.36,2.74,3.89,3.89,0,1,0,.4-7.77,3.25,3.25,0,0,0-3.61,2.2L86.35,75l-1.95-.1-.54,10.44,1.81.1C85.75,85,85.87,84.19,85.91,83.55Zm3.08-4A2.33,2.33,0,0,1,91.47,82a2.36,2.36,0,0,1-2.73,2.24C87,84.19,85.92,83.17,86,81.75S87.23,79.41,89,79.5Z" transform="translate(-1.78 0.34)"/><path class="cls-3" d="M94.56,88.16a2.73,2.73,0,0,0,2-2.63l.06-1.23-2.29-.11-.09,1.72.82.2a3.26,3.26,0,0,1-.76,1.53Z" transform="translate(-1.78 0.34)"/><path class="cls-3" d="M102.32,75.86l-.55,10.44,2,.1L104,82a2.8,2.8,0,0,1,2.7-1.38c1.51.08,2.07.74,2,2l-.21,4.09,1.94.1.25-4.76c.11-1.92-1.22-2.92-3-3A3.52,3.52,0,0,0,104,81.09l.27-5.13Z" transform="translate(-1.78 0.34)"/><polygon class="cls-3" points="112.27 77.78 112.16 79.82 110.24 79.72 110.16 81.23 112.08 81.33 111.77 87.26 113.72 87.36 114.03 81.43 115.94 81.53 116.02 80.02 114.11 79.92 114.21 77.88 112.27 77.78"/><path class="cls-3" d="M132,83.67l-.22,4.21,2,.1.24-4.56c.11-2.11-1.24-3.12-3.06-3.22a3.62,3.62,0,0,0-3.5,1.93,2.87,2.87,0,0,0-3-2.27A3.51,3.51,0,0,0,120.88,82l.11-2.15-1.95-.1-.39,7.45,1.95.1.23-4.44a3,3,0,0,1,2.86-1.45c1.38.07,1.92.67,1.85,1.93l-.22,4.21,2,.1.23-4.56c0-.07,0-.13,0-.19a3.09,3.09,0,0,1,2.65-1.15C131.55,81.81,132.11,82.41,132,83.67Z" transform="translate(-1.78 0.34)"/><rect class="cls-3" x="131.71" y="81.93" width="10.45" height="1.95" transform="translate(45.23 215.68) rotate(-87.01)"/><path class="cls-3" d="M148.29,87.94c.11-2-1.38-3.16-3.34-3.27a3.76,3.76,0,0,0-2.95,1l.42-3.07,5.12.27.09-1.67-6.94-.36L140,86.44l1.67.4a3,3,0,0,1,2.52-.81c1.2.06,2.27.64,2.21,1.8s-1.24,1.58-2.43,1.52-2.41-.64-2.47-1.57l-1.85-.1c0,1.91,1.93,3.15,4.32,3.28S148.19,90,148.29,87.94Z" transform="translate(-1.78 0.34)"/><path class="cls-3" d="M149.54,88.8l.82.21a3.27,3.27,0,0,1-.76,1.52l.24.53a2.75,2.75,0,0,0,2-2.63l.06-1.23-2.29-.12Z" transform="translate(-1.78 0.34)"/><path class="cls-3" d="M161.35,89.6c2.64.14,4.31-.93,4.57-2.88l-1.78-.09a2.48,2.48,0,0,1-2.71,1.48c-1.57-.09-2.78-1-2.69-2.53s1.38-2.35,2.94-2.27A2.55,2.55,0,0,1,164.2,85l1.78.09c-.07-1.94-1.6-3.18-4.22-3.31s-4.87,1.11-5,3.65S158.58,89.46,161.35,89.6Z" transform="translate(-1.78 0.34)"/><path class="cls-3" d="M170.51,86.75c1.24.26,1.81.43,1.78,1s-.35.86-1.48.8-1.81-.58-2-1.26l-1.8-.1c-.14.7.55,2.69,3.71,2.86,2.11.11,3.46-.62,3.53-2.06s-1.33-2-2.86-2.39c-1.37-.29-2-.46-2-1.09s.56-.81,1.53-.76,1.41.39,1.53,1.13l1.73.09c.06-1.5-1-2.6-3.18-2.72-2-.1-3.52.63-3.59,2.06S168.83,86.38,170.51,86.75Z" transform="translate(-1.78 0.34)"/><path class="cls-3" d="M179.86,86.1c-1.37-.3-2.05-.47-2-1.1s.56-.81,1.53-.76,1.41.39,1.53,1.13l1.73.09c.06-1.5-1-2.6-3.18-2.72-2-.1-3.52.63-3.59,2.07s1.42,2,3.1,2.38c1.23.26,1.81.43,1.78,1.06s-.35.85-1.49.79-1.8-.57-2-1.26l-1.8-.09c-.14.69.55,2.68,3.71,2.85,2.11.11,3.46-.62,3.53-2.05S181.38,86.51,179.86,86.1Z" transform="translate(-1.78 0.34)"/><path class="cls-3" d="M192.28,90.64c.09-1.71-1.21-2.3-3.15-2.56,1.82,0,3.12-.49,3.2-2s-1.42-2.74-4-2.87c-2.29-.12-4.25.95-4.24,2.81l1.88.1c.08-.82.87-1.32,2.28-1.25s2.07.6,2,1.43-.76,1.14-2.47,1l-1.27-.06-.08,1.5,1.27.06c1.63.09,2.56.48,2.51,1.43s-.89,1.44-2.34,1.36-2.26-.69-2.23-1.56l-1.89-.1c-.2,1.82,1.46,3.19,4,3.32S192.19,92.32,192.28,90.64Z" transform="translate(-1.78 0.34)"/><path class="cls-3" d="M193.38,91.1l.82.21a3.27,3.27,0,0,1-.76,1.52l.25.53a2.73,2.73,0,0,0,2-2.63l.07-1.23-2.3-.12Z" transform="translate(-1.78 0.34)"/><path class="cls-3" d="M204.63,91.84c2.81.15,4.4-1.52,4.51-3.58l.32-6-2-.11-.31,5.9a2.06,2.06,0,0,1-2.43,2.1,2.27,2.27,0,0,1-2.4-1.87l-1.89-.1C200.39,90.51,202.44,91.73,204.63,91.84Z" transform="translate(-1.78 0.34)"/><path class="cls-3" d="M214.54,92.39c2.11.11,3.46-.61,3.53-2s-1.33-2-2.86-2.39c-1.37-.3-2.05-.47-2-1.1s.56-.81,1.53-.76,1.41.39,1.53,1.13l1.73.09c.06-1.49-1-2.6-3.18-2.72-2-.1-3.52.63-3.59,2.07s1.42,2,3.1,2.38c1.23.26,1.81.43,1.78,1.06s-.35.85-1.49.79-1.8-.57-2-1.26l-1.8-.09C210.69,90.24,211.38,92.23,214.54,92.39Z" transform="translate(-1.78 0.34)"/><polygon class="cls-3" points="58.78 96.35 62.43 102.7 64.66 102.82 68.95 96.87 68.63 103.03 70.62 103.13 71.13 93.44 69.14 93.33 63.63 101.04 58.97 92.8 56.98 92.7 56.47 102.39 58.46 102.49 58.78 96.35"/><path class="cls-3" d="M81.7,103.27l1.81.1.39-7.45L82,95.82,81.84,98a3.18,3.18,0,0,0-3.26-2.56,3.9,3.9,0,1,0-.51,7.77,3.45,3.45,0,0,0,3.62-2.38l0,.48A17,17,0,0,0,81.7,103.27Zm-2.92-1.49a2.36,2.36,0,0,1-2.5-2.52A2.32,2.32,0,0,1,79,97c1.75.09,2.81,1,2.73,2.53S80.54,101.88,78.78,101.78Z" transform="translate(-1.78 0.34)"/><rect class="cls-3" x="82.84" y="98.82" width="7.45" height="1.95" transform="translate(-19.38 181.39) rotate(-87.01)"/><rect class="cls-3" x="86.04" y="92.53" width="1.71" height="2.26" transform="translate(-12.95 175.9) rotate(-87.01)"/><path class="cls-3" d="M100.84,99.16c.08-1.56-1.53-2.61-4-2.74s-4.14,1-4.13,2.73l1.89.1c.07-.84.94-1.32,2.2-1.25,1.42.07,2,.59,2,1.29-.06,1.21-2.28,1.64-6,3.07l-.08,1.49,8,.42.07-1.5-4.71-.24,1.67-.68C99.89,101,100.78,100.34,100.84,99.16Z" transform="translate(-1.78 0.34)"/><path class="cls-3" d="M111.81,101.14c.13-2.51-1.71-4-4.51-4.15s-4.83,1.14-5,3.66,1.73,4,4.55,4.12S111.68,103.66,111.81,101.14ZM107,103.28c-1.56-.09-2.73-1-2.65-2.53a2.78,2.78,0,0,1,5.51.29A2.44,2.44,0,0,1,107,103.28Z" transform="translate(-1.78 0.34)"/><path class="cls-3" d="M121.24,100.22c.09-1.55-1.53-2.6-3.95-2.73s-4.14,1-4.13,2.73l1.89.1c.07-.84.94-1.32,2.2-1.25,1.42.07,2,.58,2,1.29-.06,1.21-2.27,1.64-6,3.06l-.08,1.5,8,.42.08-1.5-4.72-.24,1.67-.68C120.29,102.08,121.18,101.41,121.24,100.22Z" transform="translate(-1.78 0.34)"/><polygon class="cls-3" points="124.41 105.95 124.8 98.5 120.74 98.29 120.66 99.95 122.77 100.06 122.47 105.85 124.41 105.95"/><polygon class="cls-3" points="58.02 110.78 56.03 110.67 55.52 120.36 63.96 120.81 64.05 119.14 57.6 118.81 58.02 110.78"/><polygon class="cls-3" points="68.89 119.08 66.72 113.48 64.65 113.38 67.84 120.93 66.03 123.92 68.06 124.02 73.76 113.85 71.67 113.74 68.89 119.08"/><path class="cls-3" d="M80.71,115.12a2.55,2.55,0,0,1,2.52,1.72l1.78.1c-.08-2-1.6-3.18-4.23-3.32s-4.86,1.11-5,3.66,1.81,4,4.59,4.13,4.31-.93,4.56-2.89l-1.78-.09a2.46,2.46,0,0,1-2.71,1.48c-1.57-.08-2.77-.94-2.69-2.53S79.15,115,80.71,115.12Z" transform="translate(-1.78 0.34)"/><path class="cls-3" d="M91,114.16c-2.87-.15-4.85,1.2-5,3.66s1.78,4,4.64,4.13c2.53.13,4-.92,4.33-2.43l-1.89-.1c-.27.66-1.18,1.09-2.41,1-1.69-.09-2.63-1-2.72-2.19l7.1.38C95.39,115.75,94,114.31,91,114.16Zm-2.87,3a2.5,2.5,0,0,1,2.71-1.49c1.45.07,2.3.76,2.35,1.76Z" transform="translate(-1.78 0.34)"/><polygon class="cls-3" points="88.25 113.05 90.11 113.15 92.98 110.93 90.41 110.79 88.25 113.05"/><path class="cls-3" d="M101.2,114.69c-2.87-.15-4.85,1.2-5,3.66s1.77,4,4.63,4.13c2.53.13,4-.91,4.34-2.43l-1.89-.1a2.35,2.35,0,0,1-2.41,1c-1.7-.09-2.64-1-2.73-2.18l7.1.37C105.55,116.28,104.12,114.84,101.2,114.69Zm-2.87,3a2.49,2.49,0,0,1,2.7-1.49c1.46.07,2.31.77,2.36,1.76Z" transform="translate(-1.78 0.34)"/><path class="cls-3" d="M116.53,119.32a2.06,2.06,0,0,1-2.43,2.1,2.27,2.27,0,0,1-2.4-1.87l-1.89-.1c0,2.36,2,3.58,4.2,3.69,2.81.15,4.4-1.53,4.51-3.58l.32-6-2-.11Z" transform="translate(-1.78 0.34)"/><path class="cls-3" d="M127.77,118.47a3.18,3.18,0,0,0-3.26-2.56,3.9,3.9,0,1,0-.51,7.77,3.45,3.45,0,0,0,3.62-2.38l0,.48a17.24,17.24,0,0,0,0,1.93l1.81.09.39-7.44-2-.11Zm-3.07,3.75a2.37,2.37,0,0,1-2.49-2.52,2.32,2.32,0,0,1,2.74-2.25c1.76.09,2.82,1,2.74,2.53S126.47,122.31,124.7,122.22Z" transform="translate(-1.78 0.34)"/><path class="cls-3" d="M136,118a2.57,2.57,0,0,1,2.53,1.73l1.78.09c-.08-1.94-1.61-3.18-4.23-3.31s-4.86,1.11-5,3.65,1.82,4,4.59,4.14,4.32-.94,4.57-2.89l-1.78-.09a2.47,2.47,0,0,1-2.71,1.48c-1.57-.09-2.77-.94-2.69-2.53S134.41,117.93,136,118Z" transform="translate(-1.78 0.34)"/><path class="cls-3" d="M148.89,119.2l0,.38a3.25,3.25,0,0,0-3.36-2.57,3.84,3.84,0,0,0-4.19,3.69,3.8,3.8,0,0,0,3.78,4.1,3.45,3.45,0,0,0,3.63-2.39l-.29,5.39,1.95.1.55-10.44-1.89-.1Zm-3.08,4.12a2.38,2.38,0,0,1-2.5-2.52,2.34,2.34,0,0,1,2.75-2.26c1.75.1,2.82,1,2.74,2.55S147.58,123.41,145.81,123.32Z" transform="translate(-1.78 0.34)"/><path class="cls-3" d="M159.48,122.07a3,3,0,0,1-2.84,1.76c-1.24-.07-1.95-.52-1.88-2l.22-4.18-1.94-.1-.24,4.51c-.13,2.43,1.53,3.2,3.16,3.29a3.5,3.5,0,0,0,3.48-2.55l-.13,2.55,1.95.1.39-7.45-2-.1Z" transform="translate(-1.78 0.34)"/><path class="cls-3" d="M167.84,118.18c-2.87-.15-4.85,1.21-5,3.66s1.77,4,4.63,4.14c2.54.13,4-.92,4.34-2.44l-1.89-.1c-.27.67-1.18,1.1-2.41,1-1.69-.08-2.64-1-2.73-2.18l7.1.37C172.19,119.78,170.76,118.34,167.84,118.18Zm-2.87,3a2.52,2.52,0,0,1,2.71-1.5c1.45.08,2.3.77,2.35,1.76Z" transform="translate(-1.78 0.34)"/><path class="cls-3" d="M177.39,122c-1.37-.3-2-.47-2-1.1s.55-.81,1.52-.76,1.41.39,1.53,1.13l1.73.09c.06-1.5-1-2.6-3.18-2.72-2-.1-3.52.63-3.59,2.07s1.42,2,3.1,2.38c1.23.26,1.81.43,1.78,1.06s-.35.85-1.48.79-1.81-.58-2-1.26l-1.8-.09c-.14.69.55,2.68,3.71,2.85,2.11.11,3.46-.62,3.53-2S178.92,122.43,177.39,122Z" transform="translate(-1.78 0.34)"/><path class="cls-3" d="M192,117.36l-6-.32-.51,9.7,2,.1.16-3.15,4,.22c2.17.11,3.94-.68,4.06-3S194.15,117.47,192,117.36Zm-.08,5-4.2-.22.17-3.25,4.2.22a1.54,1.54,0,0,1,1.64,1.72A1.56,1.56,0,0,1,191.9,122.33Z" transform="translate(-1.78 0.34)"/><path class="cls-3" d="M199.2,122.23l.12-2.23-1.95-.1-.39,7.44,2,.1.21-4.1a3.15,3.15,0,0,1,3-1.59l.09-1.77A3.13,3.13,0,0,0,199.2,122.23Z" transform="translate(-1.78 0.34)"/><path class="cls-3" d="M207.81,120.28c-2.88-.15-4.86,1.2-5,3.66s1.78,4,4.64,4.13c2.53.13,4-.92,4.33-2.43l-1.89-.1c-.27.66-1.18,1.09-2.41,1-1.69-.09-2.63-1-2.72-2.19l7.1.38C212.15,121.87,210.73,120.43,207.81,120.28Zm-2.88,3a2.51,2.51,0,0,1,2.71-1.49c1.45.07,2.3.76,2.36,1.76Z" transform="translate(-1.78 0.34)"/><polygon class="cls-3" points="205.01 119.17 206.87 119.27 209.75 117.05 207.17 116.91 205.01 119.17"/><polygon class="cls-3" points="214.94 126.63 212.93 121.15 210.78 121.03 213.9 128.66 215.74 128.76 219.71 121.5 217.59 121.39 214.94 126.63"/><path class="cls-3" d="M226.73,121.27c-2.88-.15-4.86,1.2-5,3.66s1.78,4,4.64,4.13c2.53.13,4-.92,4.33-2.43l-1.89-.1c-.27.66-1.18,1.09-2.41,1-1.69-.09-2.63-1-2.72-2.19l7.1.38C231.07,122.86,229.65,121.42,226.73,121.27Zm-2.88,3a2.5,2.5,0,0,1,2.71-1.49c1.45.07,2.3.76,2.36,1.76Z" transform="translate(-1.78 0.34)"/><path class="cls-3" d="M234.29,124.07l.11-2.23-1.94-.11-.39,7.45,1.94.1.22-4.1a3.13,3.13,0,0,1,3-1.59l.09-1.77A3.11,3.11,0,0,0,234.29,124.07Z" transform="translate(-1.78 0.34)"/><polygon class="cls-3" points="240.07 122.57 240.18 120.53 238.23 120.43 238.12 122.47 236.21 122.37 236.13 123.88 238.04 123.98 237.73 129.91 239.68 130.01 239.99 124.08 241.91 124.18 241.99 122.67 240.07 122.57"/></svg>