<svg id="Calque_1" data-name="Calque 1" xmlns="http://www.w3.org/2000/svg" xmlns:xlink="http://www.w3.org/1999/xlink" width="329.10497" height="100.09869" viewBox="0 0 329.10497 100.09869"><defs><style>.cls-1{fill:#cbffc5;}.cls-2{clip-path:url(#clip-path);}.cls-3{fill:#f45140;}.cls-4{fill:#cfe7cd;}</style><clipPath id="clip-path" transform="translate(6.56482 -452.73448)"><rect class="cls-1" x="0.27559" y="458.59145" width="320" height="86.94678" rx="21.35819"/></clipPath></defs><rect class="cls-1" x="6.84041" y="5.85697" width="320" height="86.94678" rx="21.35819"/><g class="cls-2"><rect class="cls-3" x="6.84041" y="5.85697" width="320" height="86.94678" rx="21.35819"/><path class="cls-1" d="M31.08345,505.09625q7.834-.041,11.35938-.22754a13.01172,13.01172,0,0,0-.175,1.74219q-.03113.89794-.031,2.25781H26.218q.1648-3.999.1648-7.4834,0-3.48486-.1648-7.48437h16.0188v3.73144H31.08345v1.97949q.98951.02052,2.92749.02051,3.278,0,6.78272-.123v3.54589q-3.505-.1245-6.78272-.124-1.93834,0-2.92749.02051Z" transform="translate(6.56482 -452.73448)"/><path class="cls-1" d="M53.88472,501.19976l6.02,7.66895h-5.958l-2.96875-4.041-2.9895,4.041h-5.958l6.02-7.66895-5.814-7.29882h5.95825l2.7832,3.71093,2.76245-3.71093h5.95826Z" transform="translate(6.56482 -452.73448)"/><path class="cls-1" d="M70.35689,493.92144q4.10229,0,5.71069,1.45411a5.23214,5.23214,0,0,1,1.60816,4.09179,6.7866,6.7866,0,0,1-.63916,3.082,4.351,4.351,0,0,1-2.24707,1.9795,11.20146,11.20146,0,0,1-4.43262.71093H66.0688v3.62891H60.99727q.16479-3.999.1648-7.4834,0-3.48486-.1648-7.48437H66.0688v.0205Zm-1.44312,7.33985a17.96906,17.96906,0,0,0,2.5669-.13379,2.1189,2.1189,0,0,0,1.19556-.48438,1.42315,1.42315,0,0,0,.34033-1.03125,1.44307,1.44307,0,0,0-.31958-1.0205,2.00832,2.00832,0,0,0-1.175-.46387,20.02357,20.02357,0,0,0-2.60816-.124h-2.845v3.25781Z" transform="translate(6.56482 -452.73448)"/><path class="cls-1" d="M84.19039,505.09625q7.834-.041,11.35937-.22754a13.01172,13.01172,0,0,0-.17505,1.74219q-.03112.89794-.031,2.25781H79.32491q.16479-3.999.16479-7.4834,0-3.48486-.16479-7.48437h16.0188v3.73144H84.19039v1.97949q.98949.02052,2.92749.02051,3.27795,0,6.78271-.123v3.54589q-3.505-.1245-6.78271-.124-1.93836,0-2.92749.02051Zm4.43237-11.999H86.00459l.49463-3.19532h3.814Z" transform="translate(6.56482 -452.73448)"/><path class="cls-1" d="M112.87764,501.92144a5.09614,5.09614,0,0,1-2.99975,1.793,5.04748,5.04748,0,0,1,.35034.51563l3.33984,4.63867h-5.60742q-.90747-1.69043-2.86572-4.7832h-3.03052v4.7832H97.19893q.16479-3.999.1648-7.4834,0-3.48486-.1648-7.48437h4.86548v.0205h4.22632q4.16418,0,5.81372,1.34082a4.42867,4.42867,0,0,1,1.64917,3.62793A5.11182,5.11182,0,0,1,112.87764,501.92144Zm-10.81323-4.041V500.23h2.7832a22.75161,22.75161,0,0,0,2.64917-.11328,2.93009,2.93009,0,0,0,1.24707-.36035.91421.91421,0,0,0,.02075-1.42286,2.7247,2.7247,0,0,0-1.23706-.35058,25.86516,25.86516,0,0,0-2.67993-.10254Z" transform="translate(6.56482 -452.73448)"/><path class="cls-1" d="M127.38106,498.00348q-2.45361-.12306-3.62842-.14356v7.05078q1.19532-.02051,3.62842-.14453v4.10254H115.403v-4.10254q2.37048.123,3.60767.14453v-7.05078q-1.23669.0205-3.60767.14356v-4.10254h11.978Z" transform="translate(6.56482 -452.73448)"/><path class="cls-1" d="M148.30635,493.90094l1.60816,14.96777h-5.3396l-.32984-10.67969-2.06176,10.67969h-5.40137l-2.103-10.59668-.30908,10.59668h-5.3396l1.60791-14.96777h7.00952l1.7937,9.752,1.5669-9.752Z" transform="translate(6.56482 -452.73448)"/><path class="cls-1" d="M156.42891,505.09625q7.834-.041,11.35938-.22754a13.00843,13.00843,0,0,0-.175,1.74219q-.03113.89794-.031,2.25781h-16.0188q.16481-3.999.1648-7.4834,0-3.48486-.1648-7.48437h16.0188v3.73144H156.42891v1.97949q.98951.02052,2.92749.02051,3.27795,0,6.78272-.123v3.54589q-3.505-.1245-6.78272-.124-1.93836,0-2.92749.02051Z" transform="translate(6.56482 -452.73448)"/><path class="cls-1" d="M186.73433,493.92144q-.14429,3.48487-.14429,7.46387,0,3.999.14429,7.4834h-7.38061l-4.989-11.25684.3711,11.25684h-5.29834q.16479-3.999.16479-7.4834,0-3.46436-.16479-7.46387h7.58667l5.00976,11.56641-.35034-11.56641Z" transform="translate(6.56482 -452.73448)"/><path class="cls-1" d="M206.09273,498.231q-3.23694-.104-6.28784-.124v10.76172h-5.15406V498.107q-3.07214.0205-6.26733.124v-4.33007h17.70923Z" transform="translate(6.56482 -452.73448)"/><path class="cls-1" d="M219.10176,508.86871q-.39185-1.1748-1.05151-2.94824h-6.57642l-1.031,2.94824h-5.17456l5.77246-14.96777h7.58691l5.81372,14.96777Zm-2.22656-6.16406q-.78369-2.165-1.60815-4.33008l-.49463-1.33984q-.7218,1.87646-2.12354,5.66992Z" transform="translate(6.56482 -452.73448)"/><path class="cls-1" d="M242.0063,498.231q-3.23694-.104-6.28784-.124v10.76172h-5.154V498.107q-3.07215.0205-6.26734.124v-4.33007H242.0063Z" transform="translate(6.56482 -452.73448)"/><path class="cls-1" d="M255.63374,498.00348q-2.45361-.12306-3.62841-.14356v7.05078q1.19531-.02051,3.62841-.14453v4.10254h-11.978v-4.10254q2.37048.123,3.60766.14453v-7.05078q-1.23669.0205-3.60766.14356v-4.10254h11.978Z" transform="translate(6.56482 -452.73448)"/><path class="cls-1" d="M259.50948,507.024a8.54482,8.54482,0,0,1-.01026-11.49414q2.21558-2.061,6.95777-2.06152,4.76257,0,6.97876,2.06152a8.58677,8.58677,0,0,1,.01025,11.50391q-2.20643,2.04052-6.989,2.041Q261.7358,509.07476,259.50948,507.024Zm10.24609-3.03125a4.15677,4.15677,0,0,0,0-5.43261,6.54629,6.54629,0,0,0-6.57641,0,4.14367,4.14367,0,0,0,0,5.42285,4.92135,4.92135,0,0,0,3.27783.88574A4.99654,4.99654,0,0,0,269.75557,503.99273Z" transform="translate(6.56482 -452.73448)"/><path class="cls-1" d="M294.5981,493.92144q-.14428,3.48487-.14429,7.46387,0,3.999.14429,7.4834h-7.38061l-4.989-11.25684.3711,11.25684h-5.29834q.16479-3.999.16479-7.4834,0-3.46436-.16479-7.46387h7.58667l5.00976,11.56641-.35034-11.56641Z" transform="translate(6.56482 -452.73448)"/><rect class="cls-1" x="194.93692" y="470.2441" width="10.45325" height="5.37817" transform="translate(-301.79278 -51.47749) rotate(-59.03704)"/><rect class="cls-1" x="264.85289" y="523.12925" width="10.45325" height="5.37817" transform="translate(-313.19647 34.15206) rotate(-59.03704)"/><rect class="cls-1" x="155.34559" y="467.70649" width="5.37821" height="10.45339" transform="translate(-233.98609 -279.41817) rotate(-34.59031)"/><rect class="cls-1" x="90.80778" y="455.15747" width="5.37821" height="10.45339" transform="translate(-238.27015 -318.27485) rotate(-34.59031)"/><rect class="cls-1" x="120.5393" y="478.31139" width="10.45297" height="5.37804" transform="translate(-363.63481 -6.32777) rotate(-71.35714)"/><rect class="cls-1" x="48.8302" y="521.3366" width="10.4538" height="5.37804" transform="translate(-453.18818 -45.00245) rotate(-71.35714)"/><rect class="cls-1" x="229.89463" y="536.57469" width="10.4538" height="5.37804" transform="translate(-344.44282 136.92841) rotate(-71.35714)"/><rect class="cls-1" x="28.95913" y="473.08474" width="5.37803" height="10.45319" transform="translate(-242.47069 -363.01036) rotate(-32.05573)"/><rect class="cls-1" x="305.93392" y="477.56653" width="5.37803" height="10.45319" transform="matrix(0.84753, -0.53074, 0.53074, 0.84753, -202.61965, -215.32434)"/><rect class="cls-1" x="210.91991" y="517.0063" width="5.37803" height="10.45319" transform="translate(-238.03864 -259.73915) rotate(-32.05573)"/><rect class="cls-1" x="305.93392" y="453.36485" width="5.37803" height="10.45319" transform="matrix(0.84753, -0.53074, 0.53074, 0.84753, -189.77475, -219.01432)"/><rect class="cls-1" x="63.17231" y="473.82947" width="10.45306" height="5.3783" transform="translate(-405.09839 59.68431) rotate(-86.10839)"/><rect class="cls-1" x="142.94822" y="528.50734" width="10.45306" height="5.3783" transform="translate(-385.2886 190.2432) rotate(-86.10839)"/><rect class="cls-1" x="179.69892" y="533.88549" width="10.45306" height="5.3783" transform="translate(-356.3979 231.9223) rotate(-86.10839)"/><rect class="cls-1" x="298.01825" y="533.88549" width="10.45306" height="5.3783" transform="translate(-246.10881 349.96881) rotate(-86.10839)"/><rect class="cls-1" x="270.23114" y="463.96952" width="10.45306" height="5.3783" transform="translate(-202.25528 257.07494) rotate(-86.10839)"/><rect class="cls-1" x="82.89203" y="527.6108" width="10.4534" height="5.37866" transform="translate(-27.17212 -446.01274) rotate(-3.66707)"/><rect class="cls-1" x="231.68755" y="455.90212" width="10.4534" height="5.37866" transform="matrix(0.99795, -0.06396, 0.06396, 0.99795, -22.28106, -436.64278)"/><rect class="cls-1" x="116.80195" y="517.0062" width="5.37866" height="10.4534" transform="translate(-377.55695 -113.2015) rotate(-57.17242)"/><rect class="cls-1" x="234.22492" y="476.67007" width="5.37866" height="10.4534" transform="translate(-289.89579 -32.99971) rotate(-57.17242)"/><rect class="cls-1" x="314.00083" y="508.04262" width="5.37866" height="10.4534" transform="translate(-279.72995 48.40154) rotate(-57.17242)"/><rect class="cls-1" x="13.72071" y="518.79892" width="5.37866" height="10.4534" transform="translate(-164.92337 -418.16406) rotate(-19.20778)"/><rect class="cls-1" x="-1.36568" y="483.68923" width="10.4534" height="5.37866" transform="translate(-115.65158 -436.12553) rotate(-14.56828)"/><rect class="cls-1" x="-4.20646" y="508.93898" width="5.37866" height="10.4534" transform="translate(-265.72687 -375.66121) rotate(-31.94688)"/><rect class="cls-1" x="13.72071" y="453.36475" width="5.37866" height="10.4534" transform="translate(-401.54837 -168.37112) rotate(-65.63695)"/><rect class="cls-4" x="116.80195" y="543.0006" width="5.37866" height="10.4534" transform="translate(-422.64367 -21.80976) rotate(-65.63695)"/><rect class="cls-1" x="53.3122" y="542.84889" width="10.4534" height="5.37866" transform="translate(-465.81865 -45.6166) rotate(-69.26265)"/></g></svg>