<svg id="Calque_1" data-name="Calque 1" xmlns="http://www.w3.org/2000/svg" width="251.0058" height="113.55906" viewBox="0 0 251.0058 113.55906"><defs><style>.cls-1{fill:#faca2a;}.cls-2{fill:#1e79ae;}.cls-3{fill:none;stroke:#1e79ae;stroke-miterlimit:10;stroke-width:2px;}</style></defs><polygon class="cls-1" points="251.006 56.78 233.476 63.558 243.044 77.124 223.497 75.927 225.627 91.505 207.433 85.599 204.916 101.174 188.471 92.582 182.843 107.64 168.078 97.275 160.112 111.646 146.954 99.972 137.067 113.559 125.503 100.846 113.942 113.559 104.057 99.972 90.899 111.646 82.933 97.276 68.165 107.641 62.536 92.582 46.091 101.175 43.571 85.599 25.375 91.503 27.507 75.925 7.96 77.122 17.529 63.556 0 56.78 17.529 50.001 7.962 36.435 27.509 37.632 25.379 22.054 43.572 27.96 46.09 12.385 62.534 20.977 68.163 5.919 82.927 16.284 90.894 1.913 104.052 13.587 113.939 0 125.503 12.713 137.064 0 146.948 13.587 160.107 1.913 168.073 16.283 182.841 5.918 188.47 20.977 204.915 12.384 207.435 27.96 225.631 22.056 223.499 37.634 243.045 36.437 233.477 50.003 251.006 56.78"/><path class="cls-2" d="M61.9648,382.8609a4.44811,4.44811,0,0,1-.667,2.48437,4.35623,4.35623,0,0,1-2.38794,1.5918,15.7679,15.7679,0,0,1-4.77564.57031H44.45357q.17175-4.17333.17212-7.80908,0-3.635-.17212-7.80908H49.509v.02148h4.582a15.907,15.907,0,0,1,4.20581.44092,4.02164,4.02164,0,0,1,2.17285,1.28027,3.63392,3.63392,0,0,1-.27978,4.46387,6.52846,6.52846,0,0,1-3.13013,1.64551Q61.9648,379.74127,61.9648,382.8609ZM49.509,375.82623v2.00049h4.13037a5.04363,5.04363,0,0,0,1.86084-.23682.862.862,0,0,0,.5271-.86035.72151.72151,0,0,0-.54858-.69922,5.82332,5.82332,0,0,0-1.83936-.2041Zm4.13037,7.74414a11.36957,11.36957,0,0,0,1.71021-.09668,1.59093,1.59093,0,0,0,.84985-.34424.89333.89333,0,0,0,.25806-.67773.84107.84107,0,0,0-.613-.80664,6.68151,6.68151,0,0,0-2.20508-.24707H49.509v2.17236Z" transform="translate(-0.27559 -319.25555)"/><path class="cls-2" d="M68.93477,383.16168q6.23841-.04248,10.32593-.21484a11.51289,11.51289,0,0,0-.34424,2.10839q-.06445,1.01074-.06445,2.45215H63.68575q.17175-4.17333.17212-7.80908,0-3.635-.17212-7.80908h5.249Z" transform="translate(-0.27559 -319.25555)"/><path class="cls-2" d="M93.48042,376.17047q-2.56054-.12964-3.78637-.15088V383.377q1.24767-.02124,3.78637-.15088v4.28125H80.98165v-4.28125q2.47338.12964,3.76464.15088v-7.35742q-1.29089.022-3.76464.15088v-4.28125H93.48042Z" transform="translate(-0.27559 -319.25555)"/><path class="cls-2" d="M113.25044,371.9107q-.15087,3.63574-.15063,7.7876,0,4.17407.15063,7.80908h-7.70166l-5.206-11.74609.38721,11.74609H95.20137q.17175-4.17333.17212-7.80908,0-3.61377-.17212-7.7876h7.91651L108.34541,383.98l-.36572-12.06934Z" transform="translate(-0.27559 -319.25555)"/><path class="cls-2" d="M128.24434,372.63141a6.2861,6.2861,0,0,1,3.28076,2.71044,8.842,8.842,0,0,1,.93579,4.249,7.93144,7.93144,0,0,1-1.07568,4.17334,7.036,7.036,0,0,1-3.22681,2.76465,12.75649,12.75649,0,0,1-5.29223.97851h-3.8938q-1.97937,0-4.00122-.02148.17175-4.2378.17212-7.895,0-3.7002-.17212-7.72315,2.55981-.21459,6.884-.21533A16.97739,16.97739,0,0,1,128.24434,372.63141Zm-4.77588,10.59472a3.0514,3.0514,0,0,0,2.66773-.96777,4.64772,4.64772,0,0,0,.66674-2.66748,4.56317,4.56317,0,0,0-.69921-2.646,2.99444,2.99444,0,0,0-2.63526-1.01123,27.50107,27.50107,0,0,0-3.11914.12891v7.16357Z" transform="translate(-0.27559 -319.25555)"/><path class="cls-2" d="M151.58541,376.4068q-3.37757-.10693-6.56128-.12891v11.22949H139.646V376.27789q-3.20582.02124-6.53979.12891v-4.51758h18.47925Z" transform="translate(-0.27559 -319.25555)"/><path class="cls-2" d="M158.38326,383.57037q8.17455-.04248,11.85351-.23633a13.53218,13.53218,0,0,0-.18286,1.81787q-.03222.936-.03247,2.35547H153.30635q.17175-4.17333.17212-7.80908,0-3.635-.17212-7.80908h16.71509v3.89355H158.38326v2.06543q1.0327.022,3.05468.02149,3.42078,0,7.07764-.12891v3.7002q-3.65735-.12965-7.07764-.1294-2.02221,0-3.05468.02149Z" transform="translate(-0.27559 -319.25555)"/><path class="cls-2" d="M173.17281,383.61383a19.2165,19.2165,0,0,0,.93579-2.19434,13.46127,13.46127,0,0,0,3.54956,1.37647,15.88832,15.88832,0,0,0,3.76489.49511,7.09191,7.09191,0,0,0,2.51685-.312q.731-.312.73144-.67773,0-1.31176-4.00146-1.3125a16.23793,16.23793,0,0,1-6.36768-.91407,3.06858,3.06858,0,0,1-1.979-2.958,4.59026,4.59026,0,0,1,2.40942-4.28076,12.5313,12.5313,0,0,1,6.26-1.377,19.50262,19.50262,0,0,1,4.593.56983,18.58766,18.58766,0,0,1,4.24878,1.56q-.62439,1.41944-1.31226,3.46338-.12927.43066-.21509.64551a9.0887,9.0887,0,0,0-3.313-1.47363,15.411,15.411,0,0,0-3.91529-.5918,9.15651,9.15651,0,0,0-2.75366.269q-.71008.2688-.71.78516,0,.51636.97876.82813a9.82463,9.82463,0,0,0,2.8291.312q4.56042,0,6.62573,1.04345a3.38806,3.38806,0,0,1,2.06519,3.19434A4.66954,4.66954,0,0,1,187.91963,386.4q-2.194,1.32276-6.64721,1.32227a23.33913,23.33913,0,0,1-4.86182-.52637,17.99971,17.99971,0,0,1-4.45312-1.53809A20.8944,20.8944,0,0,0,173.17281,383.61383Z" transform="translate(-0.27559 -319.25555)"/><path class="cls-2" d="M209.45381,376.4068q-3.37757-.10693-6.56128-.12891v11.22949h-5.37817V376.27789q-3.20582.02124-6.53979.12891v-4.51758h18.47924Z" transform="translate(-0.27559 -319.25555)"/><path class="cls-2" d="M146.83917,352.22282l-2.32732,2.71421,1.0665,1.2436,2.66514-3.10829a15.55883,15.55883,0,0,0,6.41612,1.58989v3.7548h1.50816v-3.7548a15.55883,15.55883,0,0,0,6.41612-1.58989l2.66514,3.10829,1.0665-1.2436-2.32732-2.71421a7.04183,7.04183,0,0,0,3.30223-5.67831h-2.63928c0,2.39185-3.79368,5.05681-9.23747,5.05681s-9.23747-2.665-9.23747-5.05681h-2.63928A7.04183,7.04183,0,0,0,146.83917,352.22282Z" transform="translate(-0.27559 -319.25555)"/><path class="cls-2" d="M107.39939,352.22282l-2.32732,2.71421,1.0665,1.2436,2.66515-3.10829a15.55879,15.55879,0,0,0,6.41612,1.58989v3.7548H116.728v-3.7548a15.55879,15.55879,0,0,0,6.41612-1.58989l2.66515,3.10829,1.0665-1.2436-2.32732-2.71421a7.04184,7.04184,0,0,0,3.30222-5.67831h-2.63927c0,2.39185-3.79369,5.05681-9.23748,5.05681s-9.23747-2.665-9.23747-5.05681h-2.63928A7.04185,7.04185,0,0,0,107.39939,352.22282Z" transform="translate(-0.27559 -319.25555)"/><path class="cls-3" d="M140.579,354.83142a3.28067,3.28067,0,0,1-6.45378,0" transform="translate(-0.27559 -319.25555)"/></svg>