<svg id="Calque_1" data-name="Calque 1" xmlns="http://www.w3.org/2000/svg" width="234.84594" height="124.62983" viewBox="0 0 234.84594 124.62983"><defs><style>.cls-1{fill:#f8b0be;}.cls-2{fill:#f72616;}</style></defs><ellipse class="cls-1" cx="117.42297" cy="62.31491" rx="117.42297" ry="62.31491"/><path class="cls-2" d="M257.96773,604.74682c-2.33618,0-3.65357-2.64355-3.65357-7.33209,0,4.68854-1.31713,7.33209-3.65332,7.33209,2.33619,0,3.65332,2.64356,3.65332,7.3321C254.31416,607.39038,255.63155,604.74682,257.96773,604.74682Z" transform="translate(-53.31844 -561.24081)"/><path class="cls-2" d="M88.936,590.24389c0,9.86493-2.77148,15.42713-7.687,15.42713,4.91553,0,7.687,5.56213,7.687,15.42712,0-9.865,2.77173-15.42712,7.68726-15.42712C91.70772,605.671,88.936,600.10882,88.936,590.24389Z" transform="translate(-53.31844 -561.24081)"/><path class="cls-2" d="M125.76742,599.37064a5.18966,5.18966,0,0,1-3.05567,1.82714,5.03529,5.03529,0,0,1,.35718.52539l3.40186,4.72461h-5.71192q-.92431-1.72119-2.91894-4.87207h-3.08716v4.87207H109.797q.16772-4.07373.168-7.623,0-3.54931-.168-7.62305h4.95581v.02148h4.30517q4.24146,0,5.92188,1.36426a4.5127,4.5127,0,0,1,1.67993,3.69629A5.20575,5.20575,0,0,1,125.76742,599.37064Zm-11.01465-4.11622V597.649h2.8352a23.283,23.283,0,0,0,2.69849-.11524,2.99414,2.99414,0,0,0,1.27051-.36816.93128.93128,0,0,0,.021-1.44922,2.77581,2.77581,0,0,0-1.26-.35645,26.09767,26.09767,0,0,0-2.73-.10547Z" transform="translate(-53.31844 -561.24081)"/><path class="cls-2" d="M133.29574,602.605q7.98009-.04248,11.571-.23144a13.2362,13.2362,0,0,0-.17847,1.77441q-.03149.91405-.03149,2.2998H128.33993q.16771-4.07373.168-7.623,0-3.54931-.168-7.62305h16.31689v3.80078H133.29574v2.0166q1.00818.02052,2.98217.02051,3.33874,0,6.90894-.126v3.61231q-3.57019-.126-6.90894-.126-1.97424,0-2.98217.02051Z" transform="translate(-53.31844 -561.24081)"/><path class="cls-2" d="M163.53573,595.61185q-3.297-.10548-6.40479-.126v10.96191h-5.25V595.48587q-3.12963.02051-6.384.126v-4.41016h18.03882Z" transform="translate(-53.31844 -561.24081)"/><path class="cls-2" d="M166.224,604.5679a8.70312,8.70312,0,0,1-.0105-11.707q2.25732-2.09911,7.08765-2.09961,4.85082,0,7.1084,2.09961a8.74633,8.74633,0,0,1,.01049,11.71777q-2.24743,2.07863-7.11889,2.07911Q168.492,606.65775,166.224,604.5679Zm10.437-3.08691a4.23345,4.23345,0,0,0,0-5.53321,6.66151,6.66151,0,0,0-6.699,0,4.22034,4.22034,0,0,0,0,5.52344,5.01516,5.01516,0,0,0,3.33911.90235A5.09035,5.09035,0,0,0,176.661,601.481Z" transform="translate(-53.31844 -561.24081)"/><path class="cls-2" d="M196.77865,591.18118h5.208v8.35742a6.96764,6.96764,0,0,1-2.11059,5.10352q-2.06836,2.01563-6.96143,2.01563-4.9563,0-6.783-1.92188a6.8804,6.8804,0,0,1-1.78491-5.0498v-8.50489h5.208v8.16895a6.70637,6.70637,0,0,0,.13647,1.501,1.916,1.916,0,0,0,.88184,1.082,4.40883,4.40883,0,0,0,2.40454.5039,5.23179,5.23179,0,0,0,2.646-.51465,2.00054,2.00054,0,0,0,.99756-1.14453,6.84664,6.84664,0,0,0,.15747-1.61719Z" transform="translate(-53.31844 -561.24081)"/><path class="cls-2" d="M219.63753,599.37064a5.18964,5.18964,0,0,1-3.05566,1.82714,5.0385,5.0385,0,0,1,.35718.52539l3.40185,4.72461H214.629q-.92431-1.72119-2.91895-4.87207h-3.08715v4.87207h-4.95582q.16773-4.07373.168-7.623,0-3.54931-.168-7.62305h4.95582v.02148h4.30517q4.24146,0,5.92188,1.36426a4.5127,4.5127,0,0,1,1.67993,3.69629A5.20569,5.20569,0,0,1,219.63753,599.37064Zm-11.01464-4.11622V597.649h2.8352a23.283,23.283,0,0,0,2.69849-.11524,2.99413,2.99413,0,0,0,1.2705-.36816.93127.93127,0,0,0,.021-1.44922,2.77586,2.77586,0,0,0-1.26-.35645,26.09767,26.09767,0,0,0-2.73-.10547Z" transform="translate(-53.31844 -561.24081)"/><path class="cls-2" d="M123.04793,631.648q-.39916-1.19677-1.071-3.00293h-6.699l-1.05,3.00293h-5.271l5.87988-15.24609h7.728L128.4869,631.648Zm-2.26806-6.2793q-.79834-2.20458-1.63794-4.41015l-.50415-1.36426q-.73536,1.91016-2.16284,5.77441Z" transform="translate(-53.31844 -561.24081)"/><path class="cls-2" d="M140.98177,616.38138h5.208v8.35742a6.96766,6.96766,0,0,1-2.1106,5.10352q-2.06835,2.01563-6.96142,2.01562-4.9563,0-6.783-1.92187a6.88039,6.88039,0,0,1-1.78491-5.04981v-8.50488h5.208v8.16894a6.70585,6.70585,0,0,0,.13648,1.501,1.916,1.916,0,0,0,.88184,1.082,4.4087,4.4087,0,0,0,2.40454.50391,5.23188,5.23188,0,0,0,2.646-.51465,2.0005,2.0005,0,0,0,.99756-1.14453,6.8467,6.8467,0,0,0,.15747-1.61719Z" transform="translate(-53.31844 -561.24081)"/><path class="cls-2" d="M159.10482,623.83646l6.13208,7.81152h-6.06909l-3.02393-4.11621L153.099,631.648h-6.06909l6.13208-7.81152-5.92212-7.43457h6.06909l2.835,3.78027,2.814-3.78027h6.06909Z" transform="translate(-53.31844 -561.24081)"/><path class="cls-2" d="M110.98348,653.04739a18.73956,18.73956,0,0,0,.91333-2.14257,13.14489,13.14489,0,0,0,3.46509,1.34472,15.50179,15.50179,0,0,0,3.675.48242,6.9222,6.9222,0,0,0,2.457-.30468q.71337-.30322.71387-.66114,0-1.28026-3.906-1.28125a15.844,15.844,0,0,1-6.21606-.89257,2.99466,2.99466,0,0,1-1.93189-2.88672,4.48209,4.48209,0,0,1,2.352-4.17969,12.23919,12.23919,0,0,1,6.11084-1.34375,19.02411,19.02411,0,0,1,4.48364.55664,18.15167,18.15167,0,0,1,4.14747,1.52246q-.60937,1.38574-1.281,3.38086-.126.4204-.21.62988a8.89232,8.89232,0,0,0-3.23413-1.43847,15.05636,15.05636,0,0,0-3.822-.57715,8.94373,8.94373,0,0,0-2.688.26269q-.69288.26221-.69287.76563,0,.50536.95556.80859a9.58315,9.58315,0,0,0,2.76148.30469,15.20983,15.20983,0,0,1,6.468,1.01855,3.30784,3.30784,0,0,1,2.01586,3.11817,4.5577,4.5577,0,0,1-2.14184,4.23242q-2.14233,1.29053-6.489,1.291a22.7504,22.7504,0,0,1-4.74609-.51465,17.5352,17.5352,0,0,1-4.34692-1.501A20.38132,20.38132,0,0,0,110.98348,653.04739Z" transform="translate(-53.31844 -561.24081)"/><path class="cls-2" d="M131.46859,654.96829a8.70312,8.70312,0,0,1-.0105-11.707q2.25732-2.09911,7.08765-2.09961,4.85082,0,7.1084,2.09961a8.74633,8.74633,0,0,1,.01049,11.71777q-2.24743,2.07863-7.11889,2.07911Q133.73665,657.05814,131.46859,654.96829Zm10.437-3.08691a4.23345,4.23345,0,0,0,0-5.53321,6.66151,6.66151,0,0,0-6.699,0,4.22034,4.22034,0,0,0,0,5.52344,5.01516,5.01516,0,0,0,3.33911.90235A5.09037,5.09037,0,0,0,141.9056,651.88138Z" transform="translate(-53.31844 -561.24081)"/><path class="cls-2" d="M162.02352,641.58157h5.208V649.939a6.96764,6.96764,0,0,1-2.1106,5.10351q-2.06835,2.01563-6.96142,2.01563-4.9563,0-6.783-1.92188a6.88032,6.88032,0,0,1-1.78491-5.0498v-8.50489h5.208v8.16895a6.70585,6.70585,0,0,0,.13648,1.501,1.916,1.916,0,0,0,.88183,1.082,4.40885,4.40885,0,0,0,2.40454.5039,5.23179,5.23179,0,0,0,2.646-.51465,2.00054,2.00054,0,0,0,.99756-1.14453,6.84661,6.84661,0,0,0,.15747-1.61718Z" transform="translate(-53.31844 -561.24081)"/><path class="cls-2" d="M184.88216,649.771a5.18959,5.18959,0,0,1-3.05566,1.82714,5.03734,5.03734,0,0,1,.35718.5254l3.40185,4.7246h-5.71191q-.92432-1.72119-2.91895-4.87207h-3.08716v4.87207H168.9117q.16773-4.07373.168-7.623,0-3.54931-.168-7.62305h4.95581v.02149h4.30518q4.24146,0,5.92187,1.36425a4.51268,4.51268,0,0,1,1.67994,3.69629A5.20569,5.20569,0,0,1,184.88216,649.771Zm-11.01465-4.11621v2.39453h2.83521a23.28311,23.28311,0,0,0,2.69849-.11524,2.99413,2.99413,0,0,0,1.2705-.36816.93127.93127,0,0,0,.021-1.44922,2.77586,2.77586,0,0,0-1.26-.35645,26.09826,26.09826,0,0,0-2.73-.10546Z" transform="translate(-53.31844 -561.24081)"/><path class="cls-2" d="M189.7015,655.04251a7.33146,7.33146,0,0,1-2.24683-5.75391,7.9048,7.9048,0,0,1,2.24683-5.94335q2.24707-2.18409,6.99316-2.1836,6.63538,0,8.88281,4.55664a34.86854,34.86854,0,0,0-4.4309,1.95313,3.75775,3.75775,0,0,0-1.92139-1.74317,6.69542,6.69542,0,0,0-2.67749-.56738,3.91644,3.91644,0,0,0-3.00317,1.06055,4.01571,4.01571,0,0,0,.07348,5.35547,4.41554,4.41554,0,0,0,3.24463,1.06054,5.66119,5.66119,0,0,0,2.772-.57812,3.41322,3.41322,0,0,0,1.512-1.83692q1.72155.92431,4.40991,2.07911a6.25,6.25,0,0,1-3.50684,3.54882,13.97589,13.97589,0,0,1-5.355,1.00782Q191.94821,657.05814,189.7015,655.04251Z" transform="translate(-53.31844 -561.24081)"/><path class="cls-2" d="M212.21322,653.0054q7.9801-.04248,11.571-.23144a13.23457,13.23457,0,0,0-.17846,1.77441q-.0315.91407-.0315,2.2998H207.25741q.16772-4.07373.168-7.623,0-3.54931-.168-7.62305H223.5743v3.80078H212.21322v2.0166q1.00818.02052,2.98217.02051,3.33874,0,6.90894-.126v3.6123q-3.5702-.126-6.90894-.126-1.97424,0-2.98217.02051Z" transform="translate(-53.31844 -561.24081)"/><path class="cls-2" d="M226.65072,653.04739a18.74134,18.74134,0,0,0,.91333-2.14257,13.14462,13.14462,0,0,0,3.46509,1.34472,15.50178,15.50178,0,0,0,3.675.48242,6.92223,6.92223,0,0,0,2.457-.30468q.71337-.30322.71386-.66114,0-1.28026-3.906-1.28125a15.84406,15.84406,0,0,1-6.21607-.89257,2.99467,2.99467,0,0,1-1.93188-2.88672,4.48207,4.48207,0,0,1,2.352-4.17969,12.23914,12.23914,0,0,1,6.11084-1.34375,19.02424,19.02424,0,0,1,4.48364.55664,18.15159,18.15159,0,0,1,4.14746,1.52246q-.60937,1.38574-1.281,3.38086-.126.4204-.21.62988a8.89224,8.89224,0,0,0-3.23413-1.43847,15.05624,15.05624,0,0,0-3.822-.57715,8.94373,8.94373,0,0,0-2.688.26269q-.69287.26221-.69287.76563,0,.50536.95557.80859a9.58312,9.58312,0,0,0,2.76147.30469,15.20977,15.20977,0,0,1,6.468,1.01855,3.30783,3.30783,0,0,1,2.01587,3.11817,4.55771,4.55771,0,0,1-2.14185,4.23242q-2.14233,1.29053-6.489,1.291a22.75032,22.75032,0,0,1-4.74609-.51465,17.53542,17.53542,0,0,1-4.34693-1.501A20.38155,20.38155,0,0,0,226.65072,653.04739Z" transform="translate(-53.31844 -561.24081)"/><path class="cls-2" d="M96.55507,618.09274c0,4.649-1.30611,7.27032-3.62265,7.27032,2.31654,0,3.62265,2.62127,3.62265,7.27033,0-4.64906,1.30623-7.27033,3.62277-7.27033C97.8613,625.36306,96.55507,622.74177,96.55507,618.09274Z" transform="translate(-53.31844 -561.24081)"/><path class="cls-2" d="M259.87691,627.41473c0,8.108-2.17325,12.67961-6.02774,12.67961,3.85449,0,6.02774,4.57154,6.02774,12.67962,0-8.10808,2.17344-12.67962,6.02794-12.67962C262.05035,640.09434,259.87691,635.52275,259.87691,627.41473Z" transform="translate(-53.31844 -561.24081)"/><path class="cls-2" d="M259.48967,593.58979c0,2.235-.62791,3.49523-1.7416,3.49523,1.11369,0,1.7416,1.26018,1.7416,3.49523,0-2.23505.628-3.49523,1.74166-3.49523C260.11765,597.085,259.48967,595.82483,259.48967,593.58979Z" transform="translate(-53.31844 -561.24081)"/></svg>