<svg id="Calque_1" data-name="Calque 1" xmlns="http://www.w3.org/2000/svg" width="251" height="89.7" viewBox="0 0 251 89.7"><defs><style>.cls-1{fill:#1e79ae;}.cls-2{fill:#faca2a;}</style></defs><rect class="cls-1" x="793.93" y="428.6" width="89.7" height="251" rx="26.38" transform="translate(-428.6 883.63) rotate(-90)"/><path class="cls-2" d="M752.59,550.2c-.28-.82-.64-1.84-1.1-3.08h-6.86l-1.08,3.08h-5.4l6-15.62h7.92l6.07,15.62Zm-2.33-6.43c-.54-1.51-1.1-3-1.68-4.52l-.51-1.4q-.75,2-2.22,5.92Z" transform="translate(-713.28 -509.25)"/><path class="cls-2" d="M772.14,535.32a6.33,6.33,0,0,1,3.28,2.71,8.93,8.93,0,0,1,.94,4.25,7.93,7.93,0,0,1-1.08,4.18,7,7,0,0,1-3.23,2.76,12.75,12.75,0,0,1-5.29,1h-3.89l-4,0q.17-4.24.17-7.9c0-2.46-.06-5-.17-7.72,1.7-.14,4-.22,6.88-.22A17,17,0,0,1,772.14,535.32Zm-4.78,10.6a3,3,0,0,0,2.67-1,4.58,4.58,0,0,0,.67-2.67,4.5,4.5,0,0,0-.7-2.64,3,3,0,0,0-2.64-1,29.24,29.24,0,0,0-3.11.12v7.17Z" transform="translate(-713.28 -509.25)"/><path class="cls-2" d="M794.44,543a5.35,5.35,0,0,1-3.13,1.87,4.94,4.94,0,0,1,.36.54l3.49,4.84h-5.85q-.94-1.77-3-5h-3.17v5h-5.07c.11-2.78.17-5.39.17-7.81s-.06-5-.17-7.81h5.07v0h4.41q4.35,0,6.07,1.4a4.62,4.62,0,0,1,1.72,3.79A5.33,5.33,0,0,1,794.44,543Zm-11.29-4.22v2.46h2.91a23.4,23.4,0,0,0,2.76-.12,3,3,0,0,0,1.3-.38.85.85,0,0,0,.37-.75.87.87,0,0,0-.34-.73,2.71,2.71,0,0,0-1.29-.37,27.44,27.44,0,0,0-2.8-.11Z" transform="translate(-713.28 -509.25)"/><path class="cls-2" d="M802.15,546.26q8.18,0,11.85-.23a13.21,13.21,0,0,0-.18,1.81c0,.63,0,1.41,0,2.36H797.07c.12-2.78.18-5.39.18-7.81s-.06-5-.18-7.81h16.72v3.9H802.15v2.06c.69,0,1.71,0,3.05,0,2.29,0,4.64,0,7.08-.13v3.7c-2.44-.08-4.79-.13-7.08-.13l-3.05,0Z" transform="translate(-713.28 -509.25)"/><path class="cls-2" d="M816.94,546.31a22.7,22.7,0,0,0,.94-2.2,13.33,13.33,0,0,0,3.54,1.38,15.94,15.94,0,0,0,3.77.49,7.09,7.09,0,0,0,2.52-.31c.48-.21.73-.43.73-.68,0-.87-1.34-1.31-4-1.31a16.25,16.25,0,0,1-6.37-.91,3.07,3.07,0,0,1-2-3,4.58,4.58,0,0,1,2.41-4.28,12.51,12.51,0,0,1,6.26-1.38,19.48,19.48,0,0,1,4.59.57,18.53,18.53,0,0,1,4.25,1.56c-.42,1-.85,2.1-1.31,3.46-.09.29-.16.51-.22.65a8.93,8.93,0,0,0-3.31-1.47,15.21,15.21,0,0,0-3.91-.6,9.12,9.12,0,0,0-2.76.27c-.47.18-.71.44-.71.79s.33.62,1,.83a10.14,10.14,0,0,0,2.83.31q4.56,0,6.63,1a3.4,3.4,0,0,1,2.06,3.2,4.66,4.66,0,0,1-2.19,4.33c-1.47.88-3.68,1.32-6.65,1.32a23.37,23.37,0,0,1-4.86-.52,18.15,18.15,0,0,1-4.46-1.54A19.87,19.87,0,0,0,816.94,546.31Z" transform="translate(-713.28 -509.25)"/><path class="cls-2" d="M836.82,546.31a20.54,20.54,0,0,0,.93-2.2,13.41,13.41,0,0,0,3.55,1.38,15.94,15.94,0,0,0,3.77.49,7,7,0,0,0,2.51-.31c.49-.21.74-.43.74-.68,0-.87-1.34-1.31-4-1.31a16.23,16.23,0,0,1-6.36-.91,3.07,3.07,0,0,1-2-3,4.58,4.58,0,0,1,2.41-4.28,12.49,12.49,0,0,1,6.26-1.38,19.48,19.48,0,0,1,4.59.57,18.53,18.53,0,0,1,4.25,1.56c-.42,1-.86,2.1-1.31,3.46-.09.29-.16.51-.22.65a9,9,0,0,0-3.31-1.47,15.22,15.22,0,0,0-3.92-.6,9.09,9.09,0,0,0-2.75.27c-.47.18-.71.44-.71.79s.33.62,1,.83a10.09,10.09,0,0,0,2.83.31q4.56,0,6.62,1a3.39,3.39,0,0,1,2.07,3.2,4.65,4.65,0,0,1-2.2,4.33q-2.19,1.32-6.64,1.32a23.39,23.39,0,0,1-4.87-.52,18.22,18.22,0,0,1-4.45-1.54A21.86,21.86,0,0,0,836.82,546.31Z" transform="translate(-713.28 -509.25)"/><path class="cls-2" d="M860.56,546.26q8.18,0,11.85-.23a13.21,13.21,0,0,0-.18,1.81c0,.63,0,1.41,0,2.36H855.48c.11-2.78.17-5.39.17-7.81s-.06-5-.17-7.81h16.71v3.9H860.56v2.06c.68,0,1.7,0,3.05,0q3.42,0,7.08-.13v3.7c-2.44-.08-4.8-.13-7.08-.13l-3.05,0Z" transform="translate(-713.28 -509.25)"/><path class="cls-2" d="M898.55,534.58l1.67,15.62h-5.57l-.34-11.14-2.15,11.14h-5.64l-2.19-11.06L884,550.2h-5.57l1.68-15.62h7.31l1.88,10.18,1.63-10.18Z" transform="translate(-713.28 -509.25)"/><path class="cls-2" d="M903.84,548.27a8.92,8.92,0,0,1,0-12q2.31-2.14,7.26-2.15t7.28,2.15a9,9,0,0,1,0,12q-2.29,2.13-7.29,2.13C907.8,550.41,905.39,549.7,903.84,548.27Zm10.69-3.16a4.35,4.35,0,0,0,0-5.67,6.85,6.85,0,0,0-6.86,0,4.31,4.31,0,0,0,0,5.66,5.11,5.11,0,0,0,3.42.93A5.21,5.21,0,0,0,914.53,545.11Z" transform="translate(-713.28 -509.25)"/><path class="cls-2" d="M934.9,538.86c-1.7-.08-3-.13-3.78-.15v7.36c.83,0,2.09-.07,3.78-.15v4.28H922.4v-4.28c1.65.08,2.91.14,3.77.15v-7.36c-.86,0-2.12.07-3.77.15v-4.28h12.5Z" transform="translate(-713.28 -509.25)"/><path class="cls-2" d="M751.75,560.37h5.33v8.57a7.12,7.12,0,0,1-2.16,5.22q-2.11,2.07-7.13,2.07c-3.39,0-5.7-.66-6.95-2a7,7,0,0,1-1.83-5.17v-8.72h5.34v8.37a6.51,6.51,0,0,0,.14,1.54,1.92,1.92,0,0,0,.9,1.11,4.55,4.55,0,0,0,2.46.52,5.34,5.34,0,0,0,2.71-.53,2,2,0,0,0,1-1.17,6.89,6.89,0,0,0,.17-1.66Z" transform="translate(-713.28 -509.25)"/><path class="cls-2" d="M776.85,560.42q-.15,3.63-.15,7.79t.15,7.8h-7.7l-5.21-11.74.39,11.74H758.8c.12-2.78.17-5.38.17-7.8s-.05-5-.17-7.79h7.92L772,572.49l-.37-12.07Z" transform="translate(-713.28 -509.25)"/><path class="cls-2" d="M800.39,571.37a4.48,4.48,0,0,1-.67,2.48,4.38,4.38,0,0,1-2.39,1.59,15.79,15.79,0,0,1-4.77.57h-9.69q.18-4.17.18-7.8t-.18-7.81h5.06v0h4.58a15.69,15.69,0,0,1,4.21.44,4,4,0,0,1,2.17,1.28,3.46,3.46,0,0,1,.64,2.13,3.4,3.4,0,0,1-.92,2.33,6.56,6.56,0,0,1-3.13,1.65Q800.39,568.25,800.39,571.37Zm-12.46-7v2h4.13a5,5,0,0,0,1.86-.23.87.87,0,0,0,.53-.86.71.71,0,0,0-.55-.7,5.7,5.7,0,0,0-1.84-.21Zm4.13,7.75a10.52,10.52,0,0,0,1.71-.1,1.6,1.6,0,0,0,.85-.34.91.91,0,0,0,.26-.68.86.86,0,0,0-.61-.81,6.83,6.83,0,0,0-2.21-.25h-4.13v2.18Z" transform="translate(-713.28 -509.25)"/><path class="cls-2" d="M804.43,574.09a8.92,8.92,0,0,1,0-12q2.31-2.16,7.26-2.16T819,562.1a9,9,0,0,1,0,12q-2.29,2.13-7.29,2.13T804.43,574.09Zm10.69-3.16a3.59,3.59,0,0,0,1.06-2.85,3.55,3.55,0,0,0-1.06-2.82,6.79,6.79,0,0,0-6.86,0,3.54,3.54,0,0,0-1,2.82,3.6,3.6,0,0,0,1,2.84,6.89,6.89,0,0,0,6.86,0Z" transform="translate(-713.28 -509.25)"/><path class="cls-2" d="M841,560.42q-.15,3.63-.15,7.79T841,576h-7.7l-5.2-11.74.38,11.74H823q.16-4.17.17-7.8t-.17-7.79h7.91l5.23,12.07-.37-12.07Z" transform="translate(-713.28 -509.25)"/><path class="cls-2" d="M860.06,560.37V568a8.43,8.43,0,0,1-2.07,6.14q-2.09,2.11-6.58,2.12a14.53,14.53,0,0,1-4.76-.75,15.19,15.19,0,0,1-3.88-2c.27-.89.49-1.74.66-2.56a24.09,24.09,0,0,0,.39-2.69,15,15,0,0,0,4.09,2.47,10.25,10.25,0,0,0,3.57.69,3.34,3.34,0,0,0,2.51-.79,4,4,0,0,0,.78-2.74v-1.63c0-2.32-.07-4.29-.19-5.9Z" transform="translate(-713.28 -509.25)"/><path class="cls-2" d="M864.11,574.09a8.91,8.91,0,0,1,0-12q2.32-2.16,7.26-2.16t7.29,2.16a9,9,0,0,1,0,12q-2.31,2.13-7.3,2.13C868.07,576.23,865.65,575.52,864.11,574.09Zm10.69-3.16a3.58,3.58,0,0,0,1.05-2.85,3.54,3.54,0,0,0-1.05-2.82,6.81,6.81,0,0,0-6.87,0,3.54,3.54,0,0,0-1,2.82,3.6,3.6,0,0,0,1,2.84,6.9,6.9,0,0,0,6.87,0Z" transform="translate(-713.28 -509.25)"/><path class="cls-2" d="M895.41,560.37h5.33v8.57a7.12,7.12,0,0,1-2.16,5.22q-2.12,2.07-7.13,2.07c-3.39,0-5.7-.66-7-2a7,7,0,0,1-1.83-5.17v-8.72H888v8.37a6.51,6.51,0,0,0,.14,1.54,1.92,1.92,0,0,0,.9,1.11,4.55,4.55,0,0,0,2.46.52,5.34,5.34,0,0,0,2.71-.53,2,2,0,0,0,1-1.17,6.89,6.89,0,0,0,.17-1.66Z" transform="translate(-713.28 -509.25)"/><path class="cls-2" d="M918.82,568.77a5.32,5.32,0,0,1-3.13,1.87c.17.23.3.41.37.53l3.48,4.84h-5.85c-.63-1.17-1.63-2.84-3-5h-3.16v5h-5.08c.12-2.78.17-5.38.17-7.8s0-5-.17-7.81h5.08v0H912c2.9,0,4.92.46,6.07,1.4a4.63,4.63,0,0,1,1.72,3.78A5.37,5.37,0,0,1,918.82,568.77Zm-11.28-4.22V567h2.9a23.71,23.71,0,0,0,2.77-.12,3.12,3.12,0,0,0,1.3-.37.89.89,0,0,0,.36-.76.86.86,0,0,0-.34-.73,2.86,2.86,0,0,0-1.29-.36,24.55,24.55,0,0,0-2.8-.11Z" transform="translate(-713.28 -509.25)"/><path class="cls-2" d="M930.9,559.23c0,1,0,2.81-.11,5.53,0,.43,0,.75,0,1-.29,2-.47,3.79-.54,5.29h-4c-.07-1.5-.25-3.27-.53-5.29l0-1c-.08-2.2-.13-4-.13-5.53Zm-.19,17.21h-5v-3.82h5Z" transform="translate(-713.28 -509.25)"/></svg>