<svg id="Calque_1" data-name="Calque 1" xmlns="http://www.w3.org/2000/svg" width="330.01" height="215.01" viewBox="0 0 330.01 215.01"><defs><style>.cls-1{fill:#f72616;}.cls-2{fill:#f8b0be;}</style></defs><path class="cls-1" d="M781.79,412.82a5.11,5.11,0,0,0-3.42.92,4.34,4.34,0,0,0,0,5.66,5.11,5.11,0,0,0,3.42.92,5.21,5.21,0,0,0,3.44-.91,4.32,4.32,0,0,0,0-5.67A5.15,5.15,0,0,0,781.79,412.82Z" transform="translate(-689.27 -294.94)"/><path class="cls-1" d="M867.83,413.29a20,20,0,0,0-2.72-.13h-3v3.4h3a19.39,19.39,0,0,0,2.68-.14,2.18,2.18,0,0,0,1.25-.51,1.5,1.5,0,0,0,.35-1.07,1.52,1.52,0,0,0-.33-1.07A2.12,2.12,0,0,0,867.83,413.29Z" transform="translate(-689.27 -294.94)"/><path class="cls-1" d="M905.4,413.14a27.07,27.07,0,0,0-2.79-.11H899.7v2.45h2.91a23.51,23.51,0,0,0,2.76-.12,3,3,0,0,0,1.3-.37.86.86,0,0,0,.37-.76.88.88,0,0,0-.35-.73A2.86,2.86,0,0,0,905.4,413.14Z" transform="translate(-689.27 -294.94)"/><path class="cls-1" d="M873.54,387.73l-.51-1.4c-.51,1.31-1.24,3.28-2.22,5.92h4.41C874.68,390.74,874.12,389.24,873.54,387.73Z" transform="translate(-689.27 -294.94)"/><path class="cls-1" d="M895,389.55a3,3,0,0,0,1.3-.38.85.85,0,0,0,.37-.75.87.87,0,0,0-.35-.73,3,3,0,0,0-1.29-.37,27.7,27.7,0,0,0-2.79-.1h-2.91v2.45h2.91A23.4,23.4,0,0,0,895,389.55Z" transform="translate(-689.27 -294.94)"/><path class="cls-1" d="M998.43,411.77l20.85-9.33-20.85-9.32,16.34-16L992,375.28l10.73-20.18-22.48,4.34,5.68-22.16-21.12,8.87,1.63-22.84L947,335.42l-1.65-22.84L927.6,327.12l-4.37-22.48-16,16.43-6.73-21.9-14.24,17.95L877.47,296,865,315.19l-10.71-20.25-10.72,20.25L831.07,296l-8.82,21.15-14.23-18-6.73,21.9-16-16.43L781,327.12l-17.71-14.54-1.65,22.84-19.44-12.11,1.62,22.84-21.12-8.87,5.69,22.16-22.48-4.35,10.72,20.19-22.79,1.88,16.33,16-20.85,9.32,20.85,9.33-16.34,16,22.8,1.88-10.72,20.18,22.47-4.34-5.68,22.16,21.12-8.87-1.63,22.84,19.45-12.11,1.65,22.84L781,477.77l4.38,22.48,16-16.43,6.73,21.9,14.24-18,8.82,21.14,12.48-19.21L854.28,510,865,489.7l12.49,19.21,8.82-21.15,14.23,18,6.73-21.9,16,16.43,4.38-22.48,17.7,14.54L947,469.47l19.44,12.11-1.62-22.84,21.12,8.87-5.68-22.16,22.47,4.35L992,429.61l22.8-1.88ZM923,383.06h16.72V387H928.1V389c.69,0,1.7,0,3,0q3.42,0,7.08-.12v3.7q-3.66-.14-7.08-.13c-1.35,0-2.36,0-3,0v2.23q8.17,0,11.85-.23a13.36,13.36,0,0,0-.18,1.82c0,.62,0,1.4,0,2.35H923c.12-2.78.17-5.38.17-7.81S923.14,385.85,923,383.06Zm-38.76,0h5.07v0h4.41q4.35,0,6.07,1.39a4.63,4.63,0,0,1,1.72,3.79,4.72,4.72,0,0,1-4,5,4.94,4.94,0,0,1,.36.54l3.49,4.84h-5.86c-.63-1.17-1.62-2.84-3-5h-3.16v5h-5.07q.16-4.17.17-7.81T884.26,383.06Zm-15.13,0h7.92l6.07,15.62h-5.58c-.27-.82-.63-1.84-1.09-3.07h-6.87l-1.07,3.07h-5.4Zm-24.91,0h5.06v5.86h7.91v-5.86h5.06q-.15,3.65-.15,7.81t.15,7.81h-5.06v-5.85h-7.91v5.85h-5.06c.12-2.78.17-5.38.17-7.81S844.34,385.85,844.22,383.06Zm-18,1.79q2.29-2.24,7.16-2.24,6.79,0,9.1,4.67a36.83,36.83,0,0,0-4.54,2,3.83,3.83,0,0,0-2-1.78,6.79,6.79,0,0,0-2.74-.59,4,4,0,0,0-3.08,1.09,4.11,4.11,0,0,0,.08,5.49,4.53,4.53,0,0,0,3.32,1.08,5.74,5.74,0,0,0,2.84-.59A3.49,3.49,0,0,0,838,392.1c1.18.63,2.68,1.34,4.52,2.13a6.41,6.41,0,0,1-3.59,3.63,14.31,14.31,0,0,1-5.49,1q-4.86,0-7.16-2.07a7.49,7.49,0,0,1-2.31-5.89A8.08,8.08,0,0,1,826.24,384.85Zm-13.47-6h4L815,382.22h-2.74Zm-7.49,4.17H822V387H810.36V389c.69,0,1.71,0,3,0,2.29,0,4.64,0,7.08-.12v3.7c-2.44-.09-4.79-.13-7.08-.13-1.34,0-2.36,0-3,0v2.23q8.17,0,11.85-.23a13.36,13.36,0,0,0-.18,1.82c0,.62,0,1.4,0,2.35H805.28q.18-4.17.18-7.81T805.28,383.06Zm-17.29,0h5.25v11.28q6.24,0,10.32-.22a11.85,11.85,0,0,0-.34,2.11c0,.67-.07,1.49-.07,2.45H788q.16-4.17.17-7.81T788,383.06Zm-11.17-4.17h4L779,382.22h-2.73Zm-7.48,4.17h16.71V387H774.41V389c.69,0,1.71,0,3.06,0q3.42,0,7.08-.12v3.7q-3.66-.14-7.08-.13c-1.35,0-2.37,0-3.06,0v2.23q8.18,0,11.86-.23a15.14,15.14,0,0,0-.19,1.82c0,.62,0,1.4,0,2.35H769.34q.17-4.17.17-7.81T769.34,383.06Zm-20.2,0h18.48v4.52c-2.26-.07-4.44-.11-6.57-.13v11.23h-5.37V387.45q-3.21,0-6.54.13Zm16.22,41.44L765,413.35l-2.15,11.15h-5.64L755,413.44l-.32,11.06h-5.57l1.67-15.62h7.32L760,419.05l1.63-10.17h7.62l1.68,15.62Zm23.72-1.92q-2.3,2.13-7.29,2.13t-7.25-2.14a8.92,8.92,0,0,1,0-12c1.54-1.44,4-2.15,7.26-2.15s5.74.71,7.28,2.15a8.93,8.93,0,0,1,0,12Zm22.08,1.92h-7.7l-5.21-11.75.39,11.75h-5.53q.17-4.19.17-7.81t-.17-7.79H801L806.25,421l-.36-12.07h5.27q-.15,3.63-.15,7.79T811.16,424.5Zm22-1.11c-1.46.88-3.68,1.32-6.64,1.32a23.39,23.39,0,0,1-4.87-.52,18.49,18.49,0,0,1-4.45-1.54,21.92,21.92,0,0,0,1.22-2,19.5,19.5,0,0,0,.93-2.19,13.41,13.41,0,0,0,3.55,1.38,15.87,15.87,0,0,0,3.77.49,7,7,0,0,0,2.51-.31c.49-.21.73-.44.73-.68,0-.87-1.33-1.31-4-1.31a16.25,16.25,0,0,1-6.37-.92,3.07,3.07,0,0,1-2-2.95,4.57,4.57,0,0,1,2.41-4.28,12.49,12.49,0,0,1,6.26-1.38,19.48,19.48,0,0,1,4.59.57,18.71,18.71,0,0,1,4.25,1.56c-.42.94-.86,2.1-1.32,3.46a6.33,6.33,0,0,1-.21.65,9.17,9.17,0,0,0-3.31-1.48,15.68,15.68,0,0,0-3.92-.59,9.09,9.09,0,0,0-2.75.27c-.48.18-.71.44-.71.79s.32.62,1,.82a9.67,9.67,0,0,0,2.83.32c3,0,5.24.34,6.62,1a3.39,3.39,0,0,1,2.07,3.19A4.66,4.66,0,0,1,833.14,423.39Zm22-6a7.16,7.16,0,0,1-2.16,5.23c-1.42,1.37-3.79,2.06-7.14,2.06s-5.7-.65-6.94-2a7,7,0,0,1-1.83-5.17v-8.71h5.33v8.37a7,7,0,0,0,.14,1.53,2,2,0,0,0,.91,1.11,4.43,4.43,0,0,0,2.46.52,5.36,5.36,0,0,0,2.71-.53,2.06,2.06,0,0,0,1-1.17,6.89,6.89,0,0,0,.16-1.66v-8.17h5.34Zm18.46.48a4.57,4.57,0,0,1-2.35,2.07,11.78,11.78,0,0,1-4.62.74h-4.48v3.79h-5.29q.17-4.19.17-7.81t-.17-7.81h5.29v0h4.48c2.85,0,4.84.51,6,1.52a5.45,5.45,0,0,1,1.68,4.27A7.12,7.12,0,0,1,873.59,417.9Zm19.13,4.24c0,.63,0,1.41,0,2.36H876q.18-4.19.18-7.81t-.18-7.81h16.72v3.89H881.05v2.07l3.06,0c2.28,0,4.63,0,7.07-.13v3.7c-2.44-.09-4.79-.13-7.07-.13l-3.06,0v2.24q8.18,0,11.85-.24A13.52,13.52,0,0,0,892.72,422.14Zm15.5-2.48,3.49,4.84h-5.86c-.63-1.18-1.62-2.84-3-5H899.7v5h-5.08q.18-4.19.18-7.81t-.18-7.81h5.08v0h4.41q4.35,0,6.07,1.4a4.6,4.6,0,0,1,1.72,3.78,5.42,5.42,0,0,1-.91,3.17,5.35,5.35,0,0,1-3.14,1.87A4.07,4.07,0,0,1,908.22,419.66Zm8.84-24.79a5.21,5.21,0,0,1-2.3,3,8.47,8.47,0,0,1-7.91,0,6.81,6.81,0,0,1-2.64-2.78,8.84,8.84,0,0,1-1-4.21,8.11,8.11,0,0,1,2.3-6.09q2.31-2.24,7.17-2.24a12.22,12.22,0,0,1,4.89.91,9,9,0,0,1,3.6,2.79l-3.78,2-.54.3a5.41,5.41,0,0,0-2-1.26,6.63,6.63,0,0,0-2.36-.42,4,4,0,0,0-3.08,1.09,3.82,3.82,0,0,0-1,2.68,3.68,3.68,0,0,0,1.08,2.77,4.61,4.61,0,0,0,3.33,1.06,6.3,6.3,0,0,0,1.88-.28,3.41,3.41,0,0,0,1.54-1h-4.2v-3.48h9.19v8.9h-3.79Zm7.18,24.43a4.49,4.49,0,0,0,3.32,1.09,5.85,5.85,0,0,0,2.84-.59,3.55,3.55,0,0,0,1.55-1.89q1.75,1,4.52,2.13a6.41,6.41,0,0,1-3.6,3.64,14.22,14.22,0,0,1-5.48,1q-4.86,0-7.17-2.06a7.53,7.53,0,0,1-2.3-5.9,8.14,8.14,0,0,1,2.3-6.09q2.31-2.24,7.17-2.23,6.79,0,9.1,4.67a34.77,34.77,0,0,0-4.54,2,3.84,3.84,0,0,0-2-1.79,6.81,6.81,0,0,0-2.74-.58,4,4,0,0,0-3.08,1.09,4.1,4.1,0,0,0,.08,5.48Zm30.83-7.13c-1.24,2.91-2.23,5.24-2.94,7s-1.38,3.53-2,5.34h-6.43q-.88-2.67-2-5.28c-.71-1.75-1.66-4-2.85-6.71-.2-.45-.73-1.67-1.57-3.63h6c.43,1.39,1.07,3.18,1.91,5.35.75,1.93,1.35,3.59,1.81,5,.3-1,.66-2.05,1.09-3.18s.67-1.81.76-2.05c.83-2.2,1.44-3.9,1.83-5.12h5.76Zm.2-18.33,3.48,4.84H952.9c-.63-1.17-1.63-2.84-3-5h-3.16v5h-5.08c.12-2.78.17-5.38.17-7.81s-.05-5-.17-7.81h5.08v0h4.41q4.35,0,6.07,1.39a4.66,4.66,0,0,1,1.72,3.79,4.74,4.74,0,0,1-4.05,5A5.37,5.37,0,0,1,955.27,393.84Z" transform="translate(-689.27 -294.94)"/><path class="cls-1" d="M952.45,387.32a27.79,27.79,0,0,0-2.8-.1h-2.9v2.45h2.9a23.71,23.71,0,0,0,2.77-.12,3,3,0,0,0,1.3-.38,1,1,0,0,0,0-1.48A3,3,0,0,0,952.45,387.32Z" transform="translate(-689.27 -294.94)"/><path class="cls-2" d="M755.68,398.68h5.37V387.45c2.13,0,4.31.06,6.57.13v-4.52H749.14v4.52q3.33-.1,6.54-.13Z" transform="translate(-689.27 -294.94)"/><path class="cls-2" d="M786.05,398.68c0-.95,0-1.73,0-2.35a15.14,15.14,0,0,1,.19-1.82q-3.69.19-11.86.23v-2.23c.69,0,1.71,0,3.06,0q3.42,0,7.08.13v-3.7q-3.66.12-7.08.12c-1.35,0-2.37,0-3.06,0V387h11.64v-3.9H769.34q.17,4.19.17,7.81t-.17,7.81Z" transform="translate(-689.27 -294.94)"/><polygon class="cls-2" points="91.53 83.95 87.55 83.95 87.04 87.29 89.77 87.29 91.53 83.95"/><path class="cls-2" d="M803.15,398.68c0-1,0-1.78.07-2.45a11.85,11.85,0,0,1,.34-2.11q-4.08.18-10.32.22V383.06H788q.16,4.19.17,7.81t-.17,7.81Z" transform="translate(-689.27 -294.94)"/><polygon class="cls-2" points="127.48 83.95 123.5 83.95 122.98 87.29 125.72 87.29 127.48 83.95"/><path class="cls-2" d="M822,398.68c0-.95,0-1.73,0-2.35a13.36,13.36,0,0,1,.18-1.82q-3.68.19-11.85.23v-2.23c.69,0,1.71,0,3,0,2.29,0,4.64,0,7.08.13v-3.7c-2.44.08-4.79.12-7.08.12-1.34,0-2.36,0-3,0V387H822v-3.9H805.28q.18,4.19.18,7.81t-.18,7.81Z" transform="translate(-689.27 -294.94)"/><path class="cls-2" d="M833.4,398.9a14.31,14.31,0,0,0,5.49-1,6.41,6.41,0,0,0,3.59-3.63c-1.84-.79-3.34-1.5-4.52-2.13a3.49,3.49,0,0,1-1.55,1.88,5.74,5.74,0,0,1-2.84.59,4.53,4.53,0,0,1-3.32-1.08,4.11,4.11,0,0,1-.08-5.49,4,4,0,0,1,3.08-1.09,6.79,6.79,0,0,1,2.74.59,3.83,3.83,0,0,1,2,1.78,36.83,36.83,0,0,1,4.54-2q-2.29-4.66-9.1-4.67-4.86,0-7.16,2.24a8.08,8.08,0,0,0-2.31,6.09,7.49,7.49,0,0,0,2.31,5.89Q828.54,398.9,833.4,398.9Z" transform="translate(-689.27 -294.94)"/><path class="cls-2" d="M849.28,398.68v-5.85h7.91v5.85h5.06q-.15-3.63-.15-7.81t.15-7.81h-5.06v5.86h-7.91v-5.86h-5.06c.12,2.79.17,5.39.17,7.81s0,5-.17,7.81Z" transform="translate(-689.27 -294.94)"/><path class="cls-2" d="M869.58,395.61h6.87c.46,1.23.82,2.25,1.09,3.07h5.58l-6.07-15.62h-7.92l-6,15.62h5.4Zm3.45-9.28.51,1.4c.58,1.51,1.14,3,1.68,4.52h-4.41C871.79,389.61,872.52,387.64,873,386.33Z" transform="translate(-689.27 -294.94)"/><path class="cls-2" d="M889.33,398.68v-5h3.16c1.37,2.15,2.36,3.82,3,5h5.86l-3.49-4.84a4.94,4.94,0,0,0-.36-.54,4.72,4.72,0,0,0,4-5,4.63,4.63,0,0,0-1.72-3.79q-1.72-1.39-6.07-1.39h-4.41v0h-5.07q.16,4.19.17,7.81t-.17,7.81Zm0-11.46h2.91a27.7,27.7,0,0,1,2.79.1,3,3,0,0,1,1.29.37.87.87,0,0,1,.35.73.85.85,0,0,1-.37.75,3,3,0,0,1-1.3.38,23.4,23.4,0,0,1-2.76.12h-2.91Z" transform="translate(-689.27 -294.94)"/><path class="cls-2" d="M921.3,389.78h-9.19v3.48h4.2a3.41,3.41,0,0,1-1.54,1,6.3,6.3,0,0,1-1.88.28,4.61,4.61,0,0,1-3.33-1.06,3.68,3.68,0,0,1-1.08-2.77,3.82,3.82,0,0,1,1-2.68,4,4,0,0,1,3.08-1.09,6.63,6.63,0,0,1,2.36.42,5.41,5.41,0,0,1,2,1.26l.54-.3,3.78-2a9,9,0,0,0-3.6-2.79,12.22,12.22,0,0,0-4.89-.91q-4.86,0-7.17,2.24a8.11,8.11,0,0,0-2.3,6.09,8.84,8.84,0,0,0,1,4.21,6.81,6.81,0,0,0,2.64,2.78,8.47,8.47,0,0,0,7.91,0,5.21,5.21,0,0,0,2.3-3l.45,3.81h3.79Z" transform="translate(-689.27 -294.94)"/><path class="cls-2" d="M939.74,398.68c0-.95,0-1.73,0-2.35a13.36,13.36,0,0,1,.18-1.82q-3.68.19-11.85.23v-2.23c.69,0,1.7,0,3,0q3.42,0,7.08.13v-3.7q-3.66.12-7.08.12c-1.35,0-2.36,0-3,0V387h11.64v-3.9H923c.12,2.79.17,5.39.17,7.81s-.05,5-.17,7.81Z" transform="translate(-689.27 -294.94)"/><path class="cls-2" d="M958,391.43a5.32,5.32,0,0,0,.92-3.16,4.66,4.66,0,0,0-1.72-3.79q-1.72-1.39-6.07-1.39h-4.41v0h-5.08c.12,2.79.17,5.39.17,7.81s-.05,5-.17,7.81h5.08v-5h3.16c1.36,2.15,2.36,3.82,3,5h5.85l-3.48-4.84a5.37,5.37,0,0,0-.37-.54A5.27,5.27,0,0,0,958,391.43Zm-4.31-2.26a3,3,0,0,1-1.3.38,23.71,23.71,0,0,1-2.77.12h-2.9v-2.45h2.9a27.79,27.79,0,0,1,2.8.1,3,3,0,0,1,1.29.37,1,1,0,0,1,0,1.48Z" transform="translate(-689.27 -294.94)"/><polygon class="cls-2" points="72.37 113.94 70.73 124.12 68.86 113.94 61.55 113.94 59.87 129.56 65.44 129.56 65.76 118.5 67.96 129.56 73.59 129.56 75.74 118.41 76.09 129.56 81.66 129.56 79.98 113.94 72.37 113.94"/><path class="cls-2" d="M781.79,408.43c-3.3,0-5.72.71-7.26,2.15a8.92,8.92,0,0,0,0,12q2.33,2.15,7.25,2.14t7.29-2.13a8.93,8.93,0,0,0,0-12C787.53,409.14,785.11,408.43,781.79,408.43Zm3.44,11a5.21,5.21,0,0,1-3.44.91,5.11,5.11,0,0,1-3.42-.92,4.34,4.34,0,0,1,0-5.66,6.85,6.85,0,0,1,6.86,0,4.32,4.32,0,0,1,0,5.67Z" transform="translate(-689.27 -294.94)"/><path class="cls-2" d="M805.89,408.9l.36,12.07L801,408.9h-7.91q.17,4.17.17,7.79t-.17,7.81h5.53l-.39-11.75,5.21,11.75h7.7q-.15-3.64-.15-7.81t.15-7.79Z" transform="translate(-689.27 -294.94)"/><path class="cls-2" d="M833.27,415.86c-1.38-.7-3.58-1-6.62-1a9.67,9.67,0,0,1-2.83-.32c-.66-.2-1-.48-1-.82s.23-.61.71-.79a9.09,9.09,0,0,1,2.75-.27,15.68,15.68,0,0,1,3.92.59,9.17,9.17,0,0,1,3.31,1.48,6.33,6.33,0,0,0,.21-.65c.46-1.36.9-2.52,1.32-3.46a18.71,18.71,0,0,0-4.25-1.56,19.48,19.48,0,0,0-4.59-.57,12.49,12.49,0,0,0-6.26,1.38,4.57,4.57,0,0,0-2.41,4.28,3.07,3.07,0,0,0,2,2.95,16.25,16.25,0,0,0,6.37.92c2.67,0,4,.44,4,1.31,0,.24-.24.47-.73.68a7,7,0,0,1-2.51.31,15.87,15.87,0,0,1-3.77-.49,13.41,13.41,0,0,1-3.55-1.38,19.5,19.5,0,0,1-.93,2.19,21.92,21.92,0,0,1-1.22,2,18.49,18.49,0,0,0,4.45,1.54,23.39,23.39,0,0,0,4.87.52c3,0,5.18-.44,6.64-1.32a4.66,4.66,0,0,0,2.2-4.34A3.39,3.39,0,0,0,833.27,415.86Z" transform="translate(-689.27 -294.94)"/><path class="cls-2" d="M849.79,417a6.89,6.89,0,0,1-.16,1.66,2.06,2.06,0,0,1-1,1.17,5.36,5.36,0,0,1-2.71.53,4.43,4.43,0,0,1-2.46-.52,2,2,0,0,1-.91-1.11,7,7,0,0,1-.14-1.53v-8.37h-5.33v8.71a7,7,0,0,0,1.83,5.17c1.24,1.32,3.56,2,6.94,2s5.72-.69,7.14-2.06a7.16,7.16,0,0,0,2.16-5.23v-8.56h-5.34Z" transform="translate(-689.27 -294.94)"/><path class="cls-2" d="M866.62,408.9h-4.48v0h-5.29q.17,4.17.17,7.81t-.17,7.81h5.29v-3.79h4.48a11.78,11.78,0,0,0,4.62-.74,4.57,4.57,0,0,0,2.35-2.07,7.12,7.12,0,0,0,.66-3.21,5.45,5.45,0,0,0-1.68-4.27C871.46,409.41,869.47,408.9,866.62,408.9Zm2.42,7a2.18,2.18,0,0,1-1.25.51,19.39,19.39,0,0,1-2.68.14h-3v-3.4h3a20,20,0,0,1,2.72.13,2.12,2.12,0,0,1,1.23.48,1.52,1.52,0,0,1,.33,1.07A1.5,1.5,0,0,1,869,415.91Z" transform="translate(-689.27 -294.94)"/><path class="cls-2" d="M881.05,418.32l3.06,0c2.28,0,4.63,0,7.07.13v-3.7c-2.44.09-4.79.13-7.07.13l-3.06,0v-2.07h11.64v-3.89H876q.18,4.17.18,7.81T876,424.5h16.72c0-.95,0-1.73,0-2.36a13.52,13.52,0,0,1,.18-1.82q-3.67.19-11.85.24Z" transform="translate(-689.27 -294.94)"/><path class="cls-2" d="M911,417.25a5.42,5.42,0,0,0,.91-3.17,4.6,4.6,0,0,0-1.72-3.78q-1.73-1.4-6.07-1.4H899.7v0h-5.08q.18,4.17.18,7.81t-.18,7.81h5.08v-5h3.16c1.37,2.15,2.36,3.81,3,5h5.86l-3.49-4.84a4.07,4.07,0,0,0-.37-.54A5.35,5.35,0,0,0,911,417.25ZM906.67,415a3,3,0,0,1-1.3.37,23.51,23.51,0,0,1-2.76.12H899.7V413h2.91a27.07,27.07,0,0,1,2.79.11,2.86,2.86,0,0,1,1.29.36.88.88,0,0,1,.35.73A.86.86,0,0,1,906.67,415Z" transform="translate(-689.27 -294.94)"/><path class="cls-2" d="M927.24,412.73a6.81,6.81,0,0,1,2.74.58,3.84,3.84,0,0,1,2,1.79,34.77,34.77,0,0,1,4.54-2q-2.31-4.68-9.1-4.67-4.86,0-7.17,2.23a8.14,8.14,0,0,0-2.3,6.09,7.53,7.53,0,0,0,2.3,5.9q2.31,2.06,7.17,2.06a14.22,14.22,0,0,0,5.48-1,6.41,6.41,0,0,0,3.6-3.64q-2.76-1.17-4.52-2.13a3.55,3.55,0,0,1-1.55,1.89,5.85,5.85,0,0,1-2.84.59,4.49,4.49,0,0,1-3.32-1.09,4.1,4.1,0,0,1-.08-5.48A4,4,0,0,1,927.24,412.73Z" transform="translate(-689.27 -294.94)"/><path class="cls-2" d="M948.9,414c-.09.24-.34.93-.76,2.05s-.79,2.19-1.09,3.18c-.46-1.41-1.06-3.07-1.81-5-.84-2.17-1.48-4-1.91-5.35h-6c.84,2,1.37,3.18,1.57,3.63,1.19,2.73,2.14,5,2.85,6.71s1.36,3.5,2,5.28h6.43q.9-2.72,2-5.34c.71-1.75,1.7-4.08,2.94-7l1.42-3.29h-5.76C950.34,410.1,949.73,411.8,948.9,414Z" transform="translate(-689.27 -294.94)"/></svg>