<svg id="Calque_1" data-name="Calque 1" xmlns="http://www.w3.org/2000/svg" xmlns:xlink="http://www.w3.org/1999/xlink" width="283.3" height="209.3" viewBox="0 0 283.3 209.3"><defs><style>.cls-1{fill:none;}.cls-2{clip-path:url(#clip-path);}.cls-3{fill:#1f78ad;}.cls-4{fill:#ccffc4;}</style><clipPath id="clip-path" transform="translate(0 0)"><rect class="cls-1" width="283.3" height="209.3"/></clipPath></defs><g class="cls-2"><path class="cls-3" d="M241.92,197.7,53.47,209.23C29,210.72,7.49,188,5.7,158.78L.12,67.49C-1.67,38.24,16.9,13.09,41.39,11.6L229.83.07c24.48-1.5,46,21.2,47.77,50.44l5.58,91.3c1.79,29.24-16.78,54.39-41.26,55.89" transform="translate(0 0)"/></g><path class="cls-4" d="M38.42,59l2.92-.18c3.82-.23,4.75,2,4.89,4.24a4.73,4.73,0,0,1-4.74,5.37L39,68.55Zm3.13,8.33c2.57-.16,3.46-2,3.33-4.16-.16-2.63-1.45-3.38-3.68-3.24L39.76,60l.45,7.39Z" transform="translate(0 0)"/><path class="cls-4" d="M54,63.57l.1,4.06-.9.06-.29-1.26A3,3,0,0,1,50.37,68a2,2,0,0,1-2.28-1.91c-.06-1,.6-1.73,1.87-2.06l2.82-.73c-.18-1-.88-1.48-2.05-1.41A3.83,3.83,0,0,0,48.24,63l-.08-1.28a4.6,4.6,0,0,1,2.59-1C52.79,60.65,53.92,61.74,54,63.57Zm-1.1.93v-.2l-2.26.6c-1,.26-1.28.56-1.24,1.11a1,1,0,0,0,1.2,1A2.52,2.52,0,0,0,52.87,64.5Z" transform="translate(0 0)"/><path class="cls-4" d="M56.61,67.48l-.42-6.89.9-.06L57.38,62a2.65,2.65,0,0,1,2.4-1.82c1.49-.09,2.45.71,2.55,2.43l.27,4.46-1.19.07L61.15,63a1.55,1.55,0,0,0-1.62-1.64A2.27,2.27,0,0,0,57.6,63.9l.21,3.5Z" transform="translate(0 0)"/><path class="cls-4" d="M67,66c.87,0,1.59-.48,1.55-1.16,0-.52-.32-.65-1.37-.91l-.91-.21c-1.2-.29-2-.77-2-1.86-.08-1.29,1.09-1.93,2.39-2a5.48,5.48,0,0,1,2.44.42l.07,1.14a4.94,4.94,0,0,0-2.49-.51c-.82,0-1.3.38-1.27.82s.31.73,1.5,1l.83.2c1,.24,1.91.64,2,1.83.08,1.44-1.22,2.18-2.54,2.26a4.25,4.25,0,0,1-2.51-.54l-.08-1.16A3.92,3.92,0,0,0,67,66Z" transform="translate(0 0)"/><path class="cls-4" d="M74.57,56.16l1.2-.07.64,10.18-1.2.07Z" transform="translate(0 0)"/><path class="cls-4" d="M84.29,62.72,79.6,63a2,2,0,0,0,2.29,2,3.34,3.34,0,0,0,2.24-.87l.07,1.06a3.92,3.92,0,0,1-2.39,1c-1.77.1-3.37-1.06-3.52-3.52-.12-1.85.79-3.53,2.88-3.66C83.55,58.77,84.46,60.51,84.29,62.72Zm-1.19-1C83,60.66,82.47,60,81.27,60c-1,.06-1.62.69-1.71,1.93Z" transform="translate(0 0)"/><path class="cls-4" d="M92.32,59.34c-1.27.08-1.81.92-1.72,2.44.11,1.79,1.13,2.59,2.31,2.52A3.59,3.59,0,0,0,95,63.54L95,64.63a3.69,3.69,0,0,1-2.1.78c-2.17.13-3.47-1.47-3.6-3.56-.14-2.33,1.12-3.51,2.92-3.62a4.41,4.41,0,0,1,2.5.6L94.82,60A4.39,4.39,0,0,0,92.32,59.34Z" transform="translate(0 0)"/><path class="cls-4" d="M102.42,60.6l.1,4.07-.9,0-.29-1.26a3.05,3.05,0,0,1-2.52,1.59,2,2,0,0,1-2.28-1.91c0-1,.6-1.73,1.88-2.07l2.82-.73c-.18-1-.89-1.47-2-1.4a3.83,3.83,0,0,0-2.49,1.14l-.08-1.29a4.67,4.67,0,0,1,2.59-1C101.23,57.68,102.37,58.77,102.42,60.6Zm-1.1.94v-.21l-2.26.61c-1,.25-1.28.55-1.24,1.11a1,1,0,0,0,1.2,1A2.53,2.53,0,0,0,101.32,61.54Z" transform="translate(0 0)"/><path class="cls-4" d="M110.5,54l.63,10.18-.93.06L109.93,63a2.63,2.63,0,0,1-2.22,1.49c-2,.13-3.19-1.47-3.32-3.57-.15-2.57,1.14-3.52,2.5-3.61a2.88,2.88,0,0,1,2.7,1.27L109.31,54Zm-.78,6.78a2.31,2.31,0,0,0-2.44-2.31c-1.32.08-1.69,1.09-1.61,2.41.12,2.08,1,2.6,2.09,2.53C109.63,63.26,109.77,61.54,109.72,60.74Z" transform="translate(0 0)"/><path class="cls-4" d="M117,56.73l.07,1.19c-2.48.13-2.49,1.67-2.44,2.55l.21,3.44-1.2.08-.42-6.89.9-.06.28,1.43A2.48,2.48,0,0,1,117,56.73Z" transform="translate(0 0)"/><path class="cls-4" d="M124.44,60.26l-4.68.29a2,2,0,0,0,2.28,2,3.43,3.43,0,0,0,2.25-.88l.06,1.07a3.81,3.81,0,0,1-2.39.94c-1.77.11-3.37-1.06-3.52-3.51-.11-1.86.79-3.54,2.89-3.66C123.71,56.31,124.61,58.06,124.44,60.26Zm-1.18-1c-.11-1.07-.64-1.78-1.83-1.7-1,.06-1.63.68-1.72,1.92Z" transform="translate(0 0)"/><path class="cls-4" d="M135.6,52.43l.62,10.18-.93,0L135,61.48A2.64,2.64,0,0,1,132.8,63c-2,.12-3.19-1.48-3.31-3.57-.16-2.58,1.13-3.53,2.5-3.61a2.88,2.88,0,0,1,2.69,1.26l-.28-4.55Zm-.79,6.78a2.3,2.3,0,0,0-2.44-2.32c-1.32.08-1.69,1.1-1.61,2.42.13,2.08,1,2.59,2.09,2.53A2.19,2.19,0,0,0,134.81,59.21Z" transform="translate(0 0)"/><path class="cls-4" d="M144.1,59.06l-4.68.29a2,2,0,0,0,2.28,1.95,3.4,3.4,0,0,0,2.24-.88l.07,1.07a4,4,0,0,1-2.39.94c-1.77.11-3.37-1.06-3.52-3.51-.12-1.86.79-3.54,2.88-3.67C143.36,55.11,144.27,56.86,144.1,59.06Zm-1.18-1c-.12-1.07-.64-1.78-1.84-1.71-1,.06-1.62.69-1.71,1.93Z" transform="translate(0 0)"/><path class="cls-4" d="M153.17,54.52l.07,1.19c-2.48.13-2.49,1.67-2.44,2.55L151,61.7l-1.2.08-.42-6.89.9-.06.28,1.43A2.48,2.48,0,0,1,153.17,54.52Z" transform="translate(0 0)"/><path class="cls-4" d="M160.59,58.05l-4.69.29a2,2,0,0,0,2.28,1.95,3.43,3.43,0,0,0,2.25-.88l.06,1.07a3.81,3.81,0,0,1-2.39.94c-1.77.11-3.37-1.06-3.52-3.51-.11-1.86.79-3.54,2.89-3.66C159.85,54.1,160.75,55.85,160.59,58.05Zm-1.19-1c-.11-1.07-.64-1.78-1.83-1.7-1,.06-1.63.68-1.72,1.92Z" transform="translate(0 0)"/><path class="cls-4" d="M165.17,54.89c-1.27.07-1.81.92-1.71,2.43.11,1.8,1.12,2.59,2.3,2.52a3.52,3.52,0,0,0,2.06-.76l.06,1.09a3.6,3.6,0,0,1-2.1.78c-2.17.13-3.47-1.47-3.6-3.55-.14-2.34,1.13-3.51,2.92-3.62a4.25,4.25,0,0,1,2.5.6l.07,1.12A4.4,4.4,0,0,0,165.17,54.89Z" transform="translate(0 0)"/><path class="cls-4" d="M175.8,55.71l.27,4.46-1.19.07L174.62,56A1.5,1.5,0,0,0,173,54.42,2.28,2.28,0,0,0,171.07,57l.21,3.5-1.2.08-.62-10.18,1.2-.08.28,4.6a2.59,2.59,0,0,1,2.31-1.6C174.75,53.19,175.7,54,175.8,55.71Z" transform="translate(0 0)"/><path class="cls-4" d="M183.81,56.63l-4.69.29a2,2,0,0,0,2.28,1.95,3.43,3.43,0,0,0,2.25-.88l.06,1.07a3.81,3.81,0,0,1-2.39.94c-1.76.11-3.37-1.06-3.52-3.51-.11-1.86.79-3.54,2.89-3.67C183.07,52.68,184,54.43,183.81,56.63Zm-1.19-1c-.11-1.07-.63-1.78-1.83-1.7-1,.06-1.63.68-1.72,1.92Z" transform="translate(0 0)"/><path class="cls-4" d="M189.43,52.31l.08,1.18c-2.49.13-2.5,1.67-2.45,2.55l.21,3.45-1.19.07-.42-6.89.89-.05.29,1.42A2.45,2.45,0,0,1,189.43,52.31Z" transform="translate(0 0)"/><path class="cls-4" d="M193.83,53.13c-1.27.08-1.81.93-1.72,2.44.11,1.79,1.12,2.59,2.31,2.52a3.47,3.47,0,0,0,2.05-.76l.07,1.09a3.62,3.62,0,0,1-2.1.78c-2.17.13-3.47-1.47-3.6-3.55-.14-2.34,1.12-3.51,2.92-3.62a4.33,4.33,0,0,1,2.5.59l.07,1.13A4.39,4.39,0,0,0,193.83,53.13Z" transform="translate(0 0)"/><path class="cls-4" d="M204.46,54l.27,4.46-1.2.07-.26-4.25a1.49,1.49,0,0,0-1.61-1.57,2.28,2.28,0,0,0-1.94,2.54l.22,3.5-1.2.07-.62-10.18,1.2-.07.28,4.6a2.58,2.58,0,0,1,2.31-1.6C203.4,51.44,204.35,52.23,204.46,54Z" transform="translate(0 0)"/><path class="cls-4" d="M212.46,54.88l-4.68.29a2,2,0,0,0,2.28,1.94,3.37,3.37,0,0,0,2.25-.87l.06,1.06a3.87,3.87,0,0,1-2.39,1c-1.77.1-3.37-1.06-3.52-3.51-.12-1.86.79-3.54,2.89-3.67C211.73,50.93,212.63,52.67,212.46,54.88Zm-1.18-1c-.11-1.08-.64-1.78-1.84-1.71-1,.06-1.62.69-1.71,1.93Z" transform="translate(0 0)"/><path class="cls-4" d="M216.74,56.8c.87-.06,1.6-.49,1.56-1.17,0-.52-.33-.65-1.38-.9l-.9-.22c-1.21-.29-2-.76-2.05-1.86-.08-1.28,1.08-1.93,2.38-2a5.52,5.52,0,0,1,2.45.43l.07,1.13a5.2,5.2,0,0,0-2.5-.51c-.82.05-1.3.38-1.27.82s.32.73,1.5,1l.83.2c1,.24,1.92.64,2,1.84.09,1.43-1.22,2.17-2.54,2.25a4.34,4.34,0,0,1-2.51-.53l-.07-1.17A4,4,0,0,0,216.74,56.8Z" transform="translate(0 0)"/><path class="cls-4" d="M45.77,79.86l-1.71.38A2,2,0,0,1,45.16,82a2.67,2.67,0,0,1-2.27,2.62,4.17,4.17,0,0,1-.61.89,5.72,5.72,0,0,1,1-.18c1.38-.08,2.65.38,2.72,1.47.08,1.32-1.43,2-3.3,2.13a5.89,5.89,0,0,1-3.23-.58l-.07-1a6.23,6.23,0,0,0,3.24.57c1.33-.08,2.35-.35,2.31-1s-.9-.73-1.9-.67a6.6,6.6,0,0,0-2.28.64l-.4-.67a5.28,5.28,0,0,0,1.41-1.5,2.71,2.71,0,0,1-2.52-2.49c-.12-1.94,1.61-2.62,3.17-2.72l3.27-.2Zm-1.86,2c0-.89-.46-1.37-1.74-1.29s-1.67.6-1.61,1.5a1.53,1.53,0,0,0,1.79,1.56A1.51,1.51,0,0,0,43.91,81.91Z" transform="translate(0 0)"/><path class="cls-4" d="M51.31,78.79,51.38,80c-2.48.14-2.49,1.67-2.44,2.55L49.15,86,48,86l-.42-6.89.9-.05.28,1.42A2.46,2.46,0,0,1,51.31,78.79Z" transform="translate(0 0)"/><path class="cls-4" d="M58.65,81.31l.1,4.07-.9.05-.29-1.26A3.07,3.07,0,0,1,55,85.76a2,2,0,0,1-2.28-1.91c-.06-1,.6-1.73,1.87-2.07l2.83-.73c-.18-1-.89-1.47-2.06-1.4a3.83,3.83,0,0,0-2.48,1.14l-.08-1.29a4.64,4.64,0,0,1,2.59-1C57.46,78.4,58.6,79.48,58.65,81.31Zm-1.1.94V82l-2.27.61c-1,.25-1.27.56-1.24,1.11a1,1,0,0,0,1.21,1A2.54,2.54,0,0,0,57.55,82.25Z" transform="translate(0 0)"/><path class="cls-4" d="M67.66,81.21c.13,2.1-.82,3.82-2.86,4A2.66,2.66,0,0,1,62.42,84l.22,3.58-1.2.07-.57-9.28,1.05-.07.25,1.37a2.87,2.87,0,0,1,2.57-1.71C66.1,77.85,67.5,78.64,67.66,81.21Zm-1.2.06c-.08-1.32-.65-2.35-2-2.27a2.37,2.37,0,0,0-2.14,2.67c0,.8.4,2.56,2.27,2.45C65.68,84.05,66.59,83.35,66.46,81.27Z" transform="translate(0 0)"/><path class="cls-4" d="M75.77,79.86,76,84.32l-1.2.08-.26-4.26A1.49,1.49,0,0,0,73,78.57,2.29,2.29,0,0,0,71,81.11l.22,3.5-1.2.08-.62-10.18,1.19-.08.29,4.6a2.57,2.57,0,0,1,2.3-1.6C74.71,77.34,75.66,78.14,75.77,79.86Z" transform="translate(0 0)"/><path class="cls-4" d="M77.77,74.6l1.35-.08.07,1.19-1.34.09Zm1.44,2.62-1.2.07.42,6.89,1.2-.08Z" transform="translate(0 0)"/><path class="cls-4" d="M87.9,76.68,88.46,86l-1.2.07-.21-3.58a2.7,2.7,0,0,1-2.23,1.48c-2,.12-3.18-1.48-3.31-3.57-.16-2.58,1.13-3.53,2.5-3.61a2.84,2.84,0,0,1,2.76,1.38l.08-1.39Zm-1.07,3.5a2.36,2.36,0,0,0-2.44-2.39c-1.32.08-1.77,1.17-1.69,2.49.13,2.08,1.11,2.66,2.18,2.6C86.75,82.77,86.88,81,86.83,80.18Z" transform="translate(0 0)"/><path class="cls-4" d="M96.05,76.19l.43,6.88-.9.06-.29-1.5A2.64,2.64,0,0,1,93,83.43c-1.5.09-2.45-.7-2.55-2.43l-.27-4.46,1.19-.07.26,4.25c.07,1.06.45,1.64,1.47,1.58,1.42-.09,2-1.67,1.93-2.54l-.21-3.5Z" transform="translate(0 0)"/><path class="cls-4" d="M104.21,79.53l-4.69.29a2,2,0,0,0,2.29,2,3.41,3.41,0,0,0,2.24-.87l.07,1.06a3.87,3.87,0,0,1-2.39.94c-1.77.11-3.38-1.05-3.53-3.51-.11-1.86.79-3.54,2.89-3.66C103.47,75.58,104.37,77.33,104.21,79.53Zm-1.19-1c-.11-1.07-.63-1.78-1.83-1.7a1.8,1.8,0,0,0-1.72,1.92Z" transform="translate(0 0)"/><path class="cls-4" d="M108.49,81.45c.87,0,1.59-.49,1.55-1.16s-.33-.66-1.38-.91l-.9-.21c-1.2-.29-2-.77-2.05-1.86-.08-1.29,1.08-1.93,2.39-2a5.34,5.34,0,0,1,2.44.42l.07,1.14a5,5,0,0,0-2.49-.51c-.83.05-1.3.38-1.28.81s.32.74,1.51,1l.82.21c1,.24,1.92.63,2,1.83.09,1.44-1.22,2.18-2.53,2.26a4.39,4.39,0,0,1-2.52-.54L106,80.77A3.91,3.91,0,0,0,108.49,81.45Z" transform="translate(0 0)"/><path class="cls-4" d="M126.59,77l.26,4.22-1.2.08-.25-4.12c-.05-.85-.33-1.78-1.44-1.74-1.35,0-1.81,1.55-1.75,2.58l.21,3.47-1.2.08-.25-4.1c-.06-1-.54-1.82-1.53-1.76-1.3.08-1.84,1.59-1.77,2.74l.2,3.32-1.2.08L116.25,75l.9,0,.35,1.84a2.37,2.37,0,0,1,2.08-2.14,2.1,2.1,0,0,1,2.34,1.91,2.51,2.51,0,0,1,2.3-2.17C125.75,74.26,126.47,75,126.59,77Z" transform="translate(0 0)"/><path class="cls-4" d="M134.59,77.68,129.9,78a2,2,0,0,0,2.28,2,3.42,3.42,0,0,0,2.25-.87l.06,1.06a3.81,3.81,0,0,1-2.39.94c-1.76.11-3.37-1.05-3.52-3.51-.11-1.85.79-3.53,2.89-3.66C133.85,73.72,134.75,75.47,134.59,77.68Zm-1.19-1c-.11-1.08-.64-1.78-1.83-1.71a1.8,1.8,0,0,0-1.72,1.92Zm-1.89-3.59-.52,0,.6-2,1.69-.11Z" transform="translate(0 0)"/><path class="cls-4" d="M136.23,70.42l1.2-.07.64,10.18-1.2.07Z" transform="translate(0 0)"/><path class="cls-4" d="M145.87,76,146,80l-.9.06-.28-1.26a3,3,0,0,1-2.52,1.58,2,2,0,0,1-2.28-1.9c-.06-1,.6-1.74,1.87-2.07l2.83-.73c-.19-1-.89-1.48-2.06-1.41a3.76,3.76,0,0,0-2.48,1.15l-.08-1.29a4.61,4.61,0,0,1,2.58-1C144.69,73.06,145.82,74.15,145.87,76Zm-1.1.94v-.21l-2.26.6c-1,.26-1.27.56-1.24,1.11a1,1,0,0,0,1.2,1A2.52,2.52,0,0,0,144.77,76.92Z" transform="translate(0 0)"/><path class="cls-4" d="M148.52,79.89,148.1,73l.89,0,.29,1.5a2.65,2.65,0,0,1,2.4-1.82c1.5-.09,2.45.71,2.55,2.43l.27,4.46-1.19.08-.26-4.17a1.55,1.55,0,0,0-1.62-1.64,2.27,2.27,0,0,0-1.93,2.52l.21,3.51Z" transform="translate(0 0)"/><path class="cls-4" d="M162.61,72.72l-1.71.37a2,2,0,0,1,1.1,1.77,2.68,2.68,0,0,1-2.27,2.62,4.17,4.17,0,0,1-.61.89,5,5,0,0,1,1-.18c1.38-.09,2.65.37,2.72,1.47.08,1.31-1.43,2-3.3,2.12a5.8,5.8,0,0,1-3.23-.58l-.07-1a6.22,6.22,0,0,0,3.24.56c1.33-.08,2.35-.35,2.31-1s-.9-.72-1.9-.66a6.38,6.38,0,0,0-2.28.63l-.4-.66a5.55,5.55,0,0,0,1.41-1.5A2.74,2.74,0,0,1,156.12,75c-.12-2,1.62-2.63,3.17-2.72l3.28-.2Zm-1.86,2c-.05-.9-.46-1.37-1.75-1.29s-1.66.59-1.6,1.49a1.53,1.53,0,0,0,1.79,1.56A1.5,1.5,0,0,0,160.75,74.77Z" transform="translate(0 0)"/><path class="cls-4" d="M169.83,75.52l-4.69.29a2,2,0,0,0,2.29,2,3.42,3.42,0,0,0,2.24-.88l.07,1.06a3.92,3.92,0,0,1-2.39,1c-1.77.11-3.37-1.06-3.52-3.51-.12-1.86.79-3.54,2.88-3.67C169.09,71.57,170,73.32,169.83,75.52Zm-1.19-1c-.11-1.07-.63-1.78-1.83-1.71a1.81,1.81,0,0,0-1.72,1.93Z" transform="translate(0 0)"/><path class="cls-4" d="M177.36,74.05l.1,4.07-.9,0-.29-1.26a3.05,3.05,0,0,1-2.52,1.59,2,2,0,0,1-2.28-1.91c-.06-1,.6-1.73,1.88-2.07l2.82-.73c-.18-1-.88-1.47-2-1.4a3.83,3.83,0,0,0-2.49,1.14l-.08-1.29a4.6,4.6,0,0,1,2.59-1C176.17,71.13,177.31,72.22,177.36,74.05Zm-1.1.94v-.21l-2.27.61c-1,.25-1.27.55-1.23,1.11a1,1,0,0,0,1.2,1A2.53,2.53,0,0,0,176.26,75Z" transform="translate(0 0)"/><path class="cls-4" d="M180,78l-.42-6.88.9-.06.29,1.5a2.64,2.64,0,0,1,2.4-1.81c1.49-.09,2.44.7,2.55,2.43L186,77.6l-1.2.07-.25-4.16c0-.74-.45-1.72-1.62-1.65A2.26,2.26,0,0,0,181,74.39l.21,3.5Z" transform="translate(0 0)"/><path class="cls-4" d="M187.35,71.58l0-.63a2.51,2.51,0,0,0,1.7-2l.7,0,.1,1.51,2.54-.15.06,1-2.54.15.22,3.58c.06,1,.53,1.35,1.14,1.31a2.2,2.2,0,0,0,1.21-.43l.06.94a2.17,2.17,0,0,1-1.51.62c-1.26.08-2-.79-2.09-2.15l-.23-3.79Z" transform="translate(0 0)"/><path class="cls-4" d="M194.24,77.09l-.08-1.34,1.72-.11a6,6,0,0,1-.57,3.51l-1-.54a5.34,5.34,0,0,0,.67-1.56Z" transform="translate(0 0)"/><path class="cls-4" d="M40.13,98.62l0-.63a2.54,2.54,0,0,0,1.7-2l.7,0,.09,1.51,2.55-.16.06,1-2.55.15.22,3.58c.06,1,.53,1.35,1.15,1.31a2.15,2.15,0,0,0,1.2-.43l.06.94a2.15,2.15,0,0,1-1.51.62c-1.26.08-2-.79-2.09-2.16l-.23-3.78Z" transform="translate(0 0)"/><path class="cls-4" d="M52.5,100.73l-4.68.29a2,2,0,0,0,2.28,2,3.43,3.43,0,0,0,2.25-.88l.06,1.06a3.89,3.89,0,0,1-2.39.95c-1.77.11-3.37-1.06-3.52-3.51-.12-1.86.79-3.54,2.88-3.67C51.77,96.78,52.67,98.53,52.5,100.73Zm-1.18-1C51.2,98.67,50.68,98,49.48,98c-1,.06-1.62.69-1.71,1.93Z" transform="translate(0 0)"/><path class="cls-4" d="M57.09,97.56c-1.28.08-1.81.93-1.72,2.44.11,1.79,1.12,2.59,2.31,2.52a3.47,3.47,0,0,0,2-.76l.07,1.09a3.62,3.62,0,0,1-2.1.78c-2.17.13-3.47-1.47-3.6-3.55C54,97.74,55.22,96.57,57,96.46a4.33,4.33,0,0,1,2.5.59l.07,1.13A4.39,4.39,0,0,0,57.09,97.56Z" transform="translate(0 0)"/><path class="cls-4" d="M67.72,98.39l.27,4.46-1.2.07-.26-4.25a1.49,1.49,0,0,0-1.61-1.57A2.28,2.28,0,0,0,63,99.64l.22,3.5-1.2.07L61.38,93l1.2-.07.28,4.6a2.57,2.57,0,0,1,2.3-1.6C66.66,95.87,67.61,96.66,67.72,98.39Z" transform="translate(0 0)"/><path class="cls-4" d="M70.39,102.7,70,95.81l.9,0,.29,1.5a2.65,2.65,0,0,1,2.4-1.82c1.5-.09,2.45.71,2.55,2.43l.27,4.47-1.19.07-.26-4.16A1.55,1.55,0,0,0,73.3,96.6a2.28,2.28,0,0,0-1.93,2.52l.21,3.51Z" transform="translate(0 0)"/><path class="cls-4" d="M78.11,92.61l1.35-.08.07,1.2-1.35.08Zm1.44,2.62-1.2.07.42,6.89,1.2-.07Z" transform="translate(0 0)"/><path class="cls-4" d="M88.23,94.7,88.8,104l-1.2.07-.22-3.58A2.64,2.64,0,0,1,85.16,102c-2,.12-3.19-1.48-3.32-3.57-.15-2.58,1.14-3.53,2.5-3.61a2.85,2.85,0,0,1,2.76,1.38l.08-1.39Zm-1.06,3.49a2.37,2.37,0,0,0-2.45-2.39C83.4,95.88,83,97,83,98.29c.13,2.08,1.11,2.67,2.17,2.6C87.08,100.78,87.22,99,87.17,98.19Z" transform="translate(0 0)"/><path class="cls-4" d="M96.39,94.2l.42,6.89-.9,0-.28-1.5a2.62,2.62,0,0,1-2.25,1.8c-1.5.1-2.45-.7-2.56-2.42l-.27-4.47,1.2-.07L92,98.73c.06,1.07.44,1.64,1.46,1.58,1.43-.08,2-1.67,1.94-2.53l-.22-3.51Z" transform="translate(0 0)"/><path class="cls-4" d="M104.54,97.55l-4.68.28a2,2,0,0,0,2.28,2,3.42,3.42,0,0,0,2.25-.87l.06,1.06a3.81,3.81,0,0,1-2.39.94c-1.77.11-3.37-1-3.52-3.51-.11-1.85.79-3.53,2.89-3.66C103.81,93.59,104.71,95.34,104.54,97.55Zm-1.18-1c-.11-1.08-.64-1.78-1.84-1.71a1.8,1.8,0,0,0-1.71,1.92Z" transform="translate(0 0)"/><path class="cls-4" d="M115.52,95.87l.09,4.07-.89,0-.29-1.26a3,3,0,0,1-2.52,1.58,2,2,0,0,1-2.28-1.9c-.06-1,.6-1.74,1.87-2.07l2.83-.73c-.18-1-.89-1.48-2.06-1.41a3.78,3.78,0,0,0-2.48,1.15l-.08-1.29a4.57,4.57,0,0,1,2.59-1C114.33,93,115.47,94,115.52,95.87Zm-1.1.94,0-.21-2.26.6c-1,.26-1.27.56-1.24,1.11a1,1,0,0,0,1.21,1A2.53,2.53,0,0,0,114.42,96.81Z" transform="translate(0 0)"/><path class="cls-4" d="M123.35,92.55l.43,6.89-.9,0-.29-1.5a2.65,2.65,0,0,1-2.25,1.81c-1.5.09-2.45-.71-2.55-2.43l-.27-4.46,1.19-.08.26,4.26c.07,1.06.45,1.64,1.47,1.57,1.42-.08,2-1.67,1.93-2.53l-.21-3.51Z" transform="translate(0 0)"/><path class="cls-4" d="M135,98.75l-5.36.33-.59-9.59,1.28-.07.51,8.49,4.09-.25Z" transform="translate(0 0)"/><path class="cls-4" d="M142.14,94.24l.09,4.07-.89,0-.29-1.26a3,3,0,0,1-2.52,1.58,2,2,0,0,1-2.28-1.9c-.06-1,.6-1.74,1.87-2.07L141,94c-.18-1-.89-1.48-2.06-1.4a3.73,3.73,0,0,0-2.48,1.14l-.08-1.29a4.57,4.57,0,0,1,2.59-1A2.7,2.7,0,0,1,142.14,94.24Zm-1.1.94,0-.21-2.26.6c-1,.26-1.27.56-1.24,1.12a1,1,0,0,0,1.21,1A2.53,2.53,0,0,0,141,95.18Z" transform="translate(0 0)"/><path class="cls-4" d="M149.34,91,147.09,98l-.9.06-3.1-6.73,1.25-.08,1.78,4,.39,1.2h.06l.24-1.23L148.09,91Z" transform="translate(0 0)"/><path class="cls-4" d="M150.68,88.17l1.34-.08.08,1.2-1.35.08Zm1.43,2.62-1.19.07.42,6.89,1.2-.07Z" transform="translate(0 0)"/><path class="cls-4" d="M157.09,96.51c.87-.05,1.6-.49,1.55-1.16,0-.52-.32-.66-1.37-.91l-.9-.21c-1.21-.29-2-.77-2.05-1.86-.08-1.29,1.08-1.93,2.38-2a5.41,5.41,0,0,1,2.45.42l.07,1.14a5,5,0,0,0-2.5-.51c-.82,0-1.3.38-1.27.81s.31.74,1.5,1l.83.21c1,.24,1.91.63,2,1.83.09,1.44-1.22,2.18-2.54,2.26a4.33,4.33,0,0,1-2.51-.54l-.07-1.17A3.9,3.9,0,0,0,157.09,96.51Z" transform="translate(0 0)"/><path class="cls-4" d="M170.61,93.5l-4.68.29a2,2,0,0,0,2.28,1.95,3.42,3.42,0,0,0,2.25-.87l.06,1.06a3.81,3.81,0,0,1-2.39.94c-1.77.11-3.37-1.05-3.52-3.51-.11-1.85.79-3.53,2.89-3.66C169.88,89.55,170.78,91.3,170.61,93.5Zm-1.18-1c-.11-1.08-.64-1.78-1.83-1.71a1.8,1.8,0,0,0-1.72,1.92Z" transform="translate(0 0)"/><path class="cls-4" d="M171.55,90.58l0-.63a2.54,2.54,0,0,0,1.7-2l.7,0,.09,1.51,2.55-.15.06,1-2.55.15.22,3.58c.06,1,.53,1.35,1.15,1.31a2.15,2.15,0,0,0,1.2-.43l.06.94a2.13,2.13,0,0,1-1.51.62c-1.26.08-2-.79-2.08-2.15l-.24-3.79Z" transform="translate(0 0)"/><path class="cls-4" d="M42.26,122.46l-.42-6.89.9-.06L43,117a2.68,2.68,0,0,1,2.4-1.81c1.5-.09,2.45.71,2.56,2.43l.27,4.46-1.2.07L46.8,118c0-.73-.45-1.72-1.62-1.64a2.27,2.27,0,0,0-1.94,2.52l.22,3.5Z" transform="translate(0 0)"/><path class="cls-4" d="M55.84,114.71l.42,6.89-.9.05-.29-1.5A2.64,2.64,0,0,1,52.82,122c-1.49.09-2.44-.71-2.55-2.43L50,115.07l1.2-.07.26,4.25c.06,1.06.44,1.64,1.46,1.58,1.42-.09,2-1.67,1.93-2.54l-.21-3.5Z" transform="translate(0 0)"/><path class="cls-4" d="M68.58,116.61l.25,4.22-1.19.07-.26-4.11c0-.86-.33-1.79-1.44-1.75-1.35,0-1.81,1.55-1.75,2.59l.21,3.47-1.19.07-.26-4.1c-.06-1-.54-1.81-1.53-1.75-1.3.08-1.84,1.58-1.77,2.74l.2,3.32-1.2.07-.42-6.88.9-.06.35,1.84a2.39,2.39,0,0,1,2.08-2.14,2.1,2.1,0,0,1,2.34,1.92A2.5,2.5,0,0,1,66.2,114C67.73,113.88,68.46,114.65,68.58,116.61Z" transform="translate(0 0)"/><path class="cls-4" d="M76.57,117.29l-4.69.29a2,2,0,0,0,2.28,2,3.43,3.43,0,0,0,2.25-.88l.07,1.07a3.88,3.88,0,0,1-2.4.94c-1.76.11-3.37-1.06-3.52-3.51-.11-1.86.79-3.54,2.89-3.66C75.83,113.34,76.73,115.09,76.57,117.29Zm-1.19-1c-.11-1.07-.63-1.78-1.83-1.7-1,.06-1.63.68-1.72,1.92Zm-1.89-3.58-.52,0,.6-2,1.69-.1Z" transform="translate(0 0)"/><path class="cls-4" d="M82.19,113l.08,1.19c-2.49.14-2.5,1.67-2.45,2.55l.21,3.45-1.19.07-.43-6.89.9,0,.29,1.42A2.46,2.46,0,0,1,82.19,113Z" transform="translate(0 0)"/><path class="cls-4" d="M83.61,110.31l1.35-.08.07,1.19-1.35.09Zm1.44,2.62-1.2.07.42,6.89,1.2-.08Z" transform="translate(0 0)"/><path class="cls-4" d="M93.73,112.4l.57,9.28-1.2.07-.22-3.58a2.66,2.66,0,0,1-2.22,1.48c-2,.12-3.19-1.48-3.32-3.57-.15-2.58,1.14-3.53,2.5-3.61a2.84,2.84,0,0,1,2.76,1.38l.08-1.39Zm-1.06,3.49a2.37,2.37,0,0,0-2.45-2.39c-1.32.08-1.76,1.17-1.68,2.49.13,2.08,1.11,2.66,2.17,2.6C92.58,118.48,92.72,116.68,92.67,115.89Z" transform="translate(0 0)"/><path class="cls-4" d="M101.89,111.9l.42,6.88-.9.06-.28-1.5a2.64,2.64,0,0,1-2.25,1.8c-1.5.09-2.45-.7-2.56-2.43l-.27-4.46,1.2-.07.26,4.25c.06,1.07.44,1.64,1.46,1.58,1.43-.09,2-1.67,1.94-2.54l-.22-3.5Z" transform="translate(0 0)"/><path class="cls-4" d="M110,115.24l-4.68.29a2,2,0,0,0,2.28,2,3.42,3.42,0,0,0,2.25-.87l.06,1.06a3.81,3.81,0,0,1-2.39.94c-1.77.11-3.37-1-3.52-3.51-.11-1.86.79-3.53,2.89-3.66C109.31,111.29,110.21,113,110,115.24Zm-1.18-1c-.11-1.08-.64-1.78-1.84-1.71-1,.06-1.62.68-1.71,1.92Z" transform="translate(0 0)"/><path class="cls-4" d="M111.27,118.24l-.09-1.35,1.72-.11a6,6,0,0,1-.56,3.51l-1-.54a5.34,5.34,0,0,0,.67-1.56Z" transform="translate(0 0)"/><path class="cls-4" d="M118.7,110.87l1.2-.07.43,7c.09,1.72-.53,2.47-1.8,2.55a1.46,1.46,0,0,1-1.15-.41l0-.72a1.79,1.79,0,0,0,.92.15c.69,0,.93-.58.87-1.45Zm-.24-2.69,1.35-.09.07,1.2-1.34.09Z" transform="translate(0 0)"/><path class="cls-4" d="M122.07,109.47l-.08-1.34,1.72-.11a6,6,0,0,1-.56,3.51l-1-.54a5.34,5.34,0,0,0,.67-1.56Z" transform="translate(0 0)"/><path class="cls-4" d="M132,112.89l.1,4.07-.9.05-.29-1.26a3.05,3.05,0,0,1-2.51,1.59,2,2,0,0,1-2.28-1.91c-.06-1,.6-1.73,1.87-2.07l2.82-.72c-.18-1-.88-1.48-2.05-1.41a3.85,3.85,0,0,0-2.49,1.14l-.07-1.28a4.54,4.54,0,0,1,2.58-1C130.84,110,132,111.06,132,112.89Zm-1.1.94v-.21l-2.26.61c-1,.25-1.28.56-1.24,1.11a1,1,0,0,0,1.2,1A2.53,2.53,0,0,0,130.92,113.83Z" transform="translate(0 0)"/><path class="cls-4" d="M134,107.23l1.35-.09.08,1.2-1.35.08Zm1.44,2.61-1.2.08.43,6.88,1.19-.07Z" transform="translate(0 0)"/><path class="cls-4" d="M145.21,109.11l.07,1.18c-2.48.14-2.5,1.67-2.44,2.56l.21,3.44-1.2.08-.42-6.89.9-.06.28,1.43A2.47,2.47,0,0,1,145.21,109.11Z" transform="translate(0 0)"/><path class="cls-4" d="M152.62,112.64l-4.68.29a2,2,0,0,0,2.28,1.95,3.43,3.43,0,0,0,2.25-.88l.06,1.07a3.93,3.93,0,0,1-2.39.94c-1.77.11-3.37-1.06-3.52-3.51-.11-1.86.79-3.54,2.89-3.67C151.89,108.69,152.79,110.44,152.62,112.64Zm-1.18-1c-.11-1.07-.64-1.78-1.84-1.71-1,.06-1.62.69-1.71,1.93Zm-1.89-3.58-.52,0,.59-2,1.7-.1Z" transform="translate(0 0)"/><path class="cls-4" d="M160.15,111.17l.1,4.07-.9.05-.28-1.26a3.07,3.07,0,0,1-2.52,1.59,2,2,0,0,1-2.28-1.91c-.06-1,.6-1.73,1.87-2.07l2.82-.72c-.18-1-.88-1.48-2.05-1.41a3.8,3.8,0,0,0-2.48,1.14l-.08-1.29a4.61,4.61,0,0,1,2.58-1C159,108.25,160.1,109.34,160.15,111.17Zm-1.1.94v-.21l-2.26.61c-1,.25-1.28.56-1.24,1.11a1,1,0,0,0,1.2,1A2.53,2.53,0,0,0,159.05,112.11Z" transform="translate(0 0)"/><path class="cls-4" d="M162.17,104.9l1.2-.07L164,115l-1.2.07Z" transform="translate(0 0)"/><path class="cls-4" d="M165.89,105.28l1.35-.09.07,1.2-1.34.08Zm1.44,2.61-1.2.08.42,6.88,1.2-.07Z" transform="translate(0 0)"/><path class="cls-4" d="M172.31,113.62c.87-.06,1.59-.49,1.55-1.17,0-.52-.32-.65-1.38-.9l-.9-.22c-1.2-.29-2-.76-2.05-1.86-.08-1.29,1.09-1.93,2.39-2a5.62,5.62,0,0,1,2.44.42l.07,1.14a5.07,5.07,0,0,0-2.49-.51c-.83,0-1.3.38-1.27.82s.31.73,1.5,1l.82.2c1,.24,1.92.64,2,1.83.09,1.44-1.21,2.18-2.53,2.26a4.34,4.34,0,0,1-2.51-.53l-.08-1.17A4,4,0,0,0,172.31,113.62Z" transform="translate(0 0)"/><path class="cls-4" d="M182.39,110.82l-4.69.29a2,2,0,0,0,2.28,2,3.43,3.43,0,0,0,2.25-.88l.06,1.07a3.93,3.93,0,0,1-2.39.94c-1.76.11-3.37-1.06-3.52-3.51-.11-1.86.79-3.54,2.89-3.67C181.65,106.87,182.55,108.62,182.39,110.82Zm-1.19-1c-.11-1.07-.63-1.78-1.83-1.71a1.81,1.81,0,0,0-1.72,1.93Zm-1.89-3.58-.52,0,.6-2,1.69-.1Z" transform="translate(0 0)"/><path class="cls-4" d="M194.47,109.52c.12,2.1-.82,3.83-2.86,4a2.69,2.69,0,0,1-2.39-1.19l.22,3.58-1.19.07-.57-9.28,1-.06L189,108a2.84,2.84,0,0,1,2.57-1.7C192.91,106.16,194.31,107,194.47,109.52Zm-1.2.06c-.08-1.31-.66-2.35-2-2.27a2.37,2.37,0,0,0-2.13,2.67c.05.8.4,2.56,2.27,2.45C192.49,112.37,193.4,111.67,193.27,109.58Z" transform="translate(0 0)"/><path class="cls-4" d="M196.16,102.82l1.2-.07.64,10.18-1.2.07Z" transform="translate(0 0)"/><path class="cls-4" d="M205.73,105.55l.42,6.88-.89.06L205,111a2.64,2.64,0,0,1-2.25,1.8c-1.5.09-2.45-.7-2.55-2.43l-.28-4.46,1.2-.07.26,4.25c.07,1.06.45,1.64,1.47,1.58,1.42-.09,2-1.67,1.93-2.54l-.21-3.5Z" transform="translate(0 0)"/><path class="cls-4" d="M210.56,111.28c.87-.06,1.6-.49,1.55-1.17,0-.52-.32-.65-1.37-.9l-.9-.22c-1.21-.29-2-.76-2.05-1.86-.08-1.29,1.08-1.93,2.38-2a5.54,5.54,0,0,1,2.45.43l.07,1.13a5.22,5.22,0,0,0-2.5-.51c-.82,0-1.3.38-1.27.82s.31.73,1.5,1l.83.2c1,.24,1.91.64,2,1.84.09,1.43-1.22,2.17-2.54,2.25a4.34,4.34,0,0,1-2.51-.53l-.07-1.17A4,4,0,0,0,210.56,111.28Z" transform="translate(0 0)"/><path class="cls-4" d="M214.64,102.3l1.35-.09.07,1.2-1.35.08Zm1.44,2.61-1.2.08.42,6.88,1.2-.07Z" transform="translate(0 0)"/><path class="cls-4" d="M224.38,108.25l-4.68.29a2,2,0,0,0,2.28,1.95,3.43,3.43,0,0,0,2.25-.88l.06,1.07a3.81,3.81,0,0,1-2.39.94c-1.77.11-3.37-1.06-3.52-3.51-.11-1.86.79-3.54,2.89-3.67C223.64,104.3,224.55,106.05,224.38,108.25Zm-1.18-1c-.12-1.07-.64-1.78-1.84-1.7-1,.06-1.62.68-1.71,1.92Z" transform="translate(0 0)"/><path class="cls-4" d="M231.84,104l.43,6.89-.9,0-.29-1.5a2.64,2.64,0,0,1-2.25,1.81c-1.5.09-2.45-.71-2.55-2.43l-.27-4.46,1.19-.08.26,4.25c.07,1.07.45,1.64,1.47,1.58,1.42-.09,2-1.67,1.93-2.54l-.21-3.5Z" transform="translate(0 0)"/><path class="cls-4" d="M238,103.43l.07,1.19c-2.48.13-2.5,1.67-2.44,2.55l.21,3.45-1.2.07-.42-6.89.9,0,.28,1.42A2.48,2.48,0,0,1,238,103.43Z" transform="translate(0 0)"/><path class="cls-4" d="M242.11,109.35c.87-.06,1.59-.49,1.55-1.17,0-.52-.33-.65-1.38-.9l-.9-.22c-1.2-.29-2-.76-2-1.86-.08-1.28,1.08-1.93,2.39-2a5.47,5.47,0,0,1,2.44.43l.07,1.13a5.18,5.18,0,0,0-2.49-.51c-.83.05-1.3.38-1.28.82s.32.73,1.51,1l.82.2c1,.24,1.92.64,2,1.84.09,1.43-1.22,2.17-2.53,2.26a4.39,4.39,0,0,1-2.52-.54l-.07-1.17A4,4,0,0,0,242.11,109.35Z" transform="translate(0 0)"/><path class="cls-4" d="M48.7,137l-4.69.29a2,2,0,0,0,2.28,2,3.43,3.43,0,0,0,2.25-.88l.06,1.06a3.87,3.87,0,0,1-2.39,1c-1.76.11-3.37-1.06-3.52-3.52-.11-1.85.79-3.53,2.89-3.66C48,133.08,48.86,134.82,48.7,137Zm-1.19-1c-.11-1.08-.64-1.78-1.83-1.71-1,.06-1.63.69-1.72,1.93Z" transform="translate(0 0)"/><path class="cls-4" d="M50.8,133.05l1.94,2.53,1.61-2.74,1.37-.09-2.24,3.6,2.66,3.29-1.37.08-1.93-2.52-1.62,2.74-1.38.08,2.26-3.59-2.68-3.29Z" transform="translate(0 0)"/><path class="cls-4" d="M63.93,135.54c.13,2.1-.82,3.82-2.85,4a2.68,2.68,0,0,1-2.39-1.19l.22,3.58-1.2.07-.56-9.28,1-.07.25,1.37A2.86,2.86,0,0,1,61,132.26C62.38,132.18,63.78,133,63.93,135.54Zm-1.2.06c-.08-1.32-.65-2.35-2-2.27A2.37,2.37,0,0,0,58.63,136c0,.8.39,2.56,2.27,2.45C62,138.38,62.86,137.68,62.73,135.6Z" transform="translate(0 0)"/><path class="cls-4" d="M71.59,135.63l-4.69.29a2,2,0,0,0,2.29,2,3.42,3.42,0,0,0,2.24-.88l.07,1.06a3.93,3.93,0,0,1-2.4.95c-1.76.11-3.37-1.06-3.52-3.51-.11-1.86.79-3.54,2.89-3.67C70.85,131.68,71.75,133.42,71.59,135.63Zm-1.19-1c-.11-1.07-.63-1.78-1.83-1.71a1.81,1.81,0,0,0-1.72,1.93Zm-1.89-3.58-.52,0,.6-2,1.69-.1Z" transform="translate(0 0)"/><path class="cls-4" d="M77.21,131.3l.08,1.19c-2.49.13-2.5,1.67-2.45,2.55l.21,3.44-1.19.08-.43-6.89.9-.06.29,1.43A2.46,2.46,0,0,1,77.21,131.3Z" transform="translate(0 0)"/><path class="cls-4" d="M78.63,128.65l1.35-.09.07,1.2-1.35.08Zm1.44,2.61-1.2.08.42,6.88,1.2-.07Z" transform="translate(0 0)"/><path class="cls-4" d="M93,133.15l.25,4.22-1.19.08-.26-4.12c-.05-.85-.33-1.78-1.44-1.75-1.35,0-1.81,1.56-1.75,2.59l.21,3.47-1.19.08-.26-4.11c-.06-1-.54-1.81-1.53-1.75-1.3.08-1.84,1.59-1.77,2.74l.2,3.32L83,138l-.42-6.88.9-.06.35,1.84a2.39,2.39,0,0,1,2.08-2.14,2.11,2.11,0,0,1,2.34,1.92,2.5,2.5,0,0,1,2.3-2.17C92.11,130.42,92.84,131.19,93,133.15Z" transform="translate(0 0)"/><path class="cls-4" d="M101,133.83l-4.69.29a2,2,0,0,0,2.28,1.95,3.42,3.42,0,0,0,2.25-.87l.06,1.06a3.81,3.81,0,0,1-2.39.94c-1.76.11-3.37-1.06-3.52-3.51-.11-1.86.79-3.53,2.89-3.66C100.21,129.88,101.11,131.63,101,133.83Zm-1.19-1c-.11-1.07-.63-1.77-1.83-1.7-1,.06-1.63.68-1.72,1.92Z" transform="translate(0 0)"/><path class="cls-4" d="M103.22,136.76l-.43-6.89.9-.05.29,1.5a2.65,2.65,0,0,1,2.4-1.82c1.5-.09,2.45.71,2.55,2.43l.27,4.46-1.19.08-.26-4.17a1.55,1.55,0,0,0-1.62-1.64,2.27,2.27,0,0,0-1.93,2.52l.21,3.51Z" transform="translate(0 0)"/><path class="cls-4" d="M110.56,130.38l0-.63a2.52,2.52,0,0,0,1.69-2l.71,0,.09,1.51,2.54-.16.06,1-2.54.15.22,3.58c.06,1,.53,1.35,1.15,1.31a2.17,2.17,0,0,0,1.2-.43l.06.94a2.15,2.15,0,0,1-1.51.62c-1.26.08-2-.79-2.09-2.16l-.23-3.78Z" transform="translate(0 0)"/><path class="cls-4" d="M123,131.48l.09,4.06-.9.06-.28-1.26a3.06,3.06,0,0,1-2.52,1.58,2,2,0,0,1-2.28-1.9c-.06-1,.6-1.74,1.87-2.07l2.83-.73c-.19-1-.89-1.48-2.06-1.41a3.76,3.76,0,0,0-2.48,1.15l-.08-1.29a4.64,4.64,0,0,1,2.58-1C121.83,128.56,123,129.65,123,131.48Zm-1.1.94,0-.21-2.26.6c-1,.26-1.27.56-1.24,1.11a1,1,0,0,0,1.2,1A2.53,2.53,0,0,0,121.92,132.42Z" transform="translate(0 0)"/><path class="cls-4" d="M124.32,129.53l0-.62a2.52,2.52,0,0,0,1.69-2l.71,0,.09,1.52,2.54-.16.06,1-2.54.16.22,3.58c.06,1,.53,1.35,1.14,1.31a2.2,2.2,0,0,0,1.21-.43l.06.94a2.19,2.19,0,0,1-1.51.62c-1.26.07-2-.8-2.09-2.16l-.23-3.79Z" transform="translate(0 0)"/><path class="cls-4" d="M130.85,125.45l1.35-.08.07,1.2-1.34.08Zm1.44,2.62-1.2.07.42,6.89,1.2-.07Z" transform="translate(0 0)"/><path class="cls-4" d="M137.63,127.59c2.09-.13,3.32,1,3.45,3.23s-1.23,3.85-3,4-3.35-1.48-3.47-3.56C134.44,128.88,135.65,127.71,137.63,127.59Zm.37,6.07c1.36-.09,1.9-1.32,1.81-2.76s-.68-2.27-2.12-2.18-1.92.91-1.83,2.42S136.77,133.73,138,133.66Z" transform="translate(0 0)"/><path class="cls-4" d="M143.4,134.3l-.42-6.88.9-.06.28,1.5a2.67,2.67,0,0,1,2.4-1.81c1.5-.09,2.45.7,2.56,2.43l.27,4.46-1.2.07-.25-4.16c-.05-.74-.45-1.72-1.62-1.65a2.28,2.28,0,0,0-1.94,2.53l.22,3.5Z" transform="translate(0 0)"/><path class="cls-4" d="M153.79,132.78c.87-.05,1.6-.49,1.56-1.16s-.33-.66-1.38-.91l-.9-.21c-1.2-.29-2-.77-2-1.86-.08-1.29,1.08-1.93,2.38-2a5.38,5.38,0,0,1,2.45.42l.07,1.14a5,5,0,0,0-2.5-.51c-.82,0-1.3.38-1.27.81s.32.74,1.51,1l.82.21c1,.24,1.92.63,2,1.83.09,1.44-1.22,2.18-2.54,2.26a4.37,4.37,0,0,1-2.51-.54l-.07-1.17A3.9,3.9,0,0,0,153.79,132.78Z" transform="translate(0 0)"/><path class="cls-4" d="M164,132.16c.87-.06,1.59-.49,1.55-1.17,0-.52-.32-.65-1.37-.9l-.9-.22c-1.21-.29-2-.76-2.06-1.86-.08-1.28,1.09-1.93,2.39-2a5.47,5.47,0,0,1,2.44.43l.07,1.13a5.16,5.16,0,0,0-2.49-.51c-.82.06-1.3.38-1.27.82s.31.73,1.5,1l.82.2c1,.25,1.92.64,2,1.84.08,1.43-1.22,2.17-2.54,2.26a4.33,4.33,0,0,1-2.51-.54l-.07-1.17A3.92,3.92,0,0,0,164,132.16Z" transform="translate(0 0)"/><path class="cls-4" d="M173.92,125.52l.42,6.89-.89.05-.29-1.5a2.64,2.64,0,0,1-2.25,1.81c-1.49.09-2.45-.71-2.55-2.43l-.27-4.46,1.19-.07.26,4.25c.07,1.06.45,1.64,1.47,1.58,1.42-.09,2-1.67,1.93-2.54l-.21-3.5Z" transform="translate(0 0)"/><path class="cls-4" d="M180.1,125l.07,1.18c-2.48.14-2.5,1.67-2.44,2.56l.21,3.44-1.2.07-.42-6.88.9-.06.28,1.43A2.47,2.47,0,0,1,180.1,125Z" transform="translate(0 0)"/><path class="cls-4" d="M185,121.54l1.19-.07.64,10.18-1.2.07Z" transform="translate(0 0)"/><path class="cls-4" d="M194.71,128.1l-4.68.29a2,2,0,0,0,2.28,2,3.48,3.48,0,0,0,2.25-.88l.06,1.06a3.87,3.87,0,0,1-2.39.95c-1.77.11-3.37-1.06-3.52-3.52-.11-1.85.79-3.53,2.89-3.66C194,124.15,194.88,125.89,194.71,128.1Zm-1.18-1c-.11-1.08-.64-1.78-1.83-1.71-1,.06-1.63.69-1.72,1.93Z" transform="translate(0 0)"/><path class="cls-4" d="M50.82,154.38c.13,2.09-.81,3.82-2.85,3.94a2.64,2.64,0,0,1-2.39-1.19l.22,3.58-1.2.07L44,151.5l1-.06.25,1.36a2.86,2.86,0,0,1,2.57-1.7C49.27,151,50.67,151.8,50.82,154.38Zm-1.19.06c-.09-1.32-.66-2.35-2-2.27a2.36,2.36,0,0,0-2.13,2.67c0,.79.39,2.56,2.27,2.44C48.85,157.22,49.75,156.52,49.63,154.44Z" transform="translate(0 0)"/><path class="cls-4" d="M56.5,150.6l.07,1.19c-2.48.13-2.5,1.67-2.44,2.55l.21,3.44-1.2.08L52.72,151l.9-.05.28,1.42A2.48,2.48,0,0,1,56.5,150.6Z" transform="translate(0 0)"/><path class="cls-4" d="M57.91,148l1.35-.08.08,1.19-1.35.09Zm1.44,2.61-1.2.08.43,6.88,1.19-.07Z" transform="translate(0 0)"/><path class="cls-4" d="M62.32,157.3l-.42-6.89.9-.06.28,1.5a2.67,2.67,0,0,1,2.4-1.81c1.5-.09,2.45.71,2.55,2.43l.28,4.46-1.2.07-.26-4.16a1.54,1.54,0,0,0-1.61-1.64,2.27,2.27,0,0,0-1.94,2.52l.22,3.5Z" transform="translate(0 0)"/><path class="cls-4" d="M73,150.69c-1.27.08-1.81.92-1.71,2.43.11,1.8,1.12,2.6,2.3,2.52a3.57,3.57,0,0,0,2.06-.75l.06,1.09a3.61,3.61,0,0,1-2.1.77c-2.17.14-3.47-1.47-3.6-3.55-.14-2.33,1.13-3.51,2.92-3.62a4.41,4.41,0,0,1,2.5.6l.07,1.12A4.4,4.4,0,0,0,73,150.69Z" transform="translate(0 0)"/><path class="cls-4" d="M77.2,146.77l1.35-.08.07,1.19-1.35.09Zm1.44,2.62-1.2.07.42,6.89,1.2-.08Z" transform="translate(0 0)"/><path class="cls-4" d="M88,152.11c.13,2.09-.82,3.82-2.86,3.94a2.64,2.64,0,0,1-2.38-1.19l.22,3.58-1.2.07-.57-9.28,1-.06.25,1.36a2.85,2.85,0,0,1,2.57-1.7C86.41,148.74,87.81,149.53,88,152.11Zm-1.2,0c-.08-1.31-.65-2.35-2-2.27a2.37,2.37,0,0,0-2.14,2.68c0,.79.4,2.56,2.27,2.44C86,155,86.9,154.25,86.77,152.16Z" transform="translate(0 0)"/><path class="cls-4" d="M95.62,152.19l-4.68.29a2,2,0,0,0,2.28,2,3.38,3.38,0,0,0,2.25-.88l.06,1.07a3.84,3.84,0,0,1-2.39.94c-1.77.11-3.37-1.06-3.52-3.51-.11-1.86.79-3.54,2.89-3.66C94.89,148.24,95.79,150,95.62,152.19Zm-1.18-1c-.11-1.07-.64-1.78-1.84-1.7-1,.06-1.62.68-1.71,1.92Z" transform="translate(0 0)"/><path class="cls-4" d="M106.78,144.36l.62,10.18-.93.06-.27-1.19A2.63,2.63,0,0,1,104,154.9c-2,.12-3.19-1.48-3.31-3.57-.16-2.58,1.13-3.53,2.49-3.61a2.89,2.89,0,0,1,2.7,1.26l-.28-4.55Zm-.79,6.78a2.31,2.31,0,0,0-2.44-2.32c-1.32.08-1.69,1.1-1.61,2.42.12,2.08,1,2.59,2.09,2.53A2.19,2.19,0,0,0,106,151.14Z" transform="translate(0 0)"/><path class="cls-4" d="M115.14,147.15l.42,6.89-.9.05-.29-1.5a2.64,2.64,0,0,1-2.25,1.81c-1.49.09-2.44-.71-2.55-2.43l-.27-4.46,1.2-.07.26,4.25c.06,1.06.44,1.64,1.46,1.58,1.42-.09,2-1.67,1.93-2.54l-.21-3.5Z" transform="translate(0 0)"/><path class="cls-4" d="M127.11,147l-1.71.38a2,2,0,0,1,1.1,1.76,2.68,2.68,0,0,1-2.27,2.62,5.08,5.08,0,0,1-.61.89,5.57,5.57,0,0,1,1-.18c1.37-.08,2.65.38,2.72,1.47.08,1.32-1.43,2-3.3,2.13a6,6,0,0,1-3.24-.58l-.06-1A6.11,6.11,0,0,0,124,155c1.33-.08,2.35-.35,2.31-1s-.9-.73-1.91-.67a6.61,6.61,0,0,0-2.27.64l-.4-.67a5.28,5.28,0,0,0,1.41-1.5,2.73,2.73,0,0,1-2.53-2.49c-.12-1.94,1.61-2.62,3.17-2.72l3.28-.2Zm-1.86,2c-.06-.89-.46-1.37-1.75-1.29s-1.66.6-1.61,1.5a1.54,1.54,0,0,0,1.8,1.56A1.51,1.51,0,0,0,125.25,149.07Z" transform="translate(0 0)"/><path class="cls-4" d="M128.66,143l1.2-.07.64,10.18-1.2.07Z" transform="translate(0 0)"/><path class="cls-4" d="M132.38,143.39l1.35-.08.08,1.2-1.35.08Zm1.44,2.62-1.2.07.43,6.89,1.19-.07Z" transform="translate(0 0)"/><path class="cls-4" d="M135.75,146.87l0-.63a2.51,2.51,0,0,0,1.7-2l.71,0,.09,1.51,2.54-.15.06,1-2.54.15.22,3.58c.06,1,.53,1.35,1.14,1.32a2.31,2.31,0,0,0,1.21-.44l.06.94a2.17,2.17,0,0,1-1.51.62c-1.26.08-2-.79-2.09-2.15l-.23-3.79Z" transform="translate(0 0)"/><path class="cls-4" d="M145.11,146.28c-1.27.08-1.81.92-1.72,2.43.11,1.8,1.12,2.6,2.31,2.52a3.45,3.45,0,0,0,2.05-.75l.07,1.09a3.69,3.69,0,0,1-2.1.78c-2.17.13-3.47-1.48-3.6-3.56-.14-2.33,1.13-3.51,2.92-3.62a4.41,4.41,0,0,1,2.5.6l.07,1.12A4.4,4.4,0,0,0,145.11,146.28Z" transform="translate(0 0)"/><path class="cls-4" d="M155.74,147.1l.27,4.47-1.2.07-.26-4.25a1.48,1.48,0,0,0-1.61-1.57,2.27,2.27,0,0,0-1.93,2.54l.21,3.5-1.2.07-.62-10.18,1.2-.07.28,4.59a2.59,2.59,0,0,1,2.31-1.6C154.68,144.58,155.63,145.38,155.74,147.1Z" transform="translate(0 0)"/><path class="cls-4" d="M167.19,147.82l-4.69.28a2,2,0,0,0,2.29,2,3.41,3.41,0,0,0,2.24-.87l.07,1.06a3.87,3.87,0,0,1-2.39.94c-1.77.11-3.38-1.05-3.53-3.51-.11-1.85.79-3.53,2.89-3.66C166.45,143.86,167.35,145.61,167.19,147.82Zm-1.19-1c-.11-1.08-.63-1.78-1.83-1.71a1.8,1.8,0,0,0-1.72,1.92Z" transform="translate(0 0)"/><path class="cls-4" d="M168.14,144.89l0-.63a2.53,2.53,0,0,0,1.7-2l.7,0,.09,1.51,2.55-.15.06,1-2.55.15.22,3.58c.06,1,.53,1.35,1.15,1.32a2.25,2.25,0,0,0,1.2-.44l.06.94a2.13,2.13,0,0,1-1.51.62c-1.26.08-2-.79-2.08-2.16l-.24-3.78Z" transform="translate(0 0)"/><path class="cls-4" d="M178.15,140l1.19-.07L180,150.1l-1.2.07Z" transform="translate(0 0)"/><path class="cls-4" d="M187.79,145.55l.09,4.07-.89,0-.29-1.26a3,3,0,0,1-2.52,1.58,2,2,0,0,1-2.28-1.9c-.06-1,.6-1.74,1.87-2.07l2.83-.73c-.18-1-.89-1.48-2.06-1.41a3.78,3.78,0,0,0-2.48,1.15l-.08-1.29a4.6,4.6,0,0,1,2.59-1C186.6,142.63,187.74,143.72,187.79,145.55Zm-1.1.94,0-.21-2.26.6c-1,.26-1.27.56-1.24,1.12a1,1,0,0,0,1.21,1A2.53,2.53,0,0,0,186.69,146.49Z" transform="translate(0 0)"/><path class="cls-4" d="M192.84,143.38l0-.63a2.53,2.53,0,0,0,1.7-2l.7,0,.09,1.51,2.55-.16.06,1-2.55.15.22,3.58c.07,1,.54,1.35,1.15,1.31a2.2,2.2,0,0,0,1.21-.43l0,.94a2.13,2.13,0,0,1-1.51.62c-1.25.08-2-.79-2.08-2.16l-.23-3.78Z" transform="translate(0 0)"/><path class="cls-4" d="M205.23,145.49l-4.68.29a2,2,0,0,0,2.28,1.95,3.4,3.4,0,0,0,2.24-.88l.07,1.07a3.9,3.9,0,0,1-2.39.94c-1.77.11-3.37-1.06-3.52-3.51-.12-1.86.79-3.54,2.88-3.67C204.49,141.54,205.4,143.29,205.23,145.49Zm-1.19-1c-.11-1.07-.63-1.78-1.83-1.71-1,.06-1.62.69-1.71,1.93Z" transform="translate(0 0)"/><path class="cls-4" d="M207.33,141.51l1.95,2.53,1.6-2.74,1.38-.09-2.25,3.6,2.67,3.29-1.38.08-1.93-2.52-1.62,2.74-1.37.09,2.26-3.6L206,141.6Z" transform="translate(0 0)"/><path class="cls-4" d="M213.07,142.14l0-.63a2.51,2.51,0,0,0,1.7-2l.7,0,.09,1.51,2.55-.15.06,1-2.55.16.22,3.57c.06,1,.53,1.35,1.15,1.32a2.25,2.25,0,0,0,1.2-.44l.06.95a2.19,2.19,0,0,1-1.51.61c-1.26.08-2-.79-2.08-2.15l-.24-3.79Z" transform="translate(0 0)"/><path class="cls-4" d="M225.45,140.41l.42,6.88-.9.06-.29-1.5a2.6,2.6,0,0,1-2.24,1.8c-1.5.1-2.45-.7-2.56-2.42l-.27-4.47,1.2-.07.26,4.25c.06,1.06.44,1.64,1.46,1.58,1.42-.09,2-1.67,1.93-2.54l-.21-3.5Z" transform="translate(0 0)"/><path class="cls-4" d="M231.62,139.89l.08,1.19c-2.49.13-2.5,1.67-2.45,2.55l.21,3.44-1.19.08-.43-6.89.9,0,.29,1.42A2.46,2.46,0,0,1,231.62,139.89Z" transform="translate(0 0)"/><path class="cls-4" d="M239,143.42l-4.69.29a2,2,0,0,0,2.28,1.95,3.38,3.38,0,0,0,2.25-.88l.07,1.07a3.88,3.88,0,0,1-2.4.94c-1.76.11-3.37-1.06-3.52-3.51-.11-1.86.79-3.54,2.89-3.66C238.3,139.47,239.2,141.22,239,143.42Zm-1.19-1c-.11-1.07-.63-1.78-1.83-1.7a1.8,1.8,0,0,0-1.72,1.92Z" transform="translate(0 0)"/><path class="cls-4" d="M240.33,145.06l1.57-.1.08,1.35-1.57.09Z" transform="translate(0 0)"/></svg>