<svg xmlns="http://www.w3.org/2000/svg" width="234.84595" height="124.62982" viewBox="0 0 234.84595 124.62982"><defs><style>.cls-1{fill:#f8b0be;}.cls-2{fill:#f72616;}</style></defs><g id="Calque_2" data-name="Calque 2"><g id="Calque_1-2" data-name="Calque 1"><path class="cls-1" d="M126.11426,84.51947a26.0978,26.0978,0,0,0-2.73-.10547h-2.83521v2.39453h2.83521a23.28339,23.28339,0,0,0,2.69848-.11523,2.99411,2.99411,0,0,0,1.27051-.36817.93126.93126,0,0,0,.021-1.44921A2.77573,2.77573,0,0,0,126.11426,84.51947Z"/><path class="cls-1" d="M65.31934,58.35345q-.73536,1.91016-2.16285,5.77442h4.30494q-.79834-2.20459-1.63794-4.41016Z"/><path class="cls-1" d="M66.968,36.29291a2.99421,2.99421,0,0,0,1.27051-.36817.93128.93128,0,0,0,.021-1.44922,2.77588,2.77588,0,0,0-1.26-.35644,26.09767,26.09767,0,0,0-2.73-.10547h-2.8352v2.39453h2.8352A23.28347,23.28347,0,0,0,66.968,36.29291Z"/><path class="cls-1" d="M160.83813,36.29291a2.99411,2.99411,0,0,0,1.27051-.36817.93127.93127,0,0,0,.021-1.44922,2.77588,2.77588,0,0,0-1.26-.35644,26.09767,26.09767,0,0,0-2.73-.10547h-2.83521v2.39453h2.83521A23.28327,23.28327,0,0,0,160.83813,36.29291Z"/><path class="cls-2" d="M91.33838,45.207q0-1.38574.03149-2.2998a13.23652,13.23652,0,0,1,.17847-1.77442q-3.59106.189-11.571.23145V39.17963q1.00818-.02052,2.98218-.02051,3.33875,0,6.90894.126V35.67279q-3.57019.126-6.90894.126-1.97424,0-2.98218-.02051v-2.0166H91.33838V29.96088H75.02148q.16773,4.07519.168,7.623,0,3.54932-.168,7.623Z"/><path class="cls-2" d="M98.5625,45.207h5.25V34.24506q3.10767.0205,6.40479.126V29.96088H92.17847V34.371q3.25488-.10547,6.384-.126Z"/><path class="cls-2" d="M119.98267,45.41693q4.8717,0,7.11889-2.0791a7.6116,7.6116,0,0,0,2.24707-5.87988,7.58118,7.58118,0,0,0-2.25757-5.83789q-2.25768-2.09913-7.10839-2.09961-4.83033,0-7.08765,2.09961a7.58018,7.58018,0,0,0-2.25732,5.83789,7.57984,7.57984,0,0,0,2.26782,5.86914Q115.17382,45.41742,119.98267,45.41693Zm-3.33912-10.71a6.66152,6.66152,0,0,1,6.699,0,3.47118,3.47118,0,0,1,1.029,2.751,3.49138,3.49138,0,0,1-1.029,2.78222,5.09031,5.09031,0,0,1-3.35986.89258,5.01521,5.01521,0,0,1-3.33912-.90234,3.49849,3.49849,0,0,1-1.029-2.77246A3.47037,3.47037,0,0,1,116.64355,34.707Z"/><path class="cls-2" d="M146.55762,43.40131a6.96769,6.96769,0,0,0,2.11059-5.10352V29.94037h-5.208v7.97949a6.84664,6.84664,0,0,1-.15748,1.61719,2.00052,2.00052,0,0,1-.99755,1.14453,5.2319,5.2319,0,0,1-2.646.51465,4.4087,4.4087,0,0,1-2.40454-.50391,1.916,1.916,0,0,1-.88184-1.082,6.70593,6.70593,0,0,1-.13647-1.501V29.94037h-5.208v8.50488a6.88039,6.88039,0,0,0,1.78491,5.04981q1.827,1.92188,6.783,1.92187Q144.48913,45.41693,146.55762,43.40131Z"/><path class="cls-2" d="M83.79932,70.61713q4.89294,0,6.96142-2.01563a6.96764,6.96764,0,0,0,2.1106-5.10351V55.14056h-5.208v7.9795a6.84661,6.84661,0,0,1-.15747,1.61718,2.00047,2.00047,0,0,1-.99756,1.14453,5.23179,5.23179,0,0,1-2.646.51465,4.40885,4.40885,0,0,1-2.40454-.5039,1.916,1.916,0,0,1-.88183-1.082,6.70585,6.70585,0,0,1-.13648-1.501v-8.169h-5.208v8.50489a6.88032,6.88032,0,0,0,1.78491,5.0498Q78.84339,70.61713,83.79932,70.61713Z"/><path class="cls-1" d="M85.22729,84.204a5.01491,5.01491,0,0,0-3.33911.90332,4.22038,4.22038,0,0,0,0,5.52344,5.01518,5.01518,0,0,0,3.33911.90234,5.09032,5.09032,0,0,0,3.35987-.89258,4.23344,4.23344,0,0,0,0-5.5332A5.05388,5.05388,0,0,0,85.22729,84.204Z"/><path class="cls-1" d="M119.98267,41.13275a5.09031,5.09031,0,0,0,3.35986-.89258,3.49138,3.49138,0,0,0,1.029-2.78222,3.47118,3.47118,0,0,0-1.029-2.751,6.66152,6.66152,0,0,0-6.699,0,3.47037,3.47037,0,0,0-1.029,2.751,3.49849,3.49849,0,0,0,1.029,2.77246A5.01521,5.01521,0,0,0,119.98267,41.13275Z"/><path class="cls-2" d="M204.64917,43.506c-2.33618,0-3.65332-2.64349-3.65332-7.332,0,4.68854-1.31714,7.332-3.65356,7.332,2.33642,0,3.65356,2.64356,3.65356,7.33209C200.99585,46.14954,202.313,43.506,204.64917,43.506Z"/><path class="cls-2" d="M206.17114,39.51447c0-2.347.65943-3.67029,1.82886-3.67029-1.16943,0-1.82886-1.32324-1.82886-3.67023,0,2.347-.65942,3.67023-1.82885,3.67023C205.51172,35.84418,206.17114,37.16748,206.17114,39.51447Z"/><path class="cls-2" d="M43.23682,56.79016c0,4.68854-1.31739,7.33209-3.65381,7.33209,2.33642,0,3.65381,2.64356,3.65381,7.3321,0-4.68854,1.31689-7.3321,3.65332-7.3321C44.55371,64.12225,43.23682,61.4787,43.23682,56.79016Z"/><path class="cls-1" d="M117.42285,0C52.572,0,0,27.89929,0,62.31488s52.572,62.31494,117.42285,62.31494c64.85108,0,117.4231-27.89935,117.4231-62.31494S182.27393,0,117.42285,0Zm88.74829,32.174c0,2.347.65943,3.67023,1.82886,3.67023-1.16943,0-1.82886,1.3233-1.82886,3.67029,0-2.347-.65942-3.67029-1.82885-3.67029C205.51172,35.84418,206.17114,34.52094,206.17114,32.174Zm-55.82251-2.21307h4.95581v.02148h4.30518q4.24146,0,5.92187,1.36426a4.51266,4.51266,0,0,1,1.67994,3.69629,5.20566,5.20566,0,0,1-.89234,3.08691,5.18959,5.18959,0,0,1-3.05566,1.82715,5.03636,5.03636,0,0,1,.35718.52539l3.40185,4.72461h-5.71191q-.92432-1.72119-2.91895-4.87207h-3.08716V45.207h-4.95581q.16773-4.07373.168-7.623Q150.5166,34.03461,150.34863,29.96088ZM112.895,31.62006q2.25732-2.09913,7.08765-2.09961,4.85082,0,7.10839,2.09961a7.58118,7.58118,0,0,1,2.25757,5.83789,7.6116,7.6116,0,0,1-2.24707,5.87988q-2.24744,2.07861-7.11889,2.0791-4.80909,0-7.07715-2.08984a7.57984,7.57984,0,0,1-2.26782-5.86914A7.58018,7.58018,0,0,1,112.895,31.62006Zm-18.97363,23.541h6.06909l2.835,3.78028,2.814-3.78028h6.0691l-5.92212,7.43457,6.13208,7.81153h-6.06909L102.82544,66.291l-3.04492,4.11622H93.71143l6.13208-7.81153ZM92.17847,29.96088h18.03882V34.371q-3.297-.10547-6.40479-.126V45.207h-5.25V34.24506q-3.12964.0205-6.384.126Zm-17.157,0h16.3169v3.80078H79.97729v2.0166q1.00818.0205,2.98218.02051,3.33875,0,6.90894-.126V39.2851q-3.57019-.126-6.90894-.126-1.97424,0-2.98218.02051V41.3642q7.9801-.04248,11.57105-.23145a13.23652,13.23652,0,0,0-.17847,1.77442q-.03149.91405-.03149,2.2998H75.02148q.16773-4.07373.168-7.623Q75.18945,34.03461,75.02148,29.96088Zm-18.543,0h4.95581v.02148H65.7395q4.24146,0,5.92188,1.36426a4.51268,4.51268,0,0,1,1.67993,3.69629,5.20566,5.20566,0,0,1-.89234,3.08691A5.18956,5.18956,0,0,1,69.39331,39.957a5.03476,5.03476,0,0,1,.35718.52539L73.15234,45.207H67.44043q-.92432-1.72119-2.919-4.87207H61.43433V45.207H56.47852q.16772-4.07373.168-7.623Q56.64648,34.03461,56.47852,29.96088ZM35.61768,59.8573c0-9.86493-2.77149-15.42712-7.687-15.42712,4.91553,0,7.687-5.56214,7.687-15.42713,0,9.865,2.77148,15.42713,7.687,15.42713C38.38916,44.43018,35.61768,49.99237,35.61768,59.8573Zm7.61914,11.59705c0-4.68854-1.31739-7.3321-3.65381-7.3321,2.33642,0,3.65381-2.64355,3.65381-7.33209,0,4.68854,1.31689,7.33209,3.65332,7.33209C44.55371,64.12225,43.23682,66.76581,43.23682,71.45435Zm28.82373,23.072q-2.14235,1.29053-6.489,1.291a22.74965,22.74965,0,0,1-4.74609-.51465,17.53478,17.53478,0,0,1-4.34692-1.501A20.38331,20.38331,0,0,0,57.665,91.80658a18.74154,18.74154,0,0,0,.91333-2.14258,13.14476,13.14476,0,0,0,3.46509,1.34473,15.50231,15.50231,0,0,0,3.675.48242,6.92191,6.92191,0,0,0,2.457-.30469q.71337-.30323.71386-.66113,0-1.28028-3.906-1.28125a15.844,15.844,0,0,1-6.21607-.89258,2.99466,2.99466,0,0,1-1.93188-2.88672,4.48207,4.48207,0,0,1,2.352-4.17968,12.23919,12.23919,0,0,1,6.11084-1.34375A19.02372,19.02372,0,0,1,69.782,80.498a18.15094,18.15094,0,0,1,4.14746,1.52246q-.60937,1.38573-1.281,3.38086-.126.42041-.21.62988a8.89231,8.89231,0,0,0-3.23413-1.43848,15.05682,15.05682,0,0,0-3.822-.57715,8.94321,8.94321,0,0,0-2.688.2627q-.69288.2622-.69288.76562,0,.50538.95557.8086a9.58351,9.58351,0,0,0,2.76148.30469,15.20975,15.20975,0,0,1,6.468,1.01855,3.30783,3.30783,0,0,1,2.01587,3.11816A4.55771,4.55771,0,0,1,72.06055,94.52631ZM69.72949,70.40717q-.39916-1.19679-1.071-3.00293h-6.699l-1.05005,3.00293h-5.271l5.87988-15.2461h7.728l5.92212,15.2461Zm5.502-15.26661h5.208v8.169a6.70585,6.70585,0,0,0,.13648,1.501,1.916,1.916,0,0,0,.88183,1.082,4.40885,4.40885,0,0,0,2.40454.5039,5.23179,5.23179,0,0,0,2.646-.51465,2.00047,2.00047,0,0,0,.99756-1.14453,6.84661,6.84661,0,0,0,.15747-1.61718v-7.9795h5.208V63.498a6.96764,6.96764,0,0,1-2.1106,5.10351q-2.06835,2.01563-6.96142,2.01563-4.9563,0-6.783-1.92188a6.88032,6.88032,0,0,1-1.78491-5.0498ZM92.34619,93.73822q-2.24744,2.07861-7.1189,2.0791-4.80907,0-7.07714-2.08984a8.70309,8.70309,0,0,1-.0105-11.707q2.25732-2.09913,7.08764-2.09961,4.85084,0,7.1084,2.09961a7.58118,7.58118,0,0,1,2.25757,5.83789A7.6116,7.6116,0,0,1,92.34619,93.73822Zm21.5669-5.04a6.96766,6.96766,0,0,1-2.1106,5.10352q-2.06836,2.01563-6.96143,2.01562-4.95629,0-6.78295-1.92187a6.88039,6.88039,0,0,1-1.78492-5.04981V80.34076h5.208V88.5097a6.70573,6.70573,0,0,0,.13648,1.501,1.916,1.916,0,0,0,.88183,1.082,4.40875,4.40875,0,0,0,2.40454.50391,5.2319,5.2319,0,0,0,2.646-.51465,2.00054,2.00054,0,0,0,.99756-1.14453,6.8467,6.8467,0,0,0,.15747-1.61719V80.34076h5.208Zm14.95214,2.18457,3.40186,4.72461h-5.71191q-.92433-1.72119-2.91895-4.87207h-3.08716v4.87207h-4.95581q.16773-4.07373.168-7.62305,0-3.54931-.168-7.623h4.95581v.02148h4.30518q4.24145,0,5.92187,1.36426a4.51267,4.51267,0,0,1,1.67993,3.69629,4.62142,4.62142,0,0,1-3.948,4.91406A5.03433,5.03433,0,0,1,128.86523,90.88275Zm2.16309-52.4375V29.94037h5.208v8.16894a6.70593,6.70593,0,0,0,.13647,1.501,1.916,1.916,0,0,0,.88184,1.082,4.4087,4.4087,0,0,0,2.40454.50391,5.2319,5.2319,0,0,0,2.646-.51465,2.00052,2.00052,0,0,0,.99755-1.14453,6.84664,6.84664,0,0,0,.15748-1.61719V29.94037h5.208v8.35742a6.96769,6.96769,0,0,1-2.11059,5.10352q-2.06836,2.01563-6.96143,2.01562-4.9563,0-6.783-1.92187A6.88039,6.88039,0,0,1,131.02832,38.44525Zm9.27124,52.09082a4.41554,4.41554,0,0,0,3.24463,1.06055,5.6611,5.6611,0,0,0,2.772-.57813,3.41314,3.41314,0,0,0,1.512-1.83691q1.72156.92432,4.40992,2.0791a6.25,6.25,0,0,1-3.50684,3.54883,13.97608,13.97608,0,0,1-5.355,1.00781q-4.74647,0-6.99316-2.01562a7.33148,7.33148,0,0,1-2.24683-5.75391,7.90482,7.90482,0,0,1,2.24683-5.94336q2.24706-2.18407,6.99316-2.18359,6.63537,0,8.88281,4.55664a34.86837,34.86837,0,0,0-4.43091,1.95312,3.75771,3.75771,0,0,0-1.92138-1.74316,6.69546,6.69546,0,0,0-2.67749-.56738,3.9165,3.9165,0,0,0-3.00318,1.06054,4.01572,4.01572,0,0,0,.07349,5.35547Zm29.98779,2.77149q-.03149.91405-.03149,2.2998H153.939q.16773-4.07373.168-7.62305,0-3.54931-.168-7.623h16.3169V84.162H158.89478v2.0166q1.00816.0205,2.98217.02051,3.33874,0,6.90894-.126v3.61231q-3.5702-.126-6.90894-.126-1.97424,0-2.98217.02051v2.18457q7.98009-.04248,11.571-.23145A13.23652,13.23652,0,0,0,170.28735,93.30756Zm17.44043,1.21875q-2.14233,1.29053-6.489,1.291a22.74965,22.74965,0,0,1-4.74609-.51465,17.53486,17.53486,0,0,1-4.34693-1.501,20.38155,20.38155,0,0,0,1.18653-1.99512,18.74154,18.74154,0,0,0,.91333-2.14258,13.14469,13.14469,0,0,0,3.46508,1.34473,15.50244,15.50244,0,0,0,3.675.48242,6.92184,6.92184,0,0,0,2.457-.30469q.71339-.30323.71387-.66113,0-1.28028-3.906-1.28125a15.844,15.844,0,0,1-6.21606-.89258,2.99464,2.99464,0,0,1-1.93188-2.88672,4.48207,4.48207,0,0,1,2.352-4.17968,12.23914,12.23914,0,0,1,6.11084-1.34375,19.02372,19.02372,0,0,1,4.48364.55664,18.15112,18.15112,0,0,1,4.14746,1.52246q-.60937,1.38573-1.281,3.38086-.126.42041-.21.62988a8.89223,8.89223,0,0,0-3.23413-1.43848,15.05675,15.05675,0,0,0-3.822-.57715,8.94329,8.94329,0,0,0-2.688.2627q-.69286.2622-.69287.76562,0,.50538.95557.8086a9.58348,9.58348,0,0,0,2.76147.30469,15.20977,15.20977,0,0,1,6.468,1.01855,3.30784,3.30784,0,0,1,2.01587,3.11816A4.55772,4.55772,0,0,1,187.72778,94.52631ZM197.34229,43.506c2.33642,0,3.65356-2.64349,3.65356-7.332,0,4.68854,1.31714,7.332,3.65332,7.332-2.33618,0-3.65332,2.64356-3.65332,7.33209C200.99585,46.14954,199.67871,43.506,197.34229,43.506Zm7.09985,39.12384c0-5.26141-1.47827-8.228-4.09985-8.228,2.62158,0,4.09985-2.96656,4.09985-8.22791,0,5.26135,1.47827,8.22791,4.09985,8.22791C205.92041,74.40186,204.44214,77.36841,204.44214,82.62982Z"/><ellipse class="cls-2" cx="204.44214" cy="74.40187" rx="4.09985" ry="8.22795"/><ellipse class="cls-2" cx="35.61768" cy="44.43018" rx="7.68701" ry="15.42712"/><path class="cls-2" d="M61.43433,45.207V40.3349h3.08715q1.99476,3.14942,2.919,4.87207h5.71191l-3.40185-4.72461a5.03476,5.03476,0,0,0-.35718-.52539A5.18956,5.18956,0,0,0,72.449,38.12982a5.20566,5.20566,0,0,0,.89234-3.08691,4.51268,4.51268,0,0,0-1.67993-3.69629q-1.68018-1.36377-5.92188-1.36426H61.43433v-.02148H56.47852q.16772,4.07519.168,7.623,0,3.54932-.168,7.623Zm0-11.19336h2.8352a26.09767,26.09767,0,0,1,2.73.10547,2.77588,2.77588,0,0,1,1.26.35644.93128.93128,0,0,1-.021,1.44922,2.99421,2.99421,0,0,1-1.27051.36817,23.28347,23.28347,0,0,1-2.69849.11523h-2.8352Z"/><path class="cls-2" d="M155.30444,45.207V40.3349h3.08716q1.99476,3.14942,2.91895,4.87207h5.71191l-3.40185-4.72461a5.03636,5.03636,0,0,0-.35718-.52539,5.18959,5.18959,0,0,0,3.05566-1.82715,5.20566,5.20566,0,0,0,.89234-3.08691,4.51266,4.51266,0,0,0-1.67994-3.69629q-1.68016-1.36377-5.92187-1.36426h-4.30518v-.02148h-4.95581q.16773,4.07519.168,7.623,0,3.54932-.168,7.623Zm0-11.19336h2.83521a26.09767,26.09767,0,0,1,2.73.10547,2.77588,2.77588,0,0,1,1.26.35644.93127.93127,0,0,1-.021,1.44922,2.99411,2.99411,0,0,1-1.27051.36817,23.28327,23.28327,0,0,1-2.69848.11523h-2.83521Z"/><path class="cls-2" d="M61.51831,55.16107l-5.87988,15.2461h5.271l1.05005-3.00293h6.699q.67162,1.80615,1.071,3.00293h5.439l-5.92212-15.2461Zm1.63818,8.9668q1.42787-3.8628,2.16285-5.77442l.50415,1.36426q.83971,2.20607,1.63794,4.41016Z"/><polygon class="cls-2" points="99.781 70.407 102.825 66.291 105.849 70.407 111.918 70.407 105.786 62.596 111.708 55.161 105.639 55.161 102.825 58.941 99.99 55.161 93.921 55.161 99.844 62.596 93.711 70.407 99.781 70.407"/><path class="cls-2" d="M72.18652,87.17572a15.20975,15.20975,0,0,0-6.468-1.01855,9.58351,9.58351,0,0,1-2.76148-.30469q-.95582-.30323-.95557-.8086,0-.50389.69288-.76562a8.94321,8.94321,0,0,1,2.688-.2627,15.05682,15.05682,0,0,1,3.822.57715,8.89231,8.89231,0,0,1,3.23413,1.43848q.08349-.20947.21-.62988.672-1.99512,1.281-3.38086A18.15094,18.15094,0,0,0,69.782,80.498a19.02372,19.02372,0,0,0-4.48364-.55664A12.23919,12.23919,0,0,0,59.1875,81.2851a4.48207,4.48207,0,0,0-2.352,4.17968,2.99466,2.99466,0,0,0,1.93188,2.88672,15.844,15.844,0,0,0,6.21607.89258q3.906,0,3.906,1.28125,0,.35742-.71386.66113a6.92191,6.92191,0,0,1-2.457.30469,15.50231,15.50231,0,0,1-3.675-.48242A13.14476,13.14476,0,0,1,58.57837,89.664a18.74154,18.74154,0,0,1-.91333,2.14258,20.38331,20.38331,0,0,1-1.18652,1.99512,17.53478,17.53478,0,0,0,4.34692,1.501,22.74965,22.74965,0,0,0,4.74609.51465q4.34693,0,6.489-1.291a4.55771,4.55771,0,0,0,2.14184-4.23243A3.30783,3.30783,0,0,0,72.18652,87.17572Z"/><path class="cls-2" d="M85.22729,79.92084q-4.83031,0-7.08764,2.09961a8.70309,8.70309,0,0,0,.0105,11.707q2.2683,2.09033,7.07714,2.08984,4.87172,0,7.1189-2.0791a7.6116,7.6116,0,0,0,2.24707-5.87988,7.58118,7.58118,0,0,0-2.25757-5.83789Q90.078,79.92132,85.22729,79.92084Zm3.35987,10.71972a5.09032,5.09032,0,0,1-3.35987.89258,5.01518,5.01518,0,0,1-3.33911-.90234,4.22038,4.22038,0,0,1,0-5.52344,5.01491,5.01491,0,0,1,3.33911-.90332,5.05388,5.05388,0,0,1,3.35987.90332,4.23344,4.23344,0,0,1,0,5.5332Z"/><path class="cls-2" d="M108.70508,88.32025a6.8467,6.8467,0,0,1-.15747,1.61719,2.00054,2.00054,0,0,1-.99756,1.14453,5.2319,5.2319,0,0,1-2.646.51465,4.40875,4.40875,0,0,1-2.40454-.50391,1.916,1.916,0,0,1-.88183-1.082,6.70573,6.70573,0,0,1-.13648-1.501V80.34076h-5.208v8.50488a6.88039,6.88039,0,0,0,1.78492,5.04981q1.827,1.92188,6.783,1.92187,4.893,0,6.96143-2.01562a6.96766,6.96766,0,0,0,2.1106-5.10352V80.34076h-5.208Z"/><path class="cls-2" d="M131.56372,88.53021a5.20565,5.20565,0,0,0,.89233-3.08691,4.51267,4.51267,0,0,0-1.67993-3.69629q-1.68016-1.36377-5.92187-1.36426h-4.30518v-.02148h-4.95581q.16773,4.07518.168,7.623,0,3.54932-.168,7.62305h4.95581V90.73529h3.08716q1.99475,3.14941,2.91895,4.87207h5.71191l-3.40186-4.72461a5.03433,5.03433,0,0,0-.35717-.52539A5.18959,5.18959,0,0,0,131.56372,88.53021Zm-4.21045-2.20508a2.99411,2.99411,0,0,1-1.27051.36817,23.28339,23.28339,0,0,1-2.69848.11523h-2.83521V84.414h2.83521a26.0978,26.0978,0,0,1,2.73.10547,2.77573,2.77573,0,0,1,1.26.35645.93126.93126,0,0,1-.021,1.44921Z"/><path class="cls-2" d="M143.22925,84.12006a6.69546,6.69546,0,0,1,2.67749.56738,3.75771,3.75771,0,0,1,1.92138,1.74316,34.86837,34.86837,0,0,1,4.43091-1.95312q-2.24706-4.55714-8.88281-4.55664-4.74647,0-6.99316,2.18359a7.90482,7.90482,0,0,0-2.24683,5.94336,7.33148,7.33148,0,0,0,2.24683,5.75391q2.24706,2.01563,6.99316,2.01562a13.97608,13.97608,0,0,0,5.355-1.00781,6.25,6.25,0,0,0,3.50684-3.54883q-2.688-1.15576-4.40992-2.0791a3.41314,3.41314,0,0,1-1.512,1.83691,5.6611,5.6611,0,0,1-2.772.57813,4.41554,4.41554,0,0,1-3.24463-1.06055,4.01572,4.01572,0,0,1-.07349-5.35547A3.9165,3.9165,0,0,1,143.22925,84.12006Z"/><path class="cls-2" d="M158.89478,89.58q1.00816-.0205,2.98217-.02051,3.33874,0,6.90894.126V86.07318q-3.5702.126-6.90894.126-1.97424,0-2.98217-.02051V84.162h11.36108V80.36127H153.939q.16773,4.07518.168,7.623,0,3.54932-.168,7.62305h16.3169q0-1.38574.03149-2.2998a13.23652,13.23652,0,0,1,.17847-1.77442q-3.59106.189-11.571.23145Z"/><path class="cls-2" d="M187.85376,87.17572a15.20977,15.20977,0,0,0-6.468-1.01855,9.58348,9.58348,0,0,1-2.76147-.30469q-.95581-.30323-.95557-.8086,0-.50389.69287-.76562a8.94329,8.94329,0,0,1,2.688-.2627,15.05675,15.05675,0,0,1,3.822.57715,8.89223,8.89223,0,0,1,3.23413,1.43848q.08351-.20947.21-.62988.672-1.99512,1.281-3.38086a18.15112,18.15112,0,0,0-4.14746-1.52246,19.02372,19.02372,0,0,0-4.48364-.55664,12.23914,12.23914,0,0,0-6.11084,1.34375,4.48207,4.48207,0,0,0-2.352,4.17968,2.99464,2.99464,0,0,0,1.93188,2.88672,15.844,15.844,0,0,0,6.21606.89258q3.906,0,3.906,1.28125,0,.35742-.71387.66113a6.92184,6.92184,0,0,1-2.457.30469,15.50244,15.50244,0,0,1-3.675-.48242,13.14469,13.14469,0,0,1-3.46508-1.34473,18.74154,18.74154,0,0,1-.91333,2.14258,20.38155,20.38155,0,0,1-1.18653,1.99512,17.53486,17.53486,0,0,0,4.34693,1.501,22.74965,22.74965,0,0,0,4.74609.51465q4.34692,0,6.489-1.291a4.55772,4.55772,0,0,0,2.14185-4.23243A3.30784,3.30784,0,0,0,187.85376,87.17572Z"/></g></g></svg>