<svg id="Calque_1" data-name="Calque 1" xmlns="http://www.w3.org/2000/svg" width="130" height="86.91312" viewBox="0 0 130 86.91312"><defs><style>.cls-1{fill:#f05040;}.cls-2{fill:#1d79ab;}</style></defs><polygon class="cls-1" points="59.593 2.815 41.207 25.759 67.277 31.196 59.593 2.815"/><polygon class="cls-2" points="35.593 37.057 19.241 61.494 45.682 64.675 35.593 37.057"/><polygon class="cls-1" points="101.63 0 106.339 29.023 127.845 13.316 101.63 0"/><path d="M80.93763,172.34845l-1.2574-10.92366c-.55838-4.8509,1.66383-7.83751,5.28187-8.254,3.74982-.43164,6.44827,1.879,7.216,6.52363l-1.97324.22713c-.63959-3.53093-2.41258-5.038-5.01123-4.73893-2.46688.284-3.97039,2.27781-3.54021,6.015l1.2574,10.92366c.43019,3.73719,2.41352,5.32895,4.946,5.03744,2.63142-.30289,3.94116-2.23743,3.869-5.76111l1.97324-.22714c.201,4.63732-1.828,7.5654-5.61059,8.00081C84.40489,179.59533,81.496,177.19935,80.93763,172.34845Z" transform="translate(-79.59467 -151.48213)"/><path d="M113.635,178.80466l-.70107,2.1144-12.31589-4.08359,8.31837-25.08775,2.40143.79625-7.6173,22.97334Z" transform="translate(-79.59467 -151.48213)"/><path d="M164.07608,171.07771l-2.72635-.5685-2.127,10.20052-2.19562-.45784,5.45381-26.15477,5.66585,1.18144c4.56768.95246,6.49724,4.27907,5.48444,9.13617-.95054,4.55847-3.61211,7.04507-7.15128,7.00881l3.93193,11.61935-2.5492-.53156Zm-2.27445-2.73565,3.43493.71626c3.2218.67181,5.33-1.11035,6.1325-4.95909.7791-3.73629-.4877-5.98906-3.67421-6.65352l-3.47022-.72361Z" transform="translate(-79.59467 -151.48213)"/><path d="M80.39442,203.28783l2.07771.55371c-.71928,3.10438.52259,5.17814,3.13743,5.875,2.84866.75917,4.7559-.7404,5.47234-3.42871,1.52719-5.73056-8.85395-8.53489-6.94026-15.71572a6.06588,6.06588,0,0,1,7.67871-4.43173c3.68709.98261,5.23133,4.34891,4.362,8.2847L94.104,193.8712c.69526-3.14854-.53635-4.99227-2.78175-5.59067a3.80987,3.80987,0,0,0-5.06884,2.85437c-1.5272,5.73056,8.9199,8.28742,6.94026,15.71572-.8955,3.36021-3.96019,6.10458-8.08287,5.00589C81.22263,210.82031,79.4011,207.41787,80.39442,203.28783Z" transform="translate(-79.59467 -151.48213)"/><path d="M130.34329,192.601l3.49736,9.5738,9.3674-3.422.74114,2.02883-9.36739,3.422,4.12163,11.2827-2.45076.89527-9.10128-24.91415,12.49013-4.56271.74114,2.02883Z" transform="translate(-79.59467 -151.48213)"/><path d="M156.27171,191.31034l-1.09955,10.13312,9.91466,1.07585-.233,2.14735-9.91466-1.07584-1.29582,11.94186-2.59393-.28147,2.86139-26.3697,13.21982,1.43449-.233,2.14736Z" transform="translate(-79.59467 -151.48213)"/><path d="M180.10432,203.257l-2.7795.175.64992,10.32426-2.23842.14091-1.66642-26.47209,5.77628-.36361c4.65671-.29314,7.39818,2.38192,7.70765,7.29795.29043,4.61377-1.61764,7.6958-5.04,8.59458l6.86811,10.08418-2.59889.1636Zm-2.91758-2.01848,3.50189-.22044c3.2846-.20676,4.84556-2.46857,4.60034-6.364-.23805-3.78162-2.0561-5.60369-5.30471-5.39919l-3.53787.22271Z" transform="translate(-79.59467 -151.48213)"/><path d="M209.35168,209.24136l.243,2.1613L196.41908,212.884l-2.98389-26.54017,12.74545-1.433.243,2.1613-10.32119,1.1604,1.104,9.81957,9.65649-1.08568.243,2.16131-9.65649,1.08567,1.1509,10.23671Z" transform="translate(-79.59467 -151.48213)"/><path d="M110.96656,233.32023v-3.94564c0-1.8336.98334-2.80333,2.51127-2.80333a2.45845,2.45845,0,0,1,2.564,2.65708h-.79712c-.06632-1.28857-.7308-1.88652-1.76684-1.88652-1.06283,0-1.71371.65109-1.71371,2.04594v3.93247c0,1.39486.73037,2.046,1.78,2.046a1.70352,1.70352,0,0,0,1.79364-1.91309v-1.66078H113.531v-.744h2.59076v2.40476a2.46356,2.46356,0,0,1-2.57759,2.68364A2.50559,2.50559,0,0,1,110.96656,233.32023Z" transform="translate(-79.59467 -151.48213)"/><path d="M123.62961,228.94946v.85026a2.46941,2.46941,0,0,0-.87706-.14625c-.99607,0-1.64738.79712-1.64738,2.12566v4.22475h-.784V229.029h.65131l.13264.877v.01318a1.99051,1.99051,0,0,1,1.82042-1.03626A2.88438,2.88438,0,0,1,123.62961,228.94946Z" transform="translate(-79.59467 -151.48213)"/><path d="M131.45634,231.1814v4.82248h-.67722l-.06676-.66427a1.88637,1.88637,0,0,1-1.60742.82369,2.03987,2.03987,0,0,1-2.20559-2.139c0-1.34171.86388-2.08569,2.3918-2.08569h1.38168v-.744c0-1.02286-.47871-1.56767-1.38168-1.56767a1.27207,1.27207,0,0,0-1.39529,1.22226h-.784a2.02789,2.02789,0,0,1,2.2056-1.97964A2.06642,2.06642,0,0,1,131.45634,231.1814Zm-.78351,2.72339v-1.23543h-1.40847c-1.02286,0-1.56745.47827-1.56745,1.36828,0,.91681.62408,1.35511,1.52749,1.35511A1.3582,1.3582,0,0,0,130.67283,233.90479Z" transform="translate(-79.59467 -151.48213)"/><path d="M140.42583,231.54v2.006c0,1.72731-.82347,2.61732-2.16562,2.61732a1.96379,1.96379,0,0,1-1.6206-.78372v3.01567h-.77033V229.029h.6377l.10628.65109a1.98451,1.98451,0,0,1,1.647-.81052C139.52243,228.86952,140.42583,229.77293,140.42583,231.54Zm-.79712,0c0-1.36828-.57094-1.93966-1.5411-1.93966-.79712,0-1.448.61113-1.448,1.91309V233.546c0,1.116.57138,1.88674,1.448,1.88674,1.02286,0,1.5411-.55821,1.5411-1.88674Z" transform="translate(-79.59467 -151.48213)"/><path d="M149.12918,231.79231v4.21157h-.78351v-4.145c0-1.60764-.412-2.24533-1.28857-2.24533-.97016,0-1.60786.81051-1.60786,2.1788v4.21157h-.78394v-9.56547h.78394V229.906a1.98418,1.98418,0,0,1,1.80681-1.03648C148.452,228.86952,149.12918,229.74658,149.12918,231.79231Z" transform="translate(-79.59467 -151.48213)"/><path d="M153.2101,227.10268a.6377.6377,0,1,1,.63769.6377A.59961.59961,0,0,1,153.2101,227.10268Zm.25209,1.92627h.784v6.97493h-.784Z" transform="translate(-79.59467 -151.48213)"/><path d="M158.1931,233.93136h.78351a1.37358,1.37358,0,0,0,1.52792,1.46139c.86388,0,1.36851-.4383,1.36851-1.18229,0-1.70052-3.58683-1.07622-3.58683-3.46759a1.88043,1.88043,0,0,1,2.09887-1.87335,2.02933,2.02933,0,0,1,2.16562,2.13906h-.784a1.26475,1.26475,0,0,0-1.38167-1.38168c-.82348,0-1.30219.42513-1.30219,1.14254,0,1.63421,3.58727,1.00969,3.58727,3.46738a1.94072,1.94072,0,0,1-2.16563,1.92648A2.14838,2.14838,0,0,1,158.1931,233.93136Z" transform="translate(-79.59467 -151.48213)"/><path d="M169.46085,235.32644v.744h-.39834a1.878,1.878,0,0,1-1.97941-2.13906v-4.17161h-1.06283v-.7308h1.06283v-1.60742h.78351V229.029h1.43482v.7308h-1.43482v4.17161c0,.9168.372,1.39508,1.1959,1.39508Z" transform="translate(-79.59467 -151.48213)"/><path d="M177.73907,233.86483a2.315,2.315,0,1,1-4.62331-.21257V231.354a2.31155,2.31155,0,1,1,4.61013,0v1.5411h-3.813v.75716c0,1.16911.55821,1.71392,1.47479,1.71392.98333,0,1.46117-.47827,1.56745-1.50135Zm-3.82619-2.51083v.8103H176.942v-.8103c0-1.16911-.57095-1.7137-1.52749-1.7137C174.48426,229.6403,173.91288,230.18489,173.91288,231.354Z" transform="translate(-79.59467 -151.48213)"/></svg>