<svg xmlns="http://www.w3.org/2000/svg" width="334" height="78.838" viewBox="0 0 334 78.838"><g transform="translate(1175.297 -2370.886)"><g transform="translate(-1175.297 2370.886)"><g transform="translate(0 57.207)"><path d="M-1132.02,2501.347H-1175.3l21.636-21.631,1.488,1.488-18.046,18.041h36.1Z" transform="translate(1175.297 -2479.716)" fill="#f54218"/></g><g transform="translate(25.878 37.297)"><path d="M-1062.769,2443.327l-38.972,38.73-24.326-24.427,1.493-1.477,22.843,22.929,37.474-37.243Z" transform="translate(1126.067 -2441.839)" fill="#f54218"/></g><g transform="translate(57.214 28.611)"><path d="M-991.982,2449.873l-24.3-24.557-22.861,22.692h-.016l-2.3,2.3-24.994,25.112h2.986l23.858-23.987,23.156,22.846,1.493-1.482-23-22.694Zm-24.306-21.587,19.254,19.506-39.113.207Z" transform="translate(1066.455 -2425.316)" fill="#f54218"/></g><g transform="translate(40.076)"><path d="M-1035.721,2395.445l-1.488,1.483-8.032-8.027-2.1-2.1-12.937-12.942-15.044,15.044-22.251,22.251-1.482-1.482,38.777-38.783Z" transform="translate(1099.057 -2370.886)" fill="#f54218"/><rect width="31.237" height="2.103" transform="translate(23.589 15.91)" fill="#f54218"/></g><g transform="translate(114.035 56.902)"><g transform="translate(6.632 15.895)"><rect width="30.212" height="2.103" fill="#f54218"/></g><path d="M-914.64,2500.993h-2.975l-3.779-3.78-2.061-2.061-13.047-13.042-18.882,18.882h-2.975l21.857-21.857Z" transform="translate(958.359 -2479.136)" fill="#f54218"/></g></g><g transform="translate(-1027.247 2389.522)"><path d="M-893.648,2415.318a8.273,8.273,0,0,1,8.521-8.268,8.821,8.821,0,0,1,6.577,2.838l-1.9,1.5a6.308,6.308,0,0,0-4.687-2.015,5.88,5.88,0,0,0-6.057,5.944,5.883,5.883,0,0,0,6.057,5.96,6.3,6.3,0,0,0,4.746-2.052l1.921,1.457a8.813,8.813,0,0,1-6.661,2.906A8.257,8.257,0,0,1-893.648,2415.318Z" transform="translate(893.648 -2406.677)" fill="#f54218"/><path d="M-858.646,2407.552h2.475l-.014,13.74h9.013v2.258h-11.475Z" transform="translate(877.045 -2406.915)" fill="#f54218"/><path d="M-826.645,2406.339l8.987,16.648h-2.66l-1.854-3.515h-9.007l-1.875,3.517h-2.716Zm3.37,11.07-3.4-6.428-3.411,6.428Z" transform="translate(866.194 -2406.339)" fill="#f54218"/><path d="M-786.935,2423.55l-7.649-7.061v7.061h-2.475v-16h7.506c3.492,0,5.833,1.709,5.833,4.818,0,3.159-2.141,4.738-5.646,4.738H-790.7l7.308,6.442Zm-7.649-8.586h5.221c1.844,0,3.112-.819,3.112-2.594,0-1.737-1.267-2.591-3.112-2.591h-5.221Z" transform="translate(847.832 -2406.915)" fill="#f54218"/><path d="M-760.872,2406.339l8.987,16.648h-2.66l-1.854-3.515h-9.007l-1.875,3.517H-770Zm3.37,11.07-3.4-6.428-3.411,6.428Z" transform="translate(834.996 -2406.339)" fill="#f54218"/><path d="M-721.2,2421.674l1.334-1.924a11.741,11.741,0,0,0,5.931,1.586c2.234-.02,3.746-.868,3.778-2.327.032-1.342-.869-1.839-3.216-2.38l-2.112-.483c-3.425-.777-5.008-2.2-5.021-4.559-.014-2.6,2.6-4.37,6.13-4.39a12.07,12.07,0,0,1,6.242,1.712l-1.256,1.92a8.995,8.995,0,0,0-4.758-1.4c-2.2.021-3.733.8-3.718,2.226.012,1.236,1,1.847,3.1,2.327l2.256.509c3.4.765,4.893,2.068,4.9,4.506.014,2.717-2.614,4.561-6.437,4.573A13.939,13.939,0,0,1-721.2,2421.674Z" transform="translate(811.85 -2406.747)" fill="#f54218"/><path d="M-684.067,2406.339l8.986,16.648h-2.66l-1.853-3.515H-688.6l-1.876,3.517h-2.716Zm3.37,11.07-3.4-6.428-3.411,6.428Z" transform="translate(798.563 -2406.339)" fill="#f54218"/><path d="M-654.482,2407.552h12.042v2.253h-9.581v4.084l6.812.011v2.187h-6.812v7.462h-2.461Z" transform="translate(780.201 -2406.915)" fill="#f54218"/><path d="M-625.424,2407.552h12.043v2.253h-9.582v4.084l6.811.011v2.187h-6.811v7.462h-2.461Z" transform="translate(766.418 -2406.915)" fill="#f54218"/><path d="M-586.242,2423.55l-7.65-7.061v7.061h-2.474v-16h7.506c3.492,0,5.832,1.709,5.832,4.818,0,3.159-2.141,4.738-5.646,4.738h-1.335l7.308,6.442Zm-7.65-8.586h5.222c1.844,0,3.112-.819,3.112-2.594,0-1.737-1.268-2.591-3.112-2.591h-5.222Z" transform="translate(752.634 -2406.915)" fill="#f54218"/><path d="M-563.742,2407.552h12.519v2.246h-10.058v4.092l7.309.011v2.187h-7.309v5.2h10.071v2.258h-12.532Z" transform="translate(737.159 -2406.915)" fill="#f54218"/><g transform="translate(27.255 27.683)"><path d="M-841.8,2466.325a6.78,6.78,0,0,1,6.973-6.828,7.374,7.374,0,0,1,5.413,2.211l-.9.729a6.168,6.168,0,0,0-4.514-1.822,5.639,5.639,0,0,0-5.792,5.708,5.679,5.679,0,0,0,5.845,5.682,6.324,6.324,0,0,0,4.773-2.2v-3.61h1.186v4a7.558,7.558,0,0,1-5.957,2.925A6.815,6.815,0,0,1-841.8,2466.325Z" transform="translate(841.799 -2459.237)" fill="#f54218"/><path d="M-797.585,2473.094l-7.661-6.06v6.06h-1.185v-13.176h6.039c2.7,0,4.634,1.266,4.634,3.742,0,2.529-1.846,3.733-4.554,3.733h-2.76l7.353,5.7Zm-7.661-6.788h4.935c1.943,0,3.333-.808,3.333-2.646,0-1.8-1.389-2.656-3.333-2.656h-4.935Z" transform="translate(825.023 -2459.437)" fill="#f54218"/><path d="M-773.087,2459l7.249,13.682h-1.286l-1.718-3.306h-8.543l-1.762,3.307h-1.317Zm3.711,9.369-3.723-7.1-3.757,7.1Z" transform="translate(812.706 -2459.003)" fill="#f54218"/><path d="M-744.787,2459.918h5.9c2.7,0,4.627,1.477,4.627,4.093,0,2.671-1.86,4.059-4.568,4.059H-743.6v5.024h-1.186Zm5.914,7.085c2.015,0,3.4-1.024,3.4-2.992,0-1.93-1.382-3.005-3.4-3.005H-743.6v6Z" transform="translate(795.782 -2459.437)" fill="#f54218"/><path d="M-714.551,2459.918h1.186v5.515h9.108v-5.515h1.186v13.176h-1.186l-.012-6.566h-9.1v6.566h-1.186Z" transform="translate(781.44 -2459.437)" fill="#f54218"/><path d="M-681.026,2459.918h1.186v13.176h-1.186Z" transform="translate(765.537 -2459.437)" fill="#f54218"/><path d="M-669,2471.536l.645-.93a10.377,10.377,0,0,0,5.349,1.42c2.275-.029,3.886-.924,3.889-2.494,0-1.413-.978-1.942-3.284-2.487l-1.845-.434c-2.7-.63-4.121-1.641-4.136-3.525-.018-2.088,2.055-3.384,4.968-3.414a9.511,9.511,0,0,1,5.063,1.4l-.616.929a7.983,7.983,0,0,0-4.348-1.251c-2.266.04-3.829.861-3.812,2.362.017,1.294,1.08,1.939,3.236,2.445l1.917.445c2.777.642,4.062,1.586,4.077,3.512.018,2.2-2.123,3.575-5.153,3.591A11.38,11.38,0,0,1-669,2471.536Z" transform="translate(759.833 -2459.32)" fill="#f54218"/><path d="M-636.226,2461.01h-5.019l-.006-1.092h11.213v1.092h-5v12.084h-1.183Z" transform="translate(746.67 -2459.437)" fill="#f54218"/><path d="M-611.115,2459.918h10.173V2461h-8.994v4.432l6.706,0v1.061h-6.706V2472h9v1.093h-10.179Z" transform="translate(732.375 -2459.437)" fill="#f54218"/></g></g></g></svg>