<svg id="Calque_1" data-name="Calque 1" xmlns="http://www.w3.org/2000/svg" xmlns:xlink="http://www.w3.org/1999/xlink" width="272.22675" height="272.81495" viewBox="0 0 272.22675 272.81495"><defs><style>.cls-1{fill:none;}.cls-2{clip-path:url(#clip-path);}.cls-3{fill:#f4d541;}.cls-4{fill:#fb4121;}</style><clipPath id="clip-path" transform="translate(-19.22473 -141.99363)"><rect class="cls-1" width="297.513" height="414.80899"/></clipPath></defs><g class="cls-2"><path class="cls-3" d="M236.29961,405.76759l-145.798,8.917c-32.011,1.958-59.613-19.51-61.338-47.706l-9.854-161.117c-1.725-28.197,23.055-52.869,55.067-54.826l145.797-8.918c32.012-1.958,59.614,19.51,61.339,47.707l9.854,161.117c1.725,28.196-23.056,52.868-55.067,54.826" transform="translate(-19.22473 -141.99363)"/></g><polygon class="cls-4" points="38.327 89.76 34.24 90.01 33.72 81.52 32.448 81.598 33.034 91.18 38.394 90.852 38.327 89.76"/><path class="cls-4" d="M62.32861,232.7084a3.87669,3.87669,0,0,0,2.39258-.94238l-.06543-1.06347a3.40532,3.40532,0,0,1-2.24609.874,2.0209,2.0209,0,0,1-2.28321-1.94922l4.68653-.28613c.166-2.20508-.73731-3.9541-3.11817-3.80762-2.0957.12793-3,1.80664-2.88671,3.66309C58.9585,231.65176,60.562,232.8168,62.32861,232.7084Zm-.53515-6.05371c1.19726-.07324,1.7207.63184,1.832,1.707l-3.54785.2168C60.1665,227.34024,60.81982,226.71426,61.79346,226.65469Z" transform="translate(-19.22473 -141.99363)"/><path class="cls-4" d="M71.72217,231.98282l-.21094-3.44336c-.05371-.88379-.042-2.417,2.44336-2.55371l-.07227-1.1836a2.469,2.469,0,0,0-2.59863,1.73731l-.2832-1.42481-.89746.05567.4209,6.88672Z" transform="translate(-19.22473 -141.99363)"/><path class="cls-4" d="M78.813,231.70059a3.86423,3.86423,0,0,0,2.3916-.94336l-.06543-1.06347a3.40731,3.40731,0,0,1-2.24609.875,2.02014,2.02014,0,0,1-2.28223-1.94922l4.68555-.28711c.166-2.20508-.73731-3.95313-3.11817-3.80762-2.0957.12793-3,1.80664-2.88574,3.66309C75.44189,230.643,77.04639,231.809,78.813,231.70059Zm-.53613-6.05469c1.19726-.07324,1.72168.63184,1.832,1.707l-3.54785.21777C76.65088,226.33145,77.30322,225.70547,78.27686,225.6459Z" transform="translate(-19.22473 -141.99363)"/><path class="cls-4" d="M83.54639,225.32364l.23242,3.78808c.083,1.36231.82812,2.23438,2.085,2.15723a2.16758,2.16758,0,0,0,1.50977-.61816l-.05762-.94336a2.20357,2.20357,0,0,1-1.20508.43457c-.61426.03711-1.085-.29492-1.14746-1.31348l-.21875-3.57812,2.54492-.15528-.05859-.97265-2.5459.15527-.09277-1.51269-.70313.043a2.51481,2.51481,0,0,1-1.69824,1.96875l.03808.62793Z" transform="translate(-19.22473 -141.99363)"/><path class="cls-4" d="M92.09229,230.88809c1.78125-.1084,3.15625-1.71094,3.01855-3.957-.13379-2.18555-1.3623-3.3584-3.458-3.23047-1.97558.1211-3.18164,1.292-3.03906,3.62793C88.7417,229.40958,90.17627,231.00528,92.09229,230.88809Zm-.3711-6.06445c1.4375-.08789,2.02246.62891,2.11719,2.18555.08789,1.4375-.45215,2.67285-1.81445,2.75586-1.22754.07519-2.03809-.89747-2.1377-2.51465C89.79443,225.73868,90.25439,224.91348,91.72119,224.82364Z" transform="translate(-19.22473 -141.99363)"/><path class="cls-4" d="M99.60791,230.42911a2.63578,2.63578,0,0,0,2.249-1.80664l.28809,1.5.89746-.05469-.4209-6.88672-1.19726.07324.21386,3.50293c.05274.86914-.51172,2.45117-1.93359,2.53809-1.01855.0625-1.39941-.51563-1.46387-1.57813l-.25976-4.25195-1.19825.07324.27247,4.46192C97.16064,229.7211,98.11084,230.51993,99.60791,230.42911Z" transform="translate(-19.22473 -141.99363)"/><path class="cls-4" d="M106.63525,229.84805l-.21-3.44336c-.05468-.88379-.043-2.418,2.44336-2.55371l-.07226-1.18359a2.46687,2.46687,0,0,0-2.59864,1.73633l-.2832-1.42383-.89844.05469.42188,6.88672Z" transform="translate(-19.22473 -141.99363)"/><path class="cls-4" d="M113.69189,227.52383a2.0268,2.0268,0,0,0,2.28028,1.9043,3.05049,3.05049,0,0,0,2.51855-1.583l.28711,1.25977.89844-.05469-.09863-4.06543c-.05176-1.83105-1.18555-2.91894-3.22071-2.79492a4.59711,4.59711,0,0,0-2.585.98535l.07813,1.28711a3.7908,3.7908,0,0,1,2.48437-1.14355c1.168-.07129,1.87207.38086,2.05567,1.40722l-2.82618.72852C114.2915,225.78848,113.63232,226.54922,113.69189,227.52383Zm4.77247-1.81152.01367.21a2.52663,2.52663,0,0,1-2.31055,2.5166,1.03327,1.03327,0,0,1-1.2041-1.00879c-.0332-.55371.248-.85742,1.23926-1.1123Z" transform="translate(-19.22473 -141.99363)"/><path class="cls-4" d="M124.40088,228.91251a2.63623,2.63623,0,0,0,2.249-1.80567l.28711,1.499.89844-.05469-.4209-6.88672-1.19726.07324.21386,3.50293c.05274.86914-.51172,2.45117-1.93359,2.53906-1.01856.06153-1.39942-.5166-1.46387-1.5791l-.25976-4.25195-1.19825.07324.27246,4.46192C121.95361,228.2045,122.90381,229.0043,124.40088,228.91251Z" transform="translate(-19.22473 -141.99363)"/><polygon class="cls-4" points="109.883 86.479 111.261 86.395 112.881 83.652 114.81 86.179 116.187 86.095 113.521 82.801 115.766 79.208 114.389 79.292 112.783 82.035 110.84 79.509 109.462 79.593 112.144 82.886 109.883 86.479"/><path class="cls-4" d="M141.563,224.49551l.90039.2168c1.05176.25,1.3457.38281,1.37793.90625.041.67285-.68457,1.10938-1.55176,1.16309a3.944,3.944,0,0,1-2.44629-.67774l.07129,1.168a4.34014,4.34014,0,0,0,2.5127.53809c1.31738-.08106,2.624-.82227,2.53613-2.25977-.07324-1.19726-1.01367-1.59082-1.99024-1.832l-.82324-.20508c-1.19043-.28711-1.47558-.52539-1.50586-1.01953-.02636-.43457.44922-.76465,1.27246-.81543a5.02269,5.02269,0,0,1,2.4961.50977l-.06934-1.1377a5.456,5.456,0,0,0-2.44531-.42285c-1.30274.08008-2.46582.72266-2.38672,2.01074C139.57764,223.73087,140.35889,224.2084,141.563,224.49551Z" transform="translate(-19.22473 -141.99363)"/><path class="cls-4" d="M149.83789,227.35684c1.78125-.10937,3.15625-1.71191,3.01856-3.958-.13379-2.18554-1.36133-3.35839-3.458-3.22949-1.9751.12012-3.18115,1.291-3.03858,3.627C146.48779,225.87735,147.92139,227.474,149.83789,227.35684Zm-.37109-6.06445c1.4375-.08789,2.02246.62793,2.11816,2.18457.08789,1.4375-.45312,2.67285-1.81641,2.75684-1.22607.07519-2.03662-.89844-2.13623-2.51563C147.54053,222.20645,148.00049,221.38223,149.4668,221.29239Z" transform="translate(-19.22473 -141.99363)"/><path class="cls-4" d="M157.35352,226.89688a2.63478,2.63478,0,0,0,2.249-1.80566l.28711,1.5.89746-.05567-.4209-6.88672-1.19629.07325.21387,3.50293c.05273.86914-.51172,2.45214-1.93359,2.53906-1.01856.06152-1.39942-.5166-1.46485-1.5791l-.25976-4.252-1.19825.07325.27344,4.46191C154.90625,226.18887,155.85645,226.98868,157.35352,226.89688Z" transform="translate(-19.22473 -141.99363)"/><path class="cls-4" d="M164.38086,226.31583l-.21094-3.44336c-.05371-.88379-.042-2.417,2.44336-2.55371l-.07226-1.1836a2.46636,2.46636,0,0,0-2.59766,1.73731l-.2832-1.42481-.89844.05469.42187,6.88672Z" transform="translate(-19.22473 -141.99363)"/><path class="cls-4" d="M171.54688,226.02872a3.6416,3.6416,0,0,0,2.10156-.77539l-.06739-1.09278a3.501,3.501,0,0,1-2.05664.75684c-1.18359.07226-2.19433-.72266-2.30371-2.51953-.09277-1.51172.44141-2.35547,1.71485-2.4336a4.42658,4.42658,0,0,1,2.50195.61329l-.06836-1.12305a4.36745,4.36745,0,0,0-2.50195-.59863c-1.7959.11035-3.06153,1.28418-2.91895,3.62011C168.0752,224.557,169.376,226.16153,171.54688,226.02872Z" transform="translate(-19.22473 -141.99363)"/><path class="cls-4" d="M178.62793,225.5961a3.86722,3.86722,0,0,0,2.3916-.94336l-.06445-1.06348a3.40146,3.40146,0,0,1-2.2461.874,2.019,2.019,0,0,1-2.28222-1.94922l4.68554-.28613c.166-2.20508-.73828-3.95313-3.11816-3.80762-2.0957.12793-3,1.80664-2.88574,3.66308C175.25781,224.53848,176.86133,225.70352,178.62793,225.5961Zm-.53516-6.05469c1.19727-.07324,1.72168.63184,1.832,1.707l-3.54785.2168C176.4668,220.227,177.12012,219.601,178.09277,219.54141Z" transform="translate(-19.22473 -141.99363)"/><path class="cls-4" d="M184.667,221.85977l.89942.21582c1.05273.251,1.3457.38379,1.37793.90723.041.67285-.68262,1.10937-1.55176,1.16211a3.93484,3.93484,0,0,1-2.44531-.67774l.07128,1.168a4.31846,4.31846,0,0,0,2.51172.53809c1.31836-.08008,2.625-.82227,2.53711-2.25977-.07324-1.19726-1.01367-1.58984-1.99023-1.83105l-.82422-.20606c-1.18848-.28711-1.47461-.52539-1.50488-1.01953-.02735-.43457.44922-.76465,1.27343-.81445a5.01,5.01,0,0,1,2.49512.50879l-.06933-1.1377a5.47454,5.47454,0,0,0-2.44629-.42187c-1.30176.08008-2.46485.72265-2.38672,2.01074C182.68164,221.09512,183.46289,221.57266,184.667,221.85977Z" transform="translate(-19.22473 -141.99363)"/><path class="cls-4" d="M190.59766,224.71231a5.23066,5.23066,0,0,1-.67286,1.55859l.98047.542a5.99568,5.99568,0,0,0,.56739-3.50586l-1.72266.10547.083,1.34668Z" transform="translate(-19.22473 -141.99363)"/><path class="cls-4" d="M200.32227,224.269a3.6416,3.6416,0,0,0,2.10156-.77539l-.06738-1.09277a3.50759,3.50759,0,0,1-2.05665.75683c-1.18359.07227-2.19433-.72265-2.30371-2.51953-.09277-1.51172.44141-2.35547,1.71485-2.43359a4.42659,4.42659,0,0,1,2.50195.61328l-.06836-1.12305a4.35975,4.35975,0,0,0-2.50195-.59863c-1.7959.10937-3.06153,1.28418-2.91895,3.62012C196.85059,222.79727,198.15137,224.40176,200.32227,224.269Z" transform="translate(-19.22473 -141.99363)"/><path class="cls-4" d="M204.52051,215.76114a5.22665,5.22665,0,0,1-.67188,1.55957l.98145.54a5.99992,5.99992,0,0,0,.5664-3.50488l-1.72265.10449.082,1.34668Z" transform="translate(-19.22473 -141.99363)"/><path class="cls-4" d="M210.69727,223.63419a3.8554,3.8554,0,0,0,2.39062-.94336l-.06445-1.06348a3.39988,3.39988,0,0,1-2.24512.875,2.01966,2.01966,0,0,1-2.28223-1.94922l4.68555-.28711c.165-2.2041-.73828-3.95312-3.11914-3.80762-2.0957.12891-3,1.80665-2.88574,3.66309C207.32617,222.57657,208.92969,223.74258,210.69727,223.63419Zm-.53614-6.05469c1.19825-.07324,1.72168.63183,1.833,1.708l-3.54785.21679C208.53613,218.266,209.18848,217.63907,210.16113,217.5795Z" transform="translate(-19.22473 -141.99363)"/><path class="cls-4" d="M216.73535,219.89786l.89942.21679c1.05371.25,1.34668.38282,1.3789.90625.041.67286-.68359,1.10938-1.55273,1.16309a3.94,3.94,0,0,1-2.44434-.67773l.07129,1.168a4.324,4.324,0,0,0,2.51172.53809c1.31738-.08105,2.625-.82226,2.53711-2.25976-.07324-1.19727-1.01367-1.59083-1.99121-1.832l-.82324-.20507c-1.18946-.28711-1.47461-.52539-1.50489-1.01954-.02734-.43457.44922-.76464,1.27246-.81543a5.01668,5.01668,0,0,1,2.49512.50977l-.06934-1.13769a5.4432,5.4432,0,0,0-2.44531-.42188c-1.30176.0791-2.46484.72168-2.38672,2.00977C214.751,219.13321,215.53125,219.61075,216.73535,219.89786Z" transform="translate(-19.22473 -141.99363)"/><path class="cls-4" d="M222.4834,216.82657l.23242,3.78808c.083,1.36231.82813,2.23438,2.085,2.15723a2.16389,2.16389,0,0,0,1.50977-.61914l-.05762-.94336a2.19061,2.19061,0,0,1-1.20508.43457c-.61328.03809-1.085-.29394-1.14648-1.3125l-.21973-3.57812,2.54492-.15625-.05859-.97266-2.54492.15625-.09278-1.5127-.7041.043a2.51433,2.51433,0,0,1-1.69922,1.96778l.03809.62793Z" transform="translate(-19.22473 -141.99363)"/><path class="cls-4" d="M55.4917,251.15958a2.63478,2.63478,0,0,0,2.249-1.80567l.28711,1.5.89844-.05469-.4209-6.88671-1.19726.07324.21386,3.50293c.05274.86816-.51172,2.45117-1.93359,2.53808-1.01856.0625-1.39942-.51562-1.46387-1.57812l-.25976-4.252-1.19825.07324.27246,4.46094C53.04443,250.45255,53.99463,251.2504,55.4917,251.15958Z" transform="translate(-19.22473 -141.99363)"/><path class="cls-4" d="M62.08643,245.21036l-.28711-1.499-.89844.05469.4209,6.88672L62.52,250.5795l-.21484-3.50391a2.26621,2.26621,0,0,1,1.93457-2.52246,1.5515,1.5515,0,0,1,1.61914,1.64453l.2539,4.16211,1.19825-.07324-.27344-4.46191c-.10449-1.72071-1.05567-2.52051-2.55274-2.42872A2.65316,2.65316,0,0,0,62.08643,245.21036Z" transform="translate(-19.22473 -141.99363)"/><path class="cls-4" d="M73.62646,242.9877l-.89746.05469.4209,6.88672,1.19727-.07324-.21-3.44434c-.05469-.88281-.043-2.416,2.44336-2.55273l-.07227-1.1836a2.46652,2.46652,0,0,0-2.59863,1.73731Z" transform="translate(-19.22473 -141.99363)"/><path class="cls-4" d="M80.8042,242.39786c-2.0957.12793-3.001,1.80664-2.88672,3.66308.14941,2.45508,1.75391,3.61914,3.52051,3.51172a3.87674,3.87674,0,0,0,2.39258-.94238l-.06543-1.06348a3.40531,3.40531,0,0,1-2.2461.874,2.02033,2.02033,0,0,1-2.2832-1.94922l4.68652-.28614C84.0874,244.0004,83.18506,242.25235,80.8042,242.39786ZM79.187,245.44278c.08985-1.23828.74219-1.86426,1.71582-1.92383,1.19727-.07324,1.72071.63184,1.832,1.707Z" transform="translate(-19.22473 -141.99363)"/><path class="cls-4" d="M89.85693,241.99454l-2.54589.15625-.09278-1.5127-.70312.043a2.512,2.512,0,0,1-1.69825,1.9668l.03809.6289,1.31836-.08007.23145,3.78808c.083,1.36231.82812,2.2334,2.085,2.15625a2.15963,2.15963,0,0,0,1.50976-.61914l-.05762-.94336a2.18246,2.18246,0,0,1-1.20507.43555c-.61426.03808-1.085-.29492-1.14746-1.3125l-.21875-3.57813,2.54492-.15625Z" transform="translate(-19.22473 -141.99363)"/><path class="cls-4" d="M91.2251,245.20157c.127,2.08105,1.56152,3.67676,3.47754,3.55957,1.78222-.10938,3.15722-1.71192,3.01953-3.957-.13379-2.18555-1.36231-3.35742-3.459-3.22949C92.2876,241.69571,91.08252,242.86563,91.2251,245.20157Zm5.22461-.31934c.08789,1.4375-.45313,2.67383-1.81543,2.75684-1.22754.07519-2.03809-.89844-2.13672-2.51465-.09277-1.5127.36719-2.33691,1.834-2.42676C95.77,242.60977,96.354,243.32559,96.44971,244.88223Z" transform="translate(-19.22473 -141.99363)"/><path class="cls-4" d="M102.31494,247.16934c-1.01855.0625-1.39941-.5166-1.46387-1.5791l-.25976-4.25195-1.19824.07324.27246,4.46094c.10547,1.72168,1.05566,2.5205,2.55273,2.42871a2.63378,2.63378,0,0,0,2.249-1.80469l.28808,1.5.89746-.05469-.4209-6.88672-1.19726.07325.21387,3.50293C104.30127,245.49942,103.73682,247.08243,102.31494,247.16934Z" transform="translate(-19.22473 -141.99363)"/><path class="cls-4" d="M108.52588,240.85294l-.89844.05566.4209,6.88672,1.19824-.07422-.21094-3.44434c-.05371-.88281-.042-2.416,2.44434-2.55273l-.07227-1.18359a2.46654,2.46654,0,0,0-2.59863,1.7373Z" transform="translate(-19.22473 -141.99363)"/><path class="cls-4" d="M118.75635,240.06192c-1.36231.083-2.65625,1.03516-2.499,3.60938.12891,2.09667,1.27832,3.69335,3.31446,3.56835a2.63792,2.63792,0,0,0,2.22265-1.48828l.26758,1.18653.92871-.05664-.623-10.18067-1.19727.07324.27832,4.55079A2.86958,2.86958,0,0,0,118.75635,240.06192Zm2.82422,3.419a2.18321,2.18321,0,0,1-1.958,2.62988c-1.06348.06543-1.96582-.45117-2.09375-2.53223-.08008-1.31836.293-2.332,1.61133-2.41308A2.3046,2.3046,0,0,1,121.58057,243.48087Z" transform="translate(-19.22473 -141.99363)"/><path class="cls-4" d="M124.91162,244.86954a2.02679,2.02679,0,0,0,2.28027,1.90429,3.0477,3.0477,0,0,0,2.51856-1.582l.28711,1.26075.89844-.05469-.09864-4.06739c-.05175-1.8291-1.18554-2.918-3.2207-2.793a4.586,4.586,0,0,0-2.585.98535l.07812,1.28711a3.79113,3.79113,0,0,1,2.48438-1.14453c1.168-.07129,1.87207.38183,2.05566,1.40722l-2.82617.72852C125.51123,243.13516,124.85205,243.8959,124.91162,244.86954Zm4.77344-1.81055.01269.21a2.52639,2.52639,0,0,1-2.31054,2.51563,1.03276,1.03276,0,0,1-1.2041-1.00879c-.03321-.55371.248-.85547,1.23925-1.11133Z" transform="translate(-19.22473 -141.99363)"/><path class="cls-4" d="M134.20557,240.8002l-.28711-1.5-.89844.05469.4209,6.88672,1.19824-.07324-.21484-3.50391a2.26673,2.26673,0,0,1,1.93457-2.52246,1.552,1.552,0,0,1,1.61914,1.64453l.2539,4.16211,1.19825-.07324-.27344-4.46192c-.10449-1.7207-1.05567-2.52051-2.55274-2.42871A2.65268,2.65268,0,0,0,134.20557,240.8002Z" transform="translate(-19.22473 -141.99363)"/><path class="cls-4" d="M141.05908,240.57657c.06738,1.09277.84766,1.57031,2.05274,1.85742l.90039.21582c1.05175.251,1.3457.38281,1.37695.90625.042.67383-.68262,1.10938-1.55176,1.16309a3.94522,3.94522,0,0,1-2.44629-.67676l.07227,1.168a4.33387,4.33387,0,0,0,2.51269.53711c1.31739-.08008,2.624-.82129,2.53614-2.25977-.07325-1.19629-1.01367-1.58984-1.99024-1.831l-.82422-.20508c-1.18945-.28809-1.47461-.52539-1.50488-1.01953-.02637-.43457.44922-.76465,1.27246-.81543a5.025,5.025,0,0,1,2.4961.50976l-.07032-1.13769a5.43881,5.43881,0,0,0-2.44433-.42188C142.144,238.6459,140.981,239.28848,141.05908,240.57657Z" transform="translate(-19.22473 -141.99363)"/><path class="cls-4" d="M152.49707,238.16348l-.89746.05567.4209,6.88672,1.19726-.07325-.20312-3.32422c-.07031-1.15234.46875-2.65918,1.77148-2.73828.98731-.06054,1.47266.73633,1.53516,1.75586l.25,4.10157,1.19824-.07325-.21191-3.47363c-.06348-1.0332.39941-2.5498,1.749-2.58789,1.11035-.03711,1.39258.89258,1.44434,1.74609l.25195,4.11719,1.19824-.07324-.25879-4.22168c-.11914-1.96094-.84277-2.72949-2.37109-2.65039a2.49223,2.49223,0,0,0-2.30176,2.16894,2.10513,2.10513,0,0,0-2.34082-1.916,2.38557,2.38557,0,0,0-2.07812,2.14062Z" transform="translate(-19.22473 -141.99363)"/><path class="cls-4" d="M164.13184,239.42032a3.78842,3.78842,0,0,1,2.48437-1.14356c1.168-.07129,1.87109.38086,2.05469,1.40723l-2.82617.72852c-1.27149.334-1.93164,1.09472-1.87207,2.06836a2.02678,2.02678,0,0,0,2.28027,1.90429,3.0498,3.0498,0,0,0,2.51855-1.582l.28809,1.25977.89746-.05469-.09765-4.06641c-.05274-1.83008-1.18555-2.918-3.22168-2.79394a4.58954,4.58954,0,0,0-2.584.98535Zm4.62695,1.46a2.52564,2.52564,0,0,1-2.31055,2.51562,1.03193,1.03193,0,0,1-1.20312-1.00878c-.03418-.55372.24707-.85645,1.23828-1.11133l2.26269-.60547Z" transform="translate(-19.22473 -141.99363)"/><path class="cls-4" d="M178.85352,236.40079a2.38558,2.38558,0,0,0-2.07813,2.14062l-.35254-1.84082-.89746.05469.4209,6.88672,1.19629-.07324-.20313-3.32422c-.07031-1.15235.46875-2.65821,1.77246-2.73828.98731-.06055,1.47168.73632,1.53418,1.75586l.251,4.10156,1.19824-.07324-.21289-3.47364c-.0625-1.0332.40039-2.5498,1.75-2.58691,1.11035-.03711,1.3916.89258,1.44336,1.74609l.25195,4.11719,1.19825-.07324-.25879-4.22168c-.11914-1.96094-.84278-2.72949-2.3711-2.65137a2.49134,2.49134,0,0,0-2.30078,2.16895A2.10635,2.10635,0,0,0,178.85352,236.40079Z" transform="translate(-19.22473 -141.99363)"/><path class="cls-4" d="M187.97852,236.67032l.07812,1.28711a3.79611,3.79611,0,0,1,2.48535-1.14453c1.168-.07129,1.87012.38183,2.05371,1.4082l-2.82519.72852c-1.27246.333-1.93164,1.09375-1.87207,2.06738a2.02481,2.02481,0,0,0,2.27929,1.9043,3.04773,3.04773,0,0,0,2.51856-1.582l.28809,1.26075.89746-.05469-.09766-4.06738c-.05273-1.82911-1.18555-2.918-3.22168-2.793A4.57966,4.57966,0,0,0,187.97852,236.67032Zm4.70507,2.74707a2.524,2.524,0,0,1-2.31054,2.51465,1.03076,1.03076,0,0,1-1.20313-1.00782c-.03418-.55371.24707-.85644,1.23926-1.1123l2.26172-.60449Z" transform="translate(-19.22473 -141.99363)"/><rect class="cls-4" x="196.21617" y="235.4593" width="1.1995" height="6.89957" transform="translate(-33.44537 -129.53018) rotate(-3.50068)"/><rect class="cls-4" x="195.80295" y="232.76979" width="1.34918" height="1.20048" transform="translate(-33.09681 -129.57163) rotate(-3.49784)"/><path class="cls-4" d="M202.18262,241.15079a3.94237,3.94237,0,0,1-2.44532-.67676l.07129,1.168a4.33571,4.33571,0,0,0,2.51172.53711c1.31836-.08106,2.625-.82129,2.53711-2.25977-.07324-1.19629-1.01367-1.58984-1.99023-1.83105l-.82422-.20508c-1.18945-.28809-1.47461-.52539-1.50488-1.01953-.02637-.43457.44921-.76465,1.27246-.81543a5.02278,5.02278,0,0,1,2.49609.50976l-.06934-1.13769a5.44759,5.44759,0,0,0-2.44628-.42188c-1.30176.07911-2.46485.72168-2.38672,2.00977.06738,1.09277.84863,1.57031,2.05175,1.85742l.9004.21582c1.05273.251,1.3457.38281,1.37793.90625C203.77539,240.66153,203.05176,241.09708,202.18262,241.15079Z" transform="translate(-19.22473 -141.99363)"/><path class="cls-4" d="M209.73145,241.726c1.78222-.10937,3.15722-1.71191,3.01953-3.957-.13379-2.18555-1.36328-3.35742-3.459-3.22949-1.97656.12109-3.18164,1.291-3.03906,3.627C206.37988,240.24747,207.81543,241.84317,209.73145,241.726Zm-.3711-6.06347c1.4375-.08789,2.02149.62793,2.11719,2.18457.08789,1.4375-.45313,2.67382-1.81445,2.75683-1.22852.0752-2.03907-.89844-2.1377-2.51465C207.43262,236.57657,207.89355,235.75235,209.36035,235.66251Z" transform="translate(-19.22473 -141.99363)"/><path class="cls-4" d="M216.26465,241.17618l-.21485-3.50391a2.267,2.267,0,0,1,1.93458-2.52246,1.55278,1.55278,0,0,1,1.62011,1.64453l.25489,4.16211,1.19628-.07324-.27343-4.46191c-.1045-1.72071-1.05469-2.52051-2.55176-2.42872A2.65162,2.65162,0,0,0,215.832,235.808l-.28711-1.5-.89746.05469.4209,6.88672Z" transform="translate(-19.22473 -141.99363)"/><path class="cls-4" d="M229.749,240.50137a3.87047,3.87047,0,0,0,2.3916-.94238l-.06542-1.06348a3.40234,3.40234,0,0,1-2.2461.875,2.01881,2.01881,0,0,1-2.28125-1.94921l4.68555-.28711c.165-2.20411-.73926-3.95313-3.11914-3.80762-2.09571.1289-3,1.80664-2.88574,3.66308C226.37793,239.44473,227.98145,240.60977,229.749,240.50137Zm-.53515-6.05371c1.19726-.07324,1.7207.63184,1.832,1.708l-3.54883.2168A1.79914,1.79914,0,0,1,229.21387,234.44766Z" transform="translate(-19.22473 -141.99363)"/><path class="cls-4" d="M235.69824,239.9877l-.21484-3.5039a2.267,2.267,0,0,1,1.93457-2.52247,1.55149,1.55149,0,0,1,1.61914,1.64454l.25488,4.1621,1.19727-.07324-.27344-4.46191c-.10449-1.7207-1.05469-2.52051-2.55176-2.42871a2.65447,2.65447,0,0,0-2.39941,1.81445l-.28613-1.499-.89747.05468.4209,6.88672Z" transform="translate(-19.22473 -141.99363)"/><path class="cls-4" d="M57.21924,269.08829c1.7959-.14063,3.24707-1.22168,3.11133-2.94141-.10743-1.27051-1.09571-1.94629-2.459-2.374l-1.45605-.4668c-1.01074-.31348-1.625-.75684-1.68457-1.49023-.06348-.792.56152-1.38575,1.80175-1.49219a6.69035,6.69035,0,0,1,2.91309.45312l-.07031-1.15332a6.1851,6.1851,0,0,0-2.9541-.38964c-1.89942.1455-3.09571,1.22656-2.97657,2.67578a2.98733,2.98733,0,0,0,2.43653,2.49609l1.54687.47559c1.11914.35254,1.58692.88086,1.63477,1.41894.081,1.07617-.69824,1.60547-1.88086,1.69238a4.92173,4.92173,0,0,1-3.125-.74023l.07715,1.25781A5.588,5.588,0,0,0,57.21924,269.08829Z" transform="translate(-19.22473 -141.99363)"/><path class="cls-4" d="M64.73,261.41544c-2.0957.12793-3,1.80664-2.88672,3.66211.15039,2.45507,1.75391,3.62011,3.52051,3.51171a3.8803,3.8803,0,0,0,2.39258-.9414l-.06543-1.06348a3.4,3.4,0,0,1-2.24512.873,2.02068,2.02068,0,0,1-2.28418-1.94922l4.68652-.28613C68.01416,263.017,67.11084,261.26993,64.73,261.41544Zm-1.61719,3.04394c.08985-1.2373.74317-1.86328,1.71582-1.92285,1.19727-.07324,1.72168.63086,1.832,1.706Z" transform="translate(-19.22473 -141.99363)"/><rect class="cls-4" x="69.49094" y="258.52955" width="1.34918" height="1.1995" transform="translate(-34.91634 -137.22577) rotate(-3.50068)"/><rect class="cls-4" x="69.90416" y="261.21905" width="1.20097" height="6.89862" transform="translate(-35.22813 -137.20332) rotate(-3.49499)"/><path class="cls-4" d="M74.62354,262.47794l-.28711-1.499-.89844.05469.42187,6.88574,1.19727-.07324-.21387-3.50293a2.26544,2.26544,0,0,1,1.9336-2.52246,1.55068,1.55068,0,0,1,1.61914,1.64355l.25488,4.16211,1.19726-.07324-.27246-4.46094c-.10547-1.72168-1.05664-2.5205-2.55371-2.42871A2.65047,2.65047,0,0,0,74.62354,262.47794Z" transform="translate(-19.22473 -141.99363)"/><path class="cls-4" d="M81.57666,263.87051c.15039,2.45508,1.75391,3.62012,3.52051,3.5127a3.88254,3.88254,0,0,0,2.39258-.94238l-.06543-1.06348a3.40245,3.40245,0,0,1-2.2461.87305,2.01977,2.01977,0,0,1-2.2832-1.94922l4.68652-.28613c.165-2.20508-.7373-3.95215-3.11816-3.80665C82.36768,260.33633,81.46338,262.015,81.57666,263.87051Zm4.81738-.835-3.54785.2168c.08985-1.2373.74219-1.86328,1.71582-1.92285C85.75928,261.25626,86.28369,261.96036,86.394,263.03555Z" transform="translate(-19.22473 -141.99363)"/><rect class="cls-4" x="89.65295" y="261.9164" width="4.06422" height="1.05081" transform="translate(-35.14944 -135.87581) rotate(-3.51655)"/><path class="cls-4" d="M98.8208,259.33047c-2.0957.12793-3,1.80665-2.88672,3.66211.15039,2.45508,1.75391,3.62012,3.52051,3.51172a3.88306,3.88306,0,0,0,2.39258-.9414l-.06543-1.06348a3.40243,3.40243,0,0,1-2.2461.87305,2.02033,2.02033,0,0,1-2.2832-1.94922l4.68652-.28613C102.105,260.932,101.20166,259.185,98.8208,259.33047Zm-1.61719,3.04395c.08985-1.2373.74219-1.86328,1.71582-1.92285,1.19727-.07324,1.72168.63086,1.832,1.70605Z" transform="translate(-19.22473 -141.99363)"/><path class="cls-4" d="M104.42139,263.91641c.083,1.36328.82812,2.23438,2.085,2.15723a2.16872,2.16872,0,0,0,1.51074-.61914l-.05859-.94336a2.19558,2.19558,0,0,1-1.20411.43457c-.61523.03809-1.08593-.29395-1.14746-1.31152l-.21875-3.57813,2.54493-.15625-.05957-.97266-2.54493.15625-.09277-1.51367-.7041.043a2.51488,2.51488,0,0,1-1.69824,1.96777l.03906.62891,1.31738-.08008Z" transform="translate(-19.22473 -141.99363)"/><rect class="cls-4" x="109.86486" y="260.68007" width="4.06422" height="1.05081" transform="translate(-34.95799 -134.67741) rotate(-3.49904)"/><polygon class="cls-4" points="98.602 118.248 98.367 116.354 98.441 116.35 101.572 121.839 102.499 121.782 104.939 115.952 105.013 115.947 104.995 117.857 105.299 122.827 106.571 122.749 105.985 113.168 104.997 113.228 102.285 119.24 101.962 120.116 101.903 120.119 101.476 119.29 98.05 113.653 97.047 113.715 97.633 123.296 98.906 123.218 98.602 118.248"/><path class="cls-4" d="M130.42627,257.39688a4.59982,4.59982,0,0,0-2.585.98438l.0791,1.28808a3.78849,3.78849,0,0,1,2.48438-1.14355c1.168-.07129,1.87207.38086,2.05566,1.40722l-2.82617.72852c-1.27246.333-1.93164,1.09473-1.87207,2.06836a2.02627,2.02627,0,0,0,2.28027,1.9043,3.048,3.048,0,0,0,2.51758-1.582l.28808,1.25977.89844-.05566-.09863-4.06543C133.59619,258.36075,132.4624,257.27286,130.42627,257.39688Zm-.18945,6.248a1.03239,1.03239,0,0,1-1.20313-1.00879c-.03418-.55371.24805-.85645,1.23926-1.11133l2.26269-.60547.0127.209A2.52672,2.52672,0,0,1,130.23682,263.64493Z" transform="translate(-19.22473 -141.99363)"/><path class="cls-4" d="M139.72217,258.03165l-.07227-1.1836a2.46585,2.46585,0,0,0-2.59863,1.73633l-.28223-1.42383-.89843.05469.42089,6.88574,1.19727-.07324-.21-3.44336C137.2251,259.70157,137.23584,258.16739,139.72217,258.03165Z" transform="translate(-19.22473 -141.99363)"/><path class="cls-4" d="M147.44189,258.94083c-.10546-1.72168-1.05566-2.51953-2.55273-2.42871a2.6516,2.6516,0,0,0-2.39844,1.81543l-.28711-1.5-.89843.05468.42089,6.88574,1.19825-.07324-.21387-3.50293a2.26523,2.26523,0,0,1,1.93457-2.52246,1.55067,1.55067,0,0,1,1.61719,1.64356l.25488,4.16211,1.19824-.07325Z" transform="translate(-19.22473 -141.99363)"/><path class="cls-4" d="M155.29,261.226a3.40081,3.40081,0,0,1-2.24512.874,2.01993,2.01993,0,0,1-2.2832-1.94922l4.68555-.28711c.166-2.2041-.73731-3.95215-3.11817-3.80664-2.0957.1289-2.999,1.80664-2.88574,3.66211.15039,2.45507,1.75293,3.62109,3.52051,3.51269a3.86776,3.86776,0,0,0,2.3916-.94238Zm-2.86133-4.04687c1.19727-.07324,1.7207.63086,1.832,1.70605l-3.54785.2168A1.796,1.796,0,0,1,152.42871,257.17911Z" transform="translate(-19.22473 -141.99363)"/><rect class="cls-4" x="156.77491" y="261.44934" width="1.57518" height="1.34918" transform="translate(-34.85953 -131.93633) rotate(-3.48327)"/><path class="cls-4" d="M171.49414,256.86954c-.13769-2.2461-1.07031-4.47364-4.88769-4.23926l-2.91895.17773.58594,9.58106,2.48437-.15137A4.7238,4.7238,0,0,0,171.49414,256.86954Zm-4.68262,4.26758-1.333.082-.45313-7.39551,1.43848-.08789c2.22949-.13672,3.52343.61035,3.68457,3.24512C170.27832,259.10684,169.38672,260.97989,166.81152,261.13712Z" transform="translate(-19.22473 -141.99363)"/><path class="cls-4" d="M179.23633,257.40274c-.05176-1.83008-1.18555-2.918-3.22168-2.79394a4.59644,4.59644,0,0,0-2.584.98437l.07911,1.28809a3.786,3.786,0,0,1,2.48437-1.14356c1.168-.07129,1.87109.38086,2.05371,1.40723l-2.82519.72851c-1.27246.333-1.93262,1.09473-1.873,2.06836a2.02626,2.02626,0,0,0,2.28027,1.9043,3.047,3.047,0,0,0,2.51856-1.583l.28808,1.25977.89746-.05469Zm-3.41113,3.4541a1.03194,1.03194,0,0,1-1.20313-1.00879c-.03418-.55371.24707-.85644,1.23828-1.1123l2.2627-.60449.01269.209A2.52587,2.52587,0,0,1,175.8252,260.85684Z" transform="translate(-19.22473 -141.99363)"/><path class="cls-4" d="M184.79785,255.21329a1.55167,1.55167,0,0,1,1.61817,1.64453l.25488,4.16211,1.19726-.07324-.27246-4.46094c-.10547-1.72168-1.05566-2.52051-2.55371-2.42871a2.65049,2.65049,0,0,0-2.39844,1.81445l-.28613-1.5-.89844.05566.4209,6.88575,1.19727-.07325-.21387-3.50293A2.26764,2.26764,0,0,1,184.79785,255.21329Z" transform="translate(-19.22473 -141.99363)"/><path class="cls-4" d="M189.499,255.64786c.06641,1.09277.84766,1.57031,2.05078,1.85742l.9004.21582c1.05273.251,1.3457.38379,1.37792.90723.041.67382-.68261,1.10937-1.55175,1.16211a3.93608,3.93608,0,0,1-2.44532-.67676l.07129,1.167a4.31854,4.31854,0,0,0,2.51172.53809c1.31836-.08008,2.625-.82129,2.53711-2.25879-.07324-1.19727-1.01367-1.59082-1.99023-1.83106l-.82422-.207c-1.18945-.28613-1.47461-.52539-1.50488-1.01953-.02637-.43457.44921-.76367,1.27246-.81348a5.01168,5.01168,0,0,1,2.49609.50879l-.06934-1.13769a5.46092,5.46092,0,0,0-2.44628-.42188C190.583,253.71817,189.41992,254.36075,189.499,255.64786Z" transform="translate(-19.22473 -141.99363)"/><path class="cls-4" d="M203.38867,260.14786a3.64155,3.64155,0,0,0,2.10156-.77539l-.0664-1.09278a3.50367,3.50367,0,0,1-2.05762.75684c-1.18359.07227-2.19336-.72168-2.30371-2.51953-.09277-1.51172.44238-2.35449,1.71582-2.43262a4.42948,4.42948,0,0,1,2.50195.61231l-.06933-1.123a4.36427,4.36427,0,0,0-2.501-.59766c-1.79687.11035-3.06152,1.28418-2.91894,3.61914C199.918,258.67618,201.21777,260.28067,203.38867,260.14786Z" transform="translate(-19.22473 -141.99363)"/><path class="cls-4" d="M209.83594,252.54044c-2.09571.12793-2.999,1.80664-2.88574,3.66211.15039,2.45507,1.75292,3.62011,3.5205,3.51269a3.879,3.879,0,0,0,2.3916-.94238l-.06542-1.06348a3.40052,3.40052,0,0,1-2.2461.873,2.01846,2.01846,0,0,1-2.28223-1.94922l4.68555-.28613C213.12012,254.142,212.21582,252.39493,209.83594,252.54044Zm-1.61719,3.04394a1.79791,1.79791,0,0,1,1.7168-1.92285c1.19824-.07324,1.72168.63086,1.832,1.70605Z" transform="translate(-19.22473 -141.99363)"/><path class="cls-4" d="M215.20508,253.33926l.23144,3.78711c.083,1.36328.82715,2.23438,2.085,2.15723a2.16826,2.16826,0,0,0,1.51075-.61914l-.0586-.94336a2.19085,2.19085,0,0,1-1.20605.43457c-.61231.03809-1.085-.29395-1.14649-1.31152l-.21875-3.57813,2.5459-.15527-.05957-.97266-2.5459.15528-.09277-1.51368-.70312.043a2.51435,2.51435,0,0,1-1.69922,1.96778l.03906.6289Z" transform="translate(-19.22473 -141.99363)"/><path class="cls-4" d="M220.041,253.04337l1.31738-.08008.23144,3.78711c.083,1.36328.82813,2.2334,2.085,2.15722a2.17248,2.17248,0,0,0,1.51075-.61914l-.0586-.94336a2.206,2.206,0,0,1-1.20507.43457c-.61329.03711-1.085-.29394-1.14649-1.31152l-.21875-3.57812,2.54492-.15625-.05957-.97266-2.54492.15625-.09277-1.51367-.7041.043a2.51329,2.51329,0,0,1-1.69825,1.96777Z" transform="translate(-19.22473 -141.99363)"/><path class="cls-4" d="M229.2998,251.35c-2.0957.12793-2.999,1.80664-2.88574,3.66211.15039,2.45507,1.75293,3.62011,3.51953,3.51269a3.87391,3.87391,0,0,0,2.39258-.94238l-.06543-1.06348a3.40243,3.40243,0,0,1-2.24609.873,2.01846,2.01846,0,0,1-2.28223-1.94922l4.68555-.28613C232.584,252.95157,231.67969,251.2045,229.2998,251.35Zm-1.61718,3.04394a1.79731,1.79731,0,0,1,1.71679-1.92285c1.19727-.07324,1.72071.63086,1.83106,1.70605Z" transform="translate(-19.22473 -141.99363)"/><path class="cls-4" d="M60.19678,284.83536c-.07324-1.19727-1.01367-1.59082-1.99024-1.83106l-.82422-.20605c-1.19043-.28711-1.47461-.52539-1.50488-1.01953-.02734-.43457.44922-.76367,1.27246-.81348a5.00525,5.00525,0,0,1,2.49512.50781l-.06934-1.13769a5.44371,5.44371,0,0,0-2.44531-.4209c-1.30273.0791-2.46484.7207-2.38574,2.00879.06641,1.09277.84668,1.57031,2.05176,1.85742l.89941.2168c1.05274.25,1.3457.38379,1.37793.90722.041.67286-.68359,1.1084-1.55176,1.16211a3.93952,3.93952,0,0,1-2.44629-.67773l.07129,1.168a4.33048,4.33048,0,0,0,2.51367.53808C58.978,287.015,60.28467,286.27286,60.19678,284.83536Z" transform="translate(-19.22473 -141.99363)"/><polygon class="cls-4" points="47.069 134.655 45.376 134.759 44.777 136.749 45.301 136.717 47.069 134.655"/><path class="cls-4" d="M61.59521,283.12637c.1504,2.45508,1.75391,3.6211,3.52051,3.5127a3.86144,3.86144,0,0,0,2.3916-.94336l-.06445-1.06348a3.40616,3.40616,0,0,1-2.24609.875,2.02145,2.02145,0,0,1-2.28321-1.94922l4.68555-.28711c.166-2.2041-.7373-3.95214-3.11816-3.80664C62.38525,279.59317,61.48193,281.26993,61.59521,283.12637Zm2.98536-2.542c1.19726-.07324,1.72168.63184,1.832,1.708l-3.54785.2168C62.95361,281.2709,63.60693,280.644,64.58057,280.58438Z" transform="translate(-19.22473 -141.99363)"/><path class="cls-4" d="M71.06592,286.12442l-.21094-3.44336c-.05371-.88379-.043-2.418,2.44336-2.55371l-.07227-1.18359a2.46728,2.46728,0,0,0-2.59863,1.7373l-.28223-1.4248-.89843.05468.4209,6.88672Z" transform="translate(-19.22473 -141.99363)"/><rect class="cls-4" x="74.67746" y="276.24537" width="1.34918" height="1.20048" transform="translate(-35.97493 -136.8806) rotate(-3.49784)"/><rect class="cls-4" x="75.09068" y="278.93587" width="1.20048" height="6.89957" transform="translate(-36.31029 -136.85028) rotate(-3.49742)"/><path class="cls-4" d="M81.26514,278.4379c-2.09571.12793-3,1.80566-2.88672,3.66211.15039,2.45507,1.75488,3.62109,3.52148,3.51269a3.86418,3.86418,0,0,0,2.3916-.94336l-.06543-1.06347a3.40871,3.40871,0,0,1-2.24511.875,2.02181,2.02181,0,0,1-2.28418-1.94922l4.68652-.28711C84.54932,280.03946,83.646,278.29239,81.26514,278.4379ZM79.648,281.48282c.08984-1.23926.74219-1.86524,1.71582-1.92481,1.19727-.07324,1.72168.63184,1.832,1.708Z" transform="translate(-19.22473 -141.99363)"/><path class="cls-4" d="M91.92432,277.77188c-1.36231.083-2.65723,1.0332-2.499,3.60742.12793,2.09668,1.27735,3.69532,3.31446,3.57032a2.64052,2.64052,0,0,0,2.22265-1.48926l.26758,1.18652.92871-.05762-.62305-10.17968-1.19726.07324.27832,4.55078A2.869,2.869,0,0,0,91.92432,277.77188Zm2.82422,3.418a2.18466,2.18466,0,0,1-1.959,2.62988c-1.0625.06446-1.96484-.45117-2.09277-2.53222-.08008-1.31739.293-2.333,1.61035-2.41309A2.30487,2.30487,0,0,1,94.74854,281.18985Z" transform="translate(-19.22473 -141.99363)"/><path class="cls-4" d="M100.92334,277.23575c-2.0957.12793-3,1.80566-2.88672,3.66211.15039,2.45508,1.75488,3.62109,3.52149,3.51269a3.86423,3.86423,0,0,0,2.3916-.94336l-.06543-1.06347a3.40927,3.40927,0,0,1-2.2461.875,2.02146,2.02146,0,0,1-2.2832-1.94922l4.68652-.28711C104.20752,278.83731,103.3042,277.09024,100.92334,277.23575Zm-1.61719,3.04492c.08985-1.23926.74219-1.86523,1.71582-1.9248,1.19727-.07325,1.72168.63183,1.832,1.707Z" transform="translate(-19.22473 -141.99363)"/><path class="cls-4" d="M109.8999,286.15274l1.19727-.07324-.21875-3.57715a2.66153,2.66153,0,0,0,2.38672,1.19238c2.03613-.125,2.98242-1.85156,2.85449-3.94824-.1582-2.57422-1.55762-3.35937-2.91992-3.27637a2.85519,2.85519,0,0,0-2.57129,1.70508l-.249-1.36816-1.04785.06445Zm3.04883-8.61523c1.31738-.08106,1.8916.95019,1.97266,2.26757.12695,2.08106-.77735,2.78321-1.83985,2.84766-1.87109.11426-2.21972-1.65234-2.26855-2.44531A2.36732,2.36732,0,0,1,112.94873,277.53751Z" transform="translate(-19.22473 -141.99363)"/><path class="cls-4" d="M119.7085,283.14981l-.21387-3.50293a2.28015,2.28015,0,0,1,1.93359-2.53906,1.492,1.492,0,0,1,1.61426,1.56933l.25977,4.252,1.19726-.07324-.27246-4.46094c-.10547-1.72168-1.05566-2.51953-2.55371-2.42871a2.5816,2.5816,0,0,0-2.30664,1.59961l-.28027-4.59571-1.19727.07325.62207,10.17968Z" transform="translate(-19.22473 -141.99363)"/><path class="cls-4" d="M129.26416,275.50235c-1.97559.12109-3.18164,1.291-3.03809,3.627.127,2.08106,1.5625,3.67676,3.47852,3.55957,1.78125-.1084,3.15527-1.71093,3.01855-3.957C132.58936,276.5463,131.35986,275.37442,129.26416,275.50235Zm.37109,6.06348c-1.22754.07519-2.03808-.89746-2.13671-2.51465-.09278-1.51172.36718-2.33692,1.835-2.42676,1.43652-.08789,2.02148.62793,2.11718,2.18457C131.53857,280.24649,130.99756,281.48282,129.63525,281.56583Z" transform="translate(-19.22473 -141.99363)"/><path class="cls-4" d="M133.6665,275.72891l.03809.62793,1.31738-.08008.23145,3.78809c.084,1.36328.8291,2.23437,2.08594,2.15723a2.162,2.162,0,0,0,1.50976-.61914l-.05762-.94336a2.18814,2.18814,0,0,1-1.20507.43457c-.61426.03808-1.085-.29395-1.14747-1.31153l-.21875-3.5791,2.54493-.15625-.05957-.97265-2.54493.15625-.09277-1.5127-.70312.043A2.51653,2.51653,0,0,1,133.6665,275.72891Z" transform="translate(-19.22473 -141.99363)"/><path class="cls-4" d="M146.58643,277.88321c-.13379-2.18555-1.36231-3.35645-3.458-3.22852-1.97656.1211-3.18164,1.29-3.03906,3.626.12695,2.08105,1.5625,3.67773,3.47851,3.56055C145.34912,281.73184,146.72412,280.1293,146.58643,277.88321Zm-5.22461.32031c-.09278-1.51172.36816-2.33691,1.835-2.42676,1.4375-.08789,2.02246.62793,2.11718,2.18457.0879,1.4375-.45214,2.67383-1.81445,2.75684C142.272,280.79337,141.46045,279.82071,141.36182,278.20352Z" transform="translate(-19.22473 -141.99363)"/><path class="cls-4" d="M153.58984,279.12344c-.07324-1.19726-1.01367-1.59082-1.99023-1.83105l-.82324-.20606c-1.19043-.28711-1.47559-.52539-1.50586-1.01953-.02637-.43457.44922-.76367,1.27344-.81445a5.02064,5.02064,0,0,1,2.49511.50879l-.06933-1.1377a5.44629,5.44629,0,0,0-2.44532-.42089c-1.30273.0791-2.46533.7207-2.38623,2.00878.06641,1.09278.84766,1.57032,2.05127,1.85743l.89942.21679c1.05273.25,1.34668.38282,1.3789.90625.041.67285-.68457,1.10938-1.55273,1.16309a3.94055,3.94055,0,0,1-2.44483-.67774l.07129,1.168a4.31924,4.31924,0,0,0,2.51221.53809C152.37109,281.30215,153.67773,280.56094,153.58984,279.12344Z" transform="translate(-19.22473 -141.99363)"/><path class="cls-4" d="M155.35547,280.96915l.76465-.04688a5.27533,5.27533,0,0,1-.67188,1.5586l.97949.542a5.997,5.997,0,0,0,.56739-3.50586l-1.72168.10547Z" transform="translate(-19.22473 -141.99363)"/><rect class="cls-4" x="162.70494" y="273.57648" width="1.19902" height="6.8996" transform="translate(-35.82017 -131.51552) rotate(-3.49742)"/><rect class="cls-4" x="162.29123" y="270.88697" width="1.34918" height="1.20048" transform="translate(-35.4848 -131.54519) rotate(-3.49784)"/><polygon class="cls-4" points="148.647 138.21 148.01 128.031 146.812 128.104 147.449 138.283 148.647 138.21"/><path class="cls-4" d="M177.66211,272.69278l-1.45117,5.52832-.05957.00391-.44629-1.16114-1.96582-4.13183-1.27344.07812,3.24512,6.6084c-.1709.89844-.46973,1.667-1.47266,1.72852a2.02566,2.02566,0,0,1-1.23437-.27051l.05468.89844a2.02835,2.02835,0,0,0,1.24219.38964,2.45138,2.45138,0,0,0,2.41406-2.04l2.21875-7.71Z" transform="translate(-19.22473 -141.99363)"/><path class="cls-4" d="M183.74609,277.34024a2.02769,2.02769,0,0,0,2.28125,1.9043,3.04587,3.04587,0,0,0,2.51758-1.584l.28809,1.26075.89746-.05469-.09766-4.06543c-.05176-1.83106-1.18554-2.918-3.22168-2.79395a4.59648,4.59648,0,0,0-2.584.98438l.0791,1.28711a3.78844,3.78844,0,0,1,2.48437-1.14356c1.168-.07129,1.8711.38086,2.05372,1.40723l-2.8252.72851C184.34668,275.60489,183.68652,276.36661,183.74609,277.34024Zm4.77344-1.81055.0127.209a2.5243,2.5243,0,0,1-2.30957,2.5166,1.03329,1.03329,0,0,1-1.20411-1.00879c-.03417-.55371.24805-.85742,1.23926-1.1123Z" transform="translate(-19.22473 -141.99363)"/><path class="cls-4" d="M197.90039,278.518a2.63218,2.63218,0,0,0,2.24707-1.80566l.28809,1.5.89746-.05566-.4209-6.88672-1.19727.07324.21387,3.50391c.05371.86816-.51074,2.45117-1.93359,2.53808-1.01856.0625-1.39844-.5166-1.46387-1.5791l-.25977-4.252-1.19824.07324.27246,4.46191C195.45117,277.81,196.40234,278.60977,197.90039,278.518Z" transform="translate(-19.22473 -141.99363)"/><path class="cls-4" d="M208.26562,273.55508l.25489,4.16211,1.19726-.07324-.27246-4.46094c-.10547-1.72168-1.05566-2.51953-2.55273-2.42871a2.65207,2.65207,0,0,0-2.39844,1.81446l-.28711-1.5-.89844.05468.4209,6.88672,1.19727-.07324-.21387-3.50293a2.26713,2.26713,0,0,1,1.93457-2.52344A1.55061,1.55061,0,0,1,208.26562,273.55508Z" transform="translate(-19.22473 -141.99363)"/><path class="cls-4" d="M219.52246,270.13223l-2.54492.15528-.09277-1.5127-.70313.043a2.51427,2.51427,0,0,1-1.69922,1.96875l.03906.62793,1.31836-.08106.23145,3.78809c.083,1.36328.82812,2.23438,2.08594,2.15723a2.16948,2.16948,0,0,0,1.50976-.61817l-.05761-.94336a2.21166,2.21166,0,0,1-1.207.43457c-.61328.03711-1.084-.29492-1.14648-1.3125l-.21875-3.5791,2.54492-.15527Z" transform="translate(-19.22473 -141.99363)"/><path class="cls-4" d="M225.14062,270.84024l-.07226-1.18359a2.46711,2.46711,0,0,0-2.59766,1.7373l-.2832-1.4248-.89746.05468.4209,6.88672,1.19726-.07324-.21093-3.44336C222.64355,272.51016,222.65527,270.977,225.14062,270.84024Z" transform="translate(-19.22473 -141.99363)"/><path class="cls-4" d="M226.52148,274.724a2.02681,2.02681,0,0,0,2.28028,1.9043,3.04726,3.04726,0,0,0,2.51758-1.583l.28808,1.25976.89746-.05468-.09765-4.06543c-.05176-1.83106-1.18555-2.918-3.22168-2.79395a4.59648,4.59648,0,0,0-2.584.98438l.0791,1.28711A3.78845,3.78845,0,0,1,229.165,270.519c1.168-.07129,1.87207.38086,2.05371,1.40723l-2.8252.72851C227.12109,272.98868,226.46191,273.7504,226.52148,274.724Zm4.77247-1.81055.01269.209a2.5243,2.5243,0,0,1-2.30957,2.5166,1.03328,1.03328,0,0,1-1.2041-1.00879c-.03418-.55371.249-.85742,1.23926-1.11231Z" transform="translate(-19.22473 -141.99363)"/><polygon class="cls-4" points="218.131 133.96 220.39 126.91 219.132 126.986 217.856 131.182 217.616 132.414 217.557 132.417 217.168 131.224 215.39 127.216 214.132 127.293 217.233 134.016 218.131 133.96"/><path class="cls-4" d="M240.68457,273.85782a2.02681,2.02681,0,0,0,2.28027,1.9043,3.04725,3.04725,0,0,0,2.51758-1.583l.28809,1.25976.89746-.05468-.09766-4.06543c-.05176-1.83106-1.18554-2.918-3.22168-2.79395a4.59648,4.59648,0,0,0-2.584.98438l.0791,1.28711a3.78844,3.78844,0,0,1,2.48437-1.14356c1.168-.07129,1.8711.38086,2.05372,1.40723l-2.8252.72851C241.28418,272.12247,240.625,272.88419,240.68457,273.85782Zm4.77246-1.81055.0127.209a2.52431,2.52431,0,0,1-2.30957,2.5166,1.03329,1.03329,0,0,1-1.20411-1.00879c-.03417-.55371.249-.85742,1.23926-1.11231Z" transform="translate(-19.22473 -141.99363)"/><rect class="cls-4" x="249.0023" y="268.29915" width="1.1995" height="6.89957" transform="translate(-35.35209 -126.24576) rotate(-3.50068)"/><rect class="cls-4" x="248.58908" y="265.60865" width="1.34918" height="1.20048" transform="translate(-35.002 -126.28992) rotate(-3.49784)"/><polygon class="cls-4" points="234.945 132.932 234.308 122.753 233.11 122.826 233.747 133.005 234.945 132.932"/><path class="cls-4" d="M61.47607,303.54141l.26758,1.18653.92871-.05664-.623-10.18067-1.19727.07324.27832,4.55176A2.8683,2.8683,0,0,0,58.438,297.852c-1.36231.083-2.65625,1.03516-2.499,3.60937.12891,2.09668,1.27833,3.69336,3.31446,3.56836A2.63792,2.63792,0,0,0,61.47607,303.54141Zm-4.26562-2.17285c-.08008-1.31836.293-2.332,1.61035-2.41309a2.30544,2.30544,0,0,1,2.44141,2.31543c.04785.79395-.08692,2.51563-1.959,2.62989C58.24072,303.96622,57.33838,303.44962,57.21045,301.36856Z" transform="translate(-19.22473 -141.99363)"/><path class="cls-4" d="M68.07178,304.49063a3.87053,3.87053,0,0,0,2.3916-.94238l-.06543-1.06348a3.40236,3.40236,0,0,1-2.24609.875,2.02145,2.02145,0,0,1-2.28321-1.94922l4.68653-.28711c.166-2.2041-.73731-3.95312-3.11817-3.80761-2.0957.1289-3,1.80664-2.88574,3.66308C64.70068,303.434,66.30518,304.599,68.07178,304.49063Zm-.53614-6.05273c1.19727-.07325,1.72168.63183,1.832,1.707l-3.54786.21679C65.90967,299.12344,66.562,298.49649,67.53564,298.4379Z" transform="translate(-19.22473 -141.99363)"/><path class="cls-4" d="M81.29639,303.03555,81.23,301.94278a3.50932,3.50932,0,0,1-2.05762.75781c-1.18261.07227-2.19238-.72265-2.30273-2.51953-.0918-1.51172.44141-2.35644,1.71387-2.43359a4.40647,4.40647,0,0,1,2.50293.61328l-.06934-1.123a4.34659,4.34659,0,0,0-2.501-.59863c-1.79687.10937-3.0625,1.2832-2.91894,3.61914.12695,2.08105,1.42773,3.68457,3.59765,3.55273A3.63238,3.63238,0,0,0,81.29639,303.03555Z" transform="translate(-19.22473 -141.99363)"/><path class="cls-4" d="M89.25049,299.42325c-.13379-2.18555-1.36133-3.35742-3.458-3.22949-1.97559.12109-3.18164,1.291-3.03906,3.627.12793,2.08105,1.5625,3.67676,3.47851,3.55957C88.01416,303.2709,89.38818,301.66837,89.25049,299.42325Zm-3.08692,2.835c-1.22753.07519-2.03808-.89746-2.13769-2.51465-.0918-1.51172.36816-2.33691,1.835-2.42676,1.4375-.08789,2.02246.62793,2.11719,2.18457C88.06592,300.93887,87.52588,302.17422,86.16357,302.25821Z" transform="translate(-19.22473 -141.99363)"/><path class="cls-4" d="M92.76611,302.83047l-.21484-3.5039a2.26622,2.26622,0,0,1,1.93457-2.52246,1.55117,1.55117,0,0,1,1.61816,1.64453l.25489,4.16211,1.19726-.07324-.27246-4.46192c-.10547-1.7207-1.05566-2.52051-2.55273-2.42871a2.65053,2.65053,0,0,0-2.39844,1.81543l-.28809-1.5-.89843.05469.42187,6.88672Z" transform="translate(-19.22473 -141.99363)"/><path class="cls-4" d="M104.061,301.76309l-.05762-.94336a2.19,2.19,0,0,1-1.20508.43555c-.61426.03809-1.08594-.29492-1.14844-1.3125l-.21875-3.57813,2.5459-.15625-.05957-.97265-2.5459.15625-.09179-1.5127-.70313.043a2.51527,2.51527,0,0,1-1.69824,1.9668l.03808.6289,1.31739-.08007.23242,3.78808c.083,1.36231.82715,2.2334,2.085,2.15625A2.16391,2.16391,0,0,0,104.061,301.76309Z" transform="translate(-19.22473 -141.99363)"/><path class="cls-4" d="M109.53662,295.94376l-.07324-1.1836a2.46728,2.46728,0,0,0-2.59863,1.73731l-.28223-1.42481-.89844.05567.4209,6.88672,1.19824-.07325-.21-3.44433C107.03857,297.61465,107.05029,296.08047,109.53662,295.94376Z" transform="translate(-19.22473 -141.99363)"/><path class="cls-4" d="M115.71338,300.14883l.28808,1.26075.89844-.05469-.09765-4.06641c-.05274-1.83105-1.18653-2.91894-3.22168-2.79394a4.583,4.583,0,0,0-2.585.98535l.07812,1.28711a3.7894,3.7894,0,0,1,2.48535-1.14453c1.167-.07129,1.87207.38183,2.05469,1.40722l-2.82617.72852c-1.27149.334-1.93067,1.09473-1.8711,2.06836a2.02592,2.02592,0,0,0,2.2793,1.9043A3.04445,3.04445,0,0,0,115.71338,300.14883Zm-2.32227.59278a1.032,1.032,0,0,1-1.20312-1.00879c-.03418-.55371.24805-.85547,1.23828-1.11133l2.26269-.60547.0127.21A2.52565,2.52565,0,0,1,113.39111,300.74161Z" transform="translate(-19.22473 -141.99363)"/><path class="cls-4" d="M121.45752,300.18887a3.93886,3.93886,0,0,1-2.44629-.67675l.07129,1.168a4.33379,4.33379,0,0,0,2.51269.53711c1.31739-.08007,2.625-.82129,2.53711-2.25976-.07324-1.19629-1.01367-1.58985-1.99121-1.83106l-.82422-.20507c-1.18945-.28809-1.47363-.5254-1.5039-1.01954-.02735-.43457.44922-.76464,1.27246-.81445a5.00564,5.00564,0,0,1,2.49512.50879l-.06934-1.1377a5.44151,5.44151,0,0,0-2.44434-.42187c-1.30273.0791-2.46582.72168-2.38769,2.00977.06738,1.09277.84766,1.57031,2.05273,1.85742l.89942.21582c1.05176.251,1.3457.38281,1.37793.90625C123.05029,299.69962,122.32568,300.13516,121.45752,300.18887Z" transform="translate(-19.22473 -141.99363)"/><path class="cls-4" d="M126.71143,298.62051c.083,1.36231.82812,2.2334,2.08593,2.15625a2.15964,2.15964,0,0,0,1.50977-.61914l-.05762-.94336a2.18771,2.18771,0,0,1-1.206.43555c-.61328.03809-1.085-.29492-1.14746-1.3125l-.21875-3.57812,2.54589-.15528-.05957-.97265-2.54589.15527-.0918-1.5127-.7041.043a2.51059,2.51059,0,0,1-1.69824,1.9668l.03906.62891,1.31738-.08008Z" transform="translate(-19.22473 -141.99363)"/><path class="cls-4" d="M137.44678,299.45157l-.06543-1.06348a3.40671,3.40671,0,0,1-2.24512.875,2.02229,2.02229,0,0,1-2.28418-1.94922l4.68652-.28711c.166-2.2041-.7373-3.95312-3.11816-3.80761-2.0957.1289-3,1.80664-2.88574,3.66308.14941,2.45508,1.7539,3.62012,3.52051,3.51172A3.87053,3.87053,0,0,0,137.44678,299.45157Zm-2.92774-5.11133c1.19825-.07324,1.72168.63184,1.833,1.708l-3.54883.2168C132.89307,295.02579,133.54639,294.39981,134.519,294.34024Z" transform="translate(-19.22473 -141.99363)"/><path class="cls-4" d="M139.84619,302.07071a6.00144,6.00144,0,0,0,.56641-3.50684l-1.72168.10547.083,1.34766.76367-.04688a5.27034,5.27034,0,0,1-.67188,1.5586Z" transform="translate(-19.22473 -141.99363)"/><path class="cls-4" d="M147.83936,299.58243l-.42872-7.00684-1.19824.07324.43164,7.05079c.05274.86914-.18457,1.40918-.873,1.45117a1.845,1.845,0,0,1-.92579-.15332l.04395.71972a1.44676,1.44676,0,0,0,1.15234.40918C147.314,302.04922,147.9292,301.30411,147.83936,299.58243Z" transform="translate(-19.22473 -141.99363)"/><rect class="cls-4" x="146.00852" y="289.91627" width="1.35015" height="1.20048" transform="translate(-36.60468 -132.54485) rotate(-3.48327)"/><path class="cls-4" d="M150.65625,293.309a6.00591,6.00591,0,0,0,.56641-3.50586L149.5,289.9086l.083,1.34668.76367-.04688a5.22931,5.22931,0,0,1-.6709,1.55957Z" transform="translate(-19.22473 -141.99363)"/><path class="cls-4" d="M156.4502,299.08536a2.63248,2.63248,0,0,0,2.248-1.80469l.28711,1.5.89844-.05469-.42188-6.88672-1.19726.07325.21484,3.50293c.05274.86914-.51172,2.45117-1.93359,2.53808-1.01856.0625-1.39942-.5166-1.46485-1.5791l-.25976-4.25195-1.19824.07324.27343,4.46094C154.002,298.37833,154.95312,299.17715,156.4502,299.08536Z" transform="translate(-19.22473 -141.99363)"/><path class="cls-4" d="M166.33105,297.00821a2.20333,2.20333,0,0,1-1.207.43555c-.61328.03711-1.084-.2959-1.14648-1.31348l-.21875-3.57813,2.54492-.15527-.05957-.97266-2.54492.15528-.09277-1.5127-.70313.043a2.51145,2.51145,0,0,1-1.69922,1.96778l.03906.6289,1.31739-.08105.23242,3.78808c.083,1.36231.82812,2.2334,2.08594,2.15625a2.16522,2.16522,0,0,0,1.50976-.61816Z" transform="translate(-19.22473 -141.99363)"/><rect class="cls-4" x="167.80683" y="288.58277" width="1.35021" height="1.20048" transform="translate(-36.55416 -131.17569) rotate(-3.49784)"/><rect class="cls-4" x="168.22105" y="291.27278" width="1.1995" height="6.89957" transform="translate(-36.88944 -131.14605) rotate(-3.49742)"/><polygon class="cls-4" points="152.329 145.8 152.966 155.979 154.163 155.906 153.526 145.726 152.329 145.8"/><rect class="cls-4" x="175.30783" y="288.12428" width="1.34918" height="1.20048" transform="translate(-36.51221 -130.71893) rotate(-3.49784)"/><rect class="cls-4" x="175.72202" y="290.8138" width="1.19853" height="6.89957" transform="translate(-36.84747 -130.68934) rotate(-3.49742)"/><path class="cls-4" d="M184.3623,295.27383c-.07324-1.19628-1.01367-1.58984-1.99023-1.831l-.82422-.20508c-1.18847-.28808-1.47461-.52539-1.50488-1.01953-.02637-.43457.44922-.76465,1.27344-.81543a5.0211,5.0211,0,0,1,2.49511.50977l-.06933-1.1377a5.45421,5.45421,0,0,0-2.44434-.42285c-1.30273.08008-2.4668.72266-2.38769,2.01074.0664,1.09277.84765,1.57031,2.05273,1.85742l.89844.21582c1.05273.251,1.34668.38282,1.37793.90625.042.67383-.68262,1.10938-1.55078,1.16309a3.94331,3.94331,0,0,1-2.44629-.67676l.07129,1.168a4.34739,4.34739,0,0,0,2.51269.53711C183.14453,297.45255,184.4502,296.71231,184.3623,295.27383Z" transform="translate(-19.22473 -141.99363)"/><path class="cls-4" d="M188.64746,289.90274c-2.0957.12793-3,1.80664-2.88672,3.66309.15039,2.45507,1.75391,3.62011,3.52149,3.51172a3.86161,3.86161,0,0,0,2.39062-.94239l-.06543-1.06347a3.40485,3.40485,0,0,1-2.24512.875,2.02014,2.02014,0,0,1-2.28222-1.94922l4.68554-.28711C191.93066,291.50528,191.02832,289.75723,188.64746,289.90274Zm-1.61719,3.0459c.08985-1.23926.74317-1.86524,1.71582-1.92481,1.19825-.07324,1.72168.63184,1.832,1.707Z" transform="translate(-19.22473 -141.99363)"/><polygon class="cls-4" points="178.828 144.179 177.631 144.252 178.267 154.432 179.466 154.358 178.828 144.179"/><path class="cls-4" d="M203.27539,289.00821a4.58965,4.58965,0,0,0-2.584.98535l.0791,1.28711a3.78839,3.78839,0,0,1,2.48437-1.14355c1.167-.07227,1.8711.38085,2.05371,1.40722l-2.82617.72852c-1.27148.334-1.93164,1.09472-1.87207,2.06836a2.02769,2.02769,0,0,0,2.28125,1.90429,3.04991,3.04991,0,0,0,2.51856-1.583l.28711,1.26074.89746-.05469-.09766-4.06543C206.44531,289.97208,205.3125,288.88321,203.27539,289.00821Zm-.18848,6.248a1.03277,1.03277,0,0,1-1.2041-1.00879c-.03418-.55371.24805-.85645,1.23828-1.11231l2.2627-.60449.01269.21A2.5248,2.5248,0,0,1,203.08691,295.25626Z" transform="translate(-19.22473 -141.99363)"/><polygon class="cls-4" points="194.572 153.435 193.934 143.255 192.738 143.328 193.374 153.508 194.572 153.435"/><path class="cls-4" d="M218.52246,295.28946a2.636,2.636,0,0,0,2.249-1.80566l.28614,1.5.89843-.05469-.42089-6.88672-1.19727.07324.21387,3.50293c.05371.86914-.51172,2.45117-1.9336,2.53809-1.01855.0625-1.39941-.51563-1.46484-1.57813l-.25977-4.252-1.19726.07324.27246,4.46094C216.07422,294.58243,217.02539,295.38028,218.52246,295.28946Z" transform="translate(-19.22473 -141.99363)"/><path class="cls-4" d="M233.082,290.11563l.25195,4.11719,1.19825-.07324-.25782-4.22168c-.12011-1.96094-.84375-2.72852-2.37207-2.65039a2.49137,2.49137,0,0,0-2.30175,2.16894,2.104,2.104,0,0,0-2.33985-1.915,2.38559,2.38559,0,0,0-2.0791,2.14063l-.35352-1.84082-.89746.05468.4209,6.88672,1.19727-.07324-.20313-3.32422c-.07031-1.15234.46778-2.6582,1.77149-2.73828.9873-.06055,1.47265.73731,1.53418,1.75586l.251,4.10156,1.19825-.07324-.21192-3.47363c-.06347-1.03321.39942-2.54981,1.749-2.58692C232.74805,288.33243,233.03027,289.26212,233.082,290.11563Z" transform="translate(-19.22473 -141.99363)"/><rect class="cls-4" x="236.71714" y="287.08333" width="1.1995" height="6.89957" transform="translate(-36.5063 -126.97534) rotate(-3.49742)"/><rect class="cls-4" x="236.30295" y="284.39381" width="1.34918" height="1.20048" transform="translate(-36.17098 -127.00452) rotate(-3.49784)"/><path class="cls-4" d="M245.917,292.81778l-.06543-1.06348a3.40337,3.40337,0,0,1-2.24609.874,2.0195,2.0195,0,0,1-2.28223-1.94922l4.68555-.28614c.166-2.20507-.73731-3.95312-3.11719-3.80761-2.0957.12793-3,1.80664-2.88672,3.66308.15039,2.45508,1.75391,3.61914,3.52051,3.51172A3.86776,3.86776,0,0,0,245.917,292.81778Zm-2.92676-5.11133c1.19727-.07324,1.72071.63184,1.83106,1.707l-3.54785.2168C241.36328,288.392,242.0166,287.766,242.99023,287.70645Z" transform="translate(-19.22473 -141.99363)"/><polygon class="cls-4" points="221.66 142.009 223.666 143.841 224.19 143.809 223.352 141.905 221.66 142.009"/><path class="cls-4" d="M251.707,287.24844l-.07324-1.18359a2.4661,2.4661,0,0,0-2.59766,1.7373l-.2832-1.4248-.89746.05566.4209,6.88672,1.19726-.07324-.21-3.44434C249.209,288.91934,249.22168,287.38516,251.707,287.24844Z" transform="translate(-19.22473 -141.99363)"/><path class="cls-4" d="M255.93164,285.78751c-2.0957.1289-3,1.80664-2.88672,3.66308.15039,2.45508,1.75391,3.62012,3.52051,3.51172a3.86776,3.86776,0,0,0,2.3916-.94238l-.06543-1.06348a3.4092,3.4092,0,0,1-2.24609.875,2.02061,2.02061,0,0,1-2.28223-1.94922l4.68555-.28711C259.21484,287.39,258.31152,285.642,255.93164,285.78751Zm-1.61816,3.04589c.08984-1.23925.74414-1.86523,1.71679-1.9248,1.19727-.07324,1.72071.63184,1.83106,1.708Z" transform="translate(-19.22473 -141.99363)"/><path class="cls-4" d="M58.69092,319.432a2.26764,2.26764,0,0,1,1.93457-2.52344,1.55166,1.55166,0,0,1,1.61816,1.64453l.25489,4.16211,1.19824-.07324-.27344-4.46094c-.10449-1.72168-1.05566-2.52051-2.55273-2.42871a2.65048,2.65048,0,0,0-2.39844,1.81445l-.28711-1.499-.89844.05469.4209,6.88574,1.19824-.07324Z" transform="translate(-19.22473 -141.99363)"/><path class="cls-4" d="M71.354,318.102c-.05273-1.83008-1.18652-2.918-3.22168-2.79395a4.59693,4.59693,0,0,0-2.585.98438l.07813,1.28808a3.7936,3.7936,0,0,1,2.48535-1.14355c1.168-.07129,1.87109.38086,2.05469,1.40723l-2.82617.72851c-1.27149.333-1.93067,1.09473-1.8711,2.06836a2.0259,2.0259,0,0,0,2.2793,1.9043,3.04844,3.04844,0,0,0,2.51855-1.583l.28711,1.25977.89844-.05469Zm-3.41113,3.4541a1.03194,1.03194,0,0,1-1.20312-1.00879c-.03418-.55371.248-.85644,1.23925-1.1123l2.26172-.6045.0127.21A2.5249,2.5249,0,0,1,67.94287,321.55606Z" transform="translate(-19.22473 -141.99363)"/><path class="cls-4" d="M72.67725,316.15762l1.31738-.08105.23144,3.78711c.084,1.36328.82813,2.23437,2.08594,2.15722a2.16754,2.16754,0,0,0,1.50977-.61816l-.05762-.94336a2.20884,2.20884,0,0,1-1.20605.43457c-.61329.03711-1.085-.29492-1.14649-1.3125l-.21875-3.57812,2.54492-.15528-.05957-.97265-2.54492.15527-.09277-1.51367-.7041.043a2.51541,2.51541,0,0,1-1.69727,1.96875Z" transform="translate(-19.22473 -141.99363)"/><path class="cls-4" d="M82.04639,321.67032a2.63569,2.63569,0,0,0,2.249-1.80567l.28711,1.5L85.48,321.309l-.4209-6.88574-1.19726.07324.21386,3.50293c.05274.86816-.51074,2.45117-1.93359,2.53809-1.01855.0625-1.39941-.51661-1.46387-1.57911l-.25976-4.251-1.19825.07324.27247,4.46094C79.59814,320.96329,80.54834,321.76212,82.04639,321.67032Z" transform="translate(-19.22473 -141.99363)"/><path class="cls-4" d="M91.23486,313.90958a2.46653,2.46653,0,0,0-2.59863,1.7373l-.2832-1.4248-.89844.05468.4209,6.88575,1.19824-.07325-.21-3.44336c-.05469-.88281-.043-2.416,2.44336-2.55273Z" transform="translate(-19.22473 -141.99363)"/><path class="cls-4" d="M96.16455,320.807a3.8705,3.8705,0,0,0,2.3916-.94239l-.06543-1.06347a3.40579,3.40579,0,0,1-2.24511.874A2.02041,2.02041,0,0,1,93.9624,317.726l4.68555-.28711c.166-2.20507-.73731-3.95215-3.11816-3.80664-2.09571.12793-3,1.80664-2.88575,3.66211C92.79346,319.7504,94.398,320.91544,96.16455,320.807Zm-.53613-6.05371c1.19824-.07325,1.72168.63086,1.833,1.70605l-3.54883.21777C94.00342,315.43887,94.65576,314.8129,95.62842,314.75333Z" transform="translate(-19.22473 -141.99363)"/><polygon class="cls-4" points="82.267 168.119 81.069 168.192 81.706 178.371 82.905 178.298 82.267 168.119"/><polygon class="cls-4" points="86.025 167.889 84.827 167.962 85.464 178.141 86.662 178.067 86.025 167.889"/><path class="cls-4" d="M110.65186,312.70743c-2.09571.12793-3,1.80664-2.88672,3.66211.15039,2.45605,1.7539,3.62011,3.52148,3.51269a3.8705,3.8705,0,0,0,2.3916-.94238l-.06543-1.06348a3.40045,3.40045,0,0,1-2.24609.873,2.01962,2.01962,0,0,1-2.2832-1.94824l4.68652-.28711C113.936,314.309,113.03271,312.56192,110.65186,312.70743Zm-1.61719,3.04492c.08984-1.23828.74219-1.86426,1.71582-1.92383,1.19824-.07324,1.72168.63086,1.832,1.70606Z" transform="translate(-19.22473 -141.99363)"/><path class="cls-4" d="M122.99365,319.16641c2.03614-.125,2.98242-1.85156,2.85449-3.94824-.15722-2.57422-1.55761-3.35937-2.92089-3.27637a2.8565,2.8565,0,0,0-2.57032,1.70508l-.249-1.36719-1.04785.06446.56738,9.28222,1.19824-.07324-.21875-3.57812A2.65984,2.65984,0,0,0,122.99365,319.16641Zm-2.45215-3.4873a2.36785,2.36785,0,0,1,2.13575-2.66992c1.31738-.08106,1.8916.95019,1.97265,2.26757.127,2.08106-.77636,2.78321-1.83984,2.84766C120.939,318.23868,120.59033,316.47305,120.5415,315.67911Z" transform="translate(-19.22473 -141.99363)"/><path class="cls-4" d="M130.97314,318.67813c1.78223-.10937,3.15723-1.71191,3.01954-3.958-.13379-2.18457-1.36231-3.35644-3.459-3.22851-1.97558.12109-3.18066,1.291-3.03808,3.626C127.62256,317.19864,129.05713,318.79532,130.97314,318.67813Zm-.37011-6.06348c1.4375-.08789,2.02148.627,2.11718,2.1836.0879,1.43847-.45312,2.67383-1.81542,2.75683-1.22754.0752-2.03809-.89746-2.13672-2.51464C128.67529,313.52872,129.13623,312.7045,130.603,312.61465Z" transform="translate(-19.22473 -141.99363)"/><path class="cls-4" d="M138.48975,318.21817a2.63568,2.63568,0,0,0,2.249-1.80566l.28711,1.5.89746-.05567-.4209-6.88574-1.19726.07324.21386,3.50293c.05274.86817-.51074,2.45117-1.93359,2.53809-1.01856.0625-1.39941-.5166-1.46387-1.5791l-.25976-4.251-1.19825.07324.27247,4.46094C136.0415,317.51114,136.9917,318.31,138.48975,318.21817Z" transform="translate(-19.22473 -141.99363)"/><path class="cls-4" d="M147.75049,311.641l-.07227-1.18359a2.46653,2.46653,0,0,0-2.59863,1.7373l-.2832-1.4248-.89844.05469.4209,6.88574,1.19824-.07324-.21-3.44336C145.25244,313.31094,145.26416,311.77774,147.75049,311.641Z" transform="translate(-19.22473 -141.99363)"/><path class="cls-4" d="M157.88379,314.92715c-.07227-1.19726-1.01367-1.58984-1.99024-1.83007l-.82324-.207c-1.18945-.28711-1.47558-.52442-1.50586-1.01954-.02636-.43457.44922-.76367,1.27344-.81347a4.99945,4.99945,0,0,1,2.49512.50879l-.06934-1.1377a5.45907,5.45907,0,0,0-2.44531-.42187c-1.30274.0791-2.46582.72265-2.38672,2.00976.06641,1.09278.84766,1.57031,2.05176,1.8584l.89941.21484c1.05274.251,1.34668.38379,1.37793.90723.042.67383-.68262,1.10938-1.55176,1.16211a3.936,3.936,0,0,1-2.44531-.67676l.07227,1.167a4.314,4.314,0,0,0,2.51172.53809C156.665,317.10684,157.97168,316.36465,157.88379,314.92715Z" transform="translate(-19.22473 -141.99363)"/><path class="cls-4" d="M162.75879,316.7338c1.78125-.1084,3.15625-1.71094,3.01855-3.957-.13379-2.18457-1.3623-3.35742-3.458-3.22949-1.97754.1211-3.18262,1.292-3.04,3.62695C159.40723,315.25528,160.8418,316.851,162.75879,316.7338Zm-.37109-6.06348c1.43652-.08789,2.02148.627,2.11621,2.18359.08789,1.43848-.45313,2.67383-1.81446,2.75684-1.22851.07519-2.03906-.89746-2.13769-2.51465C160.459,311.58438,160.9209,310.76016,162.3877,310.67032Z" transform="translate(-19.22473 -141.99363)"/><path class="cls-4" d="M173.28613,309.02774l-1.19726.07324.21386,3.50293c.05372.86817-.51171,2.4502-1.93359,2.53711-1.01855.0625-1.39844-.51562-1.46387-1.57812l-.25976-4.251-1.19824.07324.27246,4.46094c.10547,1.72168,1.05664,2.51953,2.55371,2.42871a2.6358,2.6358,0,0,0,2.249-1.80664l.28711,1.5.89746-.05469Z" transform="translate(-19.22473 -141.99363)"/><polygon class="cls-4" points="158.092 173.699 157.454 163.52 156.257 163.594 156.893 173.772 158.092 173.699"/><rect class="cls-4" x="179.64976" y="308.60774" width="1.1995" height="6.89859" transform="translate(-37.92821 -130.41485) rotate(-3.49791)"/><rect class="cls-4" x="179.23557" y="305.91822" width="1.35015" height="1.1995" transform="translate(-37.5155 -130.49651) rotate(-3.48327)"/><path class="cls-4" d="M186.27637,317.71524c1.87207-.11523,3.377-.80762,3.29687-2.126-.06738-1.09277-1.34375-1.55566-2.7207-1.47168a4.99255,4.99255,0,0,0-1.02539.1836,4.35647,4.35647,0,0,0,.60644-.89356,2.68023,2.68023,0,0,0,2.27442-2.62011,2.01159,2.01159,0,0,0-1.10059-1.76465l1.70606-.376-.03711-.59766-3.27832.20118c-1.55664.09472-3.28907.77148-3.16993,2.71777a2.726,2.726,0,0,0,2.52637,2.49023,5.2788,5.2788,0,0,1-1.41113,1.499l.40234.667a6.48476,6.48476,0,0,1,2.27442-.63477c1.00293-.06152,1.86718.04981,1.90527.66309.04.65918-.98047.93262-2.31348,1.01465a6.20507,6.20507,0,0,1-3.23632-.56934l.06347,1.03321A5.86413,5.86413,0,0,0,186.27637,317.71524Zm-2.17578-6.81055c-.05469-.89843.32031-1.417,1.60644-1.49609,1.28809-.07813,1.69238.39258,1.74707,1.291a1.50781,1.50781,0,0,1-1.55957,1.76367A1.53187,1.53187,0,0,1,184.10059,310.90469Z" transform="translate(-19.22473 -141.99363)"/><path class="cls-4" d="M194.6582,307.56973a2.64941,2.64941,0,0,0-2.39843,1.81446l-.28809-1.499-.89746.05469.4209,6.88574,1.19726-.07324-.21386-3.50293a2.267,2.267,0,0,1,1.93457-2.52246,1.55179,1.55179,0,0,1,1.61914,1.64355l.2539,4.16211,1.19629-.07324-.27246-4.46094C197.10449,308.27676,196.15527,307.47794,194.6582,307.56973Z" transform="translate(-19.22473 -141.99363)"/><path class="cls-4" d="M202.09863,307.11465c-2.0957.12793-3,1.80665-2.88672,3.66211.15039,2.45606,1.75391,3.62012,3.52051,3.5127a3.86776,3.86776,0,0,0,2.3916-.94238l-.06543-1.06348a3.40241,3.40241,0,0,1-2.24609.87305,2.01894,2.01894,0,0,1-2.28223-1.94922l4.68555-.28613C205.38184,308.71622,204.47852,306.96915,202.09863,307.11465Zm-1.61816,3.04395c.09082-1.2373.74414-1.86328,1.7168-1.92285,1.19726-.07324,1.7207.63086,1.83105,1.70605Z" transform="translate(-19.22473 -141.99363)"/><path class="cls-4" d="M208.24414,308.33145l-.28223-1.4248-.89843.05468.4209,6.88575,1.19726-.07325-.21-3.44336c-.05469-.88281-.042-2.416,2.44336-2.55273l-.07227-1.18359A2.46653,2.46653,0,0,0,208.24414,308.33145Z" transform="translate(-19.22473 -141.99363)"/><path class="cls-4" d="M221.22949,311.80508l.26758,1.18555.92871-.05664-.62207-10.17969-1.19824.07325.27832,4.55078a2.86705,2.86705,0,0,0-2.69141-1.2627c-1.3623.083-2.65722,1.03418-2.5,3.6084.12891,2.09668,1.27832,3.69434,3.31446,3.56934A2.63513,2.63513,0,0,0,221.22949,311.80508Zm-2.17187.3584c-1.06348.06543-1.96582-.45117-2.09375-2.53222-.08008-1.31739.29394-2.33106,1.61035-2.41211a2.30432,2.30432,0,0,1,2.4414,2.31543A2.18237,2.18237,0,0,1,219.05762,312.16348Z" transform="translate(-19.22473 -141.99363)"/><path class="cls-4" d="M227.19141,305.5795c-2.09571.1289-3,1.80664-2.88672,3.66211.15039,2.45605,1.7539,3.62109,3.52051,3.51269a3.86776,3.86776,0,0,0,2.3916-.94238l-.06543-1.06348a3.40332,3.40332,0,0,1-2.2461.874,2.02006,2.02006,0,0,1-2.28222-1.94922l4.68554-.28711C230.47461,307.182,229.57129,305.434,227.19141,305.5795Zm-1.61817,3.04492c.09082-1.2373.74414-1.86426,1.7168-1.92383,1.19726-.07324,1.7207.63086,1.83105,1.707Z" transform="translate(-19.22473 -141.99363)"/><path class="cls-4" d="M237.26367,310.07266c-.07324-1.19726-1.01367-1.59082-1.98926-1.83105l-.82421-.20606c-1.19043-.28711-1.47559-.52441-1.50586-1.01953-.02637-.43457.44921-.76367,1.27246-.81445a5.01815,5.01815,0,0,1,2.49707.50976l-.07032-1.13769a5.44015,5.44015,0,0,0-2.44531-.42285c-1.30176.08008-2.46582.72265-2.38672,2.00976.06641,1.09278.84766,1.57032,2.05176,1.8584l.90039.21582c1.05176.25,1.34571.38281,1.377.90625.042.67383-.68261,1.10938-1.55175,1.16309a3.9423,3.9423,0,0,1-2.44532-.67676l.07227,1.167a4.3341,4.3341,0,0,0,2.51172.53809C236.0459,312.25137,237.35254,311.51016,237.26367,310.07266Z" transform="translate(-19.22473 -141.99363)"/><path class="cls-4" d="M63.67334,339.474l.26855,1.18652.92774-.05761-.62305-10.17969-1.19726.07324.27832,4.55078a2.8654,2.8654,0,0,0-2.69141-1.26172c-1.36328.083-2.65723,1.03321-2.5,3.60742.12891,2.09668,1.27832,3.69532,3.31445,3.57032A2.6377,2.6377,0,0,0,63.67334,339.474Zm-4.26465-2.17285c-.081-1.31738.293-2.333,1.61035-2.41309a2.30349,2.30349,0,0,1,2.44043,2.31543,2.18331,2.18331,0,0,1-1.958,2.62988C60.438,339.89786,59.53564,339.38223,59.40869,337.30118Z" transform="translate(-19.22473 -141.99363)"/><polygon class="cls-4" points="49.93 190.533 50.454 190.501 52.221 188.439 50.53 188.543 49.93 190.533"/><path class="cls-4" d="M72.66064,339.48087l-.06445-1.06348a3.40329,3.40329,0,0,1-2.24609.874,2.01977,2.01977,0,0,1-2.28321-1.94922l4.68555-.28613c.166-2.20508-.7373-3.95215-3.11816-3.80664-2.09571.12793-2.999,1.80566-2.88574,3.66211.15039,2.45508,1.7539,3.62012,3.5205,3.51269A3.86424,3.86424,0,0,0,72.66064,339.48087Zm-2.92675-5.11133c1.19726-.07324,1.72168.63183,1.832,1.707l-3.54785.21777C68.10791,335.05508,68.76025,334.42911,69.73389,334.36954Z" transform="translate(-19.22473 -141.99363)"/><path class="cls-4" d="M78.84619,339.37344l-.05859-.94336a2.20349,2.20349,0,0,1-1.20508.43457c-.61426.03711-1.08594-.29492-1.14746-1.3125l-.21875-3.5791,2.5459-.15527-.05957-.97266-2.5459.15528-.09278-1.5127-.70312.043a2.51647,2.51647,0,0,1-1.69824,1.96875l.03906.62793,1.31738-.08105.23145,3.78808c.083,1.36328.82715,2.23438,2.085,2.15723A2.17,2.17,0,0,0,78.84619,339.37344Z" transform="translate(-19.22473 -141.99363)"/><path class="cls-4" d="M80.26514,337.769a2.02679,2.02679,0,0,0,2.28027,1.9043,3.0513,3.0513,0,0,0,2.51855-1.582l.28711,1.25976.89747-.05566-.09766-4.06543c-.05176-1.83106-1.18555-2.918-3.2207-2.79395a4.607,4.607,0,0,0-2.585.98438l.07813,1.28808a3.78938,3.78938,0,0,1,2.48535-1.14453c1.167-.07129,1.87207.38184,2.05469,1.40821l-2.82617.72754C80.86475,336.0336,80.20557,336.79532,80.26514,337.769Zm4.77343-1.81055.0127.209a2.52663,2.52663,0,0,1-2.31055,2.5166,1.03327,1.03327,0,0,1-1.2041-1.00879c-.0332-.55371.24805-.85644,1.23926-1.11133Z" transform="translate(-19.22473 -141.99363)"/><rect class="cls-4" x="88.16962" y="329.52027" width="1.35021" height="1.20048" transform="translate(-39.35172 -135.90722) rotate(-3.52464)"/><rect class="cls-4" x="88.58384" y="332.21028" width="1.1995" height="6.89957" transform="translate(-39.53509 -135.92796) rotate(-3.49742)"/><polygon class="cls-4" points="73.328 196.917 74.526 196.844 73.889 186.665 72.691 186.738 73.328 196.917"/><path class="cls-4" d="M98.30811,337.67227a3.9395,3.9395,0,0,1-2.44629-.67773l.07129,1.168a4.32666,4.32666,0,0,0,2.51269.53808c1.31738-.08008,2.625-.82226,2.53711-2.25976-.07324-1.19727-1.01465-1.59082-1.99023-1.83106l-.82422-.20605c-1.19043-.28711-1.47559-.52539-1.50586-1.01953-.02637-.43457.45019-.76368,1.27246-.81348a5.01109,5.01109,0,0,1,2.49609.50781l-.06933-1.13769a5.44364,5.44364,0,0,0-2.44532-.4209c-1.30273.0791-2.46484.7207-2.38574,2.00879.06641,1.09277.84668,1.57031,2.05078,1.85742l.90039.2168c1.05176.25,1.34571.38378,1.37793.90722C99.90088,337.184,99.17627,337.61856,98.30811,337.67227Z" transform="translate(-19.22473 -141.99363)"/><path class="cls-4" d="M111.522,337.2543l-.0664-1.09277a3.51314,3.51314,0,0,1-2.0586.75684c-1.18261.07226-2.19238-.72168-2.30273-2.51954-.0918-1.51171.44238-2.35546,1.71484-2.43359a4.42663,4.42663,0,0,1,2.502.61328l-.06836-1.12305a4.35865,4.35865,0,0,0-2.501-.59765c-1.79688.10937-3.0625,1.2832-2.91992,3.61914.12793,2.08105,1.42773,3.68555,3.59863,3.55273A3.64155,3.64155,0,0,0,111.522,337.2543Z" transform="translate(-19.22473 -141.99363)"/><path class="cls-4" d="M119.4751,333.642c-.13281-2.18555-1.36133-3.35742-3.458-3.22949-1.97559.12109-3.18164,1.291-3.03906,3.627.12793,2.08105,1.5625,3.67676,3.47851,3.55957C118.23877,337.49063,119.61279,335.88809,119.4751,333.642Zm-3.08692,2.834c-1.22754.0752-2.03808-.89746-2.13769-2.51465-.0918-1.51171.36914-2.33691,1.83594-2.42675,1.4375-.08789,2.02148.62793,2.11621,2.18457C118.2915,335.15665,117.75049,336.393,116.38818,336.476Z" transform="translate(-19.22473 -141.99363)"/><path class="cls-4" d="M129.07959,330.70938c1.11035-.03711,1.3916.89356,1.44434,1.74609l.251,4.11719,1.19824-.07324-.25781-4.22168c-.12012-1.96094-.84277-2.72949-2.37109-2.64941a2.49047,2.49047,0,0,0-2.30176,2.16894,2.10529,2.10529,0,0,0-2.3418-1.916,2.3874,2.3874,0,0,0-2.07812,2.14062l-.35254-1.8418-.89844.05469.4209,6.88672,1.19824-.07324-.20312-3.32422c-.07031-1.15137.46777-2.6582,1.77051-2.73828.98828-.05957,1.47265.7373,1.53515,1.75586l.251,4.10156,1.19726-.07324-.21289-3.47266C127.26611,332.26407,127.729,330.74844,129.07959,330.70938Z" transform="translate(-19.22473 -141.99363)"/><path class="cls-4" d="M141.65576,329.94083c1.11035-.03809,1.39258.89257,1.44434,1.74511l.25195,4.11719,1.19727-.07324-.25782-4.22168c-.12011-1.96094-.84277-2.72949-2.37109-2.64941a2.49132,2.49132,0,0,0-2.30176,2.16894,2.103,2.103,0,0,0-2.34082-1.915,2.38454,2.38454,0,0,0-2.07812,2.13965l-.35352-1.8418-.89844.05567.4209,6.88672,1.19824-.07325-.20312-3.32422c-.07031-1.15136.46875-2.65917,1.77051-2.73828.98926-.06054,1.47363.73731,1.53613,1.75586l.25,4.10157,1.19727-.07325-.21192-3.47265C139.84229,331.49551,140.30615,329.97891,141.65576,329.94083Z" transform="translate(-19.22473 -141.99363)"/><path class="cls-4" d="M152.19043,334.61661l-.06445-1.06348a3.4092,3.4092,0,0,1-2.2461.875,2.01974,2.01974,0,0,1-2.28271-1.94922l4.686-.28711c.165-2.20508-.73828-3.95215-3.11816-3.80664-2.09619.12793-2.99951,1.80567-2.88623,3.66211.15039,2.45508,1.7539,3.6211,3.519,3.5127A3.86778,3.86778,0,0,0,152.19043,334.61661Zm-2.92773-5.11133c1.19824-.07324,1.72265.63184,1.833,1.707l-3.54736.21777C147.63721,330.19083,148.29053,329.56485,149.2627,329.50528Z" transform="translate(-19.22473 -141.99363)"/><path class="cls-4" d="M162.23633,324.43008l.27832,4.55079a2.8644,2.8644,0,0,0-2.69141-1.26172c-1.3623.083-2.65625,1.0332-2.499,3.60742.1289,2.09668,1.27832,3.69531,3.31445,3.57031a2.6391,2.6391,0,0,0,2.22266-1.48926l.26758,1.18555.92871-.05664-.623-10.17969Zm-1.54688,9.33692c-1.06347.06445-1.96679-.45117-2.09375-2.53223-.08008-1.31738.29395-2.333,1.61035-2.41308a2.30292,2.30292,0,0,1,2.44043,2.31543A2.18321,2.18321,0,0,1,160.68945,333.767Z" transform="translate(-19.22473 -141.99363)"/><path class="cls-4" d="M168.82227,327.183c-2.09571.12793-3,1.80567-2.88672,3.66211.15039,2.45508,1.7539,3.62012,3.52148,3.5127a3.85535,3.85535,0,0,0,2.39063-.94336l-.06446-1.06348a3.40143,3.40143,0,0,1-2.24609.874,2.01894,2.01894,0,0,1-2.28223-1.94922l4.68555-.28614C172.10547,328.78458,171.20312,327.03751,168.82227,327.183Zm-1.61622,3.04493c.08985-1.23926.74219-1.86524,1.71485-1.92481,1.19824-.07324,1.72168.63184,1.833,1.707Z" transform="translate(-19.22473 -141.99363)"/><path class="cls-4" d="M176.90527,329.84512l-.82324-.207c-1.19043-.28613-1.47558-.52539-1.50586-1.01953-.02637-.43457.44922-.76269,1.27246-.81348a5.02187,5.02187,0,0,1,2.4961.50782l-.07032-1.1377a5.46373,5.46373,0,0,0-2.44433-.4209c-1.30176.08008-2.46582.72168-2.38672,2.00977.06641,1.09277.84668,1.57031,2.05176,1.85742l.89941.21582c1.05176.251,1.34668.38379,1.37891.90723.041.67383-.68457,1.10937-1.55274,1.16211a3.93026,3.93026,0,0,1-2.44433-.67774l.07129,1.168a4.32242,4.32242,0,0,0,2.51172.53906c1.31738-.08105,2.625-.82226,2.5371-2.25976C178.82324,330.47891,177.88086,330.08536,176.90527,329.84512Z" transform="translate(-19.22473 -141.99363)"/><path class="cls-4" d="M188.40039,326.13516l.21484,3.50391c.05274.86816-.51171,2.45117-1.93359,2.53808-1.01953.0625-1.39941-.5166-1.46484-1.5791l-.25977-4.252-1.19824.07324.27344,4.46192c.10449,1.7207,1.05566,2.5205,2.55273,2.42871a2.63476,2.63476,0,0,0,2.249-1.80567l.28614,1.5.89843-.05566-.42089-6.88672Z" transform="translate(-19.22473 -141.99363)"/><path class="cls-4" d="M195.11035,328.73184l-.82324-.207c-1.19043-.28711-1.47559-.52539-1.50586-1.01953-.02637-.43457.44922-.76367,1.27246-.81348a5.01707,5.01707,0,0,1,2.49707.50782l-.07031-1.1377a5.47059,5.47059,0,0,0-2.44531-.4209c-1.30176.08008-2.46582.72168-2.38672,2.00977.0664,1.09277.84765,1.57031,2.05176,1.85742l.90039.21582c1.05175.251,1.3457.38379,1.37793.90723.041.67382-.68457,1.10937-1.55274,1.16211a3.93026,3.93026,0,0,1-2.44433-.67774l.07128,1.168a4.31854,4.31854,0,0,0,2.51172.53809c1.31739-.08008,2.625-.82227,2.53711-2.25977C197.02832,329.36465,196.08691,328.97208,195.11035,328.73184Z" transform="translate(-19.22473 -141.99363)"/><path class="cls-4" d="M203.16211,325.23282l.21484,3.5039c.05274.86817-.51172,2.4502-1.93359,2.53711-1.01953.0625-1.40039-.51562-1.46582-1.57812l-.25977-4.252-1.19726.07324.27344,4.46191c.10449,1.72071,1.05566,2.51953,2.55273,2.42871a2.637,2.637,0,0,0,2.249-1.80664l.28614,1.5.89746-.05468-.4209-6.88672Z" transform="translate(-19.22473 -141.99363)"/><path class="cls-4" d="M207.93652,326.38321l-.2832-1.42481-.89746.05469.4209,6.88672,1.19726-.07324-.21-3.44336c-.05468-.88379-.043-2.418,2.44336-2.55371l-.07226-1.18262A2.4641,2.4641,0,0,0,207.93652,326.38321Z" transform="translate(-19.22473 -141.99363)"/><path class="cls-4" d="M214.83008,324.36954c-2.0957.12793-3,1.80566-2.88672,3.66211.15039,2.45507,1.75391,3.62011,3.52148,3.51172a3.86162,3.86162,0,0,0,2.39063-.94239l-.06445-1.06347a3.40145,3.40145,0,0,1-2.2461.874,2.01949,2.01949,0,0,1-2.28222-1.94922l4.68554-.28613C218.11328,325.9711,217.21094,324.224,214.83008,324.36954Zm-1.61621,3.04394c.08984-1.23828.74218-1.86426,1.71484-1.92383,1.19824-.07324,1.72168.63184,1.833,1.707Z" transform="translate(-19.22473 -141.99363)"/><path class="cls-4" d="M222.91309,327.03067l-.82325-.20605c-1.19043-.28711-1.47558-.5254-1.50586-1.01954-.02636-.43457.44922-.76367,1.27247-.81347a5.01109,5.01109,0,0,1,2.49609.50781l-.07031-1.1377a5.45282,5.45282,0,0,0-2.44434-.42089c-1.30273.0791-2.46582.7207-2.38672,2.00879.06641,1.09277.84668,1.57031,2.05176,1.85742l.89941.21679c1.05176.25,1.34668.38379,1.37891.90723.041.67383-.68457,1.1084-1.55273,1.16211a3.9302,3.9302,0,0,1-2.44434-.67773l.07129,1.168a4.31613,4.31613,0,0,0,2.51172.53809c1.31738-.08008,2.625-.82227,2.53711-2.25977C224.83105,327.66446,223.88867,327.2709,222.91309,327.03067Z" transform="translate(-19.22473 -141.99363)"/><path class="cls-4" d="M226.58691,329.36075l.082,1.34668.76367-.04688a5.23151,5.23151,0,0,1-.6709,1.5586l.98047.542a5.99685,5.99685,0,0,0,.5664-3.50586Z" transform="translate(-19.22473 -141.99363)"/><path class="cls-4" d="M238.47363,319.768l.27832,4.55079a2.867,2.867,0,0,0-2.6914-1.2627c-1.36328.083-2.65723,1.03418-2.5,3.6084.1289,2.09668,1.27832,3.69434,3.31445,3.56934a2.63587,2.63587,0,0,0,2.22266-1.48926l.26757,1.18652.92774-.05664-.62207-10.17969Zm-1.54785,9.33594c-1.0625.06543-1.96582-.45117-2.09277-2.53222-.08106-1.31739.293-2.332,1.60937-2.41309a2.30509,2.30509,0,0,1,2.44141,2.31641A2.18274,2.18274,0,0,1,236.92578,329.10391Z" transform="translate(-19.22473 -141.99363)"/><path class="cls-4" d="M245.05859,322.51993c-2.0957.1289-3.001,1.80664-2.88769,3.66308.15039,2.45508,1.75488,3.62012,3.52148,3.51172a3.86144,3.86144,0,0,0,2.3916-.94336l-.06445-1.06347a3.40326,3.40326,0,0,1-2.24609.875,2.0209,2.0209,0,0,1-2.28321-1.94922l4.68555-.28711C248.34082,324.12247,247.43848,322.37442,245.05859,322.51993Zm-1.61718,3.04492c.08984-1.23828.74218-1.86426,1.71484-1.92383,1.19824-.07324,1.72168.63184,1.833,1.707Z" transform="translate(-19.22473 -141.99363)"/><path class="cls-4" d="M253.14062,325.182l-.82324-.20606c-1.19043-.28711-1.47558-.52539-1.50586-1.01953-.02636-.43457.44922-.76367,1.27246-.81445a5.02816,5.02816,0,0,1,2.49707.50879l-.07031-1.1377a5.44387,5.44387,0,0,0-2.44531-.4209c-1.30176.07911-2.46582.72071-2.38672,2.00879.06641,1.09278.84668,1.57032,2.05176,1.85742l.90039.2168c1.05176.25,1.3457.38281,1.37793.90625.041.67383-.68457,1.10938-1.55274,1.16309a3.93646,3.93646,0,0,1-2.44433-.67774l.07129,1.168a4.31621,4.31621,0,0,0,2.51172.53809c1.31738-.08106,2.625-.82227,2.53711-2.25977C255.05859,325.81583,254.11719,325.42227,253.14062,325.182Z" transform="translate(-19.22473 -141.99363)"/><path class="cls-4" d="M63.35107,351.65274a2.85309,2.85309,0,0,0-2.56933,1.7041l-.25-1.36621-1.04785.06348.56836,9.28125,1.19824-.07324-.21875-3.57715a2.65525,2.65525,0,0,0,2.38574,1.19238c2.03613-.124,2.98242-1.85059,2.85449-3.94727C66.11475,352.35587,64.71436,351.56876,63.35107,351.65274Zm-.11718,6.18359c-1.8711.11426-2.21973-1.65234-2.26856-2.44628a2.36881,2.36881,0,0,1,2.13672-2.6709c1.31738-.08008,1.8916.95117,1.97168,2.26953C65.20068,357.06973,64.29736,357.7709,63.23389,357.83633Z" transform="translate(-19.22473 -141.99363)"/><path class="cls-4" d="M71.82666,351.14883A2.58275,2.58275,0,0,0,69.52,352.74747l-.28125-4.59571-1.19727.07325.62305,10.18066,1.19727-.07324L69.647,354.8295a2.28026,2.28026,0,0,1,1.9336-2.53809,1.49109,1.49109,0,0,1,1.61425,1.56934l.25977,4.252,1.19824-.07324-.27344-4.46191C74.27393,351.85684,73.32373,351.057,71.82666,351.14883Z" transform="translate(-19.22473 -141.99363)"/><path class="cls-4" d="M79.4165,350.685c-1.97558.12011-3.18164,1.291-3.03808,3.62695.12695,2.08105,1.56152,3.67773,3.47754,3.56055,1.78222-.10938,3.15722-1.71289,3.01953-3.958C82.7417,351.72891,81.51318,350.55606,79.4165,350.685Zm.3711,6.06445c-1.22656.07422-2.03809-.89844-2.13672-2.51562-.09277-1.51172.36816-2.33692,1.835-2.42579,1.4375-.08886,2.02148.62793,2.11719,2.18457C81.69092,355.43008,81.15088,356.66544,79.7876,356.74942Z" transform="translate(-19.22473 -141.99363)"/><path class="cls-4" d="M87.75439,356.27676c-.61425.03711-1.085-.29589-1.14746-1.31347l-.21875-3.57813,2.54493-.15527-.05957-.97266-2.54493.15528-.09277-1.5127-.70313.043a2.51356,2.51356,0,0,1-1.69824,1.96777l.03809.62891,1.31738-.08106.23145,3.78809c.084,1.36231.82812,2.23438,2.08593,2.15723a2.16759,2.16759,0,0,0,1.50977-.61817l-.05762-.94433A2.20031,2.20031,0,0,1,87.75439,356.27676Z" transform="translate(-19.22473 -141.99363)"/><path class="cls-4" d="M93.28174,349.83633c-1.97656.1211-3.18262,1.292-3.03906,3.62793.127,2.08106,1.56152,3.67676,3.47851,3.55957,1.78125-.10839,3.15625-1.71191,3.01856-3.957C96.606,350.88126,95.37744,349.7084,93.28174,349.83633Zm.37109,6.06446c-1.22754.07519-2.03906-.89746-2.13769-2.51465-.09278-1.51172.36816-2.33692,1.835-2.42676,1.43652-.08789,2.02148.62793,2.11719,2.18457C95.55518,354.58145,95.01514,355.81778,93.65283,355.90079Z" transform="translate(-19.22473 -141.99363)"/><path class="cls-4" d="M101.75244,352.475l-.82422-.20606c-1.18945-.28808-1.47461-.52539-1.50488-1.01953-.02637-.43457.44922-.76465,1.27344-.81445a5.01,5.01,0,0,1,2.49511.50879l-.06933-1.1377a5.4701,5.4701,0,0,0-2.44531-.42187c-1.30274.08007-2.46485.72265-2.38672,2.01074.06738,1.09277.84668,1.57031,2.05176,1.85742l.90039.21484c1.05175.252,1.3457.38477,1.37793.90821.041.67285-.6836,1.1084-1.55176,1.16113a3.93886,3.93886,0,0,1-2.44629-.67676l.07129,1.168a4.3323,4.3323,0,0,0,2.51269.53809c1.31739-.08008,2.625-.82227,2.53711-2.25977C103.67041,353.1088,102.73,352.71622,101.75244,352.475Z" transform="translate(-19.22473 -141.99363)"/><path class="cls-4" d="M111.29248,348.73477a4.593,4.593,0,0,0-2.585.98535l.0791,1.28711a3.78849,3.78849,0,0,1,2.48438-1.14355c1.168-.07129,1.87207.38086,2.05468,1.40722l-2.82519.72852c-1.27246.334-1.93262,1.09473-1.873,2.06836a2.02748,2.02748,0,0,0,2.28027,1.90527,3.049,3.049,0,0,0,2.51856-1.583l.28711,1.25976.89844-.05469-.09864-4.06543C114.46143,349.69864,113.32764,348.61075,111.29248,348.73477Zm-.18945,6.248a1.032,1.032,0,0,1-1.20313-1.00879c-.03418-.55371.24707-.85645,1.23926-1.11133l2.26172-.60547.01269.21A2.52489,2.52489,0,0,1,111.103,354.98282Z" transform="translate(-19.22473 -141.99363)"/><path class="cls-4" d="M121.15283,348.28262l.21387,3.50293c.05371.86914-.51074,2.45117-1.93359,2.53907-1.01758.06152-1.39844-.51661-1.46387-1.57911l-.25977-4.252-1.19824.07324.27344,4.46094c.10547,1.72168,1.05566,2.52148,2.55273,2.42969a2.63478,2.63478,0,0,0,2.249-1.80567l.28711,1.499.89843-.05469-.4209-6.88672Z" transform="translate(-19.22473 -141.99363)"/><path class="cls-4" d="M136.16162,347.24454a2.49224,2.49224,0,0,0-2.30176,2.16894,2.10511,2.10511,0,0,0-2.34082-1.916,2.38648,2.38648,0,0,0-2.07812,2.14062l-.35352-1.84082-.89844.05567.42188,6.88671,1.19824-.07421-.2041-3.32422c-.07031-1.15235.46875-2.65821,1.77051-2.73731.98926-.06054,1.47363.73633,1.53613,1.75489l.251,4.10156,1.19726-.07324-.21289-3.47364c-.06347-1.0332.40039-2.54883,1.75-2.58691,1.11035-.03711,1.39258.89258,1.44434,1.74609l.25195,4.11719,1.19824-.07324-.25879-4.22168C138.4126,347.934,137.68994,347.16544,136.16162,347.24454Z" transform="translate(-19.22473 -141.99363)"/><path class="cls-4" d="M145.18213,346.8129l.21484,3.50293c.05274.86914-.51074,2.45214-1.93359,2.53906-1.01856.06152-1.39844-.5166-1.46387-1.5791l-.25976-4.252-1.19825.07325.27246,4.46093c.10547,1.72168,1.05567,2.52149,2.55274,2.42969a2.63477,2.63477,0,0,0,2.249-1.80566l.28809,1.499.89844-.05469-.42188-6.88672Z" transform="translate(-19.22473 -141.99363)"/><path class="cls-4" d="M149.95605,347.96329l-.28222-1.42481-.898.05469.42139,6.88672,1.19726-.07324-.21094-3.44434c-.05371-.88281-.043-2.416,2.44336-2.55273l-.07226-1.1836A2.46878,2.46878,0,0,0,149.95605,347.96329Z" transform="translate(-19.22473 -141.99363)"/><path class="cls-4" d="M157.32812,349.07559l-.82421-.20508c-1.18946-.28808-1.47559-.52539-1.50586-1.01953-.02637-.43457.45019-.76465,1.27343-.81543a5.02444,5.02444,0,0,1,2.4961.50879l-.06934-1.13769a5.47448,5.47448,0,0,0-2.44629-.42188c-1.30175.08008-2.46484.72266-2.38574,2.01074.06641,1.09278.84668,1.57032,2.05078,1.85743l.90039.21582c1.05176.251,1.34571.38379,1.37793.90722.041.67285-.68359,1.1084-1.55176,1.16114a3.928,3.928,0,0,1-2.44531-.67676l.07129,1.168a4.33265,4.33265,0,0,0,2.51172.53906c1.31836-.08106,2.625-.82227,2.53711-2.25977C159.24512,349.71036,158.30469,349.3168,157.32812,349.07559Z" transform="translate(-19.22473 -141.99363)"/><rect class="cls-4" x="167.83888" y="350.94053" width="1.5742" height="1.35021" transform="translate(-40.52228 -130.96179) rotate(-3.52464)"/><rect class="cls-4" x="164.51466" y="351.14365" width="1.5742" height="1.35021" transform="translate(-40.54106 -131.16578) rotate(-3.52464)"/><rect class="cls-4" x="161.19142" y="351.34678" width="1.57518" height="1.35021" transform="translate(-40.55983 -131.36967) rotate(-3.52464)"/></svg>